<svg width="150" height="151" viewBox="0 0 150 151" fill="none" xmlns="http://www.w3.org/2000/svg">
<path d="M23.1589 36.5614C23.1589 36.5614 96.3589 26.5114 127.289 36.8014C127.289 36.8014 133.079 98.9314 127.529 123.561C127.529 123.561 54.8389 133.131 22.9189 123.321C22.9189 123.351 16.3789 52.6714 23.1589 36.5614Z" fill="white"/>
<path d="M23.1296 37.1617C23.7896 37.0717 24.4496 36.9817 25.1096 36.8917C26.9396 36.6517 28.7696 36.4417 30.5996 36.2317C33.3896 35.9017 36.2096 35.6017 38.9996 35.3317C42.5396 34.9717 46.0796 34.6717 49.6196 34.3717C53.6996 34.0417 57.8096 33.7417 61.8896 33.5017C66.2696 33.2317 70.6796 33.0517 75.0596 32.9017C79.5896 32.7817 84.0896 32.7217 88.6196 32.7517C92.9996 32.7817 97.3796 32.9317 101.73 33.2017C105.84 33.4717 109.95 33.8617 114 34.4617C117.57 34.9417 121.08 35.6917 124.53 36.6217C125.31 36.8317 126.06 37.0717 126.84 37.3417L126.51 36.8617C126.69 38.9917 126.87 41.1217 127.05 43.2517C127.47 48.6217 127.83 54.0217 128.13 59.4217C128.55 66.5317 128.85 73.6417 129.03 80.7817C129.21 88.2217 129.24 95.6617 128.94 103.132C128.7 109.372 128.31 115.672 127.14 121.822C127.02 122.422 126.9 123.052 126.75 123.652L127.53 123.022C126.87 123.112 126.21 123.172 125.58 123.262C123.75 123.472 121.92 123.682 120.09 123.892C117.3 124.192 114.51 124.492 111.72 124.732C108.18 125.062 104.64 125.362 101.1 125.632C97.0196 125.932 92.9396 126.232 88.8596 126.442C84.4496 126.682 80.0396 126.862 75.6296 127.012C71.0996 127.132 66.5696 127.192 62.0396 127.162C57.6296 127.132 53.1896 126.982 48.7796 126.712C44.6396 126.442 40.4996 126.082 36.3596 125.512C32.7296 125.032 29.1296 124.342 25.5596 123.442C24.7796 123.232 23.9996 123.022 23.2196 122.782L23.5496 123.262C23.3396 120.862 23.1296 118.492 22.9496 116.092C22.4996 110.212 22.0796 104.332 21.7496 98.4517C21.2996 90.8917 20.9696 83.3017 20.8196 75.7417C20.6696 68.4217 20.6396 61.0717 21.0596 53.7217C21.2396 50.6917 21.4796 47.6617 21.8696 44.6617C22.1396 42.3817 22.6196 40.1017 23.3096 37.9117C23.4596 37.4917 23.6096 37.0717 23.7596 36.6817C24.0896 35.8717 22.6196 35.8417 22.3496 36.5017C21.5096 38.5117 21.0596 40.6417 20.6996 42.7717C20.2196 45.5917 19.9196 48.4417 19.7396 51.2917C19.2296 58.4917 19.1996 65.7217 19.2896 72.9217C19.4096 80.5717 19.7096 88.2217 20.1296 95.8717C20.4596 102.082 20.8796 108.322 21.3596 114.532C21.5696 117.442 21.8096 120.352 22.0796 123.262C22.0796 123.292 22.0796 123.352 22.0796 123.382C22.0796 123.592 22.2296 123.772 22.4096 123.832C25.8596 124.852 29.3696 125.662 32.9096 126.202C36.9296 126.862 40.9796 127.282 45.0596 127.612C49.4396 127.942 53.8496 128.152 58.2596 128.242C62.8196 128.332 67.3496 128.332 71.9096 128.242C76.3796 128.152 80.8796 128.002 85.3496 127.792C89.5496 127.582 93.7496 127.342 97.9496 127.012C101.64 126.742 105.36 126.442 109.05 126.112C112.05 125.842 115.08 125.542 118.08 125.212C120.18 125.002 122.28 124.762 124.38 124.522C125.34 124.402 126.33 124.312 127.29 124.162H127.41C127.77 124.132 128.1 123.892 128.19 123.532C129.51 117.652 129.96 111.532 130.26 105.532C130.62 98.1517 130.65 90.7717 130.5 83.3917C130.38 76.1617 130.08 68.9317 129.69 61.7017C129.39 56.0317 129 50.3317 128.58 44.6617C128.37 42.0817 128.19 39.4717 127.95 36.8917C127.95 36.8617 127.95 36.8317 127.95 36.8017C127.95 36.5917 127.8 36.4117 127.62 36.3217C124.29 35.2417 120.87 34.4017 117.39 33.8017C113.43 33.1117 109.41 32.6617 105.42 32.3017C101.07 31.9417 96.7196 31.7617 92.3696 31.6417C87.8396 31.5517 83.3096 31.5517 78.7796 31.6417C74.3096 31.7317 69.8096 31.8817 65.3396 32.1217C61.1396 32.3317 56.9396 32.6017 52.7396 32.9317C49.0196 33.2017 45.2996 33.5317 41.6096 33.8917C38.5796 34.1917 35.5496 34.4917 32.5196 34.8217C30.4196 35.0617 28.3496 35.3317 26.2196 35.5717C25.2596 35.6917 24.2696 35.8117 23.3096 35.9317L23.1896 35.9617C22.8596 36.0217 22.4396 36.2017 22.4096 36.5917C22.3796 36.9817 22.7996 37.1917 23.1296 37.1617Z" fill="#2B0E30"/>
<path d="M35.0102 39.5315L34.9502 39.5015C34.8602 39.4715 35.1302 39.5615 35.0102 39.5315L34.9202 39.5015C34.7402 39.4115 34.5602 39.3215 34.3802 39.2315C34.2602 39.1715 34.5302 39.3215 34.4102 39.2615L34.3502 39.2315L34.1702 39.1115L33.9902 38.9915C33.9002 38.9315 33.7502 38.8115 33.9002 38.9315C33.7802 38.8415 33.6302 38.7215 33.5102 38.6315L33.3902 38.5415C33.2702 38.4215 33.5102 38.6615 33.3902 38.5415C33.3302 38.4815 33.2402 38.3915 33.1802 38.3315C33.1202 38.2715 33.0302 38.1815 32.9702 38.0915C33.0902 38.2115 32.9102 38.0315 32.8802 37.9715C32.8202 37.8815 32.7302 37.7915 32.6702 37.7015L32.6102 37.6115C32.5802 37.5815 32.5502 37.5515 32.5502 37.4915C32.3102 37.1315 32.1002 36.7115 31.9502 36.2915C31.5902 35.2115 31.5302 34.0415 31.7402 32.9015C32.0402 31.2815 32.6402 29.7215 33.5402 28.3415C34.2002 27.2315 35.1902 26.3315 36.3902 25.7915C37.3502 25.4015 38.4302 25.3115 39.4502 25.5515C39.9602 25.6715 40.4702 25.8515 40.9202 26.0915C41.1302 26.2115 41.3402 26.3315 41.5202 26.4515C41.5802 26.4815 41.6402 26.5415 41.7002 26.5715L41.7302 26.6015C41.8802 26.7215 42.0002 26.8115 42.1502 26.9315L42.2402 27.0215L42.3902 27.1715C42.5102 27.2915 42.6302 27.4115 42.7502 27.5315C42.9002 27.6815 43.1102 27.9515 43.2902 28.1915C43.6502 28.6715 43.9502 29.2115 44.1902 29.7815C44.7002 30.9215 44.8502 32.2115 44.6402 33.4415C44.5502 33.8615 45.7802 34.6415 45.8702 34.2215C46.3502 31.6415 45.0902 29.0615 43.3502 27.2615C41.6102 25.4615 39.0002 24.0215 36.3902 24.5015C33.3302 25.0415 31.5902 28.2515 30.7802 31.0115C30.0902 33.4115 30.3602 35.9915 32.0102 37.9415C32.9702 39.1115 34.2002 39.9815 35.6102 40.5215C35.8802 40.6115 36.0002 40.4315 35.8802 40.1915C35.6702 39.8615 35.3702 39.6215 35.0102 39.5315Z" fill="#2B0E30"/>
<path d="M59.0396 38.4518C58.0496 38.2118 57.1196 37.7618 56.3396 37.1318C54.5096 35.6918 53.7596 33.4718 53.8496 31.1918C53.9096 29.4818 54.3296 27.7718 55.1096 26.2418C55.3796 25.6718 55.7696 25.1918 56.1896 24.7418C56.2796 24.6518 56.3696 24.5918 56.4596 24.5018C56.5196 24.4718 56.5796 24.4118 56.6396 24.3818C56.5196 24.4718 56.6996 24.3518 56.7296 24.3218L56.9096 24.2018L56.8796 24.2318L56.9696 24.1718L57.1496 24.0818L57.2396 24.0218C57.6896 23.8418 58.1696 23.7218 58.6796 23.6918C59.2196 23.6618 59.7596 23.6918 60.2996 23.8118C61.4396 24.0818 62.5196 24.5618 63.4796 25.2518C65.3996 26.6618 66.8396 28.9118 66.8996 31.3418C66.8996 31.6718 66.8996 31.9718 66.8696 32.3018C66.8396 32.6018 67.4096 32.3618 67.4996 32.3318C67.7396 32.2118 68.1296 31.9718 68.1596 31.6418C68.4596 29.0318 67.1996 26.5118 65.2496 24.8618C63.4196 23.2718 60.8696 22.2818 58.4396 22.9118C57.0596 23.2718 55.8296 24.0518 54.8996 25.1618C53.7896 26.4818 53.2196 28.1318 52.8596 29.8118C52.3196 32.4218 52.5596 35.3318 54.4796 37.3418C55.4096 38.3018 56.5796 38.9918 57.8696 39.3218L57.9296 39.3518C58.2596 39.3818 58.5896 39.2618 58.8296 39.0218C58.8896 38.9918 59.3396 38.5118 59.0396 38.4518Z" fill="#2B0E30"/>
<path d="M81.5695 39.1119C81.4795 39.1119 81.4195 39.1119 81.3295 39.0819C81.2395 39.0819 81.1495 39.0519 81.0295 39.0519C80.9095 39.0519 81.2095 39.0819 81.0295 39.0519L80.8195 39.0219C80.5195 38.9619 80.1895 38.8719 79.8895 38.7819L79.6495 38.6919L79.5295 38.6319C79.3495 38.5719 79.6795 38.6919 79.4995 38.6319C79.3195 38.5719 79.1395 38.4519 78.9595 38.3619C78.7795 38.2719 78.5995 38.1519 78.3895 38.0319C78.2695 37.9419 78.5095 38.1219 78.3895 38.0319L78.2695 37.9419C78.1795 37.8819 78.0895 37.7919 77.9995 37.7319C77.9095 37.6719 77.8495 37.5819 77.7595 37.5219L77.6095 37.3719L77.5495 37.3119C77.4895 37.2519 77.6395 37.4019 77.5495 37.3119C77.3995 37.1319 77.2495 36.9219 77.0995 36.7419C76.9795 36.5619 76.8595 36.3519 76.7695 36.1419C76.6495 35.8719 76.5595 35.6319 76.4695 35.3619C76.3195 34.7619 76.2295 34.1319 76.2295 33.5019C76.1995 31.9119 76.5295 30.3519 77.1895 28.9419C77.4595 28.4019 77.7895 27.8919 78.1795 27.4419C78.5395 27.0519 78.9595 26.6919 79.4395 26.4219C79.6795 26.2719 79.9495 26.1519 80.1895 26.0619L80.3695 26.0019C80.3995 26.0019 80.4295 25.9719 80.4595 25.9719C80.5795 25.9419 80.7295 25.9119 80.8795 25.8519C81.3895 25.7319 81.8995 25.6719 82.4095 25.7019C82.7095 25.7019 82.9795 25.7319 83.2795 25.7619C83.3095 25.7619 83.4895 25.7919 83.3695 25.7619L83.5795 25.7919C83.7295 25.8219 83.8795 25.8519 83.9995 25.8819C84.2995 25.9419 84.5695 26.0319 84.8395 26.1519L85.0195 26.2119C85.1095 26.2419 85.0195 26.2119 84.9895 26.2119L85.0795 26.2419C85.2295 26.3019 85.3495 26.3619 85.4995 26.4219C85.7695 26.5419 86.0395 26.6919 86.2795 26.8719C86.3995 26.9319 86.5195 27.0219 86.6395 27.1119C86.5195 27.0519 86.6695 27.1419 86.6995 27.1719L86.8795 27.3219C87.1195 27.5019 87.3595 27.7119 87.5695 27.9219C87.6595 28.0119 87.7495 28.1319 87.8695 28.2219L87.9295 28.2819L88.0795 28.4619C88.2595 28.7019 88.4395 28.9419 88.6195 29.1819C88.7695 29.3919 88.8895 29.6019 88.9795 29.8419C89.2195 30.3519 89.3995 30.8919 89.5195 31.4619C89.5795 31.7619 89.6095 32.0919 89.6395 32.3919C89.6695 33.1719 91.1395 33.3819 91.0795 32.4819C90.9295 29.7219 89.2495 27.3219 86.9395 25.8519C84.7795 24.4719 81.9595 23.9319 79.4995 24.8319C76.5295 25.9119 75.2395 28.9419 74.8795 31.8819C74.5795 34.5519 75.2395 37.3419 77.5195 38.9919C78.7195 39.8619 80.1295 40.3719 81.5995 40.4919H81.6595C81.9895 40.5219 82.2895 40.2819 82.3195 39.9519C82.3195 39.9219 82.3195 39.9219 82.3195 39.8919C82.2595 39.5019 81.9295 39.2319 81.5395 39.2019L81.5695 39.1119Z" fill="#2B0E30"/>
<path d="M109.139 41.0319C108.839 41.0319 108.539 41.0319 108.239 41.0019C108.209 41.0019 107.999 40.9719 108.089 41.0019L107.909 40.9719C107.759 40.9419 107.579 40.9119 107.429 40.8819C107.039 40.7919 106.679 40.7019 106.319 40.5519C106.499 40.6119 106.229 40.5219 106.169 40.4919C106.049 40.4619 105.959 40.4019 105.869 40.3419C105.689 40.2519 105.509 40.1319 105.329 40.0119C105.269 39.9819 105.389 40.0419 105.389 40.0419L105.299 39.9819L105.179 39.8919C105.089 39.8319 104.999 39.7419 104.879 39.6519L104.639 39.4419C104.699 39.5019 104.729 39.5319 104.639 39.4419C104.579 39.3819 104.549 39.3519 104.489 39.2919C104.429 39.2319 104.339 39.1119 104.249 38.9919L104.159 38.8719C104.219 38.9619 104.129 38.8419 104.129 38.8119C104.009 38.6019 103.889 38.3619 103.799 38.1219C103.769 38.0319 103.829 38.2419 103.799 38.1219C103.799 38.0919 103.769 38.0619 103.769 38.0319C103.769 38.0019 103.739 37.9119 103.709 37.8519C103.649 37.7019 103.619 37.5519 103.589 37.3719C103.529 37.1019 103.499 36.8319 103.469 36.5319C103.349 34.8219 103.769 33.0519 104.339 31.4619C104.849 30.1119 105.629 28.8219 106.829 27.9819C107.309 27.6819 107.819 27.4419 108.359 27.3219C108.899 27.2319 109.439 27.2019 109.979 27.2619C109.889 27.2619 110.069 27.2619 110.099 27.2919C110.129 27.3219 110.249 27.3219 110.309 27.3219C110.459 27.3519 110.609 27.3819 110.759 27.4119C110.909 27.4419 111.029 27.4719 111.179 27.5319L111.389 27.5919C111.419 27.5919 111.629 27.6819 111.539 27.6519C112.109 27.8619 112.649 28.1619 113.159 28.4919L113.249 28.5519L113.429 28.7019C113.549 28.7919 113.699 28.8819 113.819 29.0019C114.059 29.2119 114.299 29.4219 114.539 29.6319L114.689 29.7819C114.779 29.8719 114.629 29.7219 114.749 29.8719C114.869 30.0219 114.959 30.1119 115.079 30.2319C115.289 30.4719 115.469 30.7119 115.649 30.9519C115.679 31.0119 115.739 31.0719 115.769 31.1319C115.859 31.2819 115.769 31.1019 115.829 31.2219C115.889 31.3419 115.979 31.4919 116.069 31.6119C116.219 31.8819 116.339 32.1219 116.459 32.4219C116.489 32.4819 116.519 32.6019 116.489 32.4819L116.549 32.6919C116.579 32.8119 116.639 32.9619 116.669 33.0819C116.699 33.2019 116.729 33.3219 116.759 33.4419C116.759 33.4719 116.789 33.6519 116.789 33.5919C116.789 33.5319 116.789 33.7419 116.819 33.7719C116.849 34.0119 116.849 34.2819 116.819 34.5519C116.759 35.3019 118.049 35.8119 118.109 34.8819C118.319 32.2419 116.459 29.6919 114.509 28.1019C112.469 26.4519 109.529 25.3119 106.979 26.3319C105.599 26.9319 104.489 28.0119 103.799 29.3319C102.869 31.1019 102.329 33.0519 102.209 35.0319C102.089 36.4419 102.359 37.8519 103.019 39.1119C103.589 40.1019 104.429 40.9419 105.449 41.4819C106.679 42.1419 108.089 42.4719 109.499 42.4119H109.559C110.369 42.3519 109.859 40.9719 109.139 41.0319Z" fill="#2B0E30"/>
<path d="M38.2196 40.2222C38.2196 40.9122 37.7996 41.5722 37.1396 41.8422C36.8096 41.9922 36.4496 42.0222 36.1196 41.9622C35.9696 41.9322 35.8196 41.9022 35.6696 41.8122C35.5196 41.7522 35.3996 41.6622 35.2796 41.5422C35.3096 41.5722 35.3696 41.6322 35.2796 41.5422L35.2496 41.5122C35.1896 41.4522 35.2196 41.4522 35.2496 41.5422C35.2196 41.5122 35.2196 41.4822 35.1896 41.4522C35.1596 41.4222 35.2796 41.6322 35.2196 41.4822C35.1596 41.3322 35.2496 41.6322 35.2196 41.4522C35.2196 41.4222 35.1896 41.3922 35.1896 41.3622C35.2196 41.4822 35.1896 41.3022 35.1896 41.2722C35.1896 41.2122 35.1896 41.1522 35.1896 41.0922C35.1896 41.0022 35.2196 40.9122 35.2196 40.8222C35.2496 40.6422 35.3096 40.4922 35.3996 40.3422C35.7596 39.7422 36.4196 39.3822 37.1396 39.4122C37.3196 39.4122 37.5296 39.4722 37.7096 39.5622C37.7996 39.5922 37.8896 39.6522 37.9796 39.7122C37.9196 39.6522 37.9496 39.7122 37.9796 39.7122L38.0996 39.8022C38.2196 39.8922 38.0396 39.7122 38.1296 39.8322C38.1596 39.8922 38.2496 39.9222 38.1596 39.8622L38.1896 39.8922C38.2496 39.9522 38.2196 39.9522 38.1596 39.8622L38.1896 39.8922C38.2196 39.9522 38.2196 39.9522 38.1596 39.8622C38.1596 39.8622 38.2196 40.0422 38.1896 39.9222C38.1596 39.8022 38.2196 40.0122 38.2196 40.0422C38.2196 39.9222 38.2196 40.0722 38.2196 40.0422C38.2196 40.1022 38.2196 40.1322 38.2196 40.1922C38.2196 40.5522 38.3696 40.8822 38.6096 41.1522C38.6996 41.2422 39.0896 41.5722 39.0896 41.2122C39.0596 40.0722 38.4296 38.8122 37.3796 38.3022C36.5396 37.8822 35.4896 38.0622 34.8596 38.7822C34.1396 39.6222 34.2596 40.8222 34.7396 41.7222C35.2196 42.6222 36.1196 43.4322 37.2296 43.2822C38.2796 43.1622 39.0896 42.2622 39.0896 41.1822C39.0896 40.8222 38.9396 40.4922 38.6996 40.2222C38.5796 40.1622 38.2196 39.8622 38.2196 40.2222Z" fill="#2B0E30"/>
<path d="M61.38 39.0517C61.35 39.7117 60.96 40.3117 60.33 40.5517C60.24 40.5817 60.45 40.5217 60.3 40.5517L60.18 40.5817L60.06 40.6117C60.18 40.5817 60.06 40.6117 60.03 40.6117H59.91C59.73 40.6117 60 40.6417 59.91 40.6117C59.88 40.6117 59.79 40.6117 59.79 40.5817H59.7C59.61 40.5517 59.64 40.5517 59.73 40.6117L59.64 40.5817L59.61 40.5517C59.55 40.5217 59.55 40.5217 59.64 40.5817C59.61 40.5817 59.55 40.5217 59.55 40.5217L59.49 40.4917C59.58 40.5517 59.43 40.4617 59.43 40.4617C59.4 40.4317 59.37 40.4017 59.34 40.3717C59.31 40.3717 59.22 40.2217 59.28 40.3117C59.07 40.0417 58.95 39.7417 58.95 39.3817C58.95 39.0517 59.01 38.7517 59.16 38.4517C59.31 38.1517 59.58 37.9117 59.88 37.7917L59.97 37.7617C60.12 37.7017 59.88 37.7917 60.03 37.7317C60.09 37.7017 60.18 37.7017 60.27 37.6717C60.36 37.6417 60.12 37.6717 60.3 37.6717H60.42C60.45 37.6717 60.6 37.7017 60.42 37.6717C60.45 37.6717 60.57 37.6717 60.57 37.7017C60.6 37.7017 60.66 37.7617 60.69 37.7617C60.87 37.8217 60.63 37.7017 60.72 37.7917L60.81 37.8517C60.87 37.8817 60.87 37.8817 60.81 37.8517L60.9 37.9117C60.96 37.9717 61.02 38.0317 61.08 38.0917C61.02 38.0017 61.11 38.1217 61.11 38.1517C61.14 38.1817 61.17 38.2417 61.2 38.2717C61.23 38.3017 61.26 38.3617 61.26 38.4217C61.29 38.5117 61.26 38.4217 61.29 38.4817C61.35 38.6617 61.38 38.8717 61.38 39.0517C61.38 39.1717 61.56 39.3217 61.65 39.3817C61.8 39.5017 62.01 39.5617 62.19 39.5917C62.46 39.6217 62.85 39.5917 62.82 39.2317C62.79 36.9517 59.46 35.9017 57.99 37.5817C57.36 38.3317 57.3 39.3817 57.81 40.2217C58.5 41.2117 59.67 41.6917 60.87 41.5117C61.41 41.4217 61.92 41.1517 62.28 40.7617C62.64 40.3417 62.82 39.8017 62.82 39.2617C62.82 39.1417 62.64 38.9917 62.55 38.9317C62.4 38.8117 62.19 38.7517 62.01 38.7217C61.77 38.6917 61.38 38.7217 61.38 39.0517Z" fill="#2B0E30"/>
<path d="M83.9695 39.5617C83.9695 39.7417 83.9995 39.4417 83.9695 39.5917C83.9695 39.6217 83.9695 39.6517 83.9695 39.7117C83.9695 39.7717 83.9395 39.8017 83.9395 39.8617C83.9395 39.8317 83.9695 39.7417 83.9395 39.8617C83.9095 39.9517 83.8795 40.0117 83.8495 40.1017C83.8195 40.1317 83.7895 40.1917 83.7895 40.2217C83.8495 40.1317 83.7895 40.2217 83.7595 40.2517C83.6695 40.4017 83.5495 40.5217 83.3995 40.6117L83.2795 40.7017C83.1895 40.7317 83.0995 40.7917 83.0095 40.8217L82.8895 40.8517C82.9795 40.8217 82.8895 40.8517 82.8595 40.8517C82.7695 40.8817 82.6795 40.8817 82.5895 40.8817H82.4395C82.2595 40.8817 82.4995 40.8817 82.4095 40.8817C82.3195 40.8817 82.2295 40.8517 82.1095 40.8217L81.9595 40.7917C81.9895 40.7917 82.0795 40.8517 81.9595 40.7917L81.7195 40.6717C81.5695 40.6117 81.7795 40.7317 81.7195 40.6717C81.6595 40.6117 81.6595 40.6117 81.6295 40.5817C81.5995 40.5517 81.5695 40.5217 81.5395 40.4917C81.5095 40.4617 81.5095 40.4617 81.5695 40.5217L81.5095 40.4617L81.4495 40.3717L81.4195 40.3417C81.3595 40.2817 81.3895 40.2817 81.4495 40.3717C81.3895 40.3117 81.3595 40.2217 81.3295 40.1317C81.3295 40.1317 81.3895 40.3117 81.3295 40.1617C81.3295 40.1017 81.2995 40.0717 81.2995 40.0117C81.2995 39.9517 81.2695 39.9217 81.2695 39.9217C81.2995 40.0117 81.2995 40.0417 81.2695 39.9517V39.8617C81.2695 39.8317 81.2695 39.7717 81.2695 39.7417C81.2695 39.6517 81.2995 39.5617 81.2995 39.4717C81.3295 39.3217 81.2395 39.5917 81.2995 39.4117L81.3295 39.3217C81.3595 39.2317 81.4195 39.1417 81.4795 39.0517C81.4195 39.1417 81.4795 39.0517 81.4795 39.0217L81.5695 38.9317C81.6295 38.8717 81.6895 38.8117 81.7495 38.7517C81.7795 38.7217 81.8095 38.6917 81.8395 38.6617C81.8695 38.6317 81.7195 38.7217 81.8695 38.6317C81.9595 38.5717 82.0495 38.5417 82.1395 38.4817C82.2295 38.4517 82.2895 38.4217 82.3795 38.3917C82.2595 38.4217 82.4995 38.3617 82.5295 38.3617C82.6195 38.3617 82.7095 38.3317 82.7995 38.3317C82.8295 38.3317 82.9495 38.3317 82.8295 38.3317C82.8895 38.3317 82.9495 38.3317 82.9795 38.3617C83.0695 38.3917 83.1895 38.3917 83.2795 38.4517C83.2795 38.4517 83.3995 38.5117 83.4295 38.5417L83.5195 38.6017C83.3695 38.5117 83.5495 38.6317 83.5795 38.6617L83.6395 38.7217C83.5495 38.6317 83.7595 38.8117 83.6395 38.7217C83.6695 38.7517 83.6995 38.7817 83.7295 38.8417L83.7595 38.9017C83.7895 38.9617 83.7895 38.9317 83.7295 38.8417L83.7895 38.9617L83.8195 38.9917C83.8495 39.0817 83.8495 39.0517 83.8195 38.9617C83.8795 39.0517 83.9095 39.1717 83.9095 39.2617C83.9095 39.2317 83.9095 39.1117 83.9095 39.2317C83.9095 39.2917 83.9095 39.3817 83.9095 39.4417C83.9095 39.8317 84.1795 40.1617 84.5395 40.2817C84.8995 40.3417 85.0795 40.0117 85.0795 39.7117C85.0495 38.5717 84.3895 37.5817 83.3395 37.1317C82.3795 36.7117 81.2395 36.9817 80.5795 37.7917C79.8895 38.6617 79.8295 39.8917 80.3995 40.8517C80.9395 41.7817 81.9895 42.4417 83.0995 42.2317C83.6395 42.1417 84.1495 41.8417 84.5095 41.4217C84.8995 40.9417 85.1095 40.3417 85.1095 39.7117C85.1095 39.3217 84.8395 38.9917 84.4795 38.8717C84.1495 38.9317 83.9695 39.2617 83.9695 39.5617Z" fill="#2B0E30"/>
<path d="M111.42 41.5718C111.42 41.6618 111.42 41.7518 111.39 41.8418C111.39 41.9018 111.36 41.9618 111.36 41.9918C111.36 41.9618 111.39 41.9318 111.36 42.0218C111.3 42.2018 111.21 42.3818 111.12 42.5318C111.03 42.6518 111.15 42.5018 111.09 42.5618L111 42.6518C110.94 42.7118 110.88 42.7718 110.82 42.8318C110.7 42.9218 110.58 43.0118 110.43 43.0718C110.28 43.1318 110.13 43.1618 109.98 43.1918C110.04 43.1918 109.86 43.1918 109.89 43.1918C109.86 43.1918 109.8 43.1918 109.74 43.1918H109.62C109.47 43.1918 109.71 43.2218 109.56 43.1918C109.47 43.1618 109.41 43.1318 109.32 43.1318C109.17 43.0718 109.44 43.1918 109.29 43.1318L109.2 43.0718C109.2 43.0718 109.05 42.9818 109.14 43.0418C109.23 43.1018 109.11 43.0118 109.11 43.0118C109.11 43.0118 109.05 42.9518 109.02 42.9218L108.9 42.8018L108.96 42.8918C108.93 42.8618 108.93 42.8318 108.9 42.8018C108.87 42.7718 108.87 42.7418 108.84 42.7118C108.75 42.5618 108.9 42.8618 108.84 42.6818C108.84 42.6518 108.81 42.6218 108.81 42.5918C108.81 42.5618 108.75 42.4118 108.81 42.5618C108.78 42.4718 108.78 42.3518 108.75 42.2618C108.75 42.1718 108.75 42.3818 108.75 42.2318C108.75 42.2018 108.75 42.1718 108.75 42.1118C108.75 42.0218 108.78 41.9318 108.78 41.8418C108.81 41.6918 108.75 41.9018 108.81 41.7818C108.81 41.7518 108.84 41.7218 108.84 41.6918C108.87 41.6018 108.93 41.5118 108.96 41.4218C108.99 41.3918 108.99 41.3618 109.02 41.3018C109.05 41.2418 109.08 41.2118 109.05 41.2718C109.11 41.2118 109.17 41.1518 109.23 41.0918C109.29 41.0318 109.35 40.9718 109.41 40.9118L109.5 40.8518L109.59 40.7918C109.56 40.8218 109.56 40.8218 109.62 40.7918C109.77 40.7318 109.92 40.6718 110.07 40.6418L110.19 40.6118C110.1 40.6118 110.22 40.6118 110.25 40.6118C110.34 40.6118 110.46 40.6118 110.55 40.6118C110.7 40.6118 110.46 40.5818 110.61 40.6118L110.76 40.6418C110.79 40.6418 110.85 40.6718 110.88 40.6718C110.91 40.6718 110.91 40.6718 110.85 40.6418L110.94 40.7018L111.03 40.7618C111.09 40.7918 111.09 40.7918 111 40.7318L111.09 40.7918L111.18 40.8518C111.09 40.7318 111.3 40.9418 111.18 40.8518L111.27 40.9718C111.3 41.0018 111.33 41.0618 111.33 41.0918L111.3 41.0318C111.3 41.0618 111.33 41.0918 111.33 41.1218C111.33 41.1518 111.36 41.2118 111.36 41.2418C111.36 41.2718 111.36 41.2718 111.36 41.2118C111.36 41.2418 111.36 41.2718 111.39 41.3318C111.39 41.3618 111.39 41.3918 111.42 41.4218C111.42 41.4818 111.42 41.5118 111.42 41.5718C111.42 41.9318 111.63 42.2618 111.96 42.4418C112.17 42.5618 112.62 42.5918 112.62 42.2318C112.59 41.0618 111.9 40.0118 110.82 39.5318C109.89 39.1118 108.81 39.3218 108.12 40.0718C107.43 40.9118 107.37 42.0818 107.94 43.0118C108.48 44.0018 109.59 44.6018 110.73 44.4818C111.84 44.3018 112.65 43.3718 112.65 42.2618C112.65 41.9018 112.44 41.5418 112.11 41.3918C111.87 41.2418 111.45 41.1818 111.42 41.5718Z" fill="#2B0E30"/>
<path d="M73.9192 46.6117V108.082C73.9192 108.922 73.8592 109.762 73.9192 110.572V110.692C73.9192 110.932 74.3092 111.292 74.4592 111.442C74.5192 111.502 74.9392 111.892 74.9392 111.712V50.2117C74.9392 49.3717 74.9692 48.5317 74.9392 47.7217C74.9392 47.6917 74.9392 47.6617 74.9392 47.6017C74.9392 47.3617 74.5492 47.0017 74.3992 46.8517C74.3692 46.8217 73.9192 46.4317 73.9192 46.6117Z" fill="#2B0E30"/>
<path d="M34.2592 75.592H117.179C118.289 75.592 119.429 75.622 120.539 75.592C120.599 75.592 120.629 75.592 120.689 75.592C120.779 75.592 120.299 75.292 120.269 75.262C119.999 75.082 119.729 74.962 119.399 74.902H36.4792C35.3692 74.902 34.2292 74.872 33.1192 74.902C33.0592 74.902 33.0292 74.902 32.9692 74.902C32.8792 74.902 33.3592 75.202 33.3892 75.232C33.6592 75.412 33.9592 75.532 34.2592 75.592Z" fill="#2B0E30"/>
<path d="M37.17 81.082L50.49 81.982C51.09 82.012 52.44 102.862 52.47 103.342C52.5 103.822 32.88 102.802 32.79 101.992C32.7 101.182 30.96 86.782 30.96 86.782C33.75 85.612 37.17 81.082 37.17 81.082Z" fill="white"/>
<path d="M37.1404 81.8027L43.8004 82.2527L48.3904 82.5527L49.8904 82.6727C50.0404 82.6727 50.1904 82.7027 50.3104 82.7027C50.3404 82.7027 50.4004 82.7027 50.4304 82.7027C50.3404 82.7327 50.0704 82.4927 50.0104 82.4327C49.9504 82.3727 49.8904 82.1927 49.9504 82.3427C49.8904 82.2227 49.8904 82.1627 49.9204 82.3127C49.9504 82.4627 49.9804 82.5827 50.0104 82.7027C50.0704 83.1227 50.1304 83.5127 50.1904 83.9327C50.2504 84.5027 50.3104 85.0727 50.3704 85.6127C50.4004 85.9427 50.4304 86.2727 50.4604 86.6327L50.4904 87.1127C50.4904 87.1427 50.4904 87.2027 50.4904 87.2327C50.4904 87.1127 50.4904 87.2327 50.4904 87.2627C50.4904 87.3827 50.5204 87.5027 50.5204 87.5927C50.8204 90.8027 51.0604 93.9827 51.3004 97.1927C51.3904 98.4827 51.4804 99.8027 51.5704 101.093C51.6304 101.783 51.6004 102.473 51.7204 103.163C51.7204 103.193 51.7204 103.223 51.7204 103.253C51.7804 103.103 51.8404 102.983 51.9304 102.833C51.9904 102.803 52.1104 102.743 52.0204 102.773C52.1704 102.713 52.2004 102.743 52.0504 102.773C51.7504 102.803 51.4504 102.803 51.1504 102.803C50.0104 102.833 48.9004 102.773 47.7604 102.743C44.6104 102.623 41.6104 102.473 38.4304 102.203C37.1404 102.083 35.8504 101.993 34.5904 101.813C34.1704 101.753 33.7804 101.693 33.3604 101.603L33.1504 101.543C32.9404 101.483 33.2404 101.603 33.1204 101.543C33.0904 101.513 33.0304 101.513 33.0004 101.483C33.0904 101.513 33.1504 101.573 33.2104 101.663C33.2404 101.723 33.3304 102.053 33.3604 101.933C33.3604 101.873 33.3604 101.843 33.3304 101.783C33.3004 101.633 33.3004 101.483 33.2704 101.333C33.2104 100.823 33.1504 100.343 33.0904 99.8327L32.6104 95.4227C32.2804 92.6927 31.9504 89.9627 31.6204 87.2327C31.5904 87.0827 31.5904 86.9027 31.5604 86.7527L31.2004 87.4727C32.8804 86.7227 34.2604 85.3727 35.4904 84.0827C36.2704 83.2727 36.9904 82.4327 37.6804 81.5327C38.1904 80.8727 37.0504 79.9127 36.5104 80.6327C35.9104 81.4127 35.2504 82.1927 34.5604 82.9127C33.4204 84.1427 32.1304 85.4627 30.5704 86.1227C30.3004 86.2427 30.1504 86.5427 30.2104 86.8427C30.4804 89.0027 30.7204 91.1627 30.9904 93.3227C31.3204 96.0827 31.6804 98.8727 31.9804 101.633C32.0104 101.993 32.0404 102.323 32.3704 102.563C32.6404 102.743 32.9704 102.863 33.3004 102.923C34.3204 103.133 35.3404 103.253 36.3604 103.343C39.5704 103.673 42.7804 103.853 45.9904 104.003C47.3704 104.063 48.7804 104.123 50.1604 104.153C50.9104 104.213 51.6604 104.183 52.4104 104.093C52.8004 104.093 53.0704 103.763 53.0704 103.373C53.0704 103.133 53.0404 102.923 53.0104 102.683C52.9504 101.633 52.8604 100.613 52.8004 99.5627C52.5604 96.3527 52.3504 93.1427 52.0804 89.9327C51.9604 88.4027 51.8104 86.8727 51.6604 85.3127C51.5704 84.3527 51.4804 83.3627 51.2704 82.4327C51.2404 82.1327 51.1204 81.8327 50.9404 81.5627C50.7004 81.2627 50.3704 81.2327 50.0104 81.2027L46.4404 80.9627L37.6804 80.3627L37.1104 80.3027C36.2404 80.3327 36.3304 81.7427 37.1404 81.8027Z" fill="#62206E"/>
<path d="M37.17 81.082L37.29 87.082L30.96 86.812L37.17 81.082Z" fill="white"/>
<path d="M36.4497 81.1419L36.5397 86.3919V87.1419L37.3197 86.4519L31.7997 86.2119L30.9897 86.1819L31.3797 87.2319L36.8097 82.2219L37.5597 81.5019C37.8297 81.2919 37.8897 80.9019 37.6797 80.6319L37.6497 80.6019C37.3497 80.3919 36.8997 80.4219 36.6297 80.6619L31.2597 85.7019L30.5097 86.3919C30.2397 86.5719 30.1797 86.9319 30.3597 87.2019C30.4797 87.3819 30.6897 87.4719 30.8997 87.4419L36.4197 87.6819L37.2297 87.7119C37.5597 87.7119 38.0397 87.3819 38.0097 87.0219L37.9197 81.7719V81.0219C37.9497 80.7219 37.7097 80.4519 37.3797 80.4219C37.3497 80.4219 37.3197 80.4219 37.2897 80.4219C36.9297 80.4519 36.4497 80.7519 36.4497 81.1419Z" fill="#62206E"/>
<path d="M37.1697 92.5726C37.3197 92.0326 37.6797 91.5826 38.1597 91.2826C38.3697 91.1326 38.6397 91.0426 38.8797 90.9826C39.0297 90.9526 39.1497 90.9526 39.2997 90.9526C39.4497 90.9826 39.5697 91.0126 39.7197 91.0726C39.6897 91.1026 39.5997 90.8326 39.6897 91.0726C39.7197 91.1926 39.7797 91.2826 39.8097 91.4026C39.9297 91.7326 40.0197 92.0626 40.1097 92.4226C40.2897 93.1126 40.4097 93.8026 40.4997 94.4926C40.5897 95.1826 40.6197 95.8726 40.5897 96.5626C40.5597 97.1026 40.6197 97.8526 40.1397 98.2426C40.0497 98.3326 39.9297 98.3926 39.8097 98.4226C39.7497 98.4226 39.6597 98.4226 39.5997 98.4226C39.3897 98.4826 39.8697 98.6626 39.8097 98.7826C39.8097 98.7526 39.7497 98.5126 39.7197 98.4826C39.6897 98.3326 39.6597 98.1526 39.6597 98.0026C39.5997 97.4626 39.6297 96.8926 39.7197 96.3526C40.0497 94.2526 41.4597 91.9726 43.5297 91.1926C44.0697 90.9526 44.6997 90.9826 45.2397 91.2226C45.5997 91.4326 45.7797 91.9426 45.8997 92.3326C46.2897 93.4726 46.2897 94.7326 45.9297 95.8726C45.7797 96.4126 45.5097 97.1926 45.0297 97.5226C44.9697 97.5526 44.9097 97.5826 44.8497 97.6126C44.6697 97.6726 44.5197 97.4926 44.7597 97.7926C44.9997 98.0926 44.8497 97.8226 44.8197 97.6426C44.7297 96.6226 45.1197 95.6326 45.8697 94.9726C46.1097 94.7626 46.4097 94.6426 46.7097 94.5826C46.8597 94.5526 47.0097 94.5826 47.1597 94.6126C47.1897 94.6126 47.2497 94.6726 47.3097 94.6726C47.4297 94.7626 47.3997 94.7026 47.2497 94.5226C47.1297 94.3126 47.0997 94.2826 47.1297 94.4626C47.2197 94.7926 47.3997 95.1226 47.6697 95.3326C47.7897 95.4526 48.0897 95.6926 48.0897 95.3626C47.9697 94.4926 47.3997 93.7426 46.5897 93.4126C45.8997 93.1426 45.1797 93.5326 44.6997 94.0426C43.5897 95.3026 43.5897 97.3426 44.8497 98.5126C46.3197 99.8326 47.0697 96.5326 47.1297 95.6026C47.2497 93.8626 46.7097 92.1526 45.5997 90.8026C45.0897 90.2026 44.4297 89.7226 43.5897 89.7226C42.8097 89.7826 42.0597 90.0826 41.4597 90.5626C40.2597 91.4926 39.3897 92.7826 38.9697 94.2226C38.5497 95.6026 38.3697 97.4926 39.2697 98.7526C39.6897 99.3526 40.5297 99.9826 41.1297 99.2026C41.6097 98.5726 41.4897 97.5526 41.4897 96.8326C41.4897 95.7526 41.3397 94.6726 41.0997 93.6526C40.8897 92.6926 40.6197 91.6726 40.0797 90.8326C39.5397 89.9926 38.7897 89.4226 37.7697 89.7226C36.9897 89.9626 36.3597 90.5926 36.1197 91.3726C36.0297 91.6426 36.3897 92.0326 36.5397 92.2126C36.6897 92.3926 37.0797 92.8426 37.1697 92.5726Z" fill="#62206E"/>
<path d="M30.5098 72.1125C30.5098 72.1125 32.6998 62.6325 30.5098 54.5625H49.3498C49.3498 54.5625 50.4598 67.4625 50.4598 72.3525L30.5098 72.1125Z" fill="#62206E"/>
<path d="M31.1998 72.3819C31.4698 71.1519 31.6498 69.9219 31.7998 68.6619C32.1598 65.8419 32.2498 63.0219 32.0698 60.1719C31.9498 58.3419 31.6498 56.5419 31.1998 54.7419L30.9298 54.9219H49.7698L48.6298 54.3519C48.7498 55.9119 48.8998 57.4419 48.9898 59.0019C49.2298 61.9719 49.4398 64.9719 49.5898 67.9419C49.6498 69.3219 49.7398 70.7319 49.7398 72.1419L50.0098 71.9619L43.2298 71.8719L32.5198 71.7519L30.0598 71.7219C29.7598 71.7219 29.7298 71.9019 29.9098 72.0819C30.1798 72.3219 30.5398 72.4419 30.8998 72.4719L37.6498 72.5619L48.3598 72.6819L50.8198 72.7119C50.9698 72.7119 51.0898 72.6819 51.0898 72.5319C51.0898 69.8019 50.9098 67.1019 50.7298 64.4019C50.5498 61.7319 50.3698 59.0919 50.1298 56.4219C50.0698 55.8519 50.0398 55.3119 49.9798 54.7419C49.9498 54.3819 49.1098 54.1719 48.8698 54.1719H30.0598C29.9698 54.1719 29.7298 54.2019 29.7898 54.3519C31.1998 59.5719 30.9898 65.2419 30.0298 70.5519C29.9698 70.9719 29.8798 71.3919 29.7898 71.8119C29.6998 72.2319 31.1098 72.7419 31.1998 72.3819Z" fill="#62206E"/>
<path d="M34.4998 60.7427C37.7698 60.6527 41.0698 60.6227 44.3698 60.6527C44.6098 60.6527 45.0298 60.5327 44.9698 60.2027C44.9098 59.8727 44.3698 59.7827 44.0998 59.7827C40.7998 59.7527 37.5298 59.7827 34.2298 59.8727C33.9898 59.8727 33.5698 59.9927 33.6298 60.3227C33.6898 60.6527 34.2298 60.7427 34.4998 60.7427Z" fill="white"/>
<path d="M35.0402 66.3825C39.3602 66.4125 43.6502 66.3225 47.9702 66.1725C48.2702 66.1725 48.3002 65.9325 48.0902 65.7825C47.7902 65.5725 47.4302 65.4825 47.0702 65.5125C42.8702 65.6625 38.6702 65.7225 34.4402 65.7225C34.2302 65.7225 33.9002 65.7825 34.0802 66.0525C34.2602 66.3225 34.7702 66.3825 35.0402 66.3825Z" fill="white"/>
<path d="M34.7701 67.1926C35.6101 66.7426 36.3301 66.1126 36.8701 65.3326C37.1401 64.9426 37.3801 64.4926 37.5301 64.0426C37.6501 63.6826 37.8301 63.2026 37.6501 62.8426C37.3801 62.4226 36.9301 62.1226 36.4201 62.0926C36.0001 62.1226 35.6101 62.3626 35.4001 62.7526C34.9201 63.5026 34.9801 64.4925 35.2801 65.2725C35.6401 66.2025 36.3901 67.0126 37.3801 67.1626C38.3401 67.3126 39.2401 66.5326 39.9001 65.9326C41.3101 64.6126 42.2701 62.8726 42.6301 60.9826C42.8101 60.0826 42.8401 59.1525 42.7201 58.2225C42.6901 57.7725 42.5701 57.3525 42.3601 56.9625C42.0601 56.5425 41.6101 56.3026 41.1001 56.2426C40.6201 56.2126 40.2301 56.6926 40.0201 57.0526C39.7801 57.5026 39.6001 57.9826 39.5401 58.4926C39.3601 59.6326 39.3301 60.8026 39.4501 61.9426C39.6001 63.8326 40.1101 65.8126 42.0001 66.6826C42.8701 67.1026 43.8901 67.0426 44.6701 66.5026C45.4501 65.9326 45.9301 65.0325 45.9601 64.0725C45.9901 63.6225 45.9901 63.1125 45.7201 62.7225C45.3901 62.3325 44.9401 62.0926 44.4301 62.0326C43.3801 61.9726 43.1701 63.2926 43.2001 64.1026C43.2901 66.0226 45.1201 67.6726 47.0701 67.4626C47.5201 67.4026 47.9101 67.2226 48.2401 66.9526C48.3301 66.8626 47.5201 66.2026 47.2501 66.3826C46.7101 66.8326 45.8401 67.0426 45.1801 66.7126C44.6101 66.4126 44.3101 65.6026 44.1901 65.0026C44.0701 64.3426 44.0701 63.3226 44.6401 62.8426C44.7001 62.7826 44.7901 62.7525 44.8501 62.7225C44.9701 62.6925 45.1501 62.7226 44.9401 62.6026C44.7301 62.4826 44.8501 62.6026 44.8801 62.7526C44.8801 62.8126 44.9101 62.9026 44.9101 62.9626C44.9401 63.3826 44.9101 63.7726 44.8201 64.1926C44.6401 64.9726 44.1601 65.6325 43.4701 66.0225C42.9901 66.2926 42.1501 66.5326 41.6401 66.1426C41.1301 65.7526 40.8301 64.9725 40.6801 64.3725C40.4701 63.6225 40.3801 62.8726 40.3201 62.0926C40.2601 61.1326 40.2901 60.2026 40.3801 59.2426C40.4401 58.4926 40.7101 57.8026 41.1601 57.2026C41.2201 57.1126 41.3101 57.0525 41.4001 56.9625C41.4601 56.9325 41.7001 56.8425 41.7001 56.8125L41.4001 56.6026L41.4601 56.6926C41.4901 56.7826 41.5201 56.8725 41.5501 56.9625C41.6401 57.3225 41.7001 57.7125 41.7301 58.0725C41.8201 58.7925 41.7901 59.5126 41.7001 60.2026C41.4601 61.6126 40.9201 62.9326 40.0801 64.1026C39.6601 64.7026 39.1501 65.2126 38.5801 65.6926C38.3101 65.9326 38.0101 66.1425 37.6801 66.3225C37.5001 66.4125 37.3201 66.5026 37.1101 66.5326C37.0201 66.5626 36.9301 66.5626 36.8401 66.5626C36.6601 66.5326 36.6601 66.5326 36.8101 66.5926L36.7201 66.5026C36.5101 66.1426 36.3301 65.7826 36.1801 65.3926C36.0601 65.0026 36.0301 64.5826 36.0901 64.1926C36.1201 63.8326 36.2701 63.4725 36.4801 63.1725C36.6001 63.0225 36.7501 62.8726 36.9001 62.7826L36.9901 62.7526C37.2301 62.7226 37.1401 62.6026 36.6901 62.4826C36.6901 62.5426 36.7201 62.6626 36.7201 62.7526C36.7201 63.5326 36.1801 64.4025 35.7301 64.9725C35.2201 65.6625 34.5601 66.2026 33.8401 66.5926C33.6901 66.6826 34.5301 67.3126 34.7701 67.1926Z" fill="#2B0E30"/>
<path d="M82.1701 80.9624C81.3001 81.3224 80.5801 81.9824 80.1601 82.8224C79.7401 83.7524 80.0701 84.8624 80.9701 85.4024C82.4401 86.3924 84.5401 85.6724 85.3501 84.1724C85.5901 83.7524 85.7401 83.3024 85.5001 82.8524C85.2601 82.3424 84.7201 82.0124 84.1501 82.0724C83.2801 82.1624 82.7701 83.1224 82.8901 83.9324C83.1001 84.9524 83.8801 85.7624 84.8701 86.0024C85.8301 86.2424 86.7901 85.8524 87.6001 85.3724C88.4401 84.8624 89.1601 84.2023 89.7301 83.3923C90.3001 82.6123 90.7201 81.6223 90.3001 80.6923C89.9101 79.8223 88.9201 79.1024 87.9901 79.7024C87.2401 80.1824 87.0001 81.1724 87.0001 82.0124C87.0301 83.9024 88.3501 85.5523 90.2101 85.9423C91.0501 86.0923 91.9201 85.9724 92.6701 85.5524C93.4801 85.1024 94.1401 84.2324 93.8701 83.2724C93.6001 82.3124 92.2501 81.3824 91.5301 82.4624C90.8701 83.4824 91.8301 84.7724 92.6701 85.3124C94.1101 86.2124 96.2401 85.8824 97.0801 84.3524C97.3801 83.8124 96.3601 82.7324 96.0301 83.3324C95.5501 84.1124 94.6801 84.5624 93.7801 84.5024C93.4201 84.5024 93.0601 84.3523 92.7601 84.1423C92.6101 84.0523 92.5201 83.8723 92.5201 83.6923C92.5501 83.6023 92.5801 83.5124 92.6401 83.4524C92.6701 83.3924 92.9101 83.3024 92.9101 83.3324C92.9101 83.2724 92.7601 83.2124 92.7901 83.2124C92.7601 83.2424 92.7301 83.5124 92.7001 83.5724C92.5501 83.8424 92.3401 84.0524 92.1001 84.2024C91.6501 84.5024 91.1401 84.6824 90.6001 84.7124C89.6401 84.8024 88.7401 84.2623 88.3801 83.3923C88.2001 82.9423 88.1701 82.4624 88.2901 81.9824C88.3801 81.5924 88.7101 80.8123 89.2201 80.8423C89.5801 80.8723 89.2201 81.6224 89.1001 81.8024C88.8001 82.3424 88.4101 82.8524 87.9301 83.2724C87.1201 84.0224 85.7701 85.0423 84.6001 84.7423C84.2401 84.6523 83.9401 84.4424 84.0601 84.0524C84.1201 83.8424 84.2701 83.6623 84.4801 83.5423C84.5701 83.5123 84.6601 83.4824 84.7501 83.4524C84.7801 83.4524 84.8101 83.4524 84.8401 83.4524C84.6301 82.8224 84.5101 82.6124 84.4501 82.8824C84.4501 82.9424 84.4201 82.9724 84.3901 83.0324C83.9401 84.0524 82.6801 84.8624 81.5701 84.5624C81.4501 84.5324 81.3301 84.4724 81.2401 84.4124C81.2101 84.3824 81.1201 84.2624 81.1501 84.3224C81.0901 84.1124 81.2701 83.8124 81.3901 83.6324C81.7201 83.0624 82.2301 82.6123 82.8601 82.3423C83.1901 82.1923 83.1601 81.8624 83.0101 81.5624C82.8901 81.2924 82.4701 80.8424 82.1701 80.9624Z" fill="#62206E"/>
<path d="M99.9297 80.122C99.7797 81.532 99.8697 82.942 100.2 84.322C100.26 84.652 100.71 84.712 100.98 84.682C101.19 84.652 101.76 84.502 101.7 84.172C101.4 82.792 101.31 81.382 101.43 79.972C101.43 79.852 101.28 79.732 101.19 79.672C101.01 79.612 100.83 79.582 100.65 79.582C100.35 79.642 99.9897 79.762 99.9297 80.122Z" fill="#62206E"/>
<path d="M102.18 80.0623V84.3823C102.18 84.7423 102.48 85.0423 102.84 85.0723C103.11 85.1023 103.68 85.0123 103.68 84.6223V80.3023C103.68 79.9423 103.38 79.6423 103.02 79.6123C102.72 79.5523 102.18 79.6723 102.18 80.0623Z" fill="#62206E"/>
<path d="M101.099 87.202L101.219 86.992C101.219 86.932 101.219 86.902 101.219 86.842C101.219 86.782 101.189 86.692 101.159 86.632C101.129 86.542 101.069 86.452 101.039 86.392C100.979 86.302 100.949 86.212 100.889 86.152L100.769 86.002C100.709 85.942 100.649 85.852 100.559 85.822L100.469 85.792C100.439 85.792 100.409 85.792 100.379 85.822C100.379 85.822 100.379 85.822 100.379 85.852L100.289 86.062C100.289 86.122 100.289 86.152 100.289 86.212C100.289 86.272 100.319 86.362 100.349 86.422C100.379 86.512 100.439 86.602 100.469 86.662C100.529 86.752 100.559 86.842 100.619 86.902L100.739 87.052C100.799 87.112 100.859 87.172 100.949 87.232L101.039 87.262C101.039 87.262 101.069 87.262 101.099 87.202Z" fill="#62206E"/>
<path d="M102.299 86.7525C102.329 86.7825 102.359 86.8125 102.419 86.8425H102.449C102.509 86.8725 102.569 86.9025 102.629 86.9025H102.809H102.839C102.899 86.9025 102.989 86.9025 103.049 86.9025H103.079L103.289 86.8425H103.319L103.499 86.7525H103.529L103.679 86.6625H103.709L103.829 86.5425V86.5125C103.859 86.4825 103.889 86.4225 103.919 86.3625C103.919 86.3625 103.919 86.3625 103.919 86.3325C103.949 86.2725 103.949 86.2425 103.949 86.1825V86.1525C103.949 86.1225 103.949 86.0925 103.949 86.0625C103.949 86.0325 103.949 86.0025 103.949 85.9725C103.919 85.9125 103.889 85.8525 103.829 85.8225C103.769 85.7925 103.709 85.7625 103.649 85.7325C103.559 85.7025 103.469 85.7025 103.379 85.7325C103.289 85.7325 103.199 85.7625 103.079 85.7925L102.899 85.8525C102.779 85.9125 102.689 85.9725 102.629 86.0625L102.539 86.1825C102.509 86.2425 102.479 86.3325 102.509 86.4225V86.4525V86.3325C102.509 86.3625 102.509 86.3625 102.509 86.3925L102.539 86.2725C102.539 86.3025 102.539 86.3025 102.509 86.3025L102.599 86.1825L102.569 86.2125L102.689 86.0925L102.659 86.1225L102.809 86.0325L102.779 86.0625L102.959 85.9725H102.929L103.109 85.9125H103.079H103.259H103.229H103.379H103.349L103.499 85.9425C103.499 85.9425 103.469 85.9125 103.469 85.8825L103.589 85.9425C103.529 85.8825 103.469 85.8525 103.409 85.8525C103.349 85.8225 103.259 85.8225 103.169 85.8225C103.079 85.8225 102.989 85.8225 102.899 85.8525C102.809 85.8825 102.719 85.9125 102.629 85.9425L102.479 86.0325C102.389 86.0925 102.329 86.1825 102.269 86.2725L102.239 86.3925C102.209 86.6025 102.239 86.6925 102.299 86.7525Z" fill="#62206E"/>
<path d="M102.84 49.2822H85.4697V70.5222H102.84V49.2822Z" fill="white"/>
<path d="M102.66 69.8619H85.29L86.19 70.6419V49.4019L85.65 49.9719H103.02L102.12 49.1919V70.4319C102.12 71.2419 103.56 71.5719 103.56 70.6419V49.4019C103.53 48.9519 103.14 48.5919 102.66 48.6219H85.29C84.99 48.6519 84.75 48.8919 84.75 49.1919V70.4319C84.78 70.8819 85.17 71.2419 85.65 71.2119H103.02C103.35 71.1819 103.59 70.9119 103.56 70.5819C103.56 70.5519 103.56 70.4919 103.53 70.4619C103.44 70.1019 103.08 69.8319 102.66 69.8619Z" fill="#62206E"/>
<path d="M88.4996 53.3927C88.4096 53.6027 88.3496 53.8127 88.3496 54.0227C88.3496 54.1727 88.3496 54.2927 88.3796 54.4427C88.4096 54.5927 88.4696 54.7127 88.5296 54.8327C88.5896 54.9527 88.6796 55.0727 88.7696 55.1927C88.8596 55.2827 88.9496 55.3727 89.0396 55.4627C89.1596 55.5827 89.3396 55.5827 89.4896 55.5227C89.5196 55.5227 89.5496 55.4927 89.5496 55.4627C89.6096 55.4027 89.6396 55.3427 89.6396 55.2827C89.6996 55.0727 89.6996 54.8327 89.6396 54.6227C89.5796 54.3227 89.4296 54.0527 89.2196 53.8127C89.0696 53.6027 88.8596 53.4827 88.6196 53.4227L89.3096 54.7127C89.3696 54.7127 89.4596 54.6827 89.5196 54.6527C89.5796 54.6227 89.6396 54.5627 89.6696 54.5027C89.6996 54.4427 89.6996 54.3827 89.6696 54.3227C89.6696 54.2327 89.6396 54.1727 89.6096 54.1127C89.5496 53.9327 89.4296 53.7527 89.3096 53.6327L89.1896 53.5127C89.1296 53.4527 89.0396 53.3927 88.9496 53.3327L88.8596 53.3027C88.7996 53.3027 88.7396 53.3327 88.7396 53.3927L88.7996 53.3327C88.7696 53.3927 88.7096 53.4227 88.6496 53.4527L88.7396 53.4227H88.7096C88.6796 53.4227 88.6196 53.4227 88.6196 53.4827C88.5896 53.5127 88.5596 53.5727 88.5896 53.6027C88.5896 53.6627 88.5896 53.7527 88.6196 53.8127C88.6496 53.9027 88.6796 53.9927 88.7096 54.0527C88.7996 54.2327 88.9196 54.3827 89.0396 54.5027C89.1296 54.5927 89.2496 54.6527 89.3696 54.6827H89.3996L89.3096 54.6527H89.3396L89.2196 54.5927H89.2496L89.1296 54.5027L89.1596 54.5327L89.0396 54.4127L89.0696 54.4427L88.9496 54.2927L88.9796 54.3227L88.8896 54.1427V54.1727L88.8296 53.9927C88.8296 54.0227 88.8596 54.0227 88.8596 54.0527L88.7996 53.9027C88.7996 53.9327 88.8296 53.9927 88.8296 54.0227V53.9027C88.8296 53.9927 88.8296 54.0827 88.8296 54.1727V54.0827C88.8296 54.1427 88.7996 54.2027 88.7696 54.2627L88.8296 54.2027C88.7996 54.2327 88.7696 54.2627 88.7096 54.2927L88.7996 54.2627C88.7696 54.2627 88.7396 54.2627 88.7096 54.2627L88.7996 54.2927H88.7696L88.8896 54.3527H88.8596L88.9796 54.4427L88.9496 54.4127L89.0696 54.5327L89.1896 54.6827L89.2796 54.8627V54.8327L89.3396 55.0127V54.9827L89.3696 55.1327C89.3696 55.1027 89.3696 55.0727 89.3696 55.0727V55.1927C89.3396 55.0727 89.3396 54.9227 89.3696 54.8027V54.8927C89.3996 54.7727 89.4296 54.6227 89.4896 54.5027C89.5196 54.4427 89.5196 54.3827 89.4896 54.3227C89.4896 54.2327 89.4596 54.1727 89.4296 54.1127C89.3696 53.9327 89.2496 53.7527 89.1296 53.6327L89.0096 53.5127C88.9496 53.4527 88.8596 53.3927 88.7696 53.3327C88.6196 53.3027 88.5296 53.3027 88.4996 53.3927Z" fill="#62206E"/>
<path d="M92.7302 55.2825C93.3302 54.8625 93.8702 54.3825 94.3802 53.8425C94.5602 53.6625 94.8902 53.3925 94.8602 53.1225C94.8602 52.7625 94.4102 52.5825 94.1102 52.5525C93.4802 52.4325 92.7302 52.6425 92.4602 53.3025C92.2802 53.8425 92.4902 54.4725 93.0002 54.7725C93.9602 55.5225 96.1802 55.7625 96.7502 54.3525C97.0502 53.5725 96.3002 53.1225 95.5802 53.1825C95.2502 53.1825 94.9502 53.3625 94.8002 53.6625C94.6202 53.9925 94.5902 54.3825 94.7102 54.7425C95.0402 55.4325 96.0602 55.5225 96.7202 55.5225C97.5902 55.5525 98.4302 55.3425 99.2102 54.9525L98.0402 54.8325C98.7602 55.4025 99.7502 55.4925 100.59 55.1025C100.86 54.9525 100.86 54.7125 100.62 54.5625C100.29 54.3825 99.9002 54.3825 99.5702 54.5325C99.4502 54.5925 99.4202 54.5625 99.5102 54.5925C99.4802 54.5625 99.4202 54.5625 99.3902 54.5025C99.0602 54.2625 98.6102 54.2025 98.2202 54.3825C97.7402 54.6525 97.2002 54.7725 96.6602 54.7425C96.4802 54.7425 96.3002 54.7425 96.2102 54.5625C96.0902 54.3225 96.2402 53.9325 96.3902 53.7225L96.1802 53.9025L95.3702 53.8425V53.9625C95.3402 54.0225 95.3402 54.1125 95.3102 54.1725C95.2502 54.3225 95.1302 54.4125 95.0102 54.5025C94.8002 54.5925 94.5902 54.5625 94.4102 54.4425C94.1702 54.3225 93.9902 54.1125 93.9302 53.8425C93.9002 53.7225 93.9302 53.5725 93.9902 53.4525C94.0202 53.3925 94.0502 53.3625 94.0802 53.3025C94.0802 53.2725 94.1102 53.2725 94.1402 53.2425C94.3202 53.0925 94.1402 53.0925 93.5702 53.2125L93.3902 53.0325C93.4802 53.1525 92.7002 53.8125 92.5802 53.9325C92.2502 54.2625 91.8902 54.5325 91.5002 54.8025C91.2002 55.0125 91.5302 55.2825 91.7402 55.3425C92.0402 55.4925 92.4302 55.4325 92.7302 55.2825Z" fill="#62206E"/>
<path d="M88.9194 59.6924C88.8294 59.9024 88.7694 60.1124 88.7094 60.3224C88.6794 60.4724 88.6494 60.6224 88.6494 60.7724C88.6494 60.8924 88.7094 61.0124 88.7994 61.1324C88.8894 61.2224 89.0094 61.3124 89.1594 61.3424C89.3394 61.3724 89.5494 61.3724 89.7594 61.3424C89.9694 61.2824 90.1494 61.2224 90.3294 61.1024C90.4794 60.9824 90.6294 60.8624 90.7494 60.6824C90.8394 60.5324 90.8994 60.3524 90.8994 60.1724C90.8994 60.1124 90.8994 60.0824 90.8994 60.0224C90.8994 59.9324 90.8694 59.8424 90.8394 59.7524C90.7794 59.6324 90.7194 59.5124 90.5994 59.3924C90.4794 59.2724 90.3294 59.2124 90.1494 59.2424C90.0594 59.2424 89.9694 59.2424 89.8794 59.2724C89.7894 59.3024 89.6994 59.3324 89.6094 59.3924C89.4594 59.4824 89.3394 59.6324 89.2794 59.7824C89.2194 59.9324 89.2494 60.0824 89.3694 60.1724C89.3994 60.2024 89.4294 60.2324 89.4594 60.2924L89.3994 60.1724C89.4294 60.2324 89.4594 60.3224 89.4894 60.3824L89.4594 60.2324C89.4594 60.2924 89.4594 60.3824 89.4594 60.4424L89.4894 60.2924C89.4894 60.3524 89.4594 60.3824 89.4594 60.4424L89.5194 60.2924C89.4894 60.3224 89.4894 60.3824 89.4594 60.4124L89.5794 60.2924C89.5494 60.3224 89.5194 60.3524 89.4894 60.3824L89.6394 60.2624L89.5494 60.3224L89.7294 60.2324C89.6994 60.2624 89.6694 60.2624 89.6394 60.2624L89.8194 60.2024L89.6994 60.2324L89.8794 60.2024C89.8494 60.2024 89.8194 60.2024 89.7594 60.2024L89.9394 60.2324C89.9094 60.2324 89.9094 60.2324 89.8794 60.2324L90.0294 60.2924L89.9994 60.2624L90.1194 60.3524L90.0894 60.3224L90.1794 60.4424V60.4124L90.2094 60.5624C90.2094 60.4424 90.2094 60.3524 90.2394 60.2324L90.2094 60.3824C90.2394 60.1724 90.3294 59.9324 90.4194 59.7524C90.4794 59.6024 90.4494 59.4524 90.3294 59.3324C90.2094 59.2124 90.0594 59.1524 89.8794 59.1824C89.6694 59.1824 89.4894 59.2424 89.3094 59.3624L89.1594 59.4824C89.0694 59.5724 89.0094 59.6624 88.9794 59.7524L88.9194 59.6924Z" fill="#62206E"/>
<path d="M92.7004 61.3719C93.7504 61.1019 94.8304 60.5319 95.4904 59.6319C95.8204 59.1819 96.0004 58.5519 95.5804 58.1019C95.1604 57.7119 94.5304 57.6219 94.0204 57.8619C93.5404 58.1319 93.1804 58.5519 93.0004 59.0919C92.7904 59.6319 92.9104 60.2619 93.3304 60.7119C94.0804 61.4619 95.4004 61.7619 96.4204 61.7619C97.0804 61.7619 97.8304 61.4919 98.1604 60.8619C98.4304 60.3219 98.2204 59.6619 97.6804 59.3619C97.3204 59.1819 96.9004 59.2719 96.6304 59.5719C96.3904 59.8419 96.3604 60.2319 96.5404 60.5619C96.7804 60.8619 97.1104 61.1019 97.4704 61.1919C98.1904 61.4019 98.9704 61.3719 99.6904 61.1019C100.02 60.9819 100.17 60.6219 100.08 60.3219C100.08 60.2919 100.08 60.2919 100.05 60.2619C99.8404 59.9019 99.3904 59.9019 99.0604 60.0219C98.8204 60.1119 98.5804 60.1119 98.3704 60.0819C98.1904 60.0519 98.0404 59.9919 97.8904 59.9019C97.9504 59.9619 97.9504 60.0819 97.8904 60.1719L96.8404 60.3819C96.6604 60.2619 96.8704 60.3519 96.8104 60.4119C96.7804 60.4419 96.7504 60.4419 96.7204 60.4719C96.4504 60.5619 96.0304 60.4419 95.7604 60.3819C95.3404 60.2919 94.2604 60.0519 94.3804 59.4519C94.4104 59.3619 94.6504 58.9419 94.6204 58.9119C94.5904 58.8819 94.3504 58.8819 94.3804 58.8819C94.3204 58.8819 94.3804 58.8219 94.3204 58.8519C94.2604 58.8819 94.1704 59.0619 94.1404 59.1219C93.6604 59.6019 93.0904 59.9619 92.4304 60.1419C92.1004 60.2319 91.7404 60.5019 91.8304 60.8919C91.9804 61.2819 92.3404 61.4919 92.7004 61.3719Z" fill="#62206E"/>
<path d="M88.6498 65.0322C88.6198 65.0922 88.6198 65.1822 88.5898 65.2422C88.5898 65.2722 88.5898 65.3022 88.5898 65.3622C88.5898 65.4522 88.5898 65.5422 88.5898 65.6322C88.6198 65.8122 88.6798 65.9622 88.7398 66.1122C88.7698 66.1422 88.7998 66.1722 88.7998 66.2322C88.7998 66.2922 88.8598 66.2922 88.8898 66.3522C88.9498 66.4122 88.9798 66.4722 89.0398 66.5022L89.0698 66.5322L89.2498 66.6522C89.2798 66.6822 89.3098 66.6822 89.3698 66.6822C89.3998 66.7122 89.4298 66.7122 89.4898 66.7122C89.5498 66.7422 89.6098 66.7422 89.6698 66.7422H89.6998C89.7598 66.7422 89.8198 66.7422 89.8498 66.7122C89.8798 66.7122 89.9099 66.7122 89.9099 66.6822C89.9699 66.6522 90.0298 66.6222 90.0898 66.5622C90.1498 66.5022 90.1799 66.4722 90.2099 66.4122C90.2099 66.3822 90.2398 66.3522 90.2398 66.3522V66.3222C90.2698 66.2622 90.2698 66.2022 90.2998 66.1422C90.2998 66.0522 90.2998 65.9622 90.2998 65.8722C90.2998 65.8422 90.2998 65.7822 90.2998 65.7522C90.2698 65.6322 90.2399 65.4822 90.2099 65.3622C90.1799 65.2722 90.1499 65.1822 90.0599 65.1222C89.9999 65.0322 89.9398 64.9722 89.8498 64.9122C89.7898 64.8522 89.6999 64.8222 89.6099 64.7922C89.5499 64.7622 89.4598 64.7322 89.3698 64.7322L89.2198 64.7622C89.1298 64.7922 89.0699 64.8522 89.0099 64.9422L88.9798 65.0622C88.9798 65.1822 88.9799 65.2722 89.0099 65.3922C89.0399 65.4522 89.0398 65.5122 89.0698 65.5722L89.0398 65.3922C89.0398 65.4522 89.0698 65.5122 89.0698 65.5722V65.4222C89.0698 65.4522 89.0698 65.5122 89.0398 65.5422L89.0698 65.3922C89.0698 65.4522 89.0399 65.4822 89.0099 65.5122L89.0998 65.3922C89.0698 65.4222 89.0399 65.4522 89.0099 65.4822L89.1298 65.4222C89.0998 65.4222 89.0698 65.4522 89.0398 65.4522L89.1898 65.4222H89.1298L89.2798 65.4522L89.2198 65.4222L89.3698 65.4822L89.3398 65.4522L89.4898 65.5422C89.4598 65.5422 89.4599 65.5122 89.4599 65.5122L89.6099 65.6622C89.6099 65.6622 89.5798 65.6322 89.5798 65.6022L89.6998 65.7822C89.6998 65.7522 89.6698 65.7522 89.6698 65.7222L89.7298 65.9022C89.7298 65.8722 89.6998 65.8422 89.6998 65.8122L89.7298 65.9922C89.7298 65.9622 89.7298 65.9022 89.7298 65.8722V66.0222C89.7298 65.9022 89.7598 65.8122 89.7898 65.6922C89.7898 65.6022 89.7898 65.5422 89.7898 65.4522C89.7898 65.3622 89.7298 65.2722 89.6998 65.1822C89.6398 65.0922 89.5798 65.0022 89.5198 64.9422C89.4598 64.8822 89.3698 64.8222 89.2798 64.7622L89.1298 64.7022C89.0398 64.6722 88.9198 64.6722 88.8298 64.7022L88.7099 64.7622C88.7399 64.8822 88.6798 64.9422 88.6498 65.0322Z" fill="#62206E"/>
<path d="M93.4794 66.6825C94.3794 66.5025 95.1294 65.9025 95.5494 65.0625C95.7594 64.6725 95.8194 64.2525 95.7594 63.8325C95.6694 63.5925 95.5194 63.4125 95.3094 63.3225C94.9794 63.1125 94.5894 62.9625 94.1994 62.8725C93.6894 62.8125 93.3894 63.3825 93.3594 63.8025C93.3294 64.2825 93.5094 64.7625 93.8694 65.0925C94.3494 65.5125 94.8894 65.8425 95.4894 66.0525C96.0294 66.2625 96.5694 66.3525 97.1394 66.3225C97.4394 66.2925 97.7394 66.2325 98.0394 66.1125C98.2494 66.0225 98.5794 65.9025 98.6694 65.6625C98.7294 65.4525 98.6394 65.2425 98.4594 65.1225C98.0994 64.8525 97.6494 64.6725 97.1994 64.5825C97.1694 64.5525 97.1094 64.5825 97.0794 64.6125C96.9294 65.0325 97.4394 65.3025 97.7394 65.4825C98.0394 65.6625 98.3394 65.7825 98.6694 65.8425C98.9394 65.8725 99.2094 65.9025 99.4494 65.9025C99.7494 65.9325 99.3294 65.6625 99.2694 65.6325C98.9694 65.4525 98.6694 65.3025 98.3094 65.2425C98.1294 65.2125 97.9494 65.1825 97.7694 65.2125L98.4294 65.5425L98.3994 65.4825C98.3994 65.3625 98.3694 65.3625 98.3994 65.2425L98.2794 65.2725H98.3394L97.7394 65.0625L97.7994 65.0925L97.2294 64.7625C97.4094 64.9125 97.1994 65.1825 97.0794 65.3025C96.8694 65.4525 96.6294 65.5425 96.3894 65.6025C96.1494 65.6625 95.9094 65.6925 95.6694 65.7225C95.5194 65.7225 95.3694 65.7225 95.2194 65.6925C95.1294 65.6925 94.8594 65.5725 95.1594 65.7225C95.4594 65.8725 95.2194 65.7225 95.1594 65.6625C95.0694 65.5725 94.9794 65.4825 94.9194 65.3625C94.7994 65.1525 94.7094 64.9425 94.6794 64.7025C94.6494 64.4925 94.6794 64.2825 94.7694 64.0725C94.7994 63.9525 94.8894 63.8625 94.9494 63.7425C94.9794 63.6825 95.0394 63.6525 95.0994 63.6225C95.2494 63.5925 95.2794 63.5625 95.1294 63.5025L94.4394 63.2025C94.1994 63.0525 94.3194 63.1425 94.3794 63.2625C94.4094 63.3525 94.4094 63.4425 94.4094 63.5325C94.4094 63.7125 94.3794 63.8625 94.3494 64.0125C94.2594 64.3425 94.1094 64.6725 93.8994 64.9425C93.4794 65.5125 92.8794 65.9325 92.1894 66.0825C92.0394 66.1125 92.5794 66.4125 92.6094 66.4425C92.8194 66.5025 93.2094 66.7425 93.4794 66.6825Z" fill="#62206E"/>
<path d="M89.9995 93.3525L80.8495 93.4725C80.4295 93.4725 81.0595 108.533 81.0595 108.863C81.0595 109.193 94.5595 109.283 94.5595 108.683C94.5595 108.083 94.7095 97.7625 94.7095 97.7625C92.6995 96.7725 89.9995 93.3525 89.9995 93.3525Z" fill="white"/>
<path d="M89.85 92.6923L84.87 92.7523L81.69 92.7823C81.27 92.7823 80.43 92.6323 80.25 93.1423C80.13 93.6523 80.1 94.1623 80.13 94.6723C80.13 95.6023 80.13 96.5323 80.13 97.4323C80.16 99.7423 80.22 102.052 80.31 104.392C80.34 105.772 80.37 107.182 80.46 108.562C80.52 109.372 81.09 109.582 81.78 109.642C82.53 109.702 83.31 109.732 84.06 109.762C86.31 109.822 88.59 109.822 90.84 109.762C91.8 109.732 92.76 109.702 93.69 109.612C94.08 109.582 94.83 109.582 95.07 109.222C95.16 109.012 95.19 108.772 95.16 108.562V107.542C95.16 106.462 95.19 105.412 95.19 104.332C95.22 102.322 95.25 100.342 95.28 98.3323C95.28 98.2123 95.28 98.0923 95.28 97.9723C95.25 97.5823 95.04 97.2523 94.68 97.1023C93.63 96.5923 92.67 95.5723 91.83 94.7023C91.44 94.3123 91.08 93.8923 90.72 93.4723L90.54 93.2323L90.48 93.1723C90.39 93.0523 90.6 93.3223 90.51 93.2023L90.39 93.0523C90.21 92.8123 89.85 92.5123 89.55 92.7223C89.25 92.9323 89.37 93.4123 89.55 93.6223C90.12 94.3123 90.69 95.0023 91.32 95.6323C92.31 96.6823 93.39 97.7023 94.68 98.3623L94.08 97.4923C94.02 100.942 93.96 104.392 93.93 107.842C93.9 108.022 93.9 108.202 93.93 108.412C93.84 108.352 94.05 108.112 94.08 108.082C94.05 108.112 93.96 108.112 94.14 108.052C94.05 108.082 93.99 108.112 93.9 108.112C93.24 108.232 92.58 108.292 91.89 108.292C89.85 108.382 87.6 108.412 85.5 108.382C84.54 108.382 83.58 108.352 82.62 108.322C82.08 108.292 81.54 108.202 81 108.202C80.94 108.202 81.18 108.262 81.06 108.202C81.36 108.382 81.54 108.682 81.63 109.042C81.63 108.982 81.63 108.952 81.63 108.892C81.63 108.682 81.63 108.472 81.6 108.292L81.51 106.042C81.45 103.852 81.36 101.662 81.33 99.4423C81.3 97.7023 81.21 95.9623 81.33 94.2523C81.33 94.1623 81.36 94.0723 81.36 93.9523C81.36 93.8323 81.3 94.1323 81.36 93.9823C81.36 93.9523 81.36 93.9223 81.39 93.8923C81.36 93.9523 81.21 94.1323 81.03 94.1023C81.12 94.1023 81.21 94.1023 81.27 94.1023L83.73 94.0723L89.73 93.9823H90.12C90.99 94.0423 90.51 92.6623 89.85 92.6923Z" fill="#2B0E30"/>
<path d="M90 93.3525L90.36 97.7025L94.71 97.7625L90 93.3525Z" fill="white"/>
<path d="M89.2798 93.2028L89.5798 96.9828L89.6098 97.5228C89.6098 97.6728 89.8498 97.7928 89.9698 97.8528C90.1798 97.9728 90.3898 98.0328 90.5998 98.0328L94.3798 98.0928H94.9198C95.2198 98.0928 95.5198 98.0028 95.2198 97.7028L91.0798 93.8628L90.5098 93.3228C90.2398 93.0828 89.8798 92.9628 89.4898 92.9928C89.1898 93.0228 89.1598 93.2028 89.3698 93.3828L93.5098 97.2528L94.0798 97.7928L94.3798 97.4028L90.5698 97.3428H90.0298L91.0198 97.8528L90.6898 94.0728L90.6598 93.5328C90.6598 93.4128 90.4498 93.2928 90.3898 93.2628C90.2098 93.1728 90.0298 93.0828 89.8498 93.0528C89.7298 92.9928 89.2498 92.9328 89.2798 93.2028Z" fill="#2B0E30"/>
<path d="M83.5497 102.083C83.4297 102.653 83.3097 103.283 83.6697 103.733C84.0297 104.123 84.5997 104.243 85.0797 104.033C85.5597 103.823 85.9497 103.493 86.2497 103.073C86.4897 102.773 86.6997 102.443 86.7897 102.083C86.8797 101.693 86.7597 101.303 86.4897 101.033C86.1897 100.793 85.7697 100.823 85.4997 101.123L85.4697 101.153C85.3797 101.363 85.3497 101.633 85.4097 101.873C85.5297 102.623 85.7997 103.343 86.1597 104.003C86.2197 104.123 86.3097 104.213 86.4297 104.303C86.5497 104.363 86.6697 104.363 86.7897 104.333C87.9597 104.183 88.8297 103.163 89.3397 102.083C89.7297 101.273 89.9097 100.403 89.8797 99.5025C89.8797 99.2325 89.7897 98.9625 89.6397 98.7225C89.4897 98.4825 89.2197 98.3625 88.9197 98.4225C88.4697 98.5425 88.3497 99.0825 88.3497 99.5325C88.3497 101.063 88.8297 102.533 89.7297 103.793C89.9097 104.123 90.2097 104.363 90.5397 104.483C90.9297 104.543 91.3197 104.453 91.5897 104.183C91.8597 103.913 92.0997 103.613 92.2797 103.283" fill="white"/>
<path d="M82.8295 102.112C82.7095 102.682 82.5895 103.342 82.8895 103.882C83.1895 104.392 83.7595 104.692 84.3595 104.662C85.6495 104.692 86.8795 103.522 87.3595 102.382C87.6295 101.842 87.5695 101.212 87.2095 100.732C86.8195 100.252 86.0995 100.192 85.5595 100.432C84.1195 101.032 84.7795 102.862 85.3195 103.912C85.4395 104.182 85.5895 104.392 85.7695 104.602C86.0395 104.812 86.3995 104.902 86.7595 104.812C87.3895 104.722 87.9895 104.482 88.4695 104.062C89.4295 103.252 90.1195 102.142 90.4195 100.912C90.6895 99.892 90.8395 97.792 89.2795 97.792C88.6195 97.792 88.0495 98.182 87.8095 98.782C87.6295 99.322 87.5995 99.922 87.6895 100.462C87.8395 101.902 88.4095 103.252 89.2795 104.362C89.7295 104.932 90.4795 105.142 91.1695 104.902C91.9795 104.632 92.4895 104.032 92.9395 103.342C93.0595 103.162 93.0295 102.892 92.8195 102.772C92.7595 102.742 92.6995 102.712 92.6395 102.712C92.2495 102.652 91.8895 102.832 91.6795 103.162C91.5295 103.372 91.3495 103.762 91.1095 103.882C90.8695 104.002 90.6295 103.702 90.4795 103.522C89.9995 102.892 89.6395 102.172 89.4295 101.422C89.1595 100.702 89.0695 99.922 89.0995 99.142C89.0995 99.052 89.1895 98.872 89.1895 98.812C89.0995 98.752 88.9795 98.812 88.8895 98.932C88.8895 99.022 88.7995 98.722 88.9195 98.962C88.9795 99.112 89.0995 99.172 89.1295 99.352C89.1895 99.562 89.1895 99.802 89.1895 100.012C89.1595 100.792 88.9495 101.572 88.5595 102.262C88.2595 102.802 87.8695 103.372 87.2995 103.612C87.2095 103.672 87.1195 103.702 86.9995 103.702C86.9995 103.702 86.9995 103.732 86.9395 103.672C86.8795 103.612 86.8495 103.522 86.8195 103.432C86.6095 103.072 86.4595 102.682 86.3395 102.262C86.2795 102.052 86.2195 101.842 86.1895 101.632C86.1895 101.542 86.1595 101.482 86.1595 101.392C86.1595 101.212 86.2195 101.242 86.0995 101.272C86.0995 101.272 85.9195 101.452 85.8895 101.392L85.9495 101.422C85.9795 101.542 86.1295 101.632 86.1595 101.782C86.2195 102.202 85.9795 102.562 85.7095 102.862C85.5295 103.132 85.2895 103.342 85.0195 103.462C84.7195 103.552 84.4195 103.402 84.2995 103.132C84.1195 102.772 84.2395 102.322 84.2995 101.962C84.3895 101.212 82.9795 101.482 82.8295 102.112Z" fill="#2B0E30"/>
<path d="M64.1098 45.4727L54.9598 45.5927C54.5398 45.5927 55.1698 60.6527 55.1698 60.9827C55.1698 61.3127 68.6698 61.4027 68.6698 60.8027C68.6698 60.2027 68.8198 49.8827 68.8198 49.8827C66.8398 48.8927 64.1098 45.4727 64.1098 45.4727Z" fill="white"/>
<path d="M64.3193 44.9023L59.3393 44.9623L56.1593 44.9923C55.5293 44.9923 54.5693 44.8723 54.2993 45.6223C54.1793 46.1023 54.1493 46.5823 54.1793 47.0923C54.1493 47.9923 54.1793 48.9223 54.1793 49.8223C54.2093 52.1623 54.2993 54.4723 54.3593 56.8123C54.3893 58.2223 54.3893 59.6323 54.5093 61.0423C54.5693 61.6123 55.1993 61.5823 55.6493 61.6423C56.4293 61.7023 57.2393 61.7323 58.0193 61.7623C60.2993 61.8223 62.5493 61.8223 64.8293 61.7623C65.7293 61.7323 66.5993 61.7023 67.4993 61.6123C68.0993 61.5523 68.9993 61.5523 69.3593 60.9823C69.4493 60.7723 69.4793 60.5623 69.4493 60.3523V59.3323C69.4793 58.2523 69.4793 57.1723 69.4793 56.0923C69.5093 54.0823 69.5393 52.1023 69.5693 50.0923C69.5693 49.9723 69.5693 49.8523 69.5693 49.7323C69.5693 49.5823 69.4793 49.4623 69.3593 49.4023C68.1893 48.8023 67.2293 47.8423 66.3293 46.8823C65.7893 46.3123 65.2493 45.7123 64.7693 45.0823C64.3493 44.5723 63.0593 45.2923 63.5393 45.8923C64.0493 46.5523 64.6193 47.1523 65.1593 47.7523C66.0893 48.7423 67.1393 49.7623 68.3393 50.3623L68.0993 50.0023C68.0393 53.4523 67.9793 56.9023 67.9493 60.3823C67.9193 60.5623 67.9193 60.7423 67.9493 60.9523C67.8893 60.8023 68.1593 60.5623 68.2793 60.4723C68.1893 60.5323 68.5193 60.3523 68.3693 60.4123C68.2193 60.4723 68.6093 60.3823 68.4593 60.3823C68.3993 60.3823 68.3393 60.4123 68.2793 60.4123C68.1593 60.4423 68.0393 60.4423 67.9193 60.4723C67.8593 60.4723 67.6493 60.5023 67.8593 60.4723L67.5593 60.5023C67.1693 60.5323 66.7793 60.5623 66.3593 60.5623C64.1993 60.6823 62.0093 60.6823 59.8493 60.6523C58.9193 60.6523 57.9593 60.6223 57.0293 60.5923C56.6993 60.5623 56.3693 60.5623 56.0093 60.5323L55.8293 60.5023C55.8893 60.5023 56.0693 60.5323 55.8293 60.5023C55.7393 60.4723 55.6793 60.4723 55.5893 60.4723C55.4693 60.4723 55.7093 60.5323 55.6793 60.5023C55.7393 60.5323 55.9193 60.7123 55.8893 60.8023C55.8893 60.7723 55.8893 60.7123 55.8893 60.6823C55.8893 60.4723 55.8893 60.2923 55.8593 60.0823C55.8293 59.3623 55.7993 58.6123 55.7693 57.8923C55.6793 55.7023 55.6193 53.4823 55.5893 51.2923C55.5593 49.5523 55.4693 47.8123 55.5893 46.0723C55.5893 45.9523 55.5893 45.8623 55.6193 45.7723C55.6193 45.7423 55.6193 45.7123 55.6193 45.6523C55.6193 45.5923 55.5593 45.8023 55.6193 45.6823C55.6493 45.6223 55.6493 45.6523 55.5593 45.7723C55.4393 45.9523 54.5993 46.1323 54.8093 46.1623C54.8993 46.1623 54.9893 46.1623 55.0793 46.1623L57.5093 46.1323L63.5393 46.0423H63.9293C64.3193 46.0423 64.6493 45.8323 64.7993 45.4723C64.9193 45.1423 64.6193 44.9023 64.3193 44.9023Z" fill="#62206E"/>
<path d="M64.1094 45.4727L64.4694 49.7927L68.8194 49.8827L64.1094 45.4727Z" fill="white"/>
<path d="M63.3894 45.5926L63.7194 49.3726L63.7794 49.9126C63.8094 50.1526 64.1994 50.2126 64.3794 50.2126L68.1894 50.2726H68.7294C68.9694 50.2726 69.2394 50.1826 69.4194 50.0326C69.5094 49.9426 69.6894 49.7326 69.5394 49.6126L65.3994 45.7726L64.8294 45.2326C64.5594 45.0226 64.1994 44.9626 63.8694 45.1126C63.7194 45.1726 63.1794 45.4726 63.4494 45.7126L67.5894 49.5826L68.1594 50.1226L68.9694 49.4626L65.1594 49.4026H64.6194L65.2194 49.7026L64.9194 45.9226L64.8594 45.3826C64.8294 45.0526 64.2594 45.0526 64.0494 45.1126C63.8394 45.1726 63.3594 45.2626 63.3894 45.5926Z" fill="#62206E"/>
<path d="M58.5293 56.3924C58.5293 55.7324 58.7693 55.0724 59.2493 54.5924C59.4893 54.3524 59.8193 54.1724 60.1493 54.0824C60.4193 54.0224 60.5993 53.9624 60.7193 54.1724C61.1693 54.8024 61.4093 55.5524 61.4093 56.3324C61.4093 56.6624 61.3493 56.9924 61.2293 57.3224C61.1693 57.5024 60.8693 58.1024 60.6593 58.1324L61.2293 58.1624C61.5293 58.2224 61.4093 58.1024 61.4093 57.8924C61.4093 57.7724 61.4393 57.6524 61.4693 57.5024C61.5293 57.2624 61.6193 57.0224 61.7393 56.8124C61.9493 56.3924 62.2193 55.9724 62.5493 55.6124C62.6393 55.5224 62.6993 55.4324 62.7893 55.3424L62.8793 55.2524C63.0893 55.1324 62.9993 55.0724 62.6093 55.0724C62.6993 55.1924 62.9093 55.3124 63.0293 55.4324C63.2993 55.7624 63.5093 56.1224 63.5993 56.5424C63.6893 56.9324 63.7193 57.3524 63.6293 57.7424C63.6293 57.8024 63.5993 57.8924 63.5693 57.9524L64.3193 58.1024C64.3193 58.0724 64.2593 57.8024 64.2593 57.7124C64.2893 57.4724 64.3493 57.2624 64.4693 57.0524C64.8293 56.3324 65.5193 55.8224 66.2993 55.6724C66.5093 55.6424 66.8393 55.5224 66.6293 55.2824C66.4193 55.0424 65.9093 54.9824 65.6393 55.0124C64.6793 55.1024 63.8393 55.5824 63.2693 56.3624C62.9993 56.7224 62.8193 57.1724 62.7893 57.6224C62.7893 58.1924 63.2693 58.4624 63.7493 58.5824C64.2293 58.7024 64.8893 58.6724 65.0693 58.1024C65.1893 57.6824 65.1893 57.2024 65.0993 56.7824C64.9193 55.8224 64.2893 54.9824 63.3893 54.5924C62.8493 54.3824 62.1593 54.3524 61.6493 54.7124C61.2593 55.0424 60.9293 55.4324 60.6593 55.8824C60.2093 56.5724 59.3393 58.1324 60.5093 58.6124C61.0493 58.8524 61.6493 58.7624 62.1293 58.4324C62.4893 58.1024 62.7593 57.6524 62.8493 57.1424C63.0893 56.1524 62.7593 55.0124 62.1893 54.1424C61.4993 53.0924 59.7893 53.1524 58.7693 53.5724C57.7193 53.9924 57.0293 55.0124 57.0293 56.1524C57.0593 56.6324 58.5293 56.7824 58.5293 56.3924Z" fill="#62206E"/>
<path d="M48.6299 106.912C48.6299 106.912 49.6799 102.322 48.6299 98.4521H57.7199C57.7199 98.4521 58.2599 104.692 58.2599 107.032L48.6299 106.912Z" fill="#2B0E30"/>
<path d="M49.3193 106.973C49.9793 104.153 50.0693 101.003 49.3193 98.2128L48.4193 99.0528H57.5093L56.9693 98.5728C57.2093 101.423 57.5093 104.303 57.5093 107.153L58.4393 106.463L50.0093 106.343H48.8093C48.4193 106.313 48.0593 106.523 47.9093 106.883C47.8493 107.153 47.9993 107.423 48.2693 107.483C48.3293 107.483 48.3893 107.513 48.4193 107.513L56.8493 107.633H58.0493C58.4093 107.633 58.9793 107.393 58.9793 106.943C58.9793 104.093 58.6793 101.213 58.4393 98.3628C58.4093 98.0928 58.1693 97.8828 57.8993 97.8828H48.8093C48.3893 97.8828 47.7593 98.1828 47.9093 98.7228C48.3593 100.553 48.4793 102.413 48.2993 104.273C48.2393 105.143 48.1193 106.043 47.9393 106.913C47.7293 107.723 49.1693 107.633 49.3193 106.973Z" fill="#2B0E30"/>
<path d="M51.0597 103.852C51.7197 104.242 52.2897 104.752 52.7397 105.382C52.8597 105.562 53.0397 105.712 53.2797 105.772C53.3997 105.802 53.6397 105.862 53.7597 105.712C54.7197 104.242 55.6497 102.742 56.5497 101.212C56.6097 101.092 56.5497 100.882 56.4897 100.762C56.3997 100.582 56.2797 100.432 56.0997 100.312C55.8297 100.132 55.4997 100.072 55.3197 100.372C54.4797 101.812 53.5797 103.252 52.6797 104.632L53.6697 104.962C53.0697 104.122 52.2897 103.432 51.4197 102.892C51.1797 102.742 50.7597 102.622 50.6397 102.952C50.5197 103.282 50.7897 103.672 51.0597 103.852Z" fill="white"/>
<path d="M106.859 64.4327C106.859 64.4327 107.909 59.8427 106.859 55.9727H115.949C115.949 55.9727 116.489 62.2127 116.489 64.5527L106.859 64.4327Z" fill="#2B0E30"/>
<path d="M107.43 64.7322C107.64 63.7722 107.76 62.8122 107.85 61.8522C108.03 59.8722 107.88 57.8622 107.4 55.9122L107.04 56.6622H116.13L115.35 55.8222C115.59 58.6722 115.89 61.5522 115.89 64.4022L116.28 63.8322L107.85 63.7122L106.65 63.6822C106.29 63.6822 106.23 64.1922 106.29 64.4622C106.38 64.8222 106.68 65.0922 107.04 65.1222L115.47 65.2422L116.67 65.2722C116.97 65.2722 117.06 64.9122 117.06 64.7022C117.06 61.8222 116.76 58.9722 116.52 56.1222C116.52 55.6722 116.16 55.3422 115.74 55.2822H106.65C106.29 55.2822 106.23 55.7922 106.29 56.0322C106.71 57.8022 106.83 59.6622 106.65 61.4622C106.59 62.3622 106.44 63.2622 106.26 64.1322C106.11 64.7922 107.22 65.6322 107.43 64.7322Z" fill="#2B0E30"/>
<path d="M110.1 58.6126H111.9L111.3 58.2826C111.12 58.7626 110.88 59.2426 110.64 59.6926C110.52 59.8726 110.85 59.9626 110.97 59.9926C111.24 60.0226 111.54 59.9926 111.81 59.8726C111.81 59.8726 112.02 59.7826 111.9 59.8126C112.05 59.7526 111.9 59.8126 111.87 59.8126C111.93 59.8426 111.96 59.7826 111.87 59.8126C111.93 59.8426 111.93 59.8426 111.96 59.8426C112.14 59.9326 112.29 60.0826 112.35 60.2926C112.53 60.8026 112.5 61.3726 112.23 61.8526C112.2 61.9426 112.14 62.0326 112.05 62.1226C112.05 62.1226 111.93 62.2126 111.99 62.1826L111.96 62.2126L112.02 62.1826C112.11 62.1526 112.11 62.1526 112.02 62.1826H112.08C112.08 62.1826 111.87 62.1826 111.99 62.1826C111.93 62.1826 111.87 62.1826 111.78 62.1826C111.75 62.1826 111.6 62.1526 111.69 62.1826C111.3 62.1526 110.94 61.9426 110.73 61.5826C110.61 61.3126 110.16 61.3426 109.92 61.3726C109.8 61.4026 109.14 61.5826 109.23 61.8226C109.47 62.3326 109.95 62.6626 110.49 62.7826C111.21 62.9926 111.99 62.9326 112.71 62.6626C113.31 62.3926 113.73 61.8526 113.82 61.2226C113.97 60.6226 113.85 59.9926 113.43 59.5426C112.77 58.9126 111.66 59.0926 110.88 59.4526L112.02 59.6326C112.29 59.1826 112.5 58.7026 112.68 58.2226C112.8 57.9226 112.23 57.8926 112.08 57.8926H110.28C110.01 57.8926 109.5 58.0126 109.41 58.2826C109.32 58.5526 109.83 58.6126 110.01 58.6126H110.1Z" fill="white"/>
<path d="M102.12 117.863C102.12 117.863 104.31 108.352 102.12 100.312H120.96C120.96 100.312 122.07 113.212 122.07 118.102L102.12 117.863Z" fill="#62206E"/>
<path d="M102.839 117.682C103.109 116.482 103.289 115.252 103.439 113.992C103.799 111.202 103.889 108.352 103.709 105.532C103.589 103.702 103.289 101.902 102.809 100.132L101.579 100.522H120.419L120.179 100.462C120.299 102.022 120.419 103.552 120.539 105.112C120.779 108.082 120.989 111.082 121.139 114.052C121.199 115.432 121.289 116.842 121.289 118.252L122.519 117.862L115.769 117.772L105.059 117.622L102.599 117.592C102.239 117.592 101.879 117.682 101.549 117.832C101.309 117.952 101.309 118.012 101.579 118.042L108.329 118.132L119.039 118.252L121.499 118.282C121.679 118.282 122.729 118.162 122.729 117.892C122.729 115.192 122.549 112.462 122.369 109.762C122.189 107.092 122.009 104.452 121.769 101.782C121.739 101.212 121.679 100.672 121.619 100.132C121.619 100.072 121.379 100.072 121.379 100.072H102.599C102.449 100.072 101.309 100.252 101.369 100.462C102.779 105.712 102.569 111.412 101.609 116.722C101.549 117.142 101.459 117.562 101.369 117.982C101.339 118.102 102.089 117.952 102.119 117.952C102.299 117.952 102.809 117.892 102.839 117.682Z" fill="#62206E"/>
<path d="M106.92 107.332C107.01 107.122 107.16 106.972 107.37 106.942C107.37 106.942 107.55 106.912 107.49 106.912C107.52 106.912 107.7 106.912 107.58 106.912C108 106.912 107.28 106.882 107.28 106.852C107.28 106.882 107.4 106.972 107.43 107.002C108.36 108.352 108.03 110.212 106.68 111.142C106.44 111.322 106.14 111.442 105.84 111.532C105.57 111.622 105.93 111.742 106.02 111.772C106.35 111.862 106.68 111.892 107.01 111.832C108 111.652 109.02 111.592 110.04 111.592C110.13 111.592 110.67 111.622 110.58 111.412C110.55 111.322 110.31 111.292 110.25 111.262C110.07 111.232 109.86 111.202 109.68 111.202C108.45 111.172 107.22 111.262 105.99 111.472L107.16 111.802C108.81 111.352 109.83 109.672 109.38 107.992C109.29 107.692 109.17 107.392 109.02 107.122C108.69 106.582 108.06 106.522 107.49 106.492C106.86 106.462 105.75 106.432 105.48 107.152C105.42 107.302 106.14 107.392 106.2 107.392C106.29 107.452 106.83 107.542 106.92 107.332Z" fill="#2B0E30"/>
<path d="M111.57 106.073C110.97 106.613 110.55 107.333 110.4 108.143C110.31 108.533 110.28 108.953 110.31 109.373C110.28 109.823 110.4 110.273 110.67 110.663C111.03 111.053 111.51 111.323 112.02 111.443C112.56 111.623 113.1 111.653 113.64 111.563C114.54 111.323 114.99 110.423 114.99 109.553C114.99 108.503 114.3 107.603 113.58 106.883C113.31 106.643 112.92 106.553 112.56 106.613C112.26 106.673 112.2 106.943 112.41 107.153C112.95 107.603 113.31 108.203 113.49 108.893C113.61 109.493 113.49 110.243 112.98 110.633C112.89 110.693 112.8 110.753 112.68 110.783C112.56 110.783 112.44 110.783 112.35 110.723L112.23 110.693H112.2C112.29 110.723 112.17 110.693 112.17 110.693C112.17 110.693 112.08 110.663 112.05 110.633C111.99 110.573 112.17 110.693 112.05 110.633C111.99 110.603 111.96 110.543 111.93 110.483C111.81 110.183 111.75 109.853 111.78 109.523C111.78 109.193 111.81 108.863 111.9 108.563C112.02 107.843 112.41 107.213 112.95 106.733C113.22 106.523 112.71 106.193 112.56 106.133C112.23 105.893 111.84 105.893 111.57 106.073Z" fill="#2B0E30"/>
<path d="M117.119 105.952C116.999 107.152 116.759 108.352 116.429 109.492C116.129 110.662 115.829 111.802 115.529 112.972C115.439 113.332 116.879 113.182 116.969 112.792C117.269 111.592 117.599 110.392 117.899 109.162C118.229 107.992 118.439 106.792 118.589 105.592C118.589 105.322 117.149 105.472 117.119 105.952Z" fill="#2B0E30"/>
<path d="M114.659 106.252C114.539 106.312 114.479 106.432 114.479 106.552C114.479 106.762 114.569 106.972 114.689 107.152C114.839 107.392 115.049 107.602 115.259 107.782C115.379 107.872 115.499 107.962 115.619 108.022C115.769 108.082 115.919 108.112 116.069 108.112C116.609 108.052 116.999 107.572 116.969 107.032C116.909 106.762 116.789 106.492 116.609 106.282C116.459 106.102 116.309 105.922 116.129 105.772C116.009 105.652 115.859 105.562 115.679 105.532C115.589 105.502 115.619 105.652 115.619 105.682C115.679 105.832 115.769 105.952 115.859 106.072C115.979 106.222 116.099 106.372 116.249 106.492C116.339 106.582 116.429 106.642 116.549 106.672H116.579L116.489 106.642H116.519C116.579 106.672 116.459 106.612 116.459 106.612C116.399 106.552 116.309 106.492 116.249 106.432C116.129 106.312 116.009 106.162 115.889 106.012C115.859 105.952 115.859 105.952 115.859 105.982C115.859 106.012 115.859 105.982 115.859 105.952C115.859 105.922 115.859 105.922 115.859 105.952C115.859 105.982 115.889 106.012 115.889 106.042L115.859 105.952C115.889 106.102 115.889 106.222 115.859 106.372V106.312C115.769 106.642 115.469 106.912 115.139 107.002H115.199C115.079 107.032 114.929 107.032 114.809 106.972L114.899 107.002L114.839 106.972C114.809 106.942 114.809 106.972 114.899 107.002C114.869 106.972 114.869 107.002 114.929 107.032C115.169 107.212 115.349 107.422 115.499 107.692L115.529 107.782C115.499 107.722 115.499 107.632 115.529 107.572L115.499 107.632C115.529 107.542 115.589 107.482 115.649 107.452C115.709 107.422 115.589 107.212 115.589 107.212C115.499 107.062 115.379 106.912 115.259 106.792C115.139 106.642 115.019 106.522 114.869 106.432C114.809 106.402 114.719 106.312 114.629 106.342L114.659 106.252Z" fill="#2B0E30"/>
<path d="M117.63 111.202C117.57 111.442 117.57 111.712 117.63 111.952C117.66 112.072 117.75 112.162 117.84 112.252C117.9 112.282 117.96 112.312 118.02 112.312C118.23 112.342 118.44 112.342 118.68 112.342C118.98 112.342 119.31 112.312 119.61 112.222C119.7 112.192 119.79 112.162 119.88 112.102C120 112.012 120.12 111.922 120.18 111.772C120.33 111.472 120.33 111.142 120.21 110.842C120.15 110.692 120 110.572 119.85 110.512C119.64 110.482 119.4 110.452 119.19 110.482C118.83 110.482 118.5 110.542 118.17 110.632C118.08 110.662 118.29 110.692 118.26 110.692C118.41 110.692 118.56 110.692 118.71 110.692C119.01 110.692 119.34 110.662 119.61 110.572L118.41 110.662C118.38 110.662 118.38 110.662 118.38 110.662H118.44C118.47 110.662 118.5 110.692 118.53 110.722L118.5 110.692C118.71 110.872 118.8 111.142 118.77 111.412C118.77 111.682 118.65 111.922 118.47 112.132L118.5 112.102C118.47 112.132 118.44 112.162 118.41 112.162L118.35 112.192C117.96 112.342 119.46 112.072 119.46 112.132C119.46 112.192 119.49 112.132 119.46 112.132H119.4C119.37 112.132 119.31 112.102 119.28 112.072L119.31 112.102C118.98 111.892 119.04 111.412 119.13 111.082C119.13 111.022 118.44 111.052 118.38 111.052C118.2 111.052 118.02 111.082 117.84 111.112C117.81 111.142 117.66 111.172 117.63 111.202Z" fill="#2B0E30"/>
<path d="M78.4196 117.532C77.2496 120.802 73.3796 121.642 70.2896 121.612C69.5396 121.612 68.8196 121.522 68.0996 121.312C67.9496 121.282 67.8296 121.192 67.6796 121.162C67.5296 121.132 67.7696 121.252 67.6196 121.132C67.3196 120.892 67.0496 120.592 66.8396 120.292C66.4196 119.572 66.1796 118.792 66.1196 117.982C66.0596 117.412 65.8196 116.152 66.7796 116.272C66.8396 116.272 66.8696 116.302 66.9296 116.302C65.9696 116.212 66.2696 115.822 66.4496 116.062C66.5396 116.182 66.6296 116.272 66.6896 116.362C67.1996 117.202 67.0796 118.282 66.3896 119.002C65.3696 120.082 63.6596 120.232 62.2796 119.842C60.8996 119.452 59.8196 118.282 59.0396 117.112C58.0796 115.702 57.4196 114.082 56.8196 112.462C56.7596 112.312 56.5196 111.862 56.6096 111.712C56.6996 111.592 56.8496 111.532 56.9996 111.532C57.0896 111.532 57.1496 111.532 57.2396 111.532C57.6296 111.562 57.1196 111.742 56.8796 111.262C56.9396 111.382 57.0596 111.472 57.1496 111.562C57.5696 112.222 57.2396 113.032 56.7296 113.512C56.4596 113.782 56.1296 113.992 55.7696 114.142C55.5896 114.232 55.3796 114.292 55.1696 114.352C55.0796 114.382 54.9896 114.382 54.8996 114.412C54.8096 114.442 54.6896 114.442 54.5996 114.412C55.2896 114.922 55.5296 115.042 55.3196 114.772C55.1696 114.502 55.0796 114.172 55.0496 113.872C55.0496 113.512 55.0796 113.182 55.1696 112.822C55.2296 112.552 53.8496 112.072 53.8496 112.102C53.7296 112.582 53.6996 113.062 53.7896 113.542C53.8796 113.992 54.1496 114.352 54.5396 114.562C55.1696 114.952 55.7696 115.252 56.5196 115.042C57.0596 114.892 57.5396 114.652 57.9596 114.292C58.7696 113.602 58.9496 112.522 58.1396 111.742C57.6596 111.292 57.0596 110.962 56.4296 110.782C56.0396 110.632 55.5896 110.692 55.2896 110.992V111.022C56.3996 114.052 57.6296 117.112 60.3596 119.032C61.6196 119.902 63.1196 120.622 64.6496 120.712C65.9096 120.772 67.4396 120.352 68.0696 119.152C68.6696 118.072 68.1596 116.812 67.1996 116.152C66.6896 115.822 65.7596 115.222 65.1296 115.492C64.4996 115.762 64.7696 116.782 64.8296 117.292C64.8896 118.042 65.0996 118.762 65.4596 119.422C65.8196 120.022 66.2996 120.532 66.8996 120.892C68.1296 121.702 69.5396 122.182 71.0396 122.272C74.2496 122.452 78.5096 121.642 79.7396 118.192C79.7996 118.012 78.4496 117.412 78.4196 117.532Z" fill="#62206E"/>
<path d="M54.9298 64.2519L54.2098 68.6019C54.1498 68.9019 55.6498 69.1719 55.6798 68.8719L56.3998 64.5219C56.4598 64.2219 54.9598 63.9519 54.9298 64.2519Z" fill="#62206E"/>
<path d="M53.4 70.8825C53.4 70.9125 53.4 70.9425 53.4 71.0025C53.4 71.0325 53.4 71.0925 53.43 71.1225C53.46 71.1825 53.49 71.2425 53.49 71.3025V71.3325C53.52 71.3925 53.58 71.4525 53.61 71.4825L53.64 71.5125C53.7 71.5725 53.73 71.6025 53.79 71.6625H53.82C53.88 71.7225 53.97 71.7525 54.06 71.7825L54.24 71.8425H54.27H54.3C54.36 71.8425 54.42 71.8725 54.48 71.8725H54.51C54.57 71.8725 54.63 71.8725 54.69 71.8425H54.72H54.75L54.9 71.7825L54.93 71.7525C54.96 71.7225 55.02 71.6925 55.05 71.6325C55.08 71.6025 55.11 71.5425 55.11 71.5125C55.14 71.4825 55.17 71.4225 55.17 71.3925C55.17 71.3325 55.2 71.2725 55.2 71.2125V71.1825V71.1525C55.2 71.0925 55.17 71.0325 55.17 70.9725C55.17 70.9725 55.17 70.9425 55.14 70.9425C55.11 70.8825 55.08 70.8225 55.08 70.7625V70.7025C55.05 70.6125 54.99 70.5525 54.93 70.4925C54.87 70.4325 54.84 70.4025 54.78 70.3425C54.78 70.3425 54.78 70.3425 54.75 70.3425H54.72C54.66 70.3125 54.6 70.2525 54.54 70.2225L54.51 70.1925L54.33 70.1325H54.3H54.27L54.09 70.1025H54C53.91 70.1025 53.82 70.1025 53.76 70.1325C53.67 70.1625 53.61 70.1925 53.52 70.2225L53.49 70.2525C53.43 70.2825 53.4 70.3425 53.34 70.3725C53.28 70.4325 53.25 70.4925 53.28 70.5825C53.25 70.6725 53.28 70.7325 53.31 70.8225C53.34 70.9125 53.37 71.0025 53.43 71.0625C53.49 71.1525 53.55 71.2125 53.64 71.2725L53.82 71.3925C53.94 71.4525 54.06 71.4825 54.18 71.4825L54.33 71.4525C54.42 71.4225 54.51 71.3625 54.57 71.3025L54.45 71.3925C54.48 71.3325 54.54 71.3025 54.6 71.3025L54.45 71.3625C54.48 71.3625 54.51 71.3325 54.57 71.3325L54.42 71.3625C54.45 71.3625 54.48 71.3625 54.51 71.3625L54.33 71.3325H54.39L54.21 71.2725L54.27 71.3025L54.09 71.1825L54.12 71.2125L53.97 71.0925L54 71.1225L53.88 70.9725C53.88 71.0025 53.91 71.0025 53.91 71.0325L53.85 70.8825C53.85 70.9125 53.88 70.9425 53.88 70.9425L53.85 70.7925C53.85 70.8225 53.85 70.8525 53.85 70.8825L53.88 70.7325C53.88 70.7625 53.88 70.7925 53.85 70.8225L53.91 70.7025C53.91 70.7325 53.88 70.7625 53.85 70.7625L53.97 70.6725C53.94 70.6725 53.94 70.7025 53.91 70.7025L54.06 70.6425C54.03 70.6425 54.03 70.6425 54 70.6425L54.15 70.6125H54.09L54.27 70.6425L54.21 70.6125L54.39 70.6725L54.33 70.6425L54.51 70.7625L54.48 70.7325L54.63 70.8825L54.6 70.8525L54.72 71.0025L54.69 70.9725L54.75 71.1225C54.75 71.1225 54.75 71.0925 54.72 71.0925L54.75 71.2425V71.2125C54.75 71.1225 54.72 71.0625 54.69 70.9725C54.66 70.8825 54.6 70.8225 54.54 70.7325C54.48 70.6425 54.39 70.5825 54.3 70.5525C54.21 70.4925 54.12 70.4625 54.03 70.4325L53.85 70.4025C53.73 70.4025 53.64 70.4325 53.55 70.4625L53.43 70.5525C53.37 70.6425 53.34 70.7325 53.34 70.8225L53.4 70.8825Z" fill="#62206E"/>
<path d="M58.6194 64.1328L57.3594 69.5028C57.3594 69.5628 57.4794 69.7728 57.5094 69.8328C57.5994 70.0128 57.7194 70.1628 57.8394 70.3128C57.8994 70.3728 58.2294 70.7928 58.2594 70.6728L59.5194 65.3028C59.5494 65.2428 59.3994 65.0328 59.3694 64.9728C59.2794 64.7928 59.1594 64.6428 59.0394 64.4928C58.9794 64.4328 58.6494 64.0128 58.6194 64.1328Z" fill="#62206E"/>
<path d="M56.3997 72.1126C56.7897 72.4726 57.3897 72.4426 57.8697 72.3826C58.1097 72.3526 58.3497 72.2626 58.5597 72.1126C58.6797 72.0526 58.7997 71.9326 58.8597 71.8126C58.8897 71.7526 58.8897 71.6926 58.8297 71.6626C58.7697 71.6026 58.7097 71.5726 58.6497 71.5426C58.5297 71.4826 58.4097 71.4526 58.2597 71.4226C58.1397 71.3926 57.9897 71.3926 57.8697 71.3926C57.6597 71.3926 57.4797 71.4226 57.2997 71.4826C57.2397 71.5126 57.1497 71.5426 57.0897 71.5726C57.0297 71.6026 56.9997 71.6326 56.9697 71.6926C56.9397 71.7826 56.9697 71.8726 57.0597 71.9026C57.2097 71.9626 57.3597 71.9926 57.5097 71.9926C57.6897 71.9926 57.8997 71.9626 58.0797 71.9026L57.8997 71.9326H57.9297L57.7497 71.9626H57.7797H57.5697H57.5997L57.4197 71.9326H57.4797L57.3297 71.9026L57.3897 71.9326L57.2697 71.8726C57.2997 71.9026 57.3297 71.9026 57.3897 71.9326L57.2997 71.8726L57.3297 71.9026V71.7526C57.2997 71.7826 57.2697 71.8426 57.2397 71.8726L57.2997 71.8126C57.2697 71.8426 57.2097 71.9026 57.1797 71.9326L57.2997 71.8726C57.2697 71.9026 57.2397 71.9026 57.1797 71.9326L57.3297 71.8726L57.2397 71.9026L57.4197 71.8726L57.3297 71.9026L57.5397 71.8726H57.4797H57.6897H57.6297L57.8097 71.9026H57.7197L57.8697 71.9326C57.8397 71.9326 57.8097 71.9026 57.7497 71.9026L57.8697 71.9626C57.8097 71.9326 57.7797 71.9326 57.7197 71.9026L57.8097 71.9626L57.7797 71.9326C57.6897 71.8426 57.5397 71.8126 57.4197 71.7826C57.2397 71.7526 57.0297 71.7526 56.8497 71.8126L56.6697 71.8426C56.5797 71.8726 56.4897 71.9026 56.3997 71.9626C56.3997 71.9626 56.3397 72.0526 56.3997 72.1126Z" fill="#62206E"/>
<path d="M117.119 54.7121C117.239 54.2021 117.419 53.6921 117.689 53.2121C117.749 53.1221 117.689 52.9121 117.659 52.8521C117.599 52.6721 117.539 52.4921 117.419 52.3121C117.359 52.2221 117.059 51.7421 116.969 51.9521C116.729 52.4321 116.519 52.9421 116.399 53.4521C116.369 53.5721 116.399 53.6921 116.429 53.8121C116.489 53.9921 116.549 54.1721 116.669 54.3521C116.729 54.5021 116.819 54.6221 116.939 54.7121C116.999 54.7421 117.119 54.8021 117.119 54.7121Z" fill="#62206E"/>
<path d="M118.56 55.5521L119.37 55.2521C119.4 55.2521 119.46 55.2221 119.46 55.1921C119.49 55.1621 119.49 55.1622 119.46 55.1322C119.43 55.1022 119.37 55.0721 119.34 55.0721C119.28 55.0421 119.22 55.0121 119.13 55.0121C118.95 54.9821 118.74 54.9521 118.56 54.9521H118.38C118.29 54.9521 118.2 54.9822 118.11 54.9822L117.3 55.2822C117.27 55.2822 117.24 55.3121 117.21 55.3421C117.18 55.3721 117.18 55.3721 117.21 55.4021C117.24 55.4321 117.3 55.4621 117.33 55.4621C117.39 55.4921 117.48 55.5221 117.54 55.5221C117.72 55.5521 117.93 55.5822 118.11 55.5822H118.29C118.38 55.6122 118.47 55.5821 118.56 55.5521Z" fill="#62206E"/>
</svg>
