<svg width="40" height="41" viewBox="0 0 40 41" fill="none" xmlns="http://www.w3.org/2000/svg">
<path d="M11.5613 25.8928L25.7035 11.7506C26.016 11.4381 26.4399 11.2625 26.882 11.2625C27.324 11.2625 27.7479 11.4381 28.0605 11.7506C28.373 12.0632 28.5486 12.4871 28.5486 12.9292C28.5486 13.3712 28.373 13.7951 28.0605 14.1077L13.9183 28.2498C13.6058 28.5624 13.1819 28.738 12.7398 28.738C12.2978 28.738 11.8739 28.5624 11.5613 28.2498C11.2488 27.9372 11.0732 27.5133 11.0732 27.0713C11.0732 26.6293 11.2488 26.2053 11.5613 25.8928Z" fill="white"/>
<path d="M28.0607 25.8928L13.9186 11.7506C13.606 11.4381 13.1821 11.2625 12.7401 11.2625C12.2981 11.2625 11.8741 11.4381 11.5616 11.7506C11.249 12.0632 11.0734 12.4871 11.0734 12.9292C11.0734 13.3712 11.249 13.7951 11.5616 14.1077L25.7037 28.2498C26.0163 28.5624 26.4402 28.738 26.8822 28.738C27.3243 28.738 27.7482 28.5624 28.0607 28.2498C28.3733 27.9372 28.5489 27.5133 28.5489 27.0713C28.5489 26.6293 28.3733 26.2053 28.0607 25.8928Z" fill="white"/>
</svg>
