<svg width="150" height="151" viewBox="0 0 150 151" fill="none" xmlns="http://www.w3.org/2000/svg">
<path d="M119.37 86.272C119.37 86.272 116.01 48.712 101.37 49.822C86.7296 50.932 82.3496 86.092 82.3496 86.092C82.3496 86.092 109.8 86.272 119.37 86.272Z" fill="#62206E"/>
<path d="M120.06 86.0917C119.94 84.8917 119.79 83.6917 119.64 82.4917C119.25 79.5817 118.74 76.6717 118.14 73.7917C117.42 70.2517 116.46 66.7417 115.26 63.3517C114.09 60.1117 112.68 56.9017 110.61 54.1417C108.9 51.8917 106.62 49.9417 103.77 49.4017C100.65 48.8317 97.5597 50.0617 95.1597 52.0117C92.4597 54.2017 90.5397 57.2317 88.9797 60.3217C87.2997 63.7417 85.9497 67.2817 84.8997 70.9417C83.9697 74.1217 83.1897 77.3617 82.5597 80.6017C82.1997 82.4017 81.8997 84.2017 81.6597 86.0317C81.6597 86.1217 81.6297 86.1817 81.6297 86.2717C81.5997 86.5417 81.9597 86.6017 82.1697 86.6017L84.9897 86.6317L92.0097 86.6617L101.31 86.7217L110.82 86.7817C113.37 86.7817 115.92 86.7817 118.47 86.8117H119.22C119.58 86.8117 119.94 86.6017 120.09 86.2417C120.21 85.8817 119.88 85.7617 119.58 85.7617C117.15 85.7617 114.69 85.7617 112.26 85.7317L102.9 85.7017L93.4497 85.6417L86.0097 85.6117L83.6697 85.5817C83.3097 85.5517 82.9497 85.5517 82.5897 85.5817H82.4997L83.0397 85.9117C83.1897 84.6817 83.3997 83.4817 83.6097 82.2817C84.1197 79.4317 84.7497 76.4917 85.4997 73.6117C86.3997 70.0117 87.5997 66.5017 89.0097 63.0517C89.6997 61.4017 90.5097 59.7817 91.4097 58.2217C91.8597 57.4717 92.3097 56.7517 92.8197 56.0317C93.0597 55.7017 93.2997 55.3717 93.5697 55.0417C93.8397 54.7117 94.0497 54.4717 94.2897 54.2017C94.7997 53.6317 95.3697 53.0917 95.9697 52.5817L96.2097 52.4017C96.0897 52.4917 96.2697 52.3717 96.2997 52.3417C96.4497 52.2217 96.5997 52.1017 96.7797 52.0117C97.0797 51.8017 97.3797 51.6217 97.7097 51.4417C97.8897 51.3217 97.6497 51.4717 97.8297 51.3817L98.0397 51.2917C98.2197 51.2017 98.3697 51.1417 98.5497 51.0517C98.7297 50.9617 98.8497 50.9317 99.0297 50.8717L99.1497 50.8117C98.9697 50.8717 99.2697 50.7817 99.1497 50.8117L99.4197 50.7217C99.7497 50.6317 100.11 50.5417 100.47 50.4817C100.38 50.4817 100.65 50.4517 100.47 50.4817L100.62 50.4517L100.86 50.4217C101.04 50.3917 101.22 50.3917 101.43 50.3917C101.64 50.3917 101.76 50.3917 101.91 50.3917C101.97 50.3917 102 50.3917 102.06 50.3917L102.33 50.4217C102.66 50.4517 102.99 50.5117 103.29 50.5717C103.56 50.6317 103.86 50.7217 104.13 50.8117C105.03 51.1417 105.87 51.5917 106.65 52.1917C107.19 52.6117 107.73 53.0917 108.18 53.6017C110.37 55.9417 111.87 58.9417 113.07 61.9117C114.39 65.2717 115.47 68.6917 116.25 72.2017C116.97 75.2017 117.54 78.2617 117.99 81.3217C118.23 82.9717 118.47 84.6217 118.62 86.3017C118.62 86.3617 118.62 86.4517 118.65 86.5417C118.71 87.1417 120.12 86.6917 120.06 86.0917Z" fill="#62206E"/>
<path d="M108.869 42.9224C108.869 42.9224 114.629 43.7624 115.469 41.4224C116.309 39.0824 112.649 39.8024 112.649 39.8024C112.649 39.8024 116.669 34.8524 110.819 34.2824C110.819 34.2824 115.499 30.4424 111.509 27.2624C107.519 24.0824 100.019 26.6024 100.019 26.6024C100.019 26.6024 99.9895 21.4124 94.0795 22.3724C88.1695 23.3324 89.7595 26.3624 89.7595 26.3624C89.7595 26.3624 85.9795 26.9024 85.9495 28.7024C85.9195 30.5024 88.7995 31.0424 88.7995 31.0424C88.7995 31.0424 90.1195 36.0824 95.2495 35.0924L100.529 41.2424C100.529 41.2424 98.8794 43.6424 100.889 45.9524C102.899 48.2624 109.289 46.1924 108.869 42.9224Z" fill="#2B0E30"/>
<path d="M108.87 43.072C110.61 43.312 112.5 43.432 114.18 42.982C115.11 42.742 116.04 42.292 116.28 41.272C116.58 40.102 115.47 39.712 114.51 39.532C113.7 39.382 112.86 39.412 112.02 39.562L113.37 39.862C114.39 38.602 115.53 36.262 113.88 35.032C112.98 34.342 111.72 34.132 110.61 34.012L111.48 34.372C112.2 33.772 112.8 33.052 113.25 32.242C114.06 30.772 114 29.152 112.86 27.862C111.51 26.392 109.47 25.762 107.55 25.522C105.78 25.312 103.95 25.372 102.21 25.702C101.22 25.852 100.26 26.092 99.3303 26.392L100.77 26.692C100.77 24.982 99.8103 23.452 98.2803 22.672C96.4203 21.802 94.2003 21.892 92.2503 22.372C91.0203 22.672 89.4603 23.242 88.9503 24.562C88.7403 25.102 88.7703 25.702 89.0403 26.242L89.1303 26.152C88.0503 26.302 86.7903 26.662 85.9203 27.352C85.3503 27.802 85.0503 28.402 85.2903 29.122C85.5303 29.842 86.2203 30.292 86.8803 30.592C87.4803 30.862 88.1403 31.072 88.8003 31.192L88.0803 30.922C88.6503 33.022 90.3003 34.642 92.4003 35.182C93.5403 35.482 94.7403 35.512 95.8803 35.272L94.5603 35.002L99.7503 41.002C99.7803 41.032 99.8403 41.062 99.8403 41.122C99.8403 41.182 99.8403 41.062 99.8103 41.122C99.6603 41.392 99.5403 41.662 99.4203 41.962C99.0003 43.132 99.1803 44.422 99.9003 45.442C101.1 47.182 103.77 47.392 105.66 46.972C107.46 46.552 109.86 45.262 109.62 43.072C109.59 42.742 108.12 42.712 108.15 42.832C108.36 44.782 106.38 46.072 104.73 46.522C104.28 46.642 103.8 46.732 103.32 46.762C103.17 46.762 102.99 46.762 102.84 46.732C102.99 46.762 102.81 46.732 102.78 46.732C102.63 46.702 102.96 46.792 102.72 46.732C102.81 46.762 102.6 46.702 102.57 46.702C101.49 46.282 100.8 45.022 100.71 43.912C100.65 43.042 100.86 42.142 101.34 41.422L101.31 41.392L96.9003 36.202C96.6303 35.902 96.3603 35.572 96.0903 35.242C95.5503 34.642 94.5903 34.912 93.9003 34.972C93.6903 35.002 93.4803 35.002 93.2703 34.972L93.1203 34.942H93.0603L92.9703 34.912C92.6703 34.822 92.4003 34.702 92.1303 34.552C91.5603 34.222 91.0803 33.772 90.6603 33.262C90.1503 32.632 89.7603 31.882 89.5203 31.102C89.4603 30.892 88.9503 30.862 88.8003 30.832C88.9803 30.862 89.0103 30.922 88.8903 30.832C88.8603 30.832 88.8303 30.802 88.8003 30.802C88.9503 30.832 88.8603 30.802 88.7703 30.802C88.5603 30.742 88.3203 30.652 88.1103 30.562C87.5103 30.292 86.8803 29.842 86.7003 29.182C86.2803 27.772 88.0503 27.052 89.1003 26.722C89.4903 26.602 89.9103 26.512 90.3303 26.452C90.3903 26.452 90.4503 26.422 90.4203 26.362C90.3903 26.272 90.3303 26.152 90.3003 26.062C90.2403 25.792 90.2103 25.492 90.2403 25.222C90.3903 24.142 91.3803 23.482 92.3103 23.092C93.2403 22.732 94.2003 22.492 95.2203 22.402C95.5803 22.372 95.9703 22.372 96.3303 22.402C96.2103 22.402 96.5403 22.432 96.4503 22.432L96.5703 22.462C96.6903 22.492 96.8103 22.552 96.9003 22.582C97.8303 23.002 98.5203 23.782 98.8803 24.742C99.1203 25.282 99.2403 25.822 99.2703 26.422C99.2703 26.572 99.7803 26.662 99.8703 26.692C100.14 26.782 100.44 26.782 100.71 26.722C102.78 26.062 104.94 25.762 107.1 25.822C108.66 25.882 110.13 26.512 111.24 27.592C112.38 28.762 112.56 30.292 111.84 31.732C111.42 32.632 110.79 33.412 110.04 34.042C109.86 34.192 110.85 34.372 110.91 34.402C112.05 34.522 113.16 35.122 113.19 36.412C113.22 37.342 112.74 38.272 112.26 39.052C112.14 39.262 111.99 39.442 111.84 39.622C111.78 39.712 112.35 39.862 112.35 39.862C112.62 39.952 112.92 39.982 113.19 39.922C113.34 39.892 113.49 39.862 113.64 39.862C113.67 39.862 113.73 39.862 113.76 39.862L114.03 39.832H114.3C114.45 39.832 114.3 39.832 114.33 39.832C114.45 39.832 114.36 39.832 114.3 39.832C114.39 39.862 114.24 39.802 114.33 39.862C114.45 39.922 114.54 40.012 114.63 40.102C114.84 40.432 114.84 40.852 114.69 41.182C114.15 42.862 111.6 42.892 110.25 42.862C110.04 42.862 109.8 42.832 109.59 42.832H109.44C109.38 42.832 109.41 42.832 109.5 42.832H109.41L109.17 42.802L108.81 42.772H108.87C108.78 42.772 108.12 42.652 108.09 42.802C108.06 42.952 108.78 43.072 108.87 43.072Z" fill="#2B0E30"/>
<path d="M104.67 52.4319C105 51.0819 103.14 43.1019 103.14 43.1019C103.14 43.1019 106.26 43.0419 106.56 39.6219C106.86 36.2019 103.35 35.8719 101.7 39.3219C101.7 39.3219 98.0095 32.3319 99.9295 28.4619C99.9295 28.4619 93.3895 32.6619 89.2795 31.9119C89.2795 31.9119 85.1395 43.6719 88.4695 48.0519C91.3795 51.8619 94.1395 51.5919 94.1395 51.5919L94.4695 52.3719L95.6995 56.9019L104.67 52.4319Z" fill="white"/>
<path d="M105.209 52.8524C105.299 52.3124 105.299 51.7424 105.209 51.2024C105.119 50.4224 104.999 49.6724 104.879 48.8924C104.609 47.3324 104.279 45.7724 103.919 44.2424C103.829 43.9124 103.769 43.5524 103.679 43.1924L103.379 43.7624C104.849 43.6724 106.169 42.7724 106.739 41.4224C107.279 40.1924 107.279 38.8124 106.709 37.5824C106.259 36.6524 105.239 36.0824 104.189 36.1724C102.809 36.3224 101.759 37.5524 101.189 38.7524L102.089 39.0524C101.969 38.8424 102.149 39.2024 102.089 39.0224C102.029 38.8424 101.909 38.6624 101.849 38.5124C101.579 37.9124 101.339 37.3124 101.099 36.7124C100.499 35.1224 100.019 33.4424 99.9595 31.7024C99.8995 30.7724 100.049 29.8424 100.439 29.0024C100.559 28.7024 100.529 28.3724 100.289 28.1324C100.139 27.9224 99.8095 27.6524 99.5395 27.8324C98.7595 28.3124 97.9495 28.7624 97.1395 29.1824C95.5195 30.0524 93.8095 30.6824 92.0395 31.1024C91.0795 31.3424 90.1195 31.3724 89.1595 31.2224C88.9795 31.1924 88.7995 31.3124 88.7395 31.4924C87.8695 33.9524 87.2695 36.5024 86.8795 39.1124C86.5795 41.0924 86.4595 43.1324 86.7895 45.1124C86.9395 46.0124 87.2395 46.8824 87.6595 47.6924C88.3195 48.8324 89.1895 49.8224 90.2395 50.6324C91.3195 51.5324 92.9395 52.4324 94.4095 52.3124L93.6295 51.7124C93.7195 51.9524 93.8095 52.1924 93.9295 52.4024C94.0195 52.5824 93.8995 52.1924 93.9295 52.3124L93.9595 52.4924L94.3795 53.9624L95.1595 56.7824C95.2495 57.1424 95.6395 57.7424 96.1195 57.5324L103.949 53.6624L105.059 53.1224C105.629 52.8224 104.879 51.5624 104.279 51.8624L96.4195 55.7024L95.3095 56.2424L96.2695 56.9924L95.4895 54.1124C95.3395 53.6324 95.2195 53.1224 95.0995 52.6424C94.9795 52.2824 94.8295 51.8924 94.6795 51.5624C94.5595 51.2624 94.2595 50.9324 93.8995 50.9624H93.7795C93.6595 50.9624 93.8995 50.9624 93.7795 50.9624C93.5695 50.9324 93.3595 50.9024 93.1195 50.8724C92.3695 50.6924 91.6795 50.3924 91.0495 49.9424C90.5695 49.6124 90.1195 49.2224 89.6995 48.7724C89.4595 48.5024 89.2195 48.2324 88.9795 47.9624L88.7995 47.7224C88.6495 47.5424 88.8595 47.8124 88.7695 47.6924C88.6795 47.5724 88.6495 47.5124 88.6195 47.4524C88.5895 47.3924 88.5295 47.3024 88.4695 47.2124C88.4095 47.0924 88.4695 47.1824 88.4695 47.2124C88.4395 47.1824 88.4395 47.1224 88.4095 47.0924C88.3195 46.9124 88.2595 46.7324 88.1695 46.5224C88.0495 46.1624 87.9595 45.8024 87.8995 45.4424C87.5695 43.6724 87.7195 41.7824 87.9595 40.0124C88.1995 38.3024 88.5595 36.6224 89.0095 34.9724C89.2495 34.1024 89.4895 33.2324 89.7895 32.3624L89.3995 32.6024C91.2595 32.9324 93.1795 32.4224 94.9195 31.7924C96.4795 31.2224 97.9795 30.5024 99.4195 29.6624C99.7195 29.4824 100.019 29.3024 100.319 29.1224L99.4195 27.9224C98.5495 29.6924 98.6995 31.7624 99.0895 33.6224C99.4495 35.3024 100.019 36.9224 100.739 38.4824C100.889 38.8424 101.069 39.2024 101.279 39.5624C101.399 39.7724 101.999 40.2524 102.179 39.8624C102.629 38.9624 103.289 38.0324 104.279 37.6724C104.609 37.5524 104.969 37.5224 105.329 37.6124C105.389 37.6424 105.419 37.6424 105.479 37.6724C105.509 37.6724 105.629 37.7624 105.509 37.6724C105.539 37.7024 105.569 37.7324 105.599 37.7324C105.629 37.7624 105.659 37.7924 105.689 37.8224C105.599 37.7324 105.659 37.7924 105.689 37.8224C105.719 37.8524 105.749 37.8824 105.779 37.9124C105.659 37.7924 105.809 37.9424 105.809 37.9724C105.809 38.0024 105.869 38.0924 105.809 37.9724C105.839 38.0024 105.839 38.0624 105.869 38.0924C105.899 38.1524 105.929 38.2124 105.929 38.2724C105.989 38.5124 105.989 38.7524 105.989 38.9924C105.989 39.5324 105.869 40.0724 105.629 40.5824C105.299 41.2724 104.699 41.8124 104.009 42.1124C103.649 42.2624 103.259 42.3524 102.839 42.3824C102.569 42.3824 102.509 42.7724 102.569 42.9524C103.199 45.4424 103.679 47.9324 104.039 50.4824C104.069 50.6624 104.099 50.8424 104.099 51.0524C104.099 50.9324 104.099 51.1424 104.099 51.1724C104.099 51.2624 104.099 51.3524 104.099 51.4424C104.099 51.5324 104.099 51.6824 104.099 51.8024C104.099 51.8624 104.099 51.9224 104.099 51.9524C104.099 51.9824 104.129 51.8324 104.099 51.9824C104.039 52.3424 104.189 52.7324 104.489 52.9424C104.729 53.1524 105.119 53.2124 105.209 52.8524Z" fill="#2B0E30"/>
<path d="M92.4294 44.212C92.4294 44.212 84.7494 47.092 82.4094 43.282C80.0694 39.472 85.3494 36.262 90.5694 38.722" fill="white"/>
<path d="M92.0999 43.5517C90.1799 44.2717 88.0499 44.7217 86.0099 44.5417C85.3499 44.5117 84.7199 44.3317 84.1199 44.0617C83.5799 43.7917 83.1599 43.3717 82.8599 42.8617C82.1399 41.5117 82.6499 40.1617 83.9699 39.3217C85.8899 38.1217 88.4399 38.4517 90.3899 39.3517C90.6599 39.5017 91.0199 39.4117 91.1699 39.1417C91.1999 39.1117 91.1999 39.0817 91.1999 39.0517C91.2899 38.6617 91.0799 38.2717 90.7199 38.1217C88.6199 37.1317 86.0099 36.7717 83.8199 37.7317C82.0799 38.4817 80.8199 40.1017 81.2099 42.0517C81.5699 43.9117 83.0699 45.2317 84.8399 45.7117C86.3999 46.1317 88.1099 45.9817 89.6699 45.6817C90.6899 45.5017 91.7099 45.2317 92.6999 44.8717C93.5399 44.5717 92.8199 43.2817 92.0999 43.5517Z" fill="#2B0E30"/>
<path d="M98.88 43.0117C98.88 43.0117 98.52 44.6017 96.96 44.5417L98.88 43.0117Z" fill="white"/>
<path d="M98.1297 43.0117L98.0997 43.0717L98.1297 42.9817C98.0397 43.3117 97.8597 43.6117 97.6497 43.8517L97.7397 43.7617C97.6797 43.8517 97.5897 43.9117 97.4997 44.0017C97.4697 44.0317 97.4097 44.0617 97.3497 44.0917L97.4097 44.0617C97.3797 44.0617 97.3797 44.0617 97.3797 44.0917L97.2897 44.1217L97.2297 44.1517L97.1697 44.1817C97.1097 44.2117 97.3197 44.1217 97.2597 44.1517C97.1997 44.1817 97.1397 44.1817 97.0797 44.2117C96.9597 44.2417 97.2897 44.1817 97.1397 44.2117H97.0197H96.9597C96.9597 44.2117 97.1697 44.2117 97.0797 44.2117H96.9597C96.7797 44.2117 96.5997 44.2417 96.4197 44.3017C96.3297 44.3317 96.1797 44.4517 96.1797 44.5717C96.2097 44.8717 96.6897 44.9617 96.9297 44.9617C97.6497 45.0217 98.3397 44.7817 98.8797 44.3317C99.1497 44.0617 99.3597 43.7317 99.5097 43.3717C99.5397 43.2817 99.5697 43.1617 99.5997 43.0717C99.6297 42.9817 99.4497 42.8317 99.3897 42.8017C99.2397 42.7117 99.0297 42.6817 98.8497 42.6817C98.6397 42.6517 98.2197 42.7117 98.1297 43.0117Z" fill="#2B0E30"/>
<path d="M93.7197 36.772C93.8097 37.102 93.5997 37.432 93.2997 37.492C93.2697 37.492 93.2697 37.492 93.2397 37.492C92.6097 37.582 92.4897 36.802 92.9997 36.532C93.2397 36.382 93.5397 36.442 93.6897 36.682C93.6897 36.742 93.6897 36.742 93.7197 36.772Z" fill="#2B0E30"/>
<path d="M90.6602 37.1021C90.7502 37.4321 90.5402 37.7621 90.2402 37.8221C90.2102 37.8221 90.2102 37.8221 90.1802 37.8221C89.5502 37.9121 89.4302 37.1321 89.9402 36.8621C90.1802 36.7121 90.4802 36.7721 90.6302 37.0121C90.6602 37.0421 90.6602 37.0721 90.6602 37.1021Z" fill="#2B0E30"/>
<path d="M25.5898 89.4515C25.5898 84.9215 26.5498 52.8815 40.4698 51.8915C54.3898 50.9015 57.2998 62.2415 59.8798 87.5015" fill="white"/>
<path d="M26.3398 89.3614C26.3398 87.8014 26.3998 86.2414 26.4898 84.7114C26.6398 82.0714 26.8798 79.4614 27.2398 76.8514C27.6298 73.7914 28.1998 70.7314 28.9498 67.7314C29.6398 64.7914 30.6898 61.9414 32.0098 59.2414C33.1798 56.9614 34.7398 54.7714 36.8698 53.3614C37.7998 52.7314 38.8498 52.3114 39.9298 52.0714C39.7498 52.1014 40.3198 52.0114 40.0798 52.0414L40.3198 52.0114C40.3498 52.0114 40.4398 52.0114 40.3498 52.0114H40.4698C40.8598 51.9814 41.1298 51.9814 41.4598 51.9814C42.1198 51.9814 42.7498 51.9814 43.4098 52.0714C45.7198 52.2814 47.9398 53.1514 49.7698 54.5914C51.7198 56.1814 53.0698 58.3714 54.0598 60.6514C55.4098 63.7414 56.2198 67.0414 56.8498 70.3414C57.7198 74.7814 58.2898 79.2514 58.7698 83.7514C58.9198 85.0414 59.0398 86.3014 59.1898 87.5914C59.2198 87.7714 60.6898 87.6214 60.6898 87.4414C60.1798 82.5814 59.6398 77.6914 58.8298 72.8614C58.2298 69.2614 57.4798 65.6314 56.2198 62.2114C55.3198 59.7214 54.0898 57.2314 52.1998 55.3114C50.5498 53.6314 48.4198 52.4914 46.0798 52.0414C44.6998 51.7714 43.3198 51.6514 41.9098 51.7114C40.4098 51.7114 38.8798 51.9214 37.4398 52.4014C35.0698 53.2714 33.2098 55.0714 31.8298 57.1414C30.1798 59.5714 29.0698 62.3314 28.1998 65.1214C27.2698 68.1814 26.5798 71.3014 26.0998 74.4514C25.6498 77.2714 25.3198 80.1514 25.1098 83.0014C24.9598 84.9214 24.8698 86.8414 24.8398 88.7914C24.8398 89.0314 24.8398 89.3014 24.8398 89.5414C24.8698 89.6614 26.3698 89.6014 26.3398 89.3614Z" fill="#2B0E30"/>
<path d="M36.1491 50.542C36.1491 50.542 29.7591 52.222 26.5491 62.812C23.3391 73.402 24.2091 75.412 24.2091 75.412L27.3891 77.092C27.3891 77.092 29.0691 55.912 36.8091 53.392L36.1491 50.542Z" fill="#2B0E30"/>
<path d="M35.9098 50.3015C34.7998 50.6315 33.7798 51.2015 32.8798 51.9215C30.5398 53.6615 28.7698 56.0615 27.5098 58.6715C26.4898 60.7115 25.8298 62.9015 25.2298 65.0915C24.7198 66.8915 24.2698 68.6915 23.9098 70.5215C23.6998 71.5715 23.5198 72.6515 23.4298 73.7315C23.3698 74.2415 23.3698 74.7215 23.4298 75.2315C23.4598 75.4715 23.4598 75.5915 23.6698 75.7115C24.5998 76.2215 25.5598 76.7015 26.5198 77.2115L26.8198 77.3615C27.1198 77.5115 28.1098 77.3915 28.1698 76.9415C28.4098 74.0015 28.8598 71.1215 29.4898 68.2415C29.9698 65.8115 30.6598 63.4115 31.4998 61.1015C32.2798 59.0315 33.2698 56.9015 34.7998 55.2515C35.1298 54.8915 35.5198 54.5315 35.9098 54.2615C35.9998 54.2015 36.1198 54.1115 36.2398 54.0515L36.3898 53.9615L36.4798 53.9015C36.5998 53.8415 36.7198 53.7815 36.8098 53.7515L36.9598 53.6915C36.7798 53.7515 37.0198 53.6615 37.0498 53.6615C38.2198 53.2715 39.3598 52.9115 40.5298 52.5215C40.7098 52.4615 41.1298 52.2815 40.9798 52.0415C40.8298 51.8015 40.2298 51.9515 40.0498 52.0115L36.5998 53.1215L37.5898 53.2415L36.9298 50.3915C36.8398 49.9715 35.3698 50.2715 35.4598 50.6915L36.1198 53.5415C36.1798 53.8715 36.9298 53.6915 37.1098 53.6615L40.5298 52.5215L40.0198 52.0115L37.1098 52.9415C35.9998 53.2715 34.9798 53.8115 34.1098 54.5315C32.4298 56.0015 31.3198 58.0715 30.4498 60.0815C28.5898 64.4315 27.6598 69.2015 27.0298 73.8815C26.8798 74.9915 26.7298 76.1015 26.6398 77.2115L27.9898 76.7915L24.7798 75.1115L24.8998 75.2315C24.7198 74.8115 24.7798 74.2115 24.8098 73.7615C24.8998 71.6615 25.4098 69.5615 25.8898 67.5215C27.2998 61.8815 29.0998 55.5815 33.9898 52.0115C34.3198 51.7715 34.6498 51.5315 35.0098 51.3515L35.1598 51.2615L35.3698 51.1415C35.4898 51.0815 35.6398 51.0215 35.7598 50.9615L36.0598 50.8415C36.0898 50.8415 36.2098 50.7815 36.0598 50.8415C36.0898 50.8415 36.1198 50.8115 36.1498 50.8115C36.2098 50.7815 36.2698 50.7815 36.3598 50.7515C36.5398 50.7215 36.9598 50.5115 36.8098 50.2715C36.6598 50.0315 36.1198 50.2415 35.9098 50.3015Z" fill="#2B0E30"/>
<path d="M36.9302 48.7415C36.9302 48.7415 30.5102 41.7215 32.8502 32.0015C35.1902 22.2815 40.3502 20.5115 48.3602 19.9715C56.3402 19.4615 62.7902 33.5015 59.2502 43.1015C55.7102 52.7015 51.1202 50.5115 51.1202 50.5115C51.1202 50.5115 54.1502 54.5915 52.5602 56.7815C50.9702 58.9715 39.0302 57.8015 36.5402 55.4915C34.0502 53.1815 36.9302 48.7415 36.9302 48.7415Z" fill="#2B0E30"/>
<path d="M37.4995 48.5317C37.4395 48.4417 37.3795 48.3817 37.2895 48.2917C37.1995 48.2017 37.1395 48.1117 37.0795 48.0217C37.0495 47.9917 37.0195 47.9317 36.9595 47.8717C36.8995 47.8117 36.8995 47.8117 36.8995 47.7817L36.8695 47.7217C36.2995 46.9117 35.7595 46.0717 35.3095 45.2017C33.8395 42.4717 33.0895 39.4117 33.0595 36.2917C33.0895 34.3417 33.4195 32.4217 33.9895 30.5917C34.4095 29.0917 35.0395 27.6817 35.8195 26.3617C37.0795 24.2317 39.0595 22.5817 41.3695 21.7117C42.5695 21.2617 43.8295 20.9617 45.0896 20.7817C45.7795 20.6917 46.4995 20.6017 47.1895 20.5417C47.8496 20.4517 48.5396 20.4217 49.2296 20.4517C49.3796 20.4517 49.5296 20.4817 49.6796 20.4817L49.8895 20.5117C49.7696 20.4817 49.9195 20.5117 49.9495 20.5117C50.2495 20.5717 50.5495 20.6617 50.8195 20.7517C50.6695 20.6917 50.9095 20.7817 50.9095 20.7817L51.1195 20.8717C51.2695 20.9317 51.3895 20.9917 51.5396 21.0517C51.8095 21.1717 52.0495 21.3217 52.3195 21.4717C53.3995 22.1617 54.3596 23.0317 55.1395 24.0517C57.0596 26.3917 58.2895 29.3317 58.9495 32.2717C59.6395 35.3617 59.7295 38.6617 58.8896 41.7217C58.3796 43.5217 57.6295 45.2017 56.6695 46.7917C56.0395 47.8417 55.2295 48.7717 54.2395 49.4617C53.9095 49.7017 53.5495 49.8817 53.1595 50.0017C52.9795 50.0617 52.8295 50.0917 52.6495 50.1517C52.8595 50.1217 52.6196 50.1517 52.5896 50.1517C52.5595 50.1517 52.4095 50.1817 52.3195 50.1817C52.2295 50.1817 52.1695 50.1817 52.1095 50.1817C51.9895 50.1817 52.2895 50.1817 52.1695 50.1817H52.0796C51.9596 50.1817 51.8395 50.1517 51.7195 50.1517C51.5395 50.1517 51.9295 50.2117 51.7495 50.1517L51.6296 50.1217C51.5696 50.0917 51.4795 50.0917 51.3895 50.0617C51.2395 50.0317 51.6295 50.1517 51.4495 50.0917L51.4195 50.0617C51.1795 49.9417 50.8795 49.9417 50.6095 50.0317C50.4295 50.1217 50.2796 50.3317 50.4296 50.5117C50.8196 51.0517 51.1796 51.6517 51.4796 52.2517C51.9596 53.2417 52.4395 54.4117 52.2595 55.5517C52.2295 55.7917 52.1395 56.0017 52.0195 56.2117C51.9595 56.3017 51.8995 56.3917 51.8396 56.4517C51.8095 56.4817 51.7796 56.5117 51.7796 56.5417C51.7196 56.6317 51.8696 56.4817 51.7796 56.5417C51.6596 56.6317 51.5695 56.6917 51.4495 56.7517L51.3296 56.8117C51.3596 56.8117 51.4496 56.7517 51.3296 56.8117C51.2396 56.8417 51.1495 56.8717 51.0896 56.9017C50.9095 56.9617 50.6995 57.0217 50.5195 57.0817L50.3995 57.1117L50.3396 57.1417C50.2195 57.1717 50.0996 57.1717 49.9796 57.2017C49.4996 57.2617 49.0195 57.3217 48.5095 57.3517C46.1995 57.4417 43.8895 57.2617 41.6095 56.8117C41.0395 56.6917 40.4996 56.5717 39.9296 56.4217C39.6896 56.3617 39.4495 56.3017 39.2095 56.2117L38.9995 56.1517L38.6095 56.0017C38.3995 55.9117 38.2195 55.8517 38.0095 55.7617L37.7395 55.6417C37.7095 55.6117 37.6495 55.6117 37.6195 55.5817C37.7995 55.6717 37.6195 55.5817 37.5595 55.5517C37.4095 55.4617 37.2895 55.3717 37.1395 55.2817C36.9895 55.1917 37.1395 55.2817 37.1695 55.3117L37.0495 55.1917C36.9295 55.0717 36.8395 54.9517 36.7495 54.8317C35.9695 53.7217 36.2395 52.2517 36.6295 51.0517C36.8695 50.3317 37.1995 49.6417 37.5895 48.9817C37.9795 48.3817 36.5695 47.8717 36.2395 48.3817C35.2195 49.9717 34.3195 52.2817 34.9795 54.1717C35.7295 56.3617 38.3395 57.0817 40.3495 57.5317C42.8995 58.1317 45.5395 58.4017 48.1495 58.3717C49.2295 58.3717 50.3396 58.2517 51.3895 58.0117C52.0795 57.8317 52.8895 57.5317 53.3095 56.9017C54.0895 55.6417 53.6696 54.0517 53.1296 52.7917C52.7696 51.9517 52.3196 51.1417 51.7796 50.3917L50.7896 50.8717C51.7195 51.3217 52.9195 51.2617 53.9095 50.9617C56.4895 50.1517 58.0795 47.5417 59.1595 45.2317C59.9395 43.5817 60.5096 41.8417 60.7796 40.0117C61.0196 38.3617 61.0496 36.6517 60.8396 35.0017C60.5096 31.7317 59.4296 28.5517 57.7495 25.7317C56.2795 23.3017 54.1796 21.0217 51.4495 20.0317C50.0995 19.5817 48.6595 19.4017 47.2195 19.5817C45.7195 19.6717 44.2195 19.9117 42.7495 20.2117C40.1695 20.7817 37.7395 21.9217 35.9095 23.8717C33.6895 26.2717 32.4895 29.6617 31.8895 32.8417C31.2595 36.3817 31.6195 40.0717 32.9695 43.4017C33.7195 45.3217 34.7695 47.1217 36.0895 48.7117C36.1495 48.8017 36.2095 48.8617 36.2995 48.9517C36.5695 49.2217 36.9595 49.3117 37.3195 49.2217C37.5295 49.1917 37.6495 48.9817 37.5895 48.7717C37.6195 48.6517 37.5595 48.5917 37.4995 48.5317Z" fill="#2B0E30"/>
<path d="M42.6295 44.0617C42.6295 44.0617 44.5794 48.9217 51.2694 48.7417C51.2694 48.7417 55.4394 47.5717 57.8694 44.6617C61.4394 40.3417 55.2295 28.4917 55.2295 28.4917C52.9795 25.2817 49.0795 26.8117 49.0795 26.8117C43.5595 29.4817 41.9694 35.3017 41.9694 35.3017C41.9694 35.3017 41.4895 40.5517 42.6295 44.0617Z" fill="white"/>
<path d="M42.2391 44.062C42.7791 45.292 43.6191 46.372 44.6991 47.242C45.6291 48.022 46.6791 48.592 47.8191 48.952C48.5391 49.192 49.2891 49.312 50.0691 49.402C50.6091 49.432 51.2391 49.552 51.7491 49.402C54.1191 48.712 56.2491 47.452 57.9591 45.682C59.5791 43.972 59.6391 41.542 59.3391 39.352C58.9491 36.862 58.2591 34.432 57.2691 32.122C56.7891 30.832 56.2191 29.572 55.5591 28.342C54.8391 27.142 53.6691 26.272 52.3191 25.942C51.2991 25.702 50.2191 25.732 49.1991 26.002C48.2391 26.242 47.3691 26.872 46.5591 27.472C45.4191 28.342 44.3991 29.422 43.5891 30.592C42.9591 31.462 42.4491 32.422 41.9991 33.412C41.7891 33.862 41.6091 34.342 41.4891 34.822C41.3991 35.452 41.3691 36.112 41.3991 36.742C41.3391 38.332 41.4291 39.922 41.6391 41.512C41.7591 42.322 41.9391 43.132 42.1491 43.882C42.2391 44.182 42.4491 44.602 42.7791 44.722C43.1091 44.842 43.1391 44.482 43.0491 44.242C42.2391 41.692 42.2391 38.872 42.3891 36.202C42.3891 36.052 42.3891 35.902 42.4191 35.752C42.4191 35.722 42.4491 35.692 42.4491 35.662L42.4791 35.602C42.4491 35.662 42.5091 35.512 42.5091 35.482C42.7491 34.762 43.0791 34.042 43.4391 33.382C44.6691 30.982 46.5891 29.032 48.9291 27.712C50.4291 26.902 52.5291 26.842 53.9991 27.802C54.2691 27.982 54.5091 28.192 54.7191 28.432C54.7491 28.492 55.0191 28.822 54.8991 28.642V28.672C54.9291 28.702 54.9291 28.762 54.9591 28.792C54.9591 28.822 54.9891 28.852 55.0191 28.882C54.9891 28.822 55.1091 29.062 55.0191 28.882C55.3191 29.482 55.5891 30.082 55.8591 30.712C56.7591 32.692 57.4491 34.732 57.9891 36.832C58.4391 38.782 58.8291 41.122 58.0191 43.042C57.5091 44.212 56.4591 45.112 55.4391 45.862C54.3891 46.612 53.2491 47.212 52.0491 47.692C51.7191 47.812 51.3891 47.932 51.0591 48.052C50.6391 48.142 50.2191 48.142 49.7991 48.082C48.4491 48.022 47.1591 47.662 45.9591 47.062C45.5091 46.822 45.1191 46.552 44.7291 46.252C44.6091 46.162 44.4591 46.012 44.2791 45.862L44.0391 45.622C44.0091 45.592 43.7691 45.352 43.8891 45.472C43.7691 45.352 43.6791 45.202 43.5591 45.052L43.4091 44.872C43.3791 44.812 43.1991 44.572 43.3491 44.782C43.2291 44.572 43.1091 44.362 42.9891 44.182C42.9591 44.122 43.0791 44.392 43.0191 44.242C43.0191 44.212 42.9891 44.212 42.9891 44.182C42.9891 44.152 42.9591 44.152 42.9591 44.122C42.8691 43.882 42.5991 43.432 42.2991 43.432C41.9991 43.432 42.1491 43.912 42.2391 44.062Z" fill="#2B0E30"/>
<path d="M45.15 40.5215C45.15 40.5215 44.64 43.4315 47.37 43.0115L45.15 40.5215Z" fill="white"/>
<path d="M44.4005 40.522C44.3405 40.912 44.3405 41.302 44.4005 41.662C44.4905 42.412 44.9405 43.072 45.6005 43.402C46.2005 43.642 46.8605 43.702 47.5205 43.582C47.8505 43.522 48.2105 43.162 48.0905 42.802C48.0305 42.652 47.9405 42.502 47.7605 42.442C47.5805 42.382 47.4005 42.352 47.1905 42.412C47.0705 42.442 47.3405 42.382 47.2805 42.412H47.1905H47.0405C46.9505 42.412 46.8605 42.412 46.7705 42.412H46.7105H46.8305C46.8005 42.412 46.7405 42.412 46.7105 42.382C46.6805 42.352 46.5605 42.352 46.4705 42.322L46.5905 42.352L46.5305 42.322L46.4405 42.292L46.3505 42.232L46.3205 42.202C46.2605 42.172 46.4105 42.262 46.4105 42.262C46.4105 42.262 46.2905 42.172 46.2605 42.142C46.2005 42.112 46.1705 42.052 46.1405 42.022L46.2605 42.142C46.1405 42.022 46.0505 41.872 45.9905 41.722L46.0505 41.872C45.9605 41.632 45.9005 41.362 45.8705 41.092V41.272C45.8405 41.002 45.8405 40.732 45.9005 40.462C45.9005 40.282 45.8405 40.132 45.7205 40.012C45.5705 39.892 45.3905 39.832 45.2105 39.832C44.7905 39.862 44.4605 40.132 44.4005 40.522Z" fill="#2B0E30"/>
<path d="M53.8793 35.6016C55.1693 36.4716 56.5793 37.1316 58.0793 37.5816C63.0893 39.2016 63.4193 41.0616 61.6793 41.8416C59.9393 42.6216 53.0693 40.7916 53.0693 40.7916" fill="white"/>
<path d="M53.6093 36.1421C54.8993 37.0421 56.3393 37.7321 57.8393 38.1821C58.9193 38.5121 59.9693 38.9621 60.9593 39.5321C61.2593 39.7121 61.5293 39.9221 61.7993 40.1621C61.8893 40.2521 61.7693 40.1021 61.8293 40.1921C61.8593 40.2521 61.9193 40.3121 61.9493 40.3421C62.0693 40.4921 61.9193 40.2521 61.9793 40.3721C62.0093 40.4321 62.0393 40.4921 62.0693 40.5521C61.9193 40.2521 62.0993 40.5821 62.0693 40.5821C62.0393 40.5821 62.0393 40.4021 62.0693 40.5521C62.0393 40.4921 62.0993 40.7021 62.0693 40.5521C62.0993 40.6121 61.9793 40.7621 62.0693 40.5821C62.0393 40.6121 62.0393 40.6421 62.0393 40.6721C61.9793 40.7921 62.0693 40.6721 62.0093 40.7021C61.9493 40.7921 61.8593 40.8521 61.7993 40.9421C61.7093 41.0321 61.8293 40.9121 61.7693 40.9721C61.7393 41.0021 61.6793 41.0321 61.6493 41.0321C61.5293 41.0921 61.4093 41.1521 61.3193 41.1821C61.2293 41.2121 61.4093 41.1821 61.2593 41.2121L61.0793 41.2421C60.9293 41.2721 60.8093 41.2721 60.6593 41.2721C59.1893 41.3621 57.6893 41.0621 56.2793 40.7921C55.1993 40.5821 54.1493 40.3421 53.0993 40.0721C52.7393 39.9821 52.5293 40.3421 52.5293 40.6421C52.5293 41.0321 52.7993 41.3621 53.1593 41.4821C54.1193 41.7221 55.0793 41.9621 56.0693 42.1421C57.6593 42.4721 59.3093 42.8021 60.9293 42.7121C62.0093 42.6521 63.2993 42.0821 63.2993 40.7921C63.2693 39.0821 61.2293 38.0621 59.8793 37.4921C58.5293 36.9221 57.0593 36.5321 55.7093 35.8721C55.2893 35.6621 54.8993 35.4521 54.5093 35.2121C54.3893 35.1521 54.2693 35.0621 54.1793 35.0021C54.1493 34.9721 54.2993 35.0921 54.1793 35.0021C53.3393 34.4621 52.9793 35.6621 53.6093 36.1421Z" fill="#2B0E30"/>
<path d="M48.5399 34.6416C48.5399 34.6416 49.3799 34.6416 49.2899 35.4516C49.1999 36.2616 48.2399 36.1416 48.0899 35.4516C47.9699 35.1516 48.1199 34.7916 48.4499 34.6716C48.4499 34.6716 48.5099 34.6716 48.5399 34.6416Z" fill="#2B0E30"/>
<path d="M54.0897 33.6816C54.0897 33.6816 54.9297 33.6816 54.8397 34.4916C54.7497 35.3016 53.7897 35.1816 53.6397 34.4916C53.5197 34.1916 53.6697 33.8316 53.9997 33.7116C54.0297 33.7116 54.0597 33.6816 54.0897 33.6816Z" fill="#2B0E30"/>
<path d="M37.2891 71.5712V85.8212C37.2891 86.0912 37.7391 86.3912 37.9191 86.5112C38.0091 86.5712 38.4891 86.8712 38.4891 86.6312V72.3812C38.4891 72.1112 38.0391 71.8112 37.8591 71.6912C37.7991 71.6312 37.2891 71.3312 37.2891 71.5712Z" fill="#2B0E30"/>
<path d="M30.8695 63.6514C33.9295 64.7914 37.1395 65.4514 40.4095 65.6614C43.6795 65.8114 46.9795 65.4814 50.1595 64.7014C52.0795 64.2814 53.9995 63.8914 55.9195 63.6214C56.2795 63.5914 55.5895 62.3014 55.1995 62.3614C53.4895 62.5714 51.8095 62.9014 50.1295 63.2614C48.5095 63.6514 46.8895 63.9814 45.2695 64.1914C42.0595 64.5814 38.8195 64.4614 35.6095 63.8914C33.8095 63.5614 32.0395 63.0814 30.3295 62.4214C30.0295 62.3014 30.1195 62.6914 30.2095 62.8414C30.3595 63.2014 30.5995 63.5014 30.8695 63.6514Z" fill="#2B0E30"/>
<path d="M29.9997 70.7317C33.5097 71.4217 37.0497 71.9917 40.5897 72.4417C42.3597 72.6817 44.1597 72.9817 45.9597 72.9517C47.6997 72.9217 49.2597 72.3217 50.8797 71.8117C52.7697 71.2417 54.7197 70.7617 56.6697 70.4017C57.5397 70.2517 56.9397 68.9017 56.1897 69.0517C54.4797 69.3517 52.7697 69.7717 51.0897 70.2517C49.4997 70.7317 47.9097 71.4217 46.2297 71.5417C45.3597 71.5717 44.4597 71.5416 43.5897 71.4216C42.7197 71.3316 41.8797 71.2416 41.0097 71.1216C39.2397 70.9116 37.4997 70.6416 35.7297 70.3716C33.7497 70.0716 31.7997 69.7117 29.8197 69.3517C29.5197 69.3217 29.2497 69.5317 29.2197 69.8317C29.2197 69.8617 29.2197 69.9217 29.2197 69.9517C29.3097 70.3717 29.6097 70.6717 29.9997 70.7317Z" fill="#2B0E30"/>
<path d="M27.69 82.5213C35.73 79.7913 44.25 82.7613 52.47 81.6813C54.69 81.4113 56.85 80.7813 58.83 79.7613C59.16 79.6113 58.08 78.6213 57.75 78.7713C50.25 82.6713 41.58 80.1213 33.57 80.3613C31.2 80.3913 28.86 80.8113 26.58 81.5313C26.34 81.6213 27.33 82.6413 27.69 82.5213Z" fill="#2B0E30"/>
<path d="M122.971 70.2819C122.971 70.2819 123.931 62.3919 118.261 58.8819C112.591 55.3719 106.201 54.6219 101.191 57.4719C96.1806 60.3219 92.8806 63.7119 94.1106 69.9519C95.3406 76.1919 97.1706 79.1619 95.6406 81.8019C94.1106 84.4419 93.9906 85.7319 96.2106 86.0619C98.4306 86.3919 96.4806 89.9019 98.2806 91.3119C100.081 92.7219 110.341 92.1819 113.671 88.7919C117.001 85.4019 127.261 87.3519 129.901 83.8719C132.541 80.3919 126.421 79.6119 127.831 77.3019C129.241 74.9919 129.211 74.2419 126.451 73.9119C123.691 73.5819 123.271 71.4819 122.971 70.2819Z" fill="#2B0E30"/>
<path d="M102.421 92.2124C100.441 92.2124 98.8506 91.9424 98.2206 91.4624C97.3206 90.7424 97.2906 89.5424 97.2906 88.4924C97.2606 87.2024 97.2006 86.3924 96.2106 86.2424C95.3106 86.1224 94.7706 85.8224 94.5306 85.3124C94.2006 84.5924 94.5006 83.5724 95.5506 81.7424C96.5706 79.9724 96.0606 78.0824 95.2206 74.9624C94.8306 73.5524 94.4106 71.9624 94.0206 70.0124C92.6706 63.2624 96.6606 59.9324 101.161 57.3824C105.991 54.6224 112.441 55.1624 118.381 58.8224C123.931 62.2424 123.211 69.8024 123.181 70.3424V70.4024C123.451 71.6324 123.901 73.5224 126.511 73.8224C127.921 74.0024 128.611 74.2724 128.851 74.7824C129.151 75.3824 128.761 76.2224 128.011 77.4524C127.471 78.3524 128.221 79.0124 129.091 79.7624C130.231 80.7524 131.641 81.9524 130.081 84.0524C128.701 85.8824 125.431 86.2424 121.981 86.6324C118.771 86.9924 115.441 87.3524 113.851 89.0024C111.571 91.1924 106.261 92.2124 102.421 92.2124ZM108.001 55.9124C105.661 55.8824 103.351 56.4824 101.281 57.6224C96.8706 60.1424 92.9706 63.3824 94.2906 69.9524C94.6806 71.8724 95.1006 73.4624 95.4906 74.8724C96.3306 77.9624 96.8706 80.0024 95.7906 81.8924C94.8006 83.6024 94.5006 84.5924 94.7706 85.1924C94.9506 85.5824 95.4306 85.8224 96.2406 85.9424C97.5306 86.1224 97.5606 87.3224 97.5606 88.4924C97.5606 89.5424 97.5906 90.6224 98.3706 91.2224C100.081 92.5724 110.311 92.0324 113.551 88.7024C115.231 86.9924 118.591 86.6024 121.861 86.2424C125.251 85.8524 128.461 85.4924 129.751 83.7824C131.131 81.9224 129.961 80.9024 128.821 79.9124C127.921 79.1324 126.991 78.3524 127.681 77.2124C128.371 76.0724 128.731 75.2924 128.491 74.8124C128.311 74.4224 127.651 74.1824 126.391 74.0324C123.571 73.7024 123.091 71.6324 122.821 70.3724L122.791 70.2824C122.791 70.2524 122.791 70.2524 122.791 70.2224C122.791 70.1324 123.691 62.3924 118.141 58.9724C114.811 56.9324 111.301 55.8824 108.001 55.9124Z" fill="#2B0E30"/>
<path d="M98.3103 84.8321C93.5403 81.5321 96.4203 68.0321 96.4203 68.0321C98.5203 67.1621 101.73 64.3721 101.73 64.3721C101.97 71.2721 110.22 71.5421 110.22 71.5421C111.09 67.6121 115.56 68.0321 116.04 71.6021C116.52 75.1721 113.22 76.2521 113.22 76.2521C113.22 76.2521 117.45 86.9621 117.42 88.4321C117.39 89.9021 109.74 93.3821 106.02 87.0521C106.02 87.0521 101.52 87.0521 98.3103 84.8321Z" fill="white"/>
<path d="M99.031 84.6521C96.871 83.1221 96.451 79.9721 96.331 77.5421C96.211 74.8721 96.391 72.2021 96.841 69.5621C96.931 68.9921 97.021 68.4221 97.141 67.8521L96.961 67.9721C98.221 67.4021 99.421 66.6521 100.501 65.7821C101.161 65.2721 101.821 64.7621 102.451 64.2221L101.011 64.5821C101.041 66.7721 102.181 68.8121 104.011 70.0421C105.361 70.9121 106.921 71.4521 108.511 71.6621C108.871 71.7221 109.231 71.7521 109.591 71.7821C109.861 71.7821 110.161 71.7221 110.431 71.6021C110.551 71.5721 110.911 71.4821 110.941 71.3621C111.061 70.7621 111.301 70.2221 111.661 69.7421C111.811 69.5621 111.961 69.4121 112.111 69.2621C112.201 69.2021 112.291 69.1121 112.381 69.0521C112.441 69.0221 112.591 68.9621 112.651 68.9321C112.621 68.9621 112.381 69.0521 112.321 69.0221C112.411 69.0221 112.501 69.0221 112.591 69.0221C112.801 69.0221 113.011 69.0521 113.221 69.1421C113.641 69.2621 114.031 69.5021 114.361 69.8021C115.921 71.3321 115.621 74.1221 114.061 75.5321C113.791 75.8021 113.461 76.0121 113.131 76.1921C112.981 76.2521 113.041 76.2521 112.861 76.3121C112.681 76.3721 112.981 76.2821 112.891 76.3121C112.801 76.3421 112.711 76.3721 113.011 76.2821C112.981 76.2821 112.471 76.4321 112.501 76.5221C113.101 78.0221 113.671 79.4921 114.211 80.9921C115.051 83.2121 115.921 85.4621 116.521 87.7421C116.671 88.2821 116.821 88.7621 116.431 89.2121C116.161 89.4821 115.861 89.7221 115.531 89.8721C115.351 89.9921 115.141 90.0821 114.961 90.1721C114.811 90.2321 114.841 90.2321 114.691 90.2621L114.631 90.2921L114.421 90.3521C114.571 90.3221 114.361 90.3521 114.331 90.3821C114.301 90.4121 114.361 90.3821 114.361 90.3821L114.271 90.4121C114.091 90.4421 114.121 90.4421 113.941 90.4721C113.701 90.5021 113.431 90.5021 113.191 90.5021C112.561 90.5321 111.901 90.4721 111.271 90.3221C109.831 89.9621 108.541 89.1521 107.611 88.0121C107.341 87.6821 107.101 87.3221 106.861 86.9621C106.771 86.8421 106.711 86.8421 106.561 86.8421C106.141 86.8421 105.721 86.8121 105.271 86.7521C103.591 86.5721 101.941 86.1221 100.411 85.4021C99.901 85.1921 99.451 84.9221 99.031 84.6521C98.851 84.5321 98.461 84.6821 98.281 84.7421C98.041 84.8321 97.801 84.9221 97.591 85.0421C99.811 86.5421 102.721 87.2921 105.391 87.2921L105.271 87.2621C106.591 89.4821 108.751 90.8921 111.331 90.9521C112.531 90.9521 113.731 90.7721 114.871 90.4121C115.741 90.1721 116.581 89.7821 117.361 89.2421C117.721 88.9721 118.141 88.6121 118.111 88.1621C118.051 87.5321 117.901 86.9321 117.661 86.3321C117.031 84.2921 116.281 82.2821 115.531 80.2721C115.021 78.8621 114.481 77.4821 113.911 76.0721L113.401 76.3121C115.111 75.7421 116.581 74.3921 116.761 72.5321C116.881 71.2721 116.521 69.8921 115.471 69.1121C114.481 68.3621 113.311 68.4521 112.171 68.7821C111.511 68.9621 110.881 69.2921 110.401 69.7721C109.921 70.3121 109.591 71.0021 109.441 71.7221L110.791 71.3021C110.521 71.3021 110.281 71.2721 110.011 71.2421C109.351 71.1521 108.661 71.0021 108.031 70.8221C106.291 70.2821 104.611 69.3521 103.561 67.8221C102.841 66.7421 102.451 65.4821 102.421 64.1921C102.421 64.0421 101.101 64.4321 100.981 64.5521C99.661 65.7521 98.221 66.8021 96.661 67.7321C96.451 67.8521 96.211 67.9721 95.971 68.0621C95.851 68.1221 95.701 68.1521 95.641 68.2721C95.611 68.3321 95.611 68.4221 95.611 68.5121C95.521 68.9321 95.461 69.3521 95.371 69.7721C94.831 73.2221 94.471 76.8521 95.071 80.3021C95.371 82.0721 96.001 83.9921 97.531 85.0721C97.681 85.1921 98.101 85.0421 98.281 84.9821C98.551 84.8621 98.791 84.7421 99.031 84.6521Z" fill="#2B0E30"/>
<path d="M109.771 76.0127C109.771 76.0127 110.521 79.6127 106.561 79.7027L109.771 76.0127Z" fill="white"/>
<path d="M109.11 75.8028C109.14 75.9228 109.14 76.0428 109.14 76.1628C109.14 76.2828 109.14 76.4028 109.14 76.5228C109.14 76.5528 109.14 76.5828 109.14 76.6428C109.14 76.7028 109.14 76.7928 109.14 76.7028C109.14 76.6128 109.14 76.7028 109.14 76.7628C109.14 76.8228 109.14 76.8528 109.11 76.9128C109.08 77.0928 109.05 77.2728 108.99 77.4228C108.96 77.5128 108.93 77.6028 108.9 77.6628C108.87 77.6928 108.87 77.7528 108.84 77.7828C108.9 77.6328 108.84 77.8128 108.81 77.8428C108.72 78.0228 108.6 78.1728 108.48 78.3228C108.45 78.3528 108.42 78.4128 108.36 78.4428C108.33 78.4728 108.21 78.5628 108.33 78.4728C108.24 78.5328 108.15 78.6228 108.03 78.6828C107.91 78.7728 107.79 78.8328 107.64 78.8628L107.58 78.8928C107.58 78.8928 107.43 78.9528 107.49 78.9228C107.55 78.8928 107.46 78.9228 107.43 78.9228L107.31 78.9528C106.95 79.0428 106.56 79.1028 106.17 79.1028C105.81 79.1028 105.84 79.5828 105.99 79.7628C106.2 80.0928 106.53 80.2728 106.92 80.2428C108.06 80.2128 109.29 79.8528 109.92 78.8328C110.31 78.1728 110.52 77.3928 110.46 76.6128C110.46 76.4628 110.43 76.2828 110.4 76.1328C110.31 75.7728 110.04 75.4728 109.68 75.3828C109.47 75.3828 109.02 75.4428 109.11 75.8028Z" fill="#2B0E30"/>
<path d="M100.05 74.3926C98.9999 75.6226 97.7699 76.6726 96.4199 77.5426C91.8899 80.5426 92.0999 82.4926 94.0199 82.7926C95.9399 83.0926 102.27 79.3426 102.27 79.3426" fill="white"/>
<path d="M99.3604 74.0922C98.2204 75.5622 96.5404 76.6122 95.0404 77.6922C94.1404 78.2922 93.3304 79.0422 92.6404 79.9122C92.2804 80.3622 91.9504 80.9622 92.0404 81.5622C92.1304 82.1622 92.6404 82.5222 93.0904 82.7622C93.7204 83.0922 94.4704 83.2122 95.1604 83.1222C95.8804 83.0022 96.6004 82.7922 97.2904 82.4922C98.1004 82.1622 98.8804 81.8022 99.6604 81.4122C100.77 80.8722 101.85 80.2722 102.93 79.6722C103.2 79.5222 102.69 79.1922 102.57 79.1322C102.33 79.0122 101.91 78.8322 101.64 78.9822C100.86 79.4322 100.08 79.8822 99.2704 80.2722C97.8904 81.0222 96.4504 81.6522 94.9804 82.1622C94.6804 82.2522 94.3804 82.3122 94.0804 82.3722C93.9904 82.3722 93.9004 82.4022 93.8104 82.4022H93.7804C93.7504 82.4022 93.4804 82.3422 93.6904 82.4022C93.6604 82.4022 93.4804 82.3722 93.6004 82.3722C93.7204 82.3722 93.4804 82.2822 93.6604 82.4022C93.5404 82.3122 93.7204 82.4622 93.6304 82.3722C93.5404 82.2822 93.6604 82.4022 93.6004 82.3422C93.5704 82.3122 93.5404 82.2822 93.5404 82.2222C93.5104 82.1622 93.4804 82.0722 93.4804 82.0122C93.3904 81.5022 93.7204 80.9322 94.0204 80.5422C94.6504 79.7322 95.4004 79.0422 96.2404 78.4722C97.8304 77.3022 99.5404 76.2222 100.77 74.6622C100.95 74.4222 99.6604 73.7322 99.3604 74.0922Z" fill="#2B0E30"/>
<path d="M97.7707 126.142C92.8507 123.502 102.721 92.1823 104.911 92.0023C104.911 92.0023 101.131 90.2923 103.651 88.2523C106.171 86.2123 116.461 83.4523 118.801 83.9023C121.141 84.3523 120.241 89.3023 120.241 89.3023C120.241 89.3023 152.131 116.182 134.881 126.892" fill="white"/>
<path d="M98.1608 125.603L98.0708 125.543C97.9808 125.513 98.2208 125.663 98.1008 125.573C98.0408 125.513 97.9808 125.483 97.9508 125.423C97.9208 125.363 97.8008 125.243 97.9208 125.393C97.8608 125.333 97.8308 125.273 97.7708 125.183C97.6808 125.033 97.6208 124.913 97.5608 124.763C97.5008 124.643 97.5908 124.883 97.5608 124.793L97.5308 124.673C97.5008 124.583 97.4708 124.493 97.4408 124.403C97.3208 123.983 97.2608 123.533 97.2008 123.113C97.2008 122.993 97.1708 122.873 97.1708 122.783C97.1708 122.693 97.1708 122.843 97.1708 122.843C97.1708 122.843 97.1708 122.783 97.1708 122.753V122.543C97.1708 122.273 97.1408 122.003 97.1708 121.733C97.1708 119.003 97.6508 116.273 98.1908 113.603C98.8208 110.453 99.6008 107.423 100.531 104.333C101.341 101.663 102.211 98.9928 103.261 96.3828C103.621 95.4828 104.011 94.5828 104.461 93.7128L104.611 93.4728C104.611 93.4428 104.701 93.3228 104.641 93.4428C104.581 93.5628 104.671 93.4128 104.671 93.3828C104.761 93.2628 104.821 93.1128 104.911 92.9928C105.001 92.8728 105.061 92.8128 105.121 92.6928C105.061 92.7528 105.241 92.5428 105.121 92.6928C105.151 92.6628 105.181 92.6328 105.241 92.6028C105.301 92.5128 105.061 92.7228 105.181 92.6328C105.091 92.6628 105.001 92.6928 104.911 92.6928C105.241 92.6928 105.541 92.5128 105.661 92.2128C105.781 91.9428 105.631 91.6128 105.361 91.4928C104.881 91.2828 104.461 91.0128 104.071 90.6228C103.831 90.4128 103.651 90.1428 103.561 89.8128C103.531 89.6928 103.531 89.5728 103.591 89.4528C103.651 89.2428 103.771 89.0628 103.921 88.9128C104.071 88.7628 104.221 88.6428 104.401 88.5228C104.431 88.4928 104.671 88.3428 104.521 88.4628L104.761 88.3128C105.121 88.1028 105.511 87.8928 105.931 87.7128C106.861 87.2928 107.821 86.9028 108.781 86.6028C110.971 85.8528 113.191 85.2828 115.441 84.8328C115.891 84.7428 116.371 84.6828 116.821 84.5928L116.971 84.5628C116.971 84.5628 117.181 84.5328 117.061 84.5628L117.271 84.5328C117.451 84.5028 117.661 84.5028 117.841 84.5028C118.021 84.5028 118.141 84.5028 118.291 84.5028C118.351 84.5028 118.441 84.5028 118.501 84.5028C118.561 84.5028 118.441 84.5028 118.441 84.5028H118.561C118.831 84.5328 119.071 84.7128 119.221 84.9228C119.701 85.6428 119.731 86.6628 119.731 87.5628C119.731 88.1328 119.671 88.7328 119.581 89.3028C119.581 89.4828 119.641 89.6328 119.761 89.7528C120.811 90.6228 121.801 91.5528 122.761 92.4828C125.071 94.6728 127.291 96.9528 129.391 99.3528C131.911 102.173 134.131 105.203 136.081 108.473C136.981 109.973 137.731 111.563 138.331 113.213C138.601 113.993 138.841 114.803 139.021 115.613C139.111 116.003 139.171 116.393 139.231 116.813C139.261 116.993 139.261 117.143 139.291 117.323C139.291 117.353 139.321 117.623 139.291 117.503C139.291 117.623 139.291 117.743 139.291 117.833C139.381 119.273 139.111 120.743 138.541 122.063C138.481 122.213 138.391 122.393 138.301 122.543C138.271 122.633 138.211 122.693 138.181 122.783C138.241 122.663 138.091 122.933 138.061 122.963C137.851 123.293 137.641 123.623 137.401 123.923C137.281 124.073 137.161 124.223 137.041 124.373C136.981 124.433 136.921 124.523 136.861 124.583C136.951 124.493 136.711 124.733 136.681 124.763C136.381 125.063 136.051 125.363 135.691 125.633C135.511 125.783 135.331 125.903 135.151 126.053C135.061 126.113 134.971 126.203 134.851 126.263C134.731 126.323 134.701 126.353 134.641 126.383C134.341 126.563 134.101 126.893 134.311 127.253C134.551 127.553 134.971 127.673 135.301 127.463C136.891 126.533 138.241 125.273 139.261 123.743C140.131 122.393 140.641 120.833 140.791 119.243C141.091 115.823 139.831 112.403 138.301 109.403C136.501 105.923 134.161 102.773 131.671 99.8028C129.481 97.1928 127.171 94.7028 124.711 92.3328C123.901 91.5228 123.061 90.7428 122.191 89.9928C121.801 89.6028 121.381 89.2428 120.961 88.9128L120.901 88.8528L121.081 89.3028C121.351 87.8328 121.411 86.0928 120.811 84.6828C120.421 83.8128 119.581 83.2128 118.621 83.2128C117.781 83.1828 116.911 83.2728 116.071 83.4228C113.641 83.8428 111.271 84.4428 108.931 85.2228C107.791 85.5828 106.651 86.0328 105.541 86.5128C104.701 86.8428 103.921 87.2928 103.201 87.8628C102.661 88.3128 102.151 88.9428 102.121 89.6628C102.121 90.2628 102.331 90.8028 102.751 91.2528C103.261 91.8228 103.891 92.2728 104.581 92.5728L105.061 91.3728C104.371 91.4628 103.951 91.9428 103.591 92.5128C103.111 93.2928 102.721 94.1028 102.361 94.9428C101.281 97.4628 100.351 100.073 99.5708 102.683C98.5808 105.863 97.7108 109.103 97.0208 112.343C96.4208 115.193 95.8808 118.103 95.7608 121.043C95.7008 122.123 95.7608 123.203 95.9408 124.283C96.0908 125.033 96.3908 125.843 96.9608 126.383C97.1108 126.503 97.2608 126.623 97.4108 126.713C98.0708 127.073 99.0008 126.023 98.1608 125.603Z" fill="#2B0E30"/>
<path d="M113.55 92.7227C111.15 93.5027 108.57 93.7127 106.08 93.3527L113.55 92.7227Z" fill="white"/>
<path d="M113.251 92.0621C110.881 92.8121 108.391 93.0221 105.931 92.6921C105.151 92.5721 105.661 93.9521 106.231 94.0421C108.781 94.4021 111.391 94.1921 113.821 93.4121C114.481 93.1721 113.791 91.8821 113.251 92.0621Z" fill="#2B0E30"/>
<path d="M97.4404 73.7021C97.4404 73.7021 97.5604 74.4821 98.2804 74.3021C99.0004 74.1221 98.7904 73.2221 98.1304 73.1921C97.8304 73.1321 97.5304 73.3121 97.4704 73.6421C97.4404 73.6421 97.4404 73.6721 97.4404 73.7021Z" fill="#2B0E30"/>
<path d="M101.7 72.7724C101.7 72.7724 101.82 73.5524 102.54 73.3724C103.26 73.1924 103.05 72.2924 102.39 72.2624C102.09 72.2024 101.79 72.3824 101.7 72.7124C101.7 72.7124 101.7 72.7424 101.7 72.7724Z" fill="#2B0E30"/>
<path d="M56.9104 79.1024C56.9104 79.1024 86.6104 84.5024 93.4804 77.9024C93.4804 77.9024 86.7604 55.8824 83.6404 51.5324C80.5204 47.1824 66.7504 49.3124 61.5004 53.7824C56.2504 58.2524 56.9104 79.1024 56.9104 79.1024Z" fill="white"/>
<path d="M56.6709 79.5524C57.7509 79.7324 58.8009 79.9124 59.8809 80.0624C62.3709 80.4524 64.8909 80.7524 67.4109 81.0224C70.5909 81.3524 73.8009 81.5924 77.0109 81.6524C80.1909 81.7724 83.3709 81.5924 86.5209 81.1724C88.9509 80.7824 91.5609 80.2124 93.5709 78.6824C93.7509 78.5324 93.9609 78.3824 94.1109 78.2324C94.2009 78.1424 94.2609 77.9924 94.2309 77.8724C93.8709 76.6724 93.4809 75.4724 93.1209 74.3024C92.2509 71.5724 91.3509 68.8424 90.4209 66.1124C89.4009 63.1424 88.3509 60.1424 87.1509 57.2324C86.6709 56.0324 86.1609 54.8324 85.6209 53.6624C85.2609 52.7924 84.7809 51.9824 84.2409 51.2324C83.4009 50.2124 82.1409 49.6124 80.9109 49.2524C79.3209 48.8324 77.6709 48.6524 75.9909 48.7124C72.3309 48.8024 68.7009 49.5524 65.3109 50.9624C63.8109 51.5624 62.4009 52.3724 61.1109 53.3624C60.2709 54.0824 59.5809 54.9824 59.1009 56.0024C57.8409 58.5824 57.3009 61.5524 56.9109 64.3724C56.5209 67.3724 56.2809 70.3724 56.1909 73.4024C56.1309 75.2024 56.1309 77.0024 56.1609 78.8324C56.1609 78.9224 56.1609 79.0124 56.1609 79.1024C56.1609 79.4624 56.5509 79.6124 56.8809 79.6424C57.1209 79.6724 57.6909 79.5824 57.6609 79.2224C57.6309 77.9924 57.6309 76.7624 57.6309 75.5324C57.6609 72.7424 57.8109 69.9524 58.0809 67.1624C58.3809 64.2224 58.7709 61.2524 59.7009 58.4324C60.0609 57.2624 60.5709 56.1824 61.2309 55.1624C61.8309 54.2624 62.8809 53.5124 63.9009 52.9424C66.8409 51.2324 70.2909 50.3024 73.6509 49.9124C75.2709 49.7024 76.9209 49.6724 78.5409 49.8524C78.7209 49.8824 78.9009 49.8824 79.0809 49.9124C79.3209 49.9424 79.2909 49.9424 79.5309 50.0024C79.8909 50.0624 80.2209 50.1524 80.5509 50.2724C80.8209 50.3624 81.0909 50.4524 81.3309 50.5724C81.4809 50.6324 81.6009 50.6924 81.7209 50.7824L81.9009 50.9024L81.9909 50.9624C82.7109 51.5024 83.2809 52.1924 83.6409 53.0024C84.1209 53.9324 84.6309 55.0424 85.0509 56.0624C86.2209 58.8224 87.2409 61.6724 88.2309 64.5224C89.2209 67.3724 90.1809 70.1924 91.0809 73.0424C91.5909 74.6624 92.1009 76.2824 92.6109 77.9324C92.6409 78.0224 92.6709 78.0824 92.6709 78.1724L92.7909 77.8124C92.6109 77.9924 92.4309 78.1424 92.2509 78.2624L92.1609 78.3224L92.0709 78.3824C91.9509 78.4424 91.8609 78.5324 91.7409 78.5924C91.5309 78.7124 91.2909 78.8624 91.0509 78.9524L90.6909 79.1324L90.5109 79.2224L90.3909 79.2524C89.8209 79.4624 89.2509 79.6724 88.6809 79.8224C88.3809 79.9124 88.0809 79.9724 87.7509 80.0624L87.3009 80.1524L87.0309 80.2124L86.9409 80.2424H86.8809C85.4409 80.4824 84.0009 80.6624 82.5309 80.7524C80.9709 80.8424 79.3809 80.9024 77.9109 80.8724C74.7309 80.8424 71.5509 80.6324 68.3709 80.3324C65.7609 80.0924 63.1809 79.7624 60.6009 79.4024C59.7609 79.2824 58.9509 79.1624 58.1109 79.0124L57.3309 78.8924L57.2109 78.8624H57.2709L57.1209 78.8324H57.0609C56.7609 78.7724 56.2809 78.7724 56.1009 79.1024C55.9209 79.4324 56.4009 79.4924 56.6709 79.5524Z" fill="#2B0E30"/>
<path d="M50.7305 111.382C50.7305 111.382 54.6005 76.252 71.7305 76.252C88.8605 76.252 92.1005 112.252 92.1005 112.252" fill="white"/>
<path d="M51.4505 111.233C51.4805 110.903 51.5405 110.603 51.5705 110.273C51.6305 109.913 51.6605 109.553 51.7205 109.163C51.7505 109.043 51.7505 108.953 51.7805 108.863C51.8105 108.713 51.7505 108.953 51.7805 108.773C51.7805 108.713 51.8105 108.653 51.8105 108.593C51.8405 108.323 51.9005 108.083 51.9305 107.813C52.4105 104.963 53.0105 102.143 53.7605 99.3828C54.6605 95.9028 55.8605 92.4828 57.3305 89.1828C58.0805 87.5628 58.9205 86.0028 59.8805 84.5028C60.7805 83.0928 61.8005 81.7728 63.0005 80.6028C63.3005 80.3028 63.5705 80.0328 63.9005 79.7928C64.1705 79.5528 64.4405 79.3128 64.7405 79.1028C65.0405 78.8628 65.3705 78.6528 65.7005 78.4428C65.8505 78.3528 66.0005 78.2628 66.1805 78.1728L66.4505 78.0228C66.3005 78.1128 66.5405 77.9628 66.6005 77.9628C66.9305 77.7828 67.2905 77.6328 67.6505 77.5128C67.8305 77.4528 67.9805 77.3928 68.1605 77.3328L68.3105 77.2728C68.1305 77.3328 68.4305 77.2428 68.3105 77.2728L68.6105 77.1828C69.0005 77.0928 69.3905 77.0028 69.7805 76.9428C69.9605 76.9128 70.1405 76.8828 70.3505 76.8828C70.4705 76.8528 70.1705 76.8828 70.3805 76.8828H70.5005L70.8605 76.8528C71.2805 76.8228 71.7005 76.8228 72.1205 76.8528C72.4805 76.8528 72.8405 76.9128 73.2005 76.9728C73.5905 77.0328 73.9505 77.1228 74.3405 77.2128C74.5205 77.2728 74.7005 77.3028 74.8505 77.3628C75.0905 77.4228 75.1505 77.4528 75.3305 77.5128C76.7405 78.0528 78.0305 78.8628 79.1705 79.8528C81.7205 82.0728 83.5505 84.9828 85.0205 88.0128C86.5805 91.3128 87.8105 94.7328 88.7105 98.2428C89.5205 101.213 90.1505 104.213 90.6305 107.243C90.9005 108.893 91.1405 110.513 91.2905 112.163C91.2905 112.223 91.2905 112.313 91.3205 112.403C91.3805 113.153 92.8205 112.763 92.7605 112.103C92.6405 110.903 92.4905 109.703 92.3105 108.503C91.8905 105.593 91.3205 102.743 90.6605 99.8628C89.8505 96.3228 88.7105 92.8428 87.3305 89.4828C85.9505 86.2128 84.2105 83.0028 81.8105 80.3928C79.6505 78.0228 76.8305 76.2228 73.6205 75.7728C70.2005 75.3528 66.7505 76.2528 63.9905 78.2928C61.1405 80.3628 59.0105 83.3028 57.3305 86.3628C55.5905 89.6628 54.1505 93.1128 53.1005 96.7128C52.1705 99.7728 51.4205 102.893 50.8205 106.043C50.4905 107.783 50.1905 109.523 49.9805 111.263L49.9505 111.503C49.9205 111.863 50.4305 111.953 50.6705 111.893C51.0305 111.833 51.3305 111.563 51.3905 111.203L51.4505 111.233Z" fill="#62206E"/>
<path d="M84.7806 73.3728L84.3906 79.8228C84.4206 80.1828 84.6606 80.5128 84.9906 80.6928C85.2606 80.8128 85.6206 80.8128 85.6206 80.4528L85.9806 74.0028C85.9506 73.6428 85.7106 73.3128 85.3806 73.1328C85.1706 73.0128 84.7806 73.0428 84.7806 73.3728Z" fill="#2B0E30"/>
<path d="M63.0304 65.4521C63.0304 65.4521 61.7404 61.5221 60.1504 62.6321C58.5604 63.7421 60.9604 71.2421 63.4504 69.5321C65.9404 67.8221 63.0304 65.4521 63.0304 65.4521Z" fill="white"/>
<path d="M63.7803 65.3029C63.4203 64.1629 62.8203 62.7229 61.7103 62.1229C60.9303 61.7029 59.9703 61.8829 59.3703 62.5129C58.9203 63.0229 58.8603 63.7729 58.8903 64.4329C58.9503 66.0229 59.4603 67.5529 60.3603 68.8729C60.7503 69.5029 61.3503 69.9829 62.0703 70.2229C62.9703 70.4629 63.8103 70.0729 64.4703 69.4729C65.3403 68.6629 65.4003 67.5529 64.8603 66.5329C64.5603 65.9929 64.1403 65.4829 63.6303 65.0929C63.3303 64.8829 62.9103 64.8829 62.5803 65.0929C62.3103 65.2729 62.1603 65.6029 62.4603 65.8429C62.7603 66.0829 63.0003 66.3529 63.2103 66.6529C63.5703 67.1629 63.8703 67.7929 63.6603 68.3929C63.5103 68.7529 63.2403 69.0229 62.9103 69.2029C62.8503 69.2329 62.9703 69.1729 62.9703 69.1729L62.8803 69.2029C62.7003 69.2929 62.9703 69.1729 62.8503 69.2029C62.8203 69.2029 62.7903 69.2029 62.7603 69.2029C62.7303 69.2029 62.9403 69.2029 62.8503 69.2029C62.6403 69.1729 62.9103 69.2329 62.8203 69.2029C62.7303 69.1729 62.7003 69.1729 62.6403 69.1729C62.7603 69.2029 62.7003 69.2029 62.6103 69.1429C62.5203 69.0829 62.5203 69.1129 62.4603 69.0829C62.5803 69.1429 62.4303 69.0529 62.3703 69.0229C62.1603 68.8729 61.9803 68.6929 61.8603 68.5129C61.0803 67.4329 60.5703 66.1429 60.4203 64.7929C60.3303 64.2829 60.3603 63.7429 60.4803 63.2329C60.5103 63.0829 60.4803 63.2329 60.5103 63.1729C60.5403 63.1129 60.5403 63.0829 60.5703 63.0529C60.5703 63.0229 60.6003 63.0229 60.6003 62.9929C60.6303 62.9329 60.5403 63.1129 60.5703 63.0229C60.6003 62.9329 60.7803 62.8729 60.5703 62.9929C60.6003 62.9629 60.7503 62.8729 60.6603 62.9329C60.5703 62.9929 60.6903 62.9329 60.6903 62.9029C60.6903 62.8729 60.6603 62.9329 60.6303 62.9329C60.7503 62.9029 60.6003 62.9329 60.5703 62.9329C60.7203 62.9629 60.5403 62.9329 60.5403 62.9329L60.6303 62.9629C60.5403 62.9329 60.5703 62.9329 60.6303 62.9629L60.6903 62.9929C60.8403 63.0529 60.6003 62.9329 60.7203 63.0229C60.7803 63.0529 60.8403 63.1129 60.9003 63.1729C61.0203 63.2629 61.1103 63.3829 61.2003 63.5029C61.4103 63.8029 61.6203 64.1329 61.7703 64.4629C61.8303 64.6129 61.9203 64.7629 61.9803 64.9129C62.0103 64.9729 62.0403 65.0629 62.0703 65.1229L62.1003 65.2129C62.1603 65.3329 62.1903 65.4529 62.2503 65.6029C62.4003 65.9329 62.7603 66.0829 63.0903 65.9929C63.3903 65.9029 63.9003 65.6629 63.7803 65.3029Z" fill="#2B0E30"/>
<path d="M84.9904 65.7525C84.9904 65.7525 86.9104 62.0925 88.2904 63.4425C89.6704 64.7925 86.1004 71.7825 83.9104 69.6825C81.7204 67.5825 84.9904 65.7525 84.9904 65.7525Z" fill="white"/>
<path d="M85.5001 66.2924C85.9501 65.4224 86.6101 64.4024 87.4801 63.8924C87.7201 63.7424 88.0201 63.6524 88.2901 63.7124C88.3501 63.7424 88.4101 63.7424 88.4701 63.7724L88.5301 63.8024L88.5601 63.8324L87.9301 63.1424C87.9301 63.2024 87.9901 63.2924 88.0201 63.3824C88.1401 63.9224 88.0801 64.4624 87.9301 64.9724C87.6001 66.3224 86.9101 67.5524 85.9801 68.5724C85.6201 68.9924 85.1401 69.3224 84.6001 69.4724C84.3901 69.5324 84.1501 69.5024 83.9101 69.4424C83.8201 69.3824 83.7301 69.3224 83.6401 69.2924C83.7001 69.2624 84.0301 69.8024 83.9401 69.5924C83.8801 69.5024 83.8201 69.3824 83.7901 69.2624C83.3101 68.0624 84.5101 66.8624 85.5001 66.2924C85.5901 66.2624 85.1101 65.7224 85.0801 65.6924C85.0501 65.6624 84.6301 65.1224 84.5101 65.2124C83.4901 65.7824 82.3501 66.9524 82.7701 68.2124C83.0401 68.8124 83.4301 69.3824 83.9101 69.8024C84.1801 70.1324 84.5401 70.4024 84.9301 70.5824C85.4701 70.7324 86.0701 70.5824 86.4901 70.2224C87.6901 69.3224 88.5001 67.7924 88.9201 66.3824C89.1301 65.7824 89.1901 65.1524 89.1001 64.5224C89.0101 64.1924 88.8001 63.8624 88.5601 63.6224C88.2601 63.2624 87.8401 62.7524 87.3301 62.6624C86.5501 62.5124 85.8601 63.2924 85.4401 63.8324C85.0801 64.2824 84.7801 64.7624 84.5101 65.2724C84.4501 65.3924 84.8701 65.8124 84.9601 65.8724C85.0501 65.9324 85.4701 66.3524 85.5001 66.2924Z" fill="#2B0E30"/>
<path d="M69.1505 74.4521L67.2305 79.9122C67.2305 79.9122 71.1005 86.0922 77.1905 80.9322L77.1005 76.2822L69.1505 74.4521Z" fill="white"/>
<path d="M68.5201 74.0922L67.0801 78.1422L66.7201 79.1622C66.6601 79.2822 66.6001 79.4322 66.5701 79.5522C66.5101 79.9422 67.0501 80.4522 67.2601 80.7222C68.3401 82.0722 69.8401 83.0022 71.5201 83.4222C72.6001 83.6322 73.7401 83.5722 74.7601 83.1822C75.4201 82.9422 76.0501 82.6422 76.6201 82.2222C76.9201 82.0122 77.2201 81.7722 77.5201 81.5322C77.7001 81.4422 77.7901 81.2622 77.7901 81.0822C77.7901 79.5522 77.7301 78.0222 77.7001 76.4922C77.7001 76.1022 77.1601 75.7722 76.8301 75.7122L69.9001 74.0922L68.9101 73.8522C68.5801 73.7922 68.4301 74.0622 68.5501 74.3322C68.7001 74.6622 69.0301 74.9022 69.3901 74.9922L76.3201 76.6122L77.3101 76.8522L76.4401 76.0722L76.5301 80.7222L76.5901 80.4822C75.0601 81.7722 72.9901 82.7922 71.0101 82.2822C70.8301 82.2522 70.6801 82.1922 70.5001 82.1322C70.3501 82.0722 70.2001 82.0122 70.0801 81.9522C69.9301 81.8922 69.7801 81.8022 69.6601 81.7122L69.5401 81.6522C69.4501 81.5922 69.6301 81.7122 69.5401 81.6522L69.3001 81.5022C69.1801 81.4122 69.0301 81.3222 68.9101 81.2022L68.7601 81.0822C68.6701 81.0222 68.8501 81.1722 68.7901 81.1122L68.7001 81.0222C68.5201 80.8422 68.3401 80.6322 68.1601 80.4522L68.0401 80.3022C67.9801 80.2122 68.1601 80.4522 68.0401 80.3022C67.9801 80.2422 67.9201 80.1522 67.8901 80.0922C67.8601 80.0322 67.8001 79.9722 67.7701 79.9122L67.8901 80.3322L69.8101 74.8722C69.9601 74.3022 68.7301 73.4622 68.5201 74.0922Z" fill="#2B0E30"/>
<path d="M62.8205 63.8023C62.8205 63.8023 62.1605 75.5923 70.6805 78.6523C81.3005 82.4623 86.7305 70.3723 86.2205 61.2223C86.2205 61.2223 77.9705 59.3323 76.5005 54.1123C76.4705 54.1423 67.6205 64.6723 62.8205 63.8023Z" fill="white"/>
<path d="M62.0707 63.8022C62.0107 65.3622 62.1307 66.9522 62.4307 68.4822C63.0007 71.5122 64.1707 74.5422 66.4207 76.7022C69.0907 79.2522 73.2307 80.4822 76.8307 79.6122C80.2807 78.7722 82.8307 76.1922 84.4207 73.1322C86.1007 69.8622 86.9707 66.2322 86.9707 62.5422C86.9707 62.1222 86.9707 61.6722 86.9407 61.2522C86.9407 60.9822 86.6407 60.8322 86.4007 60.8022C86.3407 60.8022 86.2507 60.7722 86.1907 60.7422L86.0707 60.7122C85.8907 60.6822 86.1907 60.7422 86.0707 60.7122L85.7107 60.6222C85.0207 60.4122 84.3607 60.1722 83.7007 59.9322C81.9607 59.2122 80.2207 58.2822 78.8707 56.9022C78.0607 56.0922 77.4907 55.1322 77.1307 54.0522C76.9807 53.5722 76.0207 53.6022 75.7507 53.9322C74.7607 55.1022 73.6807 56.2422 72.5707 57.3522C70.5907 59.3022 68.4907 61.2222 66.0307 62.5422C65.4607 62.8422 64.8607 63.1122 64.2607 63.2922C64.1407 63.3222 64.3207 63.2922 64.1707 63.3222L63.9307 63.3822C63.7807 63.4122 63.6307 63.4122 63.4807 63.4422C63.6307 63.4422 63.4807 63.4422 63.4207 63.4422H63.3007C63.2407 63.4422 63.0607 63.4122 63.2407 63.4422L63.0307 63.4122C62.7307 63.3522 62.2507 63.4122 62.1007 63.7422C61.9507 64.0722 62.3707 64.2822 62.6107 64.3122C63.8407 64.4622 65.1007 64.2522 66.2407 63.7122C67.5607 63.0822 68.7907 62.3322 69.9007 61.4322C72.0607 59.7222 74.1007 57.8322 75.9307 55.7922C76.3207 55.3422 76.7407 54.9222 77.1007 54.4722L75.7207 54.3522C76.3507 56.4522 78.0007 58.0722 79.8307 59.2122C81.3607 60.1722 83.0407 60.9222 84.7807 61.4322C85.1707 61.5522 85.5907 61.6722 85.9807 61.7622L85.4407 61.3122C85.6207 64.8222 85.0207 68.3022 83.6407 71.5422C82.4107 74.3922 80.3707 77.2722 77.4307 78.4422C75.9907 79.0122 74.4007 79.1622 72.8707 78.8622C71.1607 78.5622 69.5707 77.8422 68.2207 76.7622C65.9407 74.8722 64.6807 72.0222 64.0507 69.1722C63.7207 67.4622 63.5407 65.7222 63.5707 63.9822C63.5707 63.9522 63.5707 63.9222 63.5707 63.8922C63.6007 63.1722 62.1007 63.1422 62.0707 63.8022Z" fill="#2B0E30"/>
<path d="M67.9501 67.492C67.8901 67.822 67.8901 68.152 67.9201 68.482C67.9801 68.812 68.0701 69.142 68.2501 69.412C68.4601 69.712 68.7301 69.952 69.0601 70.102C69.6001 70.312 70.2001 70.342 70.7701 70.222C71.1001 70.162 71.4301 69.802 71.2801 69.472C71.1001 69.142 70.7101 68.992 70.3501 69.082L70.2001 69.112L70.4101 69.082C70.2301 69.112 70.0801 69.112 69.9001 69.112L70.1101 69.142C69.9901 69.142 69.8701 69.112 69.7501 69.082L69.9301 69.142C69.8401 69.112 69.7501 69.082 69.6901 69.022L69.8401 69.112C69.7501 69.052 69.6601 68.992 69.6001 68.932L69.7201 69.052C69.6301 68.962 69.5701 68.872 69.5101 68.782L69.6001 68.932C69.5101 68.782 69.4501 68.602 69.4201 68.392L69.4501 68.542C69.3901 68.242 69.3901 67.942 69.4201 67.612L69.3901 67.762C69.4201 67.612 69.3901 67.432 69.3001 67.312C69.1801 67.162 69.0301 67.072 68.8501 67.042C68.6401 67.012 68.4601 67.042 68.2801 67.102C68.1301 67.222 67.9801 67.342 67.9501 67.492Z" fill="#2B0E30"/>
<path d="M76.5011 52.5527C75.5111 54.0227 74.3711 55.4327 73.1411 56.7227C70.8011 59.2127 68.0711 61.5527 64.8311 62.7827C63.9611 63.1127 63.0611 63.3227 62.1311 63.4127C61.2011 63.5027 60.2411 63.4427 59.3111 63.2327C59.0411 63.1727 58.5311 63.1727 58.3811 63.4427C58.2311 63.7127 58.6211 63.9527 58.8611 64.0127C62.7311 64.9427 66.5711 63.5627 69.7811 61.3427C72.4511 59.4827 74.7611 57.1127 76.7411 54.5327C77.1611 53.9927 77.5811 53.4527 77.9711 52.8527C78.2711 52.3727 76.8311 52.0727 76.5011 52.5527Z" fill="#2B0E30"/>
<path d="M61.4108 61.9723C66.0308 60.5923 71.6708 58.6723 73.7708 53.8723C74.0108 53.3323 73.0808 52.1923 72.7508 52.9423C71.8208 55.0423 70.0508 56.6023 68.0708 57.7123C65.7908 59.0323 63.2408 59.8723 60.7208 60.6223C60.3908 60.7123 60.5108 61.3123 60.6308 61.5223C60.8108 61.8223 61.0808 62.0923 61.4108 61.9723Z" fill="#2B0E30"/>
<path d="M60.2707 60.1427C63.8707 58.0427 67.7107 55.7627 69.7207 51.9827C70.0207 51.4427 68.9107 50.4527 68.5807 51.0827C66.6007 54.7727 62.7607 56.9927 59.2807 59.0627C58.9807 59.2427 59.2807 59.7827 59.4307 59.9327C59.5807 60.2027 59.9707 60.3227 60.2707 60.1427Z" fill="#2B0E30"/>
<path d="M78.6308 54.8027C80.4608 56.7527 82.8008 58.1627 85.3808 58.8527C85.6508 58.9427 86.1308 58.8827 86.2208 58.5527C86.3108 58.2227 85.8908 57.9827 85.6208 57.8927C83.4008 57.2627 81.4208 56.0627 79.8308 54.3527C79.5608 54.0827 79.1708 53.9927 78.8108 54.1127C78.6008 54.1727 78.4808 54.3827 78.5408 54.5927C78.5408 54.6827 78.6008 54.7427 78.6308 54.8027Z" fill="#2B0E30"/>
<path d="M76.9502 69.2925C76.9502 69.2925 83.0702 68.3325 84.4502 64.8225C85.8302 61.3125 81.5402 61.1325 77.8202 64.8225" fill="white"/>
<path d="M77.1003 69.8328C79.1703 69.5028 81.3303 68.7528 83.0403 67.5228C84.2403 66.6528 85.3203 65.3928 85.4403 63.8628C85.5903 62.3928 84.3003 61.5528 82.9503 61.5828C80.7303 61.6128 78.6903 63.0228 77.1603 64.5228C76.8903 64.7928 77.1303 65.1528 77.4003 65.2728C77.7303 65.4528 78.1503 65.3928 78.4203 65.1228C79.5603 64.0128 81.0603 62.9028 82.6803 62.6928L82.9203 62.6628C82.7703 62.6628 83.0103 62.6628 83.0103 62.6628C83.0103 62.6628 83.3703 62.6928 83.2203 62.6628C83.2803 62.6628 83.3403 62.6928 83.4003 62.6928C83.4603 62.6928 83.6103 62.7828 83.4603 62.7228C83.5203 62.7528 83.5803 62.7828 83.6103 62.7828C83.7303 62.8428 83.5503 62.7228 83.6703 62.8128C83.7003 62.8428 83.7903 62.9328 83.7003 62.8428C83.7303 62.8728 83.7603 62.9328 83.7903 62.9628C83.8503 63.0228 83.8803 63.1128 83.8803 63.1728C83.9403 63.4128 83.9403 63.6528 83.9103 63.8928C83.5503 66.3528 80.7003 67.6128 78.6303 68.2428C78.3603 68.3328 78.0903 68.3928 77.8203 68.4828L77.6703 68.5128C77.5503 68.5428 77.7903 68.4828 77.6103 68.5428L77.3403 68.6028C77.1303 68.6328 76.9503 68.6928 76.7403 68.7228C76.4403 68.7828 76.0803 68.9928 76.1703 69.3528C76.2603 69.7128 76.8003 69.8928 77.1003 69.8328Z" fill="#2B0E30"/>
<path d="M60.9308 72.2024L60.5408 78.6524C60.4808 79.4624 61.9808 79.3124 62.0108 78.5924L62.4008 72.1424C62.4608 71.3024 60.9608 71.4824 60.9308 72.2024Z" fill="#2B0E30"/>
<path d="M73.4105 62.1225C73.4105 62.1225 73.2305 62.9025 74.0105 63.0225C74.7905 63.1425 74.9105 62.1825 74.2805 61.8825C74.0105 61.7025 73.6205 61.7625 73.4405 62.0625C73.4405 62.0625 73.4105 62.0925 73.4105 62.1225Z" fill="#2B0E30"/>
<path d="M77.0707 62.5121C77.0707 62.5121 76.8907 63.2921 77.6707 63.4121C78.4507 63.5321 78.5707 62.5721 77.9407 62.2721C77.6707 62.0921 77.2807 62.1521 77.1007 62.4521C77.1007 62.4521 77.1007 62.4821 77.0707 62.5121Z" fill="#2B0E30"/>
<path d="M62.55 93.1729C62.34 98.5129 62.28 103.883 62.31 109.253L62.55 93.1729Z" fill="white"/>
<path d="M61.8303 92.9923C61.6203 98.3323 61.5603 103.702 61.5903 109.072C61.6203 109.432 61.8902 109.732 62.2502 109.822C62.5202 109.882 63.0303 109.822 63.0303 109.462C63.0003 104.092 63.0902 98.7523 63.2702 93.3823C63.3002 92.6623 61.8603 92.2123 61.8303 92.9923Z" fill="#62206E"/>
<path d="M82.1406 94.2525V109.672C82.1706 110.032 82.3206 110.362 82.6206 110.602C82.7706 110.722 83.1906 110.902 83.1906 110.542V95.1225C83.1606 94.7625 83.0106 94.4325 82.7106 94.1925C82.5606 94.0425 82.1406 93.8625 82.1406 94.2525Z" fill="#62206E"/>
<path d="M72.2409 101.542C70.9509 100.192 69.9309 98.6022 69.2409 96.8922C69.1509 96.6822 69.0909 96.4722 69.0009 96.2922C68.9109 96.1122 68.8509 95.8722 68.8509 95.6622C68.9109 95.3022 69.2409 95.3922 69.4809 95.5122C69.8409 95.7822 70.1709 96.1122 70.4709 96.4422L71.7009 97.6722C71.8509 97.8222 72.6609 98.2722 72.6009 97.7022C72.4209 96.0522 73.0809 94.4022 74.3409 93.3222L73.2909 92.7522C74.6109 95.8722 73.8009 99.7122 71.4909 102.142L72.6309 103.102C73.4709 100.402 74.3109 97.7022 74.7309 94.9122C74.7909 94.4622 73.9509 93.4122 73.5609 94.0422C72.0009 96.6222 71.2209 99.5922 71.3409 102.622C71.4009 102.982 71.6109 103.312 71.9409 103.462C72.1509 103.582 72.5409 103.612 72.5409 103.252C72.4809 101.002 71.7009 98.8122 70.3209 97.0422C70.2009 96.8922 69.4509 96.2322 69.3009 96.7422C69.0609 97.7322 69.2709 98.7822 69.8409 99.5922C69.9909 99.8322 70.8609 100.402 70.8609 99.7722C70.8609 98.5422 70.5909 97.3122 70.0809 96.1722L69.5709 96.6822L71.7909 98.0922C72.0309 98.2422 72.3609 98.2122 72.3909 97.8822C72.4209 97.5522 72.0609 97.2222 71.7909 97.0422L69.6009 95.6022C69.1509 95.3322 68.9109 95.6922 69.0909 96.1122C69.4809 97.0722 69.6909 98.0922 69.6909 99.1122L70.7109 99.2922C70.4109 98.7822 70.3209 98.1822 70.4709 97.6122L69.4509 97.3122C70.6209 98.8422 71.2809 100.702 71.3109 102.622L72.5109 103.252C72.3909 100.342 73.1709 97.4322 74.7009 94.9422L73.5309 94.0722C73.1109 96.8622 72.2709 99.5622 71.4309 102.262C71.3409 102.562 71.5809 102.892 71.7909 103.072C71.9409 103.222 72.3309 103.462 72.5409 103.252C75.1809 100.492 75.8109 96.2922 74.3409 92.8422C74.2209 92.5422 73.6509 91.9722 73.2909 92.2722C71.9109 93.4722 71.2209 95.2722 71.4009 97.1022L72.3009 97.1322L70.8309 95.6622C70.4109 95.1822 69.9309 94.7622 69.3609 94.4322C68.9409 94.2222 68.3709 94.0422 67.9809 94.3722C67.5009 94.7622 67.6809 95.4222 67.8609 95.9022C68.6709 98.2422 69.9609 100.372 71.6709 102.172C71.8509 102.352 72.2409 102.652 72.5109 102.412C72.7809 102.172 72.4209 101.692 72.2409 101.542Z" fill="#62206E"/>
<path d="M10.0205 131.062C10.0205 131.062 14.1905 87.8617 31.9505 89.2117C49.7105 90.5617 54.9905 130.852 54.9905 130.852C54.9905 130.852 21.6605 131.062 10.0205 131.062Z" fill="#2B0E30"/>
<path d="M10.6801 131.391C10.8001 130.041 10.9801 128.691 11.1901 127.341C11.6701 124.101 12.2701 120.861 12.9601 117.621C13.8301 113.601 14.9701 109.671 16.3801 105.801C17.7601 102.141 19.4401 98.4813 21.8401 95.3314C23.7901 92.7814 26.4001 90.4713 29.6101 89.8413C31.2301 89.5113 32.9101 89.6013 34.4701 90.0513L34.5301 90.0814L34.7101 90.1413L34.9801 90.2314C35.1901 90.2914 35.4001 90.3813 35.5801 90.4413L35.9101 90.5913C35.9701 90.6213 36.0301 90.6213 36.0601 90.6513C36.2701 90.7413 36.4501 90.8313 36.6301 90.9513C36.8101 91.0713 37.0201 91.1613 37.2001 91.2513L37.4701 91.4013C37.3201 91.3113 37.6201 91.4913 37.6801 91.5513C38.0401 91.7913 38.4001 92.0614 38.7601 92.3314L38.8801 92.4213C38.7301 92.3013 38.8801 92.4213 38.9101 92.4513C39.0001 92.5113 39.0601 92.5714 39.1501 92.6614C39.3301 92.8114 39.5101 92.9613 39.6901 93.1413C39.8701 93.3213 40.0201 93.4413 40.1701 93.5913L40.4101 93.8314L40.5301 93.9814L40.6201 94.0713H40.5901C41.2501 94.7913 41.9101 95.5413 42.4801 96.3213C43.6801 97.9413 44.7601 99.6814 45.6901 101.511C47.6401 105.351 49.2301 109.371 50.4601 113.481C51.5401 117.081 52.4701 120.711 53.1901 124.371C53.5801 126.351 53.9701 128.331 54.2401 130.341C54.2401 130.431 54.2701 130.521 54.2701 130.611L54.4801 130.311L51.0901 130.341C48.2401 130.371 45.3601 130.371 42.5101 130.401L31.2601 130.461L19.7101 130.521C16.6201 130.551 13.5001 130.551 10.4101 130.551H9.60008C9.27008 130.551 9.42008 130.941 9.54008 131.091C9.75008 131.361 10.0801 131.541 10.4401 131.571C13.3801 131.571 16.3501 131.571 19.2901 131.541C23.1001 131.541 26.8801 131.511 30.6901 131.481C34.5001 131.451 38.3101 131.451 42.1201 131.421L51.1801 131.361L54.0301 131.331C54.4501 131.331 54.9001 131.361 55.3501 131.331H55.4101C55.5901 131.331 55.6201 131.181 55.6201 131.031C55.4401 129.591 55.1701 128.151 54.9001 126.711C54.2701 123.261 53.4601 119.841 52.5301 116.451C51.3901 112.251 49.9201 108.141 48.1201 104.151C46.3501 100.311 44.1901 96.5914 41.2201 93.5614C38.5801 90.8614 35.1601 88.8514 31.3201 88.6114C27.9601 88.4014 24.9301 89.9014 22.5301 92.2114C19.7701 94.8814 17.8801 98.3614 16.3501 101.811C14.7001 105.681 13.3501 109.701 12.3601 113.781C11.4601 117.321 10.7401 120.891 10.1701 124.491C9.87008 126.441 9.57008 128.391 9.36008 130.371L9.33008 130.641C9.33008 131.181 10.6201 131.901 10.6801 131.391Z" fill="#2B0E30"/>
<path d="M44.6396 79.7618C44.6396 79.7618 48.2996 69.1418 39.3596 65.2118C30.4196 61.2818 18.7496 68.3018 18.1796 80.0918C17.6096 91.8818 31.9796 93.2619 31.9796 93.2619L44.6396 79.7618Z" fill="white"/>
<path d="M45.3904 79.7318C45.9604 77.9618 46.2304 76.1018 46.1104 74.2418C46.0504 72.6218 45.6604 71.0318 44.9704 69.5918C44.1004 67.8818 42.7204 66.5018 41.0404 65.5718C37.4104 63.5318 32.9404 63.4118 29.0404 64.6718C25.1704 65.9618 21.8704 68.6018 19.8004 72.1118C18.6904 74.0018 17.9704 76.0718 17.6404 78.2318C17.3404 80.2118 17.3404 82.2818 17.9404 84.2318C18.9004 87.2918 21.2104 89.6018 24.0004 91.1018C26.1004 92.2118 28.3504 92.9618 30.6904 93.3518C31.2604 93.4418 32.2804 93.7118 32.7304 93.2918C33.1504 92.9018 33.5104 92.4818 33.8704 92.0618L39.9604 85.5818L45.0904 80.1218L45.3904 79.8218C45.5704 79.6118 44.9404 79.5518 44.8504 79.5218C44.5804 79.5218 44.1304 79.5218 43.9204 79.7318L39.6304 84.2918L32.8204 91.5518L31.2604 93.2018L32.1604 92.9918C32.2504 92.9918 32.5204 93.0218 32.1604 92.9918C32.0104 92.9618 31.8304 92.9618 31.6804 92.9318C31.4404 92.9018 31.2004 92.8418 30.9604 92.8118L30.5404 92.7218L30.4204 92.6918C30.3304 92.6618 30.2104 92.6618 30.1204 92.6318C28.4104 92.2418 26.7604 91.6118 25.2004 90.7718C23.3104 89.7818 21.7204 88.3418 20.5204 86.5718C19.1104 84.3218 18.7504 81.6518 19.0204 79.0418C19.6504 73.1618 23.3704 67.7918 28.8604 65.4818C30.0604 64.9718 31.3204 64.6418 32.6104 64.4618C33.8404 64.3118 35.0704 64.3718 36.3004 64.6118C39.0004 65.1518 41.5804 66.6518 43.0504 69.0218C45.0004 72.0818 44.9404 76.2218 43.9204 79.6118C43.8904 79.6718 43.8904 79.7618 43.8604 79.8218C43.8004 80.0018 45.2404 80.1818 45.3904 79.7318Z" fill="#2B0E30"/>
<path d="M44.3999 89.3622C47.6999 85.2522 44.5199 70.6722 44.5199 70.6722C42.1199 66.9522 29.7299 69.3822 29.7299 69.3822C31.4999 73.1322 30.9899 79.2822 30.9899 79.2822C29.4899 75.9222 25.5899 77.4222 25.8299 80.6922C26.0699 83.9622 29.9399 84.9222 29.9399 84.9222C29.9399 84.9222 28.9199 91.9122 29.2199 93.2322C29.5199 94.5522 35.6999 96.3822 38.8799 92.6322C38.9099 92.6322 41.5199 92.9622 44.3999 89.3622Z" fill="white"/>
<path d="M45.0604 89.7518C45.7804 88.8218 46.1404 87.6218 46.3504 86.4818C46.5904 85.0118 46.6804 83.5118 46.6504 82.0118C46.5604 79.1018 46.2604 76.1918 45.7504 73.3118C45.6304 72.5018 45.4804 71.6918 45.3004 70.8818C45.1504 70.1318 44.5204 69.5918 43.8604 69.2018C42.7204 68.5118 41.3704 68.2418 40.0804 68.0918C38.6104 67.9418 37.1104 67.9118 35.6404 68.0018C33.6304 68.0918 31.6204 68.3318 29.6404 68.7218L29.5504 68.7518C29.2504 68.8118 28.8604 69.0818 29.0404 69.4418C29.9404 71.3918 30.2104 73.5818 30.3004 75.6818C30.3604 76.8518 30.3604 78.0218 30.2704 79.1918H31.7104C31.1404 77.9618 30.1204 76.8818 28.6804 76.7618C27.5104 76.6718 26.3704 77.2418 25.7104 78.2318C25.0204 79.3718 24.9004 80.7518 25.4104 81.9818C25.8904 83.0918 26.7304 84.0218 27.7804 84.6218C28.3804 85.0118 29.0704 85.2818 29.7604 85.4918L29.2204 84.8318C28.8304 87.1718 28.5904 89.5418 28.4704 91.9118C28.4104 92.3918 28.4404 92.8718 28.5604 93.3518C28.7704 93.8318 29.1604 94.2518 29.6404 94.4618C30.9604 95.2118 32.5504 95.4518 34.0204 95.4218C36.1204 95.4218 38.1304 94.5218 39.5404 92.9618L38.9104 93.2018C39.6004 93.2318 40.2904 93.1418 40.9504 92.8718C42.5704 92.3318 43.9204 91.1018 45.0604 89.7518C45.5704 89.1218 44.2504 88.4018 43.7704 89.0018C42.9604 90.0518 41.9404 90.9218 40.7704 91.5518C40.5604 91.6418 40.3504 91.7318 40.1404 91.8218L39.9004 91.9118C39.8704 91.9118 39.5704 92.0018 39.7204 91.9718C39.4804 92.0318 39.2104 92.0618 38.9704 92.0618C38.8204 92.0618 39.1504 92.0618 38.9404 92.0618C38.7904 92.0618 38.6704 92.0618 38.5204 92.0918C38.2204 92.2118 38.0404 92.5418 37.8304 92.7518C37.6204 92.9318 37.3804 93.1118 37.1404 93.2918C36.2704 93.8618 35.2804 94.1918 34.2604 94.2518C33.7804 94.3118 33.3004 94.3118 32.8504 94.2518C32.6104 94.2218 32.3704 94.1918 32.1304 94.1618C31.9504 94.1318 31.7704 94.1018 31.5904 94.0418C31.3804 93.9818 31.2004 93.9218 30.9904 93.8618C30.9004 93.8318 30.8404 93.8018 30.7504 93.7718L30.6304 93.7118C30.4504 93.6218 30.7804 93.7718 30.6004 93.6818C30.4504 93.6218 30.3304 93.5318 30.1804 93.4418C30.1204 93.4118 29.9704 93.2918 30.1504 93.4118L30.0004 93.2618C29.8804 93.1418 30.0604 93.3518 30.0004 93.2618C29.9404 93.1718 29.9404 93.1118 29.9704 93.2618L29.9404 93.1418C29.9404 93.1418 29.9404 93.1418 29.9404 93.2018C29.9404 93.1718 29.9404 93.1418 29.9404 93.0818C29.9104 92.7818 29.9104 92.4818 29.9404 92.1518C29.9704 91.2518 30.0604 90.3518 30.1504 89.4818C30.3004 87.9818 30.4804 86.4818 30.7204 85.0118C30.7504 84.7418 30.4204 84.4118 30.1804 84.3518C30.0604 84.3218 29.9404 84.2918 29.8204 84.2318C29.7004 84.1718 29.5804 84.1418 29.4604 84.1118L29.2504 84.0218L29.1604 83.9918C29.3404 84.0818 29.1604 83.9918 29.1304 83.9918C28.3804 83.6618 27.7204 83.1518 27.2404 82.4918C26.6404 81.6818 26.4604 80.6318 26.7304 79.6418C26.8504 79.2218 27.0604 78.8618 27.3904 78.5618C27.5404 78.4418 27.6904 78.3218 27.8704 78.2318C27.9304 78.2018 27.9904 78.1718 28.0804 78.1418L28.2004 78.0818C28.2004 78.0818 28.4104 78.0218 28.2904 78.0518C28.4104 78.0218 28.5304 78.0218 28.6204 78.0218C28.8304 78.0218 28.5604 78.0218 28.6804 78.0218L28.8904 78.0518C28.9204 78.0518 29.0704 78.0818 28.9504 78.0518C29.0104 78.0518 29.0704 78.0818 29.1304 78.1118C29.1904 78.1418 29.2504 78.1418 29.3104 78.1718C29.1904 78.1118 29.3704 78.2018 29.4004 78.2318C29.6104 78.3518 29.7904 78.5018 29.9404 78.6518C30.1204 78.8918 30.3004 79.1318 30.4204 79.4018C30.5704 79.7318 30.8704 79.9418 31.2304 79.9418C31.5604 79.9718 31.8304 79.7318 31.8604 79.4018C32.0704 76.9718 31.9204 74.5118 31.4704 72.1418C31.2904 71.1818 30.9904 70.2518 30.6004 69.3518L30.0904 70.0418C31.6804 69.7418 33.2704 69.5318 34.8904 69.4118C36.2404 69.2918 37.5904 69.2318 38.9704 69.2918C39.6604 69.3218 40.3204 69.3818 41.0104 69.5018C41.1604 69.5318 41.3104 69.5618 41.4604 69.5918L41.5504 69.6218C41.5504 69.6218 41.4304 69.5918 41.5204 69.6218L41.7604 69.6818C42.0604 69.7418 42.3304 69.8318 42.6004 69.9518L42.8104 70.0418C42.8704 70.0718 42.9904 70.1018 42.8404 70.0718C42.9604 70.1318 43.0804 70.1918 43.2004 70.2518C43.3204 70.3118 43.4104 70.3718 43.5004 70.4318C43.5904 70.4918 43.4404 70.4018 43.5304 70.4618L43.6804 70.5818C43.7704 70.6718 43.8304 70.7318 43.9204 70.8218C43.8304 70.7318 43.8904 70.7918 43.9504 70.8518C44.0104 70.9118 43.9804 70.9418 43.9804 70.8218C43.9804 70.8518 44.0104 70.8818 44.0104 70.9418C44.1304 71.5718 44.2504 72.2018 44.3704 72.8318C44.5804 73.9718 44.7304 75.1118 44.9104 76.3418C45.0904 77.8118 45.2404 79.3118 45.3004 80.8118C45.3904 82.2818 45.3604 83.7218 45.2104 85.1918C45.0904 86.2718 44.8504 87.5618 44.3404 88.5218C44.2204 88.7318 44.1004 88.9118 43.9504 89.0918C43.2604 89.6618 44.5804 90.3518 45.0604 89.7518Z" fill="#2B0E30"/>
<path d="M40.5605 82.9118C40.5605 82.9118 48.3905 83.6018 49.5605 79.4918C50.7305 75.3818 45.0605 73.7618 40.8605 77.3618" fill="white"/>
<path d="M40.9799 83.5115C41.7899 83.5715 42.5999 83.5715 43.4099 83.5115C44.9099 83.4215 46.4999 83.1815 47.8499 82.4915C49.2899 81.7715 50.3099 80.4515 50.2199 78.8015C50.1299 77.0015 48.6299 75.4415 46.9499 74.9615C44.6699 74.3015 42.1499 75.2915 40.4099 76.7615C40.1699 76.9715 41.1299 78.1415 41.3399 77.9315C42.8399 76.6415 44.8199 75.7715 46.8299 75.9815C47.5499 76.0415 48.2099 76.2515 48.8099 76.6715C48.8399 76.7015 49.0199 76.8515 48.9299 76.7915C48.9899 76.8515 48.9599 76.8215 48.9599 76.8215C48.9299 76.7915 48.9599 76.8215 48.9899 76.8515V76.8815C49.0199 76.9415 49.0499 77.0015 49.0799 77.0615C49.1999 77.3915 49.2599 77.7215 49.2299 78.0815C49.1099 81.3215 45.3299 82.1615 42.7499 82.3415C41.8799 82.4015 41.0399 82.4015 40.1699 82.3415C39.9299 82.3115 40.2599 82.8515 40.2899 82.9115C40.4099 83.0615 40.6799 83.4815 40.9799 83.5115Z" fill="#2B0E30"/>
<path d="M33.6895 83.542C33.7195 83.782 33.7795 84.0521 33.8695 84.2621C34.0495 84.8321 34.3795 85.372 34.8295 85.822C35.2195 86.182 35.6695 86.512 36.1495 86.722C36.2995 86.812 36.4795 86.842 36.6595 86.872C36.7495 86.872 36.8995 86.8721 36.9295 86.7821C37.0495 86.5421 36.5095 86.2721 36.3595 86.2121C36.3295 86.2121 36.1795 86.1221 36.2995 86.1821H36.2695L36.1495 86.122C36.0595 86.062 36.2995 86.212 36.1795 86.122C36.1195 86.092 36.0595 86.032 35.9995 85.972C35.9395 85.912 36.0895 86.062 35.9995 85.972L35.9095 85.8821C35.8495 85.8221 35.8195 85.7921 35.7595 85.7321C35.7295 85.7021 35.7295 85.672 35.6995 85.672C35.6995 85.672 35.7595 85.762 35.7295 85.702L35.6695 85.642C35.5795 85.522 35.5195 85.4321 35.4595 85.3121C35.3995 85.1921 35.3395 85.1021 35.2795 84.9821C35.2195 84.8621 35.3095 85.0421 35.2795 84.9821C35.2795 84.9521 35.2495 84.952 35.2495 84.922C35.2495 84.892 35.2195 84.802 35.1895 84.742C35.1295 84.592 35.0995 84.4121 35.0695 84.2621C35.0395 84.1721 35.0395 84.112 35.0395 84.022C35.0395 83.902 34.8595 83.782 34.7995 83.722C34.6495 83.602 34.4695 83.512 34.2895 83.452C34.1995 83.392 33.6895 83.272 33.6895 83.542Z" fill="#2B0E30"/>
<path d="M40.5 74.9619C40.5 74.9619 39.78 75.2019 40.08 75.8619C40.38 76.5219 41.19 76.1619 41.1 75.5319C41.1 75.2319 40.86 74.9919 40.56 74.9619C40.56 74.9619 40.53 74.9619 40.5 74.9619Z" fill="#2B0E30"/>
<path d="M35.7005 75.3818C35.3405 75.4718 35.1605 75.8318 35.2505 76.1918C35.2505 76.2218 35.2805 76.2518 35.2805 76.2818C35.5805 76.9418 36.3905 76.5818 36.3005 75.9518C36.3005 75.6518 36.0605 75.3818 35.7605 75.3818C35.7605 75.3818 35.7305 75.3818 35.7005 75.3818Z" fill="#2B0E30"/>
<path d="M25.0204 109.132C22.6504 115.432 21.8404 122.212 22.6204 128.902C22.6804 129.532 24.0904 129.022 24.0304 128.482C23.2504 121.882 24.0604 115.192 26.4004 108.952C26.5204 108.622 26.1604 108.502 25.8904 108.532C25.5304 108.592 25.2004 108.802 25.0204 109.132Z" fill="white"/>
</svg>
