<svg width="150" height="151" viewBox="0 0 150 151" fill="none" xmlns="http://www.w3.org/2000/svg">
<path d="M85.8896 88.3716C85.8896 88.3716 59.8196 20.1516 58.6496 19.8816C57.4796 19.6116 7.49964 34.4016 6.77964 37.2816C6.05964 40.1616 29.9096 106.552 32.1896 108.022C34.4696 109.492 86.4896 89.5416 85.8896 88.3716Z" fill="#62206E"/>
<path d="M86.4299 88.4016L85.8899 87.0216C85.4099 85.7616 84.9299 84.4716 84.4199 83.2116C83.6699 81.2916 82.9499 79.3716 82.1999 77.4516C81.2699 75.0516 80.3399 72.6516 79.4399 70.2516C78.3899 67.5516 77.3399 64.8216 76.2899 62.1216C75.1799 59.2716 74.0699 56.3916 72.9599 53.5416C71.8499 50.6616 70.7099 47.8416 69.5999 44.9916C68.5499 42.2916 67.4699 39.6216 66.4199 36.9216C65.4899 34.5816 64.5599 32.2416 63.5999 29.9316C62.8499 28.1016 62.0999 26.2716 61.3199 24.4416C60.8399 23.2716 60.3299 22.1016 59.7899 20.9616C59.4599 20.3016 59.2199 19.6116 58.3499 19.6416C57.4799 19.6716 56.4899 20.0316 55.5899 20.2416C53.6699 20.7516 51.7799 21.2616 49.8899 21.8316C47.3099 22.5816 44.7299 23.3316 42.1499 24.1116C39.2099 25.0116 36.2699 25.9116 33.3299 26.8116C30.3599 27.7416 27.3899 28.7316 24.4199 29.6916C21.7199 30.5916 19.0199 31.4916 16.3499 32.4816C14.2499 33.2316 12.1499 34.0116 10.1099 34.8816C8.93988 35.3916 7.61988 35.8716 6.62988 36.6816C6.08988 37.1316 6.20988 37.6116 6.32988 38.2416C6.56988 39.4716 6.92988 40.6716 7.25988 41.9016C7.82988 43.8216 8.42988 45.7416 9.02988 47.6316C9.80988 50.0616 10.6199 52.4916 11.4299 54.9216C12.3899 57.7116 13.3499 60.5316 14.3099 63.3216C15.3599 66.2916 16.4099 69.2916 17.4599 72.2616C18.5099 75.2316 19.5899 78.2016 20.6999 81.1716C21.7499 83.9916 22.7699 86.7816 23.8499 89.6016C24.7799 92.0916 25.7399 94.5516 26.6999 97.0116C27.4799 98.9916 28.2599 100.942 29.0999 102.892C29.6399 104.182 30.2099 105.502 30.8399 106.762C31.1699 107.422 31.4999 108.172 32.2799 108.352C33.2999 108.562 34.4399 108.202 35.4299 107.962C37.2899 107.512 39.1499 106.942 40.9799 106.342C43.4699 105.562 45.9299 104.722 48.3899 103.852C51.2399 102.862 54.0599 101.842 56.8799 100.822C59.8199 99.7416 62.7299 98.6316 65.6399 97.5216C68.3699 96.4716 71.0699 95.4216 73.7699 94.3416C76.0199 93.4416 78.2699 92.5416 80.4899 91.5816C81.9899 90.9516 83.4899 90.2916 84.9599 89.5716C85.1699 89.3916 86.6099 88.7916 86.4299 88.4016C86.3099 88.1016 85.2299 88.0416 85.3499 88.3116C85.3499 88.2816 85.3799 88.2516 85.3499 88.3116C85.4099 88.2216 85.3499 88.3116 85.3199 88.3416L85.1999 88.4316C85.1699 88.4616 84.9899 88.5516 85.0799 88.5216C84.6599 88.7616 84.2699 89.0016 83.8199 89.1816C82.3199 89.9316 80.7599 90.5916 79.1999 91.2516C76.9499 92.2116 74.6999 93.1116 72.4199 94.0416C69.7499 95.1216 67.0499 96.1716 64.3499 97.1916C61.4699 98.3016 58.5899 99.3816 55.7099 100.432C52.9199 101.452 50.1299 102.442 47.3399 103.432C44.9099 104.272 42.4799 105.112 40.0199 105.862C38.2499 106.432 36.4799 106.972 34.6499 107.422C34.0799 107.572 33.5099 107.692 32.9099 107.782L32.7599 107.812C32.6399 107.842 32.8499 107.812 32.6999 107.812H32.3999C32.2799 107.812 32.4599 107.842 32.4299 107.812C32.3999 107.812 32.3699 107.812 32.3399 107.812C32.4299 107.812 32.5199 107.842 32.5799 107.872C32.6099 107.872 32.6699 107.962 32.6699 107.932C32.6399 107.902 32.6099 107.872 32.5799 107.812C32.5499 107.782 32.5499 107.782 32.5199 107.752C32.5199 107.722 32.5499 107.812 32.4899 107.722L32.3699 107.542C32.1299 107.152 31.9499 106.762 31.7399 106.342C31.0799 104.992 30.5099 103.612 29.9099 102.202C29.0699 100.192 28.2599 98.1516 27.4799 96.1416C26.5199 93.6516 25.5599 91.1616 24.5999 88.6416C23.5499 85.8516 22.4999 83.0316 21.4799 80.2116C20.3999 77.2716 19.3199 74.3016 18.2699 71.3616C17.2199 68.4516 16.1999 65.5416 15.1799 62.6316C14.2199 59.9016 13.2899 57.1716 12.3599 54.4116C11.5499 52.0416 10.7699 49.6416 10.0199 47.2716C9.41988 45.4116 8.84988 43.5516 8.30988 41.6916C7.97988 40.5216 7.64988 39.3816 7.40988 38.1816C7.34988 37.9416 7.31988 37.6716 7.34988 37.4016C7.34988 37.2516 7.37988 37.2816 7.46988 37.1916C7.58988 37.0716 7.70988 36.9516 7.82988 36.8616C8.81988 36.1416 10.2299 35.5716 11.4299 35.0616C13.4999 34.1916 15.6299 33.4116 17.7599 32.6316C20.4299 31.6716 23.1299 30.7716 25.8299 29.8716C28.7699 28.9116 31.7399 27.9516 34.6799 27.0216C37.5599 26.1216 40.4699 25.2216 43.3799 24.3516C45.8999 23.6016 48.4199 22.8516 50.9399 22.1316C52.7699 21.6216 54.5999 21.0816 56.4599 20.6016C57.0299 20.4516 57.5999 20.3016 58.1699 20.1816C58.3499 20.1516 58.5299 20.0916 58.7099 20.0616L58.8899 20.0316C58.7999 20.0316 58.9199 20.0316 58.8299 20.0316C58.6199 20.0016 58.4099 19.9116 58.2299 19.8216C58.2599 19.8516 58.2899 19.8516 58.2899 19.8816C58.2599 19.7916 58.2899 19.8816 58.3199 19.9416L58.4099 20.0916C58.5899 20.4216 58.7699 20.7816 58.9199 21.1116C59.4899 22.3716 60.0299 23.6316 60.5699 24.8916C61.3799 26.7816 62.1599 28.6716 62.9099 30.5616C63.8699 32.9316 64.8299 35.3016 65.7599 37.6716C66.8099 40.3416 67.8899 43.0116 68.9099 45.6816C70.0199 48.5016 71.1299 51.3516 72.2399 54.2016C73.3499 57.0516 74.4599 59.8716 75.5399 62.6916C76.5599 65.3916 77.6099 68.0916 78.6299 70.7316C79.5299 73.0716 80.4299 75.4116 81.3299 77.7516C82.0499 79.6116 82.7699 81.4716 83.4599 83.3316C83.9399 84.5316 84.3899 85.7616 84.8699 86.9616C85.0199 87.3816 85.1999 87.8016 85.3499 88.2216C85.4699 88.6116 86.5499 88.7016 86.4299 88.4016Z" fill="#62206E"/>
<path d="M56.7899 24.4111L8.87988 40.1911C8.87988 40.1911 29.2499 93.9811 40.4999 102.891C40.4999 102.891 82.2899 86.6611 86.1299 83.1811C86.1299 83.1811 59.0999 41.6011 56.7899 24.4111Z" fill="white"/>
<path d="M56.4897 24.1719L51.6897 25.7619L40.2297 29.5419L26.3997 34.1019L14.4597 38.0619C12.5397 38.6919 10.5897 39.2919 8.66972 39.9819L8.57972 40.0119C8.42972 40.0719 8.27972 40.1619 8.33972 40.3119C8.90972 41.7819 9.47972 43.2519 10.0497 44.7219C11.5197 48.4419 13.0197 52.1319 14.5497 55.8219C16.5897 60.7419 18.7197 65.6019 20.8797 70.4619C23.1597 75.5319 25.5597 80.5419 28.1097 85.4619C30.2697 89.6319 32.5797 93.7719 35.2797 97.6419C36.2697 99.0819 37.3797 100.462 38.5797 101.752C38.8497 102.022 39.1197 102.292 39.3897 102.532C39.6597 102.772 39.9897 103.162 40.3797 103.192C40.6497 103.192 40.9197 103.132 41.1597 103.012C43.6797 102.022 46.1997 101.032 48.7197 100.012C53.2197 98.2119 57.7197 96.3819 62.2197 94.5519C66.9597 92.6019 71.6697 90.6219 76.3497 88.5519C78.2097 87.7119 80.0997 86.8719 81.9297 85.9719C83.1897 85.3719 84.4197 84.7419 85.6197 84.0219C85.9797 83.8119 86.3097 83.5719 86.6397 83.3019C86.6997 83.2419 86.7297 83.1819 86.6997 83.0919C85.7697 81.6819 84.8997 80.2419 83.9997 78.8319C81.7497 75.2919 79.5597 71.6919 77.4297 68.0319C74.6097 63.2619 71.9097 58.4619 69.2997 53.6019C66.6597 48.6519 64.1397 43.6419 61.9197 38.4819C60.1497 34.3719 58.4397 30.1119 57.5997 25.7019C57.5097 25.2819 57.4497 24.8319 57.3897 24.4119C57.3297 24.0219 56.2197 24.1119 56.2497 24.4719C56.8197 28.7619 58.4397 32.9319 60.0897 36.9219C62.1897 42.0519 64.6497 47.0319 67.2297 51.9219C69.8397 56.8719 72.5697 61.7619 75.3897 66.6219C77.6397 70.4619 79.9497 74.2719 82.2897 78.0519C83.0397 79.2519 83.7897 80.4519 84.5397 81.6519L85.2297 82.7319C85.3197 82.9419 85.4397 83.1219 85.5897 83.3019C85.6197 83.3319 85.6197 83.3619 85.6497 83.3619L85.7097 83.1519C85.5897 83.2419 85.4697 83.3319 85.3497 83.4219C85.1397 83.5719 85.1697 83.5719 84.9297 83.6919C84.4797 83.9619 84.0597 84.2319 83.6097 84.4719C82.3497 85.1619 81.0597 85.7919 79.7697 86.3919C76.1097 88.1019 72.3897 89.7219 68.6697 91.2819C64.4697 93.0519 60.2697 94.7919 56.0697 96.5019C52.5297 97.9419 48.9897 99.3519 45.4497 100.762C44.3097 101.212 43.1697 101.662 41.9997 102.112C41.4597 102.322 40.8897 102.502 40.3797 102.742L40.3197 102.772L41.0997 102.832C39.7797 101.722 38.6097 100.462 37.5897 99.0519C36.1797 97.1619 34.8897 95.2119 33.6897 93.2019C32.2497 90.8319 30.8997 88.4019 29.6097 85.9419C28.1697 83.2419 26.8197 80.4819 25.4997 77.7219C24.1497 74.8719 22.8297 72.0519 21.5397 69.1719C20.3097 66.4119 19.0797 63.6219 17.8797 60.8319C16.7997 58.3119 15.7197 55.7619 14.6997 53.2119C13.8297 51.1119 12.9597 48.9819 12.1197 46.8519C11.5197 45.3519 10.9197 43.8519 10.3497 42.3519C10.1697 41.9019 9.98972 41.4219 9.80972 40.9719C9.74972 40.7319 9.62972 40.4919 9.53972 40.2519C9.53972 40.2219 9.50972 40.1919 9.50972 40.1619L9.26972 40.4619L14.0697 38.8719L25.5297 35.0919L39.3597 30.5619L51.2997 26.6319C53.2197 26.0019 55.1697 25.4019 57.0897 24.7119L57.1797 24.6819C57.3597 24.6219 57.5397 24.4719 57.3597 24.3219C57.0297 24.1119 56.7297 24.0819 56.4897 24.1719Z" fill="#37123E"/>
<path d="M88.3792 78.7112C88.3792 78.7112 55.5292 94.5512 41.6092 96.7412C41.6092 96.7412 29.0992 92.6612 10.9492 38.2412C10.9492 38.2412 56.0992 24.4712 56.7592 24.4112C57.4192 24.3512 69.6292 61.1012 88.3792 78.7112Z" fill="white"/>
<path d="M87.9301 78.1714C86.8201 78.7114 85.6801 79.2514 84.5701 79.7614C81.7201 81.0814 78.8701 82.4014 75.9901 83.6614C72.2101 85.3414 68.4001 86.9614 64.5901 88.5214C60.6601 90.1114 56.7001 91.6714 52.6801 93.0514C49.3201 94.2214 45.8701 95.3014 42.3901 95.9614C42.0601 96.0214 41.7001 96.0814 41.3701 96.1414H41.7301C42.1201 96.2614 41.7001 96.1114 41.5501 96.0514L41.3701 95.9314L41.2501 95.8714C41.0701 95.7814 41.4601 95.9914 41.2801 95.9014C41.1001 95.8114 40.8901 95.6314 40.6801 95.4814C40.1101 95.0314 39.5401 94.5814 39.0301 94.0714C38.9701 94.0114 39.1801 94.2214 39.0901 94.1314L39.0001 94.1014L38.8801 93.9814L38.6101 93.7114C38.4301 93.5314 38.2501 93.3514 38.0701 93.1414C37.6501 92.6914 37.2601 92.2414 36.8701 91.7914C35.8801 90.6214 34.9201 89.3614 34.0501 88.1014C33.7801 87.7114 33.5101 87.3514 33.2701 86.9614L33.2101 86.8714L33.1501 86.7514L32.9401 86.4214L32.5201 85.7914C31.9201 84.8614 31.3501 83.9314 30.7801 83.0014C29.4301 80.7214 28.1701 78.3814 26.9701 76.0414C25.4701 73.1014 24.0601 70.0714 22.7101 67.0414C21.0601 63.3514 19.5001 59.6014 18.0301 55.7914C16.2601 51.2314 14.5801 46.6414 12.9901 42.0214C12.5401 40.7614 12.1201 39.5014 11.7001 38.2114L11.2801 38.7814L15.2701 37.5814L24.9901 34.6114L37.2301 30.8914C41.0401 29.7514 44.8201 28.5814 48.6301 27.4414C51.0601 26.7214 53.5201 25.9714 55.9501 25.2514C56.2201 25.1614 56.4901 25.1014 56.7601 25.0114L56.9701 24.9514C56.9701 24.9514 57.0001 24.9514 57.0301 24.9514C56.9101 25.0414 56.5201 24.8914 56.3701 24.7714C56.3401 24.7714 56.1901 24.5914 56.2801 24.6814C56.3101 24.7114 56.1601 24.4714 56.2501 24.6214C56.2801 24.7114 56.3401 24.8014 56.4001 24.8914C56.5501 25.2214 56.7001 25.5514 56.8201 25.8514C57.9901 28.6114 59.1001 31.4014 60.2701 34.1914C62.1601 38.6314 64.1401 43.0414 66.3001 47.3614C68.8201 52.4914 71.6101 57.5014 74.6401 62.3314C77.7301 67.1914 81.1201 71.9314 85.0501 76.1314C85.9801 77.1214 86.9401 78.1114 87.9301 79.0414C88.2001 79.2814 88.6201 79.3114 88.9501 79.0714C89.2501 78.7714 89.0101 78.4414 88.7701 78.2014C84.6601 74.3314 81.1201 69.8314 77.9701 65.1514C74.7301 60.3214 71.7901 55.3114 69.1501 50.1514C66.8101 45.6214 64.6201 40.9714 62.5801 36.2614C61.2001 33.0814 59.8801 29.8714 58.5601 26.6614C58.2601 25.9114 57.9601 25.1614 57.6001 24.4414C57.4801 24.1414 57.2701 23.9014 57.0001 23.7514C56.7301 23.6314 56.4301 23.6314 56.1601 23.7214C54.2401 24.2614 52.3201 24.8614 50.4001 25.4314C46.8301 26.5114 43.2601 27.5914 39.6901 28.6714C35.5501 29.9314 31.4401 31.1614 27.3001 32.4214L16.5901 35.6614L10.8601 37.4014L10.5901 37.4914C10.3501 37.5514 10.0801 37.7914 10.1701 38.0614C12.7201 45.6814 15.4501 53.2414 18.4801 60.6814C20.6701 66.0514 23.0401 71.3614 25.6801 76.5514C27.4801 80.1214 29.4901 83.6014 31.6801 86.9314C33.0901 89.1214 34.6801 91.1914 36.4201 93.1414C37.3801 94.2514 38.4601 95.2414 39.6301 96.1414C40.1101 96.5314 40.6201 96.8314 41.1901 97.1014C41.2801 97.1314 41.3701 97.1614 41.4301 97.1914C41.8501 97.3114 42.4501 97.1014 42.9001 97.0114C43.3801 96.9214 43.8901 96.8014 44.3701 96.7114C46.6501 96.2014 48.8701 95.5114 51.0901 94.7914C56.3401 93.0814 61.4701 91.0714 66.5701 89.0014C71.2801 87.0514 75.9601 85.0114 80.6101 82.9114C83.2201 81.7414 85.8001 80.5414 88.3801 79.3114L88.7401 79.1314C89.6101 78.8614 88.5601 77.8714 87.9301 78.1714Z" fill="#37123E"/>
<path d="M62.4299 73.7012C60.1799 74.5412 57.9299 75.3512 55.6799 76.1612C51.9899 77.5112 48.2699 78.8612 44.5499 80.1512C43.8899 80.3912 43.1999 80.6012 42.5099 80.8112C42.2999 80.8712 42.0599 80.9612 41.8499 81.0212C41.7599 81.0512 41.6399 81.0812 41.5499 81.0812C41.3099 81.0812 41.5799 81.3212 41.6399 81.3812C41.8499 81.5312 42.1199 81.6212 42.3599 81.6212C42.6599 81.5912 42.9599 81.5012 43.2299 81.3812C43.7999 81.2012 44.3399 81.0212 44.8799 80.8412C46.5599 80.2712 48.2699 79.6712 49.9499 79.0712C53.6099 77.7512 57.2699 76.4312 60.8999 75.0812L63.3599 74.1812C63.5399 74.1212 63.1199 73.8812 63.0599 73.8512C62.9099 73.7312 62.6699 73.7012 62.4299 73.7012Z" fill="#62206E"/>
<path d="M61.8302 71.3615L54.7502 73.7015C50.9102 74.9615 47.0702 76.2215 43.2002 77.4815L42.0602 77.8415L41.8202 77.9315H41.7902L41.6702 77.9615L41.2502 78.0815C40.9502 78.2015 40.6502 78.2915 40.3202 78.3515C40.1402 78.3815 39.8402 78.5315 39.9602 78.7715C40.0802 79.0115 40.4702 78.9815 40.6802 78.9215C41.5502 78.7115 42.3902 78.4415 43.2002 78.1415C44.9402 77.5715 46.6502 77.0315 48.3602 76.4615C52.1702 75.2015 56.0102 73.9715 59.8202 72.7115L62.4002 71.8415C62.6102 71.7815 62.7302 71.5715 62.5802 71.3915C62.4302 71.2115 62.0402 71.3015 61.8302 71.3615Z" fill="#62206E"/>
<path d="M71.1001 67.2815C72.1501 68.8415 73.2001 70.4015 74.2201 71.9615C74.3401 72.1415 74.4601 72.3215 74.5501 72.5015C74.5801 72.5315 74.7001 72.7715 74.6401 72.6215C74.6701 72.6815 74.7001 72.7415 74.7301 72.8015C74.7601 72.8615 74.7601 72.8915 74.7601 72.8915C74.6101 72.7715 74.7901 72.4415 74.9101 72.4115C74.7901 72.4715 74.7001 72.5315 74.6101 72.5915C74.2801 72.7415 73.8601 72.9215 73.4101 73.0715C72.8701 73.2815 72.3001 73.4615 71.7301 73.6715C70.6801 74.0615 69.6001 74.3615 68.5201 74.6315L68.2501 74.6915C68.1301 74.7215 68.3701 74.6615 68.2501 74.6915H68.1601C68.1301 74.6915 68.0401 74.6915 68.0101 74.6915C68.0701 74.6615 68.1901 74.7215 68.2201 74.7215C68.1601 74.7215 68.3401 74.7215 68.2501 74.7215C68.2201 74.7215 68.1901 74.6615 68.1901 74.6615C68.1901 74.6615 68.2801 74.7515 68.2201 74.6915C68.1601 74.6315 68.1001 74.5415 68.0401 74.4815C67.8901 74.2715 67.7401 74.0615 67.5901 73.8515C66.9301 72.8315 66.3301 71.7515 65.8501 70.6415C65.7601 70.4315 65.6701 70.2215 65.5801 69.9815C65.5501 69.9215 65.5501 69.8615 65.5201 69.8015C65.5201 69.7415 65.4901 69.6815 65.4901 69.6215C65.5201 69.6515 65.4601 69.7415 65.4001 69.8315C65.4001 69.8315 65.4301 69.8015 65.4301 69.7715C65.4601 69.7115 65.3401 69.8315 65.4001 69.8015C65.5501 69.7115 65.7001 69.6215 65.8501 69.5315C66.9901 68.9915 68.1601 68.5415 69.3601 68.1515C70.1401 67.8815 70.9201 67.6115 71.7001 67.3715C72.3901 67.1315 71.9401 66.2015 71.3101 66.4115C69.3301 67.0115 67.4101 67.7315 65.5201 68.5415C65.1601 68.6915 64.8301 68.8715 64.5301 69.1415C64.2301 69.4715 64.3501 69.8915 64.4701 70.2515C64.9201 71.4515 65.4901 72.6215 66.1801 73.7015C66.4501 74.1815 66.7801 74.6615 67.1101 75.0815C67.3801 75.4115 67.6801 75.6815 68.1301 75.6515C68.5501 75.6215 68.9401 75.5315 69.3301 75.4115C69.9001 75.2615 70.4701 75.0815 71.0401 74.9015C72.2401 74.5115 73.4401 74.1215 74.6101 73.6115C74.9701 73.4915 75.3301 73.3115 75.6301 73.0715C75.9001 72.8015 75.8101 72.5015 75.6301 72.2015C74.5501 70.3115 73.2601 68.5415 72.0601 66.7115L71.9701 66.5615C71.6401 66.1715 70.7101 66.6815 71.1001 67.2815Z" fill="#37123E"/>
<path d="M54.2397 59.0311C52.0197 59.8711 49.7697 60.6811 47.5497 61.4911C43.8597 62.8411 40.1697 64.1911 36.4797 65.4511C35.7897 65.6911 35.0997 65.9311 34.4097 66.1411C34.1697 66.2011 33.9597 66.2911 33.7497 66.3511L33.5997 66.3811C33.4197 66.4111 33.6597 66.3811 33.6897 66.3811C33.6297 66.3811 33.2097 66.4111 33.2997 66.5311C33.3897 66.6511 33.8697 66.6211 33.9897 66.5911C34.9197 66.5311 35.8497 66.1111 36.7197 65.8111C38.4297 65.2411 40.1097 64.6411 41.7897 64.0411C45.4497 62.7211 49.1097 61.4011 52.7697 60.0511L55.2897 59.1211C55.4997 59.0311 55.1397 58.9711 55.0797 58.9711C54.7497 58.9411 54.5097 58.9411 54.2397 59.0311Z" fill="#62206E"/>
<path d="M53.5502 56.3317C51.1802 57.1117 48.8402 57.8917 46.4702 58.6717C42.6302 59.9317 38.7902 61.1917 34.9202 62.4517L32.8802 63.1117L32.2502 63.3217L31.9802 63.4117C31.8302 63.4417 32.1302 63.7417 32.1602 63.8017C32.2502 63.8917 32.5502 64.2517 32.7302 64.2217C33.5402 64.0117 34.3502 63.7717 35.1602 63.4717C36.9002 62.9017 38.6102 62.3617 40.3202 61.7917C44.1602 60.5317 47.9702 59.3017 51.7802 58.0417L54.3602 57.2017C54.4502 57.1717 54.0602 56.7517 54.0302 56.7217C53.9402 56.5417 53.7002 56.3017 53.5502 56.3317Z" fill="#62206E"/>
<path d="M62.9695 52.2214C64.0195 53.7814 65.0995 55.3714 66.0895 56.9614L66.3895 57.4714C66.4495 57.5914 66.4495 57.6214 66.5695 57.8014C66.5695 57.8914 66.6295 57.8914 66.5695 57.8014C66.5695 57.7114 66.5995 57.6214 66.6295 57.6214C66.5095 57.6814 66.4195 57.7414 66.2995 57.8014C65.3695 58.2514 64.3795 58.6114 63.3895 58.9114C62.3395 59.3014 61.2895 59.6314 60.2095 59.9014C60.0595 59.9314 59.9095 59.9614 59.7895 59.9914C59.6695 60.0214 59.7595 59.9914 59.7895 59.9914C59.7595 59.9914 59.7295 59.9914 59.7295 59.9914C59.6095 59.9314 60.0895 60.1414 59.9395 60.0514C60.0895 60.1414 59.9395 60.0514 59.8795 59.9914C59.9695 60.0814 59.7895 59.8714 59.7595 59.8414C59.5795 59.6314 59.4595 59.4214 59.3095 59.1814C58.6495 58.1614 58.0795 57.0814 57.5695 55.9714C57.4795 55.7914 57.4195 55.5814 57.3295 55.3714C57.2995 55.3114 57.2995 55.2514 57.2695 55.1914C57.2695 55.1614 57.2395 54.9214 57.2395 55.0714C57.2395 54.9814 57.1795 55.1314 57.2395 55.0414C57.1795 55.1014 57.2995 54.9514 57.2395 55.0414C57.2695 55.0114 57.2695 55.0114 57.2995 54.9814C57.4495 54.8914 57.5995 54.8014 57.7495 54.7114C58.8895 54.1714 60.0895 53.6914 61.2895 53.3014C62.0695 53.0314 62.8495 52.7614 63.6295 52.5214C64.1995 52.3414 63.4195 51.5614 62.9995 51.6814C61.0495 52.2814 59.1295 52.9714 57.2695 53.7814C56.9095 53.9014 56.5795 54.1114 56.2795 54.3814C56.0695 54.6514 56.2495 55.0714 56.3395 55.3414C56.7895 56.5414 57.3595 57.6814 58.0495 58.7614C58.3195 59.2414 58.6195 59.6914 58.9795 60.1414C59.2495 60.4714 59.6095 60.8014 60.0595 60.8014C60.4495 60.7714 60.8095 60.7114 61.1695 60.5914C61.7395 60.4414 62.3395 60.2614 62.9095 60.0814C64.1095 59.6914 65.3095 59.2714 66.4795 58.7914C66.8095 58.7014 67.1095 58.5514 67.3795 58.3414C67.6495 58.1314 67.4995 57.8614 67.3495 57.6214C66.2695 55.7314 64.9795 53.9614 63.7795 52.1614L63.6895 52.0114C63.5395 51.7714 63.2395 51.6514 62.9695 51.6814C62.7895 51.7714 62.8195 52.0414 62.9695 52.2214Z" fill="#37123E"/>
<path d="M46.9502 43.5517C44.7302 44.3917 42.4802 45.2017 40.2602 46.0117C36.6002 47.3317 32.9402 48.6817 29.2502 49.9417C28.5602 50.1817 27.9002 50.3917 27.2102 50.6317L26.8502 50.7517L26.7002 50.8117L26.6102 50.8417L26.4302 50.8717C26.3102 50.9017 26.4602 50.8717 26.3702 50.8717C26.1002 50.9017 25.8602 50.9917 25.6502 51.1417C25.5902 51.1717 25.2902 51.3817 25.5302 51.3817C25.8602 51.3217 26.1902 51.2617 26.5202 51.1417C27.0602 50.9617 27.6302 50.7817 28.1702 50.6017C29.8802 50.0317 31.5902 49.4017 33.3002 48.8017C36.9602 47.4817 40.6202 46.1617 44.2802 44.8117L46.7702 43.8817C46.8902 43.8517 47.3402 43.6717 47.3702 43.5217C47.4002 43.3717 46.9802 43.4917 46.9502 43.5517Z" fill="#62206E"/>
<path d="M45.9295 40.9415L38.8495 43.2815C35.0095 44.5415 31.1695 45.8015 27.3295 47.0615C26.6395 47.2715 25.9795 47.5115 25.2895 47.7215C25.0795 47.7815 24.8695 47.8415 24.6595 47.9315C24.5695 47.9615 24.2095 48.0515 24.4795 47.9915C24.2095 48.0515 23.9395 48.2315 23.9395 48.5315C23.9695 48.7715 24.1795 48.9515 24.4495 48.9215C24.4795 48.9215 24.4795 48.9215 24.5095 48.9215C25.3795 48.7115 26.2195 48.4415 27.0595 48.1415C28.7995 47.6015 30.5095 47.0315 32.2495 46.4615C36.0595 45.2015 39.8995 43.9715 43.7095 42.7115L46.2895 41.8715C46.9195 41.5715 46.5895 40.7315 45.9295 40.9415Z" fill="#62206E"/>
<path d="M55.2304 37.0412C56.2804 38.6012 57.3304 40.1612 58.3504 41.7512C58.5004 41.9912 58.5004 42.0212 58.6504 42.2312C58.7404 42.3512 58.8004 42.5012 58.8904 42.6212C58.9804 42.7412 58.8904 42.6512 58.8904 42.5912L58.9504 42.1712L58.9204 42.2012C58.9504 42.2312 58.7404 42.2612 58.9504 42.1712C58.8304 42.2012 58.7404 42.2912 58.6204 42.3512C57.6604 42.8012 56.6704 43.1612 55.6504 43.4912C54.6304 43.8512 53.5504 44.1812 52.5004 44.4512C52.3504 44.4812 52.2004 44.5112 52.0504 44.5412C52.0204 44.5412 51.9304 44.5412 51.9004 44.5412C51.9604 44.5112 52.0204 44.5712 52.0204 44.6012C51.9904 44.5712 51.9304 44.5112 51.9004 44.4812C51.8104 44.3912 51.9904 44.5712 51.8704 44.4512C51.8404 44.4212 51.8104 44.3912 51.7804 44.3312C51.6304 44.1212 51.4804 43.9112 51.3304 43.7012C50.6704 42.6812 50.1004 41.6312 49.6204 40.5212C49.5304 40.3412 49.4704 40.1612 49.4104 39.9512C49.3804 39.8612 49.3504 39.8012 49.3504 39.7112C49.3504 39.6212 49.4104 39.8312 49.3504 39.7112C49.2904 39.5912 49.4104 39.6512 49.3504 39.7412C49.3804 39.6812 49.3504 39.8312 49.3504 39.7712C49.3804 39.9812 49.2604 39.7712 49.3504 39.8012C49.3804 39.8012 49.4704 39.7112 49.4104 39.7412C49.5604 39.6512 49.7104 39.5612 49.8904 39.4712C51.7504 38.5412 53.8204 37.9112 55.8304 37.2812C56.2804 37.1312 55.8004 36.1112 55.3204 36.2912C53.3704 36.8612 51.4804 37.5812 49.6204 38.3912C49.2904 38.5112 48.9604 38.7212 48.6904 38.9612C48.4204 39.2612 48.5704 39.7412 48.6904 40.0712C49.1404 41.3012 49.7104 42.4712 50.4304 43.5512C50.7304 44.0612 51.0604 44.5412 51.4204 44.9912C51.6604 45.2912 51.9304 45.5912 52.3504 45.5912C52.7404 45.5612 53.1004 45.4712 53.4604 45.3512C54.0604 45.2012 54.6304 45.0212 55.2304 44.8112C56.4304 44.4212 57.6304 44.0312 58.8004 43.5212C59.1304 43.4312 59.4304 43.2512 59.6704 43.0412C59.9404 42.7712 59.7304 42.3812 59.5804 42.0812C58.5004 40.1912 57.2104 38.3912 56.0104 36.5912C55.9804 36.5312 55.9504 36.5012 55.9204 36.4412C55.8004 36.2612 55.5004 36.1112 55.3204 36.2912C55.1404 36.4712 55.1104 36.8612 55.2304 37.0412Z" fill="#37123E"/>
<path d="M42.5399 81.0516C42.7499 80.4516 42.9899 79.8516 43.2899 79.2516C43.4999 78.8316 43.7698 78.4116 44.0698 78.0516C44.1898 77.9016 44.3099 77.8116 44.4299 77.6916C44.4899 77.6616 44.5799 77.6316 44.5799 77.6316C44.5799 77.6316 44.5798 77.6316 44.5498 77.6316C44.5198 77.6316 44.3398 77.6016 44.3698 77.5716C44.3998 77.5416 44.8198 78.0516 44.8498 78.1116C44.9698 78.3516 45.0298 78.6516 45.0598 78.9216C45.0898 79.1316 45.0298 79.3416 44.9698 79.5516C44.9398 79.6116 44.8798 79.6716 44.8498 79.7316C44.8498 79.7016 44.8798 79.9116 44.8198 79.7616C44.7898 79.6716 45.1498 79.7916 45.2098 79.8216C45.3298 79.8816 45.2998 79.9416 45.2998 79.8816C45.2998 79.8216 45.2998 79.8216 45.2998 79.7616C45.3298 79.5816 45.3598 79.4316 45.4498 79.2816C45.6598 78.8616 45.8998 78.4416 46.1998 78.0816C46.4998 77.6616 46.8599 77.2716 47.2799 76.9416C47.4299 76.7916 47.5798 76.6716 47.7598 76.5816C47.8198 76.5516 47.8799 76.5216 47.9399 76.4916C47.9999 76.4616 48.0598 76.4316 48.1198 76.4316C48.1198 76.4316 47.9998 76.4016 47.9998 76.4316C47.8798 76.4616 47.9398 76.3716 47.9698 76.4316C47.9998 76.4916 48.1498 76.5816 48.2098 76.6416C48.3898 76.8516 48.5098 77.0916 48.5998 77.3316C48.6898 77.5416 48.7198 77.7816 48.7498 78.0216C48.7498 78.1116 48.7498 78.2016 48.7198 78.2916C48.7198 78.2916 48.6298 78.5316 48.5998 78.5016C48.5698 78.4716 48.6299 78.4716 48.6299 78.4716C48.5999 78.4416 49.0498 78.5916 49.0498 78.5916C49.1098 78.6216 49.0498 78.6516 49.0498 78.5616C49.0498 78.4116 49.0798 78.2316 49.1098 78.0816C49.2898 77.6016 49.5299 77.1516 49.8299 76.7616C50.1299 76.3416 50.5198 75.9516 50.9698 75.6816C51.3298 75.4716 51.5398 75.5316 51.8398 75.8316C52.0198 76.0116 52.1698 76.2516 52.2598 76.4916C52.2898 76.5816 52.3198 76.7016 52.3198 76.7916C52.3198 76.8516 52.2898 76.9416 52.2898 76.9716C52.2898 77.0616 52.2298 76.9416 52.3498 76.9716C52.3198 76.9716 52.7399 77.1216 52.6799 77.1216C52.6799 77.1216 52.6498 77.0916 52.6498 77.0616C52.6798 76.8816 52.6798 76.7016 52.7398 76.4916C52.9198 75.9516 53.2199 75.4716 53.5799 75.0216C53.8499 74.6916 54.2998 74.1516 54.6598 74.1216C54.8698 74.0916 55.0798 73.9716 54.9598 73.7616C54.7798 73.5516 54.5098 73.4316 54.2398 73.4616C53.5798 73.5516 53.0398 74.0316 52.6498 74.5116C52.1998 75.0216 51.8399 75.6516 51.6299 76.3116C51.4499 76.9116 51.6599 77.4216 52.2898 77.5716C52.9198 77.7216 53.5198 77.4216 53.3698 76.7016C53.0698 75.2016 51.1799 74.3316 49.8899 75.2016C49.2899 75.6216 48.7798 76.1916 48.4198 76.8216C48.1498 77.2716 47.7598 77.9316 47.9098 78.4716C48.0598 79.0716 49.1099 79.3416 49.5299 78.8916C49.9499 78.4416 49.7399 77.6616 49.5299 77.1816C49.2299 76.4916 48.6599 75.8316 47.8799 75.7716C47.3099 75.7716 46.7398 75.9816 46.3198 76.3716C45.7798 76.8216 45.2999 77.3616 44.8799 77.9316C44.5199 78.3816 44.2799 78.8916 44.1299 79.4616C44.0399 80.0916 44.6998 80.4816 45.2698 80.4216C45.9598 80.3616 46.1399 79.6416 46.0799 79.0416C45.9899 77.6616 44.4599 76.2816 43.2299 77.4216C42.3899 78.2016 41.9099 79.4916 41.4899 80.5416C41.4599 80.6316 41.4298 80.7216 41.3998 80.8116C41.3098 81.1716 42.3899 81.4716 42.5399 81.0516Z" fill="#37123E"/>
<path d="M57.1794 75.6215C57.2994 75.0815 57.4794 74.5715 57.6594 74.0315C57.8094 73.6415 57.9894 73.2815 58.2294 72.9215C58.3194 72.8015 58.4394 72.6815 58.5594 72.5615L58.6494 72.5015C58.6794 72.5015 58.7394 72.4715 58.6794 72.4715C58.7094 72.4715 58.7394 72.4415 58.7694 72.4415C58.7394 72.4415 58.6794 72.4415 58.7394 72.4415C58.7994 72.4415 58.7394 72.4415 58.7094 72.4415H58.6494C58.5894 72.4115 58.5294 72.4115 58.4694 72.3815C58.3494 72.3515 58.5294 72.4115 58.4694 72.3815C58.4994 72.3815 58.4394 72.3515 58.4394 72.3515L58.4694 72.3815C58.4694 72.3815 58.4994 72.4115 58.5294 72.4415C58.6194 72.5615 58.7094 72.7115 58.7694 72.8615C58.9194 73.1915 58.9794 73.5515 59.0094 73.8815C59.0094 74.0015 59.0094 74.1215 58.9494 74.2115C58.9494 74.2415 58.9194 74.2415 58.9194 74.2715L58.8894 74.3015C58.8894 74.3015 58.9194 74.3015 58.9494 74.3015C59.1894 74.3015 59.3994 74.3615 59.5794 74.5115C59.5794 74.5715 59.6394 74.5415 59.5794 74.5115C59.5794 74.5115 59.5794 74.5415 59.5794 74.4815C59.5494 74.4215 59.5494 74.3315 59.5494 74.2715C59.5494 74.1215 59.5494 73.9415 59.6094 73.7915C59.6994 73.3415 59.8794 72.9215 60.1494 72.5615C60.2694 72.4115 60.3894 72.2915 60.5694 72.1715C60.6294 72.1415 60.6894 72.1115 60.7494 72.1115C60.7194 72.1115 60.6594 72.1115 60.7194 72.1115C60.6594 72.1115 60.5994 72.0815 60.5394 72.0815C60.4794 72.0515 60.4194 72.0215 60.5094 72.0815C60.6594 72.1715 61.0494 72.3215 61.2294 72.1715C61.4094 72.0215 61.0494 71.8415 60.9594 71.7815C60.4794 71.4815 59.8494 71.4815 59.3994 71.8415C59.0694 72.1715 58.7994 72.5915 58.6794 73.0415C58.5594 73.4015 58.4394 73.8815 58.5894 74.2715C58.7094 74.5415 58.9494 74.7215 59.2194 74.7815C59.4294 74.8415 59.7894 74.9615 59.9694 74.7515C60.1494 74.5415 60.0894 74.0315 60.0294 73.7615C59.9694 73.3115 59.7594 72.9215 59.4894 72.5615C59.1294 72.1415 58.4394 71.8115 57.8694 71.9915C57.4494 72.1115 57.1794 72.5315 56.9994 72.8915C56.6094 73.6415 56.3094 74.4515 56.1294 75.2915C56.0694 75.6215 57.1194 75.9515 57.1794 75.6815V75.6215Z" fill="#37123E"/>
<path d="M35.5199 65.6911C35.7299 65.0611 35.9999 64.4611 36.2999 63.8611C36.5099 63.4411 36.7799 63.0211 37.0799 62.6311C37.1999 62.4811 37.3499 62.3611 37.4999 62.2411C37.5899 62.1511 37.7099 62.2111 37.4999 62.2111L37.1399 62.1811C37.1999 62.2111 37.2599 62.2711 37.3499 62.3311C37.7699 62.7211 38.0099 63.2911 38.0099 63.8611C38.0099 64.0711 37.9799 64.2811 37.8899 64.4911C37.8599 64.5511 37.7699 64.6111 37.7399 64.6711C38.3699 64.7911 38.5499 64.7611 38.3099 64.6711C38.3399 64.6711 38.3099 64.6711 38.3099 64.6411C38.1299 63.9211 38.7299 63.1711 39.1499 62.6011C39.4499 62.1811 39.8099 61.7911 40.1999 61.4611C40.3499 61.3111 40.5299 61.1911 40.7099 61.1011C40.7999 61.0711 40.8899 61.0111 40.9499 60.9811C40.9199 61.0111 41.0399 60.9511 41.0099 60.9511C41.0399 60.9211 40.6199 61.0411 40.6199 60.9211C40.6199 60.9511 41.0399 61.2511 41.0999 61.3411C41.2799 61.5811 41.3999 61.8211 41.4899 62.1211C41.5499 62.3311 41.6099 62.5711 41.6099 62.8111C41.5799 62.9911 41.5499 63.1711 41.4599 63.3511C41.3999 63.5611 42.0599 63.4711 42.0299 63.3511C42.0299 63.3211 41.9699 63.2611 41.9699 63.2011C41.9399 63.0211 41.9699 62.8411 42.0299 62.6611C42.2099 62.1511 42.4499 61.7011 42.7799 61.2811C43.0799 60.8311 43.4999 60.4711 43.9499 60.1711C44.0399 60.1411 44.1299 60.1111 44.2199 60.0511C44.3099 59.9911 44.3399 60.0511 44.1599 60.0511C44.0699 60.0511 44.0399 59.9911 44.1299 60.0511C44.3699 60.1711 44.5799 60.3511 44.7599 60.5311C45.1199 60.8611 45.2699 61.3711 45.1799 61.8511C45.1799 61.8811 45.1199 61.8811 45.1199 61.9111C45.1499 61.7911 45.6899 61.8811 45.6899 61.9111C45.6899 61.8811 45.6299 61.7911 45.5999 61.7611C45.5699 61.5811 45.5999 61.3711 45.6599 61.1911C45.8399 60.6211 46.1399 60.0811 46.5299 59.6311C46.7999 59.3011 47.2499 58.7311 47.6399 58.7011C47.7899 58.6711 47.9999 58.6411 47.8499 58.4911C47.6999 58.3411 47.2499 58.4011 47.0699 58.4311C46.4099 58.4911 45.8999 58.9711 45.5099 59.4511C45.0599 59.9611 44.7299 60.5611 44.5199 61.2211C44.4299 61.4311 44.4299 61.6711 44.4899 61.8811C44.6099 62.1211 44.9099 62.1811 45.1499 62.2111C45.7499 62.2711 46.4699 62.1511 46.2899 61.4011C45.8999 59.9011 44.0099 59.3611 42.7499 60.1711C42.1499 60.5911 41.6399 61.1311 41.2799 61.7611C41.0399 62.1511 40.6199 62.8411 40.7999 63.3211C40.9799 63.8011 42.1199 63.8311 42.4799 63.5311C42.8999 63.1411 42.6299 62.3011 42.4199 61.8811C42.1499 61.2211 41.5199 60.7711 40.7999 60.7411C40.1999 60.7411 39.5999 60.9511 39.1499 61.3411C38.6099 61.7911 38.1299 62.3011 37.7399 62.9011C37.3799 63.3211 37.1399 63.8311 37.0199 64.3711C36.9299 65.0011 37.7399 65.0611 38.2199 65.0311C38.9099 64.9411 39.0899 64.3711 39.0299 63.7411C38.9699 63.0811 38.5799 62.3011 37.9199 62.0611C37.3199 61.8211 36.6299 61.9711 36.1199 62.3911C35.2799 63.1711 34.7999 64.4311 34.4099 65.4811C34.3799 65.5711 34.3499 65.6611 34.3199 65.7511C34.2899 65.8411 35.4299 65.9611 35.5199 65.6911Z" fill="#37123E"/>
<path d="M50.1597 60.1416C50.2797 59.6016 50.4597 59.0916 50.6397 58.5816C50.7897 58.1916 50.9697 57.8316 51.1797 57.5016C51.2697 57.3816 51.3597 57.2616 51.4797 57.1716C51.5097 57.1416 51.5397 57.1416 51.5697 57.1116C51.5997 57.0816 51.5697 57.1116 51.5397 57.1116C51.4797 57.1416 51.5097 57.1116 51.5397 57.1116C51.4497 57.1416 51.3297 57.1416 51.2397 57.1416C51.1797 57.1416 51.1497 57.1416 51.0897 57.1416C51.0597 57.1116 51.1497 57.1416 51.0897 57.1416C51.2097 57.2016 51.2997 57.2916 51.3897 57.4116C51.4797 57.5316 51.5697 57.6816 51.6297 57.8616C51.7797 58.1916 51.8397 58.5516 51.8697 58.8816C51.8697 59.0016 51.8697 59.1216 51.8397 59.2416C51.8397 59.2116 51.7797 59.3616 51.8097 59.3016C51.8397 59.2416 51.8397 59.3016 51.8097 59.3016L52.5897 59.2116L52.6497 59.2416L52.6197 59.2116C52.4397 59.0316 52.4697 58.6716 52.5297 58.4316C52.6197 57.9816 52.7997 57.5916 53.0697 57.2316C53.1597 57.0816 53.3097 56.9316 53.4597 56.8116L53.5197 56.7816C53.5497 56.7816 53.5797 56.7516 53.5197 56.7816C53.4897 56.7816 53.5797 56.7516 53.5197 56.7816C53.4597 56.8116 53.4897 56.7816 53.5197 56.7816L53.4297 56.8116C53.3397 56.8116 53.2197 56.8416 53.1297 56.8416C53.0697 56.8116 53.0997 56.8416 53.1297 56.8416L53.2197 56.8716C53.4597 56.9616 53.7297 56.9616 53.9997 56.8716C54.1197 56.8416 54.3897 56.7516 54.1797 56.6316C53.6097 56.3616 52.9197 56.4516 52.4097 56.8116C52.0497 57.1416 51.7797 57.5616 51.6297 58.0116C51.5097 58.3716 51.3597 58.8516 51.5097 59.2116C51.5697 59.3616 51.7197 59.4816 51.8997 59.5116C52.1997 59.5716 52.7397 59.5716 52.9797 59.3316C53.2197 59.0916 53.0997 58.6416 53.0697 58.3716C53.0097 57.9216 52.8297 57.5316 52.5597 57.1716C52.1697 56.7216 51.4197 56.7216 50.8797 56.9016C50.4897 57.0816 50.1597 57.4116 49.9497 57.8016C49.5597 58.5516 49.2597 59.3616 49.0797 60.2316C49.0497 60.3816 50.1297 60.4416 50.1897 60.1416H50.1597Z" fill="#37123E"/>
<path d="M27.09 50.8417C27.3 50.2117 27.54 49.6117 27.84 49.0417C28.05 48.6217 28.29 48.2017 28.59 47.8417C28.71 47.7217 28.83 47.6017 28.95 47.4817C28.98 47.4517 29.04 47.4217 29.07 47.4217C29.07 47.4517 29.01 47.4217 29.01 47.4217C28.98 47.4217 28.95 47.4217 28.92 47.4217C28.86 47.3917 28.86 47.3917 28.92 47.4217C28.92 47.4217 28.89 47.3917 28.98 47.4517C29.04 47.4817 29.1 47.5417 29.16 47.6017C29.25 47.6917 29.31 47.7817 29.4 47.9017C29.52 48.1417 29.61 48.4117 29.64 48.7117C29.67 48.9217 29.64 49.1317 29.58 49.3417C29.55 49.4017 29.49 49.4917 29.49 49.5217C29.49 49.5817 29.46 49.4917 29.49 49.5517C29.52 49.6117 29.76 49.5217 29.85 49.5517C29.94 49.5817 29.88 49.6417 29.91 49.5817C29.94 49.5217 29.91 49.5817 29.91 49.4617C29.94 49.3117 29.97 49.1617 30.03 49.0417C30.21 48.6217 30.48 48.2017 30.75 47.8117C31.05 47.3917 31.41 47.0317 31.8 46.7017C31.95 46.5817 32.1 46.4617 32.28 46.3417L32.46 46.2517C32.49 46.2517 32.55 46.2217 32.58 46.2217C32.61 46.2217 32.61 46.2217 32.55 46.2217H32.64C32.64 46.2217 32.52 46.2217 32.49 46.2217C32.55 46.2217 32.43 46.1617 32.52 46.2517C32.61 46.3117 32.67 46.3717 32.73 46.4317C32.91 46.6417 33.06 46.8817 33.15 47.1217C33.24 47.3317 33.3 47.5717 33.3 47.7817C33.3 47.9317 33.27 48.0817 33.21 48.2317C33.21 48.2317 33.3 48.2017 33.27 48.2017C33.51 48.2017 33.39 48.1717 33.63 48.2617C33.69 48.2917 33.63 48.3217 33.63 48.2317C33.63 48.0817 33.63 47.9317 33.69 47.8117C33.84 47.3317 34.08 46.9117 34.41 46.5217C34.71 46.1017 35.07 45.7417 35.52 45.4417C35.85 45.2617 36.06 45.2917 36.39 45.5917C36.6 45.7717 36.75 46.0117 36.84 46.2817C36.87 46.4317 36.9 46.6117 36.9 46.7617C36.96 46.7317 37.02 46.7317 37.05 46.7317L37.29 46.8517C37.29 46.8517 37.26 46.8217 37.29 46.8217C37.32 46.7317 37.29 46.4617 37.35 46.3117C37.53 45.7717 37.8 45.2617 38.19 44.8117C38.37 44.5717 38.58 44.3617 38.79 44.1817C38.88 44.1217 38.97 44.0617 39.06 44.0017C39.12 43.9717 39.24 43.9417 39.21 43.9417C39.42 43.9117 39.72 43.7917 39.63 43.5517C39.54 43.3117 39.18 43.2217 38.97 43.2517C38.28 43.3417 37.74 43.7917 37.32 44.3317C36.84 44.8717 36.51 45.4717 36.27 46.1617C36.09 46.7317 36.18 47.2717 36.84 47.4217C37.5 47.5717 38.16 47.2417 38.04 46.4917C37.89 45.8017 37.41 45.2017 36.78 44.8717C36.09 44.5117 35.25 44.5717 34.62 45.0217C33.99 45.4417 33.48 46.0117 33.09 46.6717C32.82 47.1217 32.4 47.8117 32.55 48.3817C32.7 49.0117 33.69 49.1617 34.14 48.7717C34.59 48.3817 34.41 47.5117 34.2 47.0317C33.93 46.3717 33.36 45.6817 32.61 45.6217C31.98 45.5617 31.44 45.8917 30.96 46.2517C30.42 46.7017 29.94 47.2417 29.52 47.8117C29.16 48.2617 28.89 48.8017 28.74 49.3717C28.65 50.0017 29.22 50.3617 29.82 50.3017C30.54 50.2417 30.78 49.5517 30.75 48.9217C30.72 48.1417 30.3 47.3917 29.61 47.0017C29.04 46.7317 28.35 46.8517 27.9 47.3017C27.03 48.0817 26.55 49.3417 26.16 50.4217C26.13 50.5117 26.1 50.6017 26.07 50.6917C25.89 51.0517 26.97 51.2317 27.09 50.8417Z" fill="#37123E"/>
<path d="M41.5798 45.6214C41.6998 45.0514 41.8798 44.5114 42.1198 43.9714C42.2698 43.5814 42.4498 43.2214 42.6898 42.8614C42.8698 42.6214 43.1098 42.3514 43.4398 42.3814C43.4998 42.3814 43.5898 42.4114 43.6498 42.4414C43.6798 42.4414 43.6798 42.5014 43.6798 42.4414C43.5898 42.3214 43.4698 42.2014 43.3498 42.1114C43.3198 42.0814 43.3198 42.0814 43.3198 42.0814C43.4098 42.2314 43.4698 42.3814 43.5298 42.5314C43.6498 42.8614 43.7098 43.2214 43.7098 43.5514C43.7098 43.6714 43.6798 43.7614 43.6198 43.8514C43.5898 43.8814 43.5598 43.9114 43.5298 43.9114H43.4998H43.4698C43.7098 44.0314 43.9198 44.2414 44.0398 44.4814C44.0698 44.5114 44.0698 44.5414 44.0698 44.5114C44.0698 44.4814 44.0398 44.4514 44.0398 44.4214C44.0098 44.3314 44.0098 44.2714 44.0098 44.1814C44.0098 44.0014 44.0398 43.8214 44.0998 43.6414C44.2498 43.0714 44.8798 41.6614 45.6898 42.1114C45.7498 42.1414 45.6898 42.0214 45.6898 42.0214C45.6298 41.9314 45.5698 41.8414 45.4798 41.7514C45.3298 41.5714 45.1498 41.4214 44.9698 41.2714C44.1298 40.7914 43.4998 42.1714 43.3498 42.7714C43.1998 43.1314 43.2298 43.5214 43.3798 43.8814C43.4998 44.0914 43.6798 44.2714 43.8598 44.4214C43.9798 44.5414 44.0998 44.6614 44.2498 44.7214C44.3398 44.7814 44.4298 44.7214 44.4898 44.6614C44.6398 44.3914 44.5498 43.9414 44.4898 43.6714C44.3698 43.1614 44.1298 42.7114 43.7998 42.3214C43.4998 41.9914 43.0498 41.4214 42.5398 41.6014C42.1798 41.7214 41.9098 42.1414 41.7298 42.4714C41.3398 43.2214 41.0698 44.0014 40.8898 44.8114C40.8598 44.9314 41.1598 45.1714 41.2198 45.2614C41.2798 45.4114 41.4298 45.5014 41.5798 45.6214Z" fill="#37123E"/>
<path d="M55.29 15.4413C55.17 15.5013 55.08 15.5613 54.99 15.6513C54.84 15.7713 54.72 15.8913 54.6 16.0113C54.39 16.2213 54.24 16.4913 54.12 16.7613C54.06 16.8213 54.03 16.9113 54.03 17.0013C54 17.0913 54.03 17.1813 54.06 17.2413C54.12 17.3913 54.27 17.5413 54.45 17.6013C54.63 17.6613 54.84 17.6613 55.02 17.6013L55.2 17.5113C55.29 17.4513 55.38 17.3613 55.44 17.2413C55.5 17.0913 55.59 16.9413 55.68 16.8213L55.56 16.9713C55.65 16.8513 55.77 16.7013 55.89 16.6113L55.74 16.7313C55.86 16.6413 55.98 16.5513 56.1 16.4913C56.19 16.4313 56.25 16.3713 56.31 16.2813C56.37 16.2213 56.4 16.1313 56.43 16.0413C56.46 15.8613 56.43 15.6813 56.34 15.5613C56.22 15.4413 56.07 15.3513 55.89 15.3213H55.71C55.53 15.3213 55.38 15.3813 55.29 15.4413Z" fill="#62206E"/>
<path d="M51.5101 14.6315L51.3301 16.5815C51.3301 16.6415 51.5101 16.7315 51.5101 16.7315C51.6601 16.8215 51.8401 16.8815 51.9901 16.9415C52.0501 16.9715 52.7101 17.1815 52.7401 17.0915L52.9201 15.1415C52.9201 15.0815 52.7401 14.9915 52.7401 14.9915C52.5901 14.9015 52.4101 14.8415 52.2601 14.7815C52.2001 14.7815 51.5101 14.5415 51.5101 14.6315Z" fill="#62206E"/>
<path d="M23.4305 30.2918C23.4305 30.2918 26.4905 36.0518 26.7905 35.9618C27.0905 35.8718 41.4305 31.2518 41.8806 30.8618C42.3306 30.4718 41.7006 20.9618 41.0406 21.0218C40.3806 21.0818 33.3605 23.3318 33.3605 23.3318C33.3605 23.3318 34.5905 17.4818 30.0905 17.5118C25.5905 17.5418 23.5805 21.7418 26.9405 25.0718C26.9405 25.0718 20.3105 26.0618 20.3105 26.7518C20.3105 27.4418 20.4005 31.4618 20.4005 31.4618L23.4305 30.2918ZM28.1705 22.2518C27.6605 21.0218 28.3805 20.2118 29.2805 19.9418C30.0305 19.8518 30.6905 20.3918 30.7805 21.1418C30.7805 21.2018 30.7805 21.2618 30.7805 21.2918C30.8705 22.7618 28.6805 23.4818 28.1705 22.2518Z" fill="#37123E"/>
<path d="M27.0599 36.2612C25.6799 34.1612 24.2999 32.0012 23.0399 29.8112C22.7099 29.2712 22.4399 28.7312 22.1999 28.1612C22.1099 27.9212 21.6599 27.7112 21.4499 27.6212C21.3899 27.5912 20.8499 27.3512 20.9099 27.5312C21.3599 28.7312 22.1399 29.8412 22.7999 30.9212C23.5799 32.2112 24.4199 33.5012 25.2299 34.7612L25.7699 35.6012C25.9799 35.8412 26.2199 36.0212 26.5199 36.1412C26.5799 36.1712 27.1499 36.3812 27.0599 36.2612Z" fill="white"/>
<path d="M52.8601 41.1816L53.9401 41.4216C54.3001 41.5416 54.6901 41.6016 55.0801 41.6016C55.4401 41.5716 55.4701 41.3016 55.5601 41.0016L55.8901 39.8916L57.2701 35.4216C57.3001 35.3016 56.2201 35.0616 56.1601 35.2716L55.2001 38.3616L54.7201 39.8616L54.4801 40.6116C54.4501 40.7316 54.3601 41.3016 54.2101 41.3316H54.6901C54.1801 41.2416 53.6701 41.0916 53.1601 41.0016C53.0401 40.9716 52.5301 40.8816 52.4701 41.0016C52.4101 41.1216 52.8001 41.1516 52.8601 41.1816Z" fill="#62206E"/>
<path d="M60.72 56.2417C61.86 56.4517 62.94 56.8117 63.96 57.3217C64.23 57.4417 64.83 57.5017 64.86 57.0517C64.95 55.3117 65.34 53.6317 65.97 52.0117C66.21 51.4417 65.13 51.1117 64.92 51.6217C64.23 53.3017 63.84 55.0717 63.72 56.8717L64.62 56.6017C63.42 56.0017 62.13 55.5817 60.81 55.3417C60.54 55.2817 60.27 55.4617 60.21 55.7017C60.21 56.0017 60.51 56.1817 60.72 56.2417Z" fill="#62206E"/>
<path d="M86.1905 46.3115C86.1905 46.3115 85.3205 44.7515 84.0605 45.0815C82.8005 45.4115 78.9605 50.5415 79.7105 50.8115C80.4605 51.0815 82.7405 50.7815 83.3705 50.2415C84.0005 49.7015 84.3905 48.1715 84.3905 48.1715L84.5705 49.4615L91.2305 46.7615C91.2305 46.7615 90.7205 44.5715 91.0805 43.0115C91.4105 41.6315 90.2105 40.0415 89.1305 42.5015C88.8605 43.1615 88.6805 43.8515 88.6205 44.5715L88.5305 45.6515C88.5605 45.6515 86.6105 43.5815 86.1905 46.3115Z" fill="white"/>
<path d="M86.8201 45.952C86.1601 44.812 84.8401 44.122 83.5801 44.782C82.5001 45.352 81.6301 46.462 80.9101 47.392C80.1901 48.322 79.3201 49.342 78.9601 50.482C78.8401 50.902 78.9001 51.262 79.3501 51.352C80.1601 51.502 80.9701 51.472 81.7501 51.292C82.7101 51.112 83.6701 50.812 84.2401 49.972C84.6301 49.372 84.9001 48.742 85.0501 48.052L83.7001 48.412L83.8801 49.702C83.9401 50.032 84.3601 50.032 84.6001 49.942L90.4201 47.572L91.2601 47.242C91.5001 47.152 91.9801 46.852 91.9201 46.522C91.7701 45.862 91.6801 45.202 91.6501 44.542C91.6201 44.002 91.6501 43.432 91.7701 42.892C91.8601 42.532 91.8601 42.142 91.7701 41.782C91.5901 41.032 91.0201 40.522 90.2401 40.762C89.1001 41.062 88.5001 42.352 88.2001 43.402C87.9901 44.242 87.9001 45.082 87.8701 45.922L89.1301 45.202C88.7701 44.812 88.3201 44.542 87.8101 44.422C87.2701 44.332 86.7301 44.482 86.3101 44.812C85.8301 45.232 85.5601 45.832 85.5001 46.462C85.3801 47.242 86.7601 46.792 86.8501 46.222C86.8801 45.982 86.9401 45.742 87.0301 45.502C87.0301 45.502 87.1201 45.322 87.0901 45.412C87.1201 45.352 87.1201 45.382 87.0601 45.412C87.0001 45.442 86.9401 45.442 86.9701 45.442C86.8501 45.412 86.9401 45.442 87.0001 45.442L87.0901 45.472C87.1501 45.502 87.2101 45.502 87.2401 45.532C87.5101 45.682 87.7801 45.862 87.9901 46.102C88.1701 46.282 88.5901 46.132 88.7701 46.042C89.0101 45.922 89.1901 45.682 89.2201 45.382C89.2501 44.572 89.3701 43.792 89.5801 43.012C89.6701 42.682 89.8201 42.352 90.0001 42.052C90.0601 41.962 90.2401 41.662 90.3001 41.662C90.2101 41.692 90.1201 41.722 90.0301 41.752C89.9701 41.782 90.0601 41.782 90.0601 41.752C90.1801 41.812 90.2401 41.932 90.3001 42.052C90.4501 42.352 90.5101 42.712 90.4201 43.042C90.3001 43.582 90.2401 44.152 90.2401 44.692C90.2401 45.472 90.3301 46.252 90.5101 47.002L91.1401 46.282L85.3201 48.652L84.4801 48.982L85.2001 49.222L85.0201 47.932C84.9301 47.242 83.7601 47.902 83.6701 48.292C83.5501 48.742 83.4001 49.162 83.1901 49.582C83.1301 49.672 83.0701 49.792 83.0101 49.882C83.0401 49.852 82.8601 50.062 82.9201 50.002C82.9801 49.942 83.0401 49.972 82.9501 49.972C82.9501 49.972 82.7401 50.062 82.8901 50.002C82.8301 50.032 82.7701 50.062 82.7101 50.062C82.5601 50.122 82.4101 50.152 82.2601 50.182C81.6301 50.332 81.0001 50.392 80.3701 50.362C80.3101 50.362 80.2501 50.332 80.1301 50.332C80.0101 50.332 80.1601 50.362 80.1601 50.362C80.3101 50.602 80.1301 50.242 80.2201 50.482C80.1901 50.452 80.2201 50.302 80.2201 50.482C80.2201 50.422 80.2501 50.362 80.2501 50.302C80.2501 50.242 80.2801 50.212 80.2801 50.182C80.2501 50.302 80.2501 50.212 80.2801 50.212C80.3101 50.122 80.3701 50.032 80.4001 49.942C80.5201 49.732 80.6101 49.552 80.7301 49.372C81.0001 48.922 81.3001 48.502 81.6301 48.082C81.9901 47.602 82.3501 47.152 82.7701 46.732C82.9201 46.552 83.1001 46.402 83.2501 46.222C83.2801 46.192 83.3101 46.162 83.4301 46.042C83.5501 45.922 83.6101 45.892 83.7001 45.832L83.7901 45.742C83.6701 45.802 83.9401 45.622 83.7901 45.742C83.8201 45.712 83.8801 45.712 83.9101 45.682C84.0301 45.592 83.7901 45.802 83.8501 45.712C83.8801 45.682 84.0001 45.682 83.8501 45.712C83.9101 45.712 83.9701 45.712 84.0601 45.712C84.2101 45.742 84.3601 45.802 84.4801 45.892C84.8401 46.132 85.1701 46.432 85.3801 46.822C85.8301 47.242 87.1501 46.492 86.8201 45.952Z" fill="#37123E"/>
<path d="M77.2811 52.1016C77.2811 52.1016 98.1011 43.5816 98.4611 43.6716C98.8211 43.7616 99.3311 44.8116 99.1511 45.1716C98.9711 45.5316 78.3011 53.8716 78.0611 53.9016C77.8211 53.9316 75.3311 53.8716 75.3311 53.8716L77.2811 52.1016Z" fill="#62206E"/>
<path d="M77.5502 52.6114C80.1602 51.5314 82.7702 50.4814 85.3802 49.4314C89.2502 47.8714 93.1202 46.2814 96.9902 44.8114C97.4702 44.6314 97.9202 44.4514 98.4002 44.2714L98.5802 44.2114C98.6702 44.1814 98.5202 44.2714 98.6102 44.2114C98.7002 44.1514 98.5202 44.2114 98.5202 44.1814C98.5202 44.2414 98.6702 44.3914 98.7002 44.4814C98.7302 44.5714 98.7602 44.6614 98.7902 44.7514C98.8502 44.8414 98.7002 44.8714 98.8202 44.7214C98.8802 44.6314 98.8802 44.6914 98.7902 44.7214L98.6102 44.8114C98.4302 44.9014 98.2502 44.9914 98.0402 45.0814C97.4402 45.3514 96.8102 45.6214 96.2102 45.8914C92.1902 47.6014 88.1402 49.2514 84.0902 50.8714C82.4402 51.5314 80.7902 52.1914 79.1402 52.8514C78.7502 53.0014 78.3602 53.1514 77.9702 53.3014L77.8502 53.3314C77.8202 53.3314 77.9702 53.3314 77.8202 53.3314C77.3102 53.3014 76.8002 53.3314 76.3202 53.3014L75.2102 53.2714L75.6902 54.2314L77.6402 52.4614C77.9702 52.1614 77.3702 51.2314 76.9802 51.5914L75.0302 53.3614C74.7302 53.6314 75.1802 54.3214 75.5102 54.3214L76.7102 54.3514C77.2202 54.3814 77.7002 54.3814 78.2102 54.3514C78.4802 54.2914 78.7502 54.2014 78.9902 54.0814C80.4302 53.5414 81.8702 52.9414 83.3402 52.3414C87.5402 50.6614 91.7402 48.9514 95.9402 47.1814C96.6602 46.8814 97.3802 46.5514 98.1002 46.2514C98.4902 46.1014 98.8802 45.9214 99.2702 45.7114C99.4502 45.6214 99.5702 45.4114 99.5702 45.2014C99.5702 44.4214 99.2102 43.7014 98.6102 43.2214C98.2502 42.9814 97.9202 43.1614 97.5602 43.3114C93.9302 44.6014 90.3902 46.1314 86.8202 47.5714C83.6102 48.8614 80.3702 50.1814 77.1602 51.5014L76.9802 51.5614C76.5902 51.7714 77.1002 52.7914 77.5502 52.6114Z" fill="#62206E"/>
<path d="M85.59 51.5319C85.59 51.5319 85.77 53.0919 84.99 53.2719C84.21 53.4519 82.62 52.1919 80.88 51.6819C79.14 51.1719 78.93 53.0619 80.16 54.4419C81.39 55.8219 82.02 57.0819 83.97 58.1619C85.92 59.2419 87.48 58.8219 87.48 58.8219C87.75 59.0019 90.99 67.0419 94.29 72.6519C97.17 77.5419 100.68 79.4019 105.81 76.9719C110.52 74.7219 115.14 71.9619 115.14 69.7419C115.14 65.1819 115.41 56.9619 115.41 56.9619C115.41 56.9619 102.93 67.2819 101.46 64.6419C100.62 63.1419 92.58 48.7119 92.58 48.7119" fill="white"/>
<path d="M84.8409 51.5612C84.9009 51.9512 84.8709 52.3412 84.7509 52.7312C84.7209 52.8512 84.6609 52.9412 84.6009 53.0612C84.2409 53.5112 84.3309 52.8212 85.2009 53.1812C84.9009 53.0612 84.5709 52.9412 84.2409 52.7912C83.4309 52.3412 82.5909 51.9812 81.7209 51.6512C81.3309 51.5312 80.9409 51.4712 80.5209 51.4712C80.0709 51.4412 79.6209 51.5012 79.1709 51.6512C78.6609 51.8912 78.5409 52.4312 78.6309 52.9412C78.7509 53.7212 79.2609 54.2912 79.7709 54.8612C80.8809 56.2112 81.9009 57.5012 83.4909 58.3112C84.3909 58.7612 85.3809 58.9712 86.3709 58.9712C86.9709 59.0012 87.5409 58.9412 88.1109 58.8212H86.7309C86.7309 58.8212 86.8209 58.9712 86.8509 59.0312C86.9409 59.2112 87.0309 59.3612 87.0909 59.5412C87.3609 60.1412 87.6309 60.7412 87.9009 61.3412C88.7409 63.1712 89.5809 65.0012 90.4509 66.8312C91.4409 68.9012 92.4909 70.9712 93.6909 72.9212C94.7109 74.5712 95.9709 76.1912 97.6809 77.1812C99.3909 78.1712 101.401 78.2612 103.261 77.9912C104.251 77.8412 105.241 77.5412 106.171 77.1212C107.401 76.5812 108.631 75.9512 109.831 75.2912C110.941 74.6912 112.021 74.0312 113.041 73.3112C113.821 72.7712 114.541 72.1412 115.171 71.3912C115.651 70.8512 115.891 70.1612 115.891 69.4412C115.891 68.5112 115.891 67.5812 115.921 66.6512C115.981 63.4712 116.071 60.2912 116.161 57.1112C116.161 57.0512 116.161 56.9912 116.161 56.9312C116.161 56.7812 114.811 56.8112 114.691 56.9312C113.311 58.0712 111.871 59.1812 110.401 60.2312C109.171 61.1312 107.941 62.0012 106.651 62.8112C105.541 63.5612 104.371 64.1912 103.141 64.7012C102.931 64.7912 102.691 64.8512 102.481 64.9112C102.391 64.9412 102.331 64.9412 102.241 64.9712C102.421 64.9412 102.151 64.9712 102.301 64.9712C102.451 64.9712 102.181 64.9712 102.391 64.9712C102.481 64.9712 102.601 64.9712 102.691 64.9712C102.631 64.9712 102.751 64.9712 102.751 64.9712C102.751 64.9712 102.721 64.9712 102.691 64.9412C102.691 64.9412 102.601 64.9112 102.541 64.8812C102.421 64.8212 102.331 64.7312 102.271 64.6112C101.851 63.9212 101.491 63.2012 101.101 62.5112L96.6009 54.4412L94.5609 50.7812C94.2009 50.1212 93.8709 49.4312 93.4509 48.8012L93.3909 48.7112C93.3009 48.5612 92.7909 48.6212 92.6409 48.6212C92.4009 48.6212 92.1309 48.6812 91.8909 48.7412C92.8209 50.4212 93.7509 52.0712 94.6809 53.7512L99.3909 62.1812C99.8409 62.9612 100.261 63.7712 100.711 64.5512C100.831 64.8212 101.101 65.0012 101.371 65.0912C102.031 65.2412 102.751 65.2412 103.411 65.0912C104.611 64.8812 105.721 64.2812 106.771 63.6812C108.121 62.9012 109.441 62.0312 110.701 61.1312C111.871 60.2912 113.041 59.4512 114.181 58.5512C114.811 58.0712 115.471 57.5912 116.071 57.0512L116.161 56.9912H114.691C114.571 61.0112 114.451 65.0612 114.421 69.0812C114.451 69.5612 114.421 70.0412 114.271 70.5212C114.031 71.0312 113.731 71.4812 113.341 71.8712C112.291 72.8912 111.091 73.7912 109.801 74.5112C108.241 75.4412 106.651 76.2812 105.031 77.0312C104.371 77.3312 103.651 77.6012 102.931 77.7812C102.661 77.8412 102.421 77.9012 102.151 77.9312C101.971 77.9612 101.791 77.9612 101.611 77.9312C99.1209 77.7512 97.1409 75.7712 95.8209 73.8212C94.9809 72.5612 94.2309 71.2412 93.5409 69.8912C92.8209 68.5112 92.1309 67.1312 91.4709 65.7212C90.4809 63.6512 89.5809 61.5812 88.6209 59.5112C88.5309 59.3012 88.4409 59.0912 88.3209 58.9112C88.2909 58.8812 88.2609 58.8212 88.2309 58.7912C88.0509 58.7312 87.8709 58.7012 87.6909 58.7312C87.4209 58.7312 87.1209 58.7612 86.8509 58.7912H86.7909C86.6109 58.8212 87.0009 58.7612 86.7909 58.7912H86.6709C86.6709 58.7912 86.8509 58.7612 86.7609 58.7912C86.6709 58.8212 86.7609 58.7912 86.7909 58.7912L86.5809 58.7612C85.7709 58.6412 84.9909 58.3112 84.3009 57.8612C83.0409 57.0512 82.1709 55.8812 81.2109 54.7412C80.7909 54.2312 80.3709 53.7512 80.1909 53.0912C80.0709 52.6712 80.0709 52.1012 80.4309 51.7712C80.5209 51.7112 80.6109 51.6512 80.7009 51.6212C79.9809 52.0712 79.8309 51.5612 80.1309 51.6812C80.2209 51.7112 80.3409 51.7412 80.4609 51.7712C80.8809 51.9212 81.2709 52.0712 81.6609 52.2512C82.2609 52.5512 82.8609 52.8812 83.4609 53.1212C84.1209 53.3612 84.8409 53.4212 85.5309 53.2712C86.0409 53.1812 86.2809 52.8212 86.3409 52.3112C86.3709 52.0112 86.3709 51.7412 86.3409 51.4412C86.3109 51.3212 84.8109 51.4112 84.8409 51.5612Z" fill="#37123E"/>
<path d="M87.0312 46.9112C86.8512 46.6712 86.6712 46.4312 86.4912 46.2212C86.3412 46.0412 86.1612 45.8912 85.9812 45.8012C85.8912 45.7412 85.8012 45.7112 85.7112 45.6512C85.6512 45.6212 85.5612 45.5912 85.4712 45.5612C85.4112 45.5312 85.3512 45.5313 85.2912 45.5313C85.2612 45.5313 85.2012 45.5312 85.2012 45.5612V45.6212C85.2312 45.6812 85.2612 45.7412 85.3212 45.8012C85.4412 45.9212 85.5912 46.0412 85.7412 46.1313L85.5912 46.0112L85.4412 45.8912L85.4712 45.9212L85.3512 45.8012C85.4112 45.8612 85.4712 45.9512 85.5312 46.0112C85.5912 46.1012 85.6812 46.1913 85.7412 46.2812L85.6512 46.1912C85.7112 46.2512 85.7412 46.3112 85.8012 46.3712C85.8312 46.4312 85.8912 46.4912 85.9212 46.5212C85.9812 46.5812 86.0412 46.6412 86.1012 46.7012C86.1912 46.7612 86.2512 46.8212 86.3412 46.8512C86.4312 46.9112 86.4912 46.9412 86.5812 46.9712L86.7312 47.0312C86.7912 47.0613 86.8812 47.0612 86.9412 47.0612L87.0012 47.0312C87.0912 47.0013 87.0612 46.9412 87.0312 46.9112Z" fill="#37123E"/>
<path d="M99.5103 77.7819C99.5103 77.7819 98.4303 66.5319 100.98 62.5719C100.98 62.5719 113.67 58.4619 114.33 59.3919C114.99 60.3219 113.67 73.1619 110.76 75.6519C107.85 78.1419 101.64 80.0319 99.5103 77.7819Z" fill="#37123E"/>
<path d="M100.231 77.8413C100.111 76.5213 100.051 75.1713 100.021 73.8513C99.9613 71.3313 100.021 68.7813 100.471 66.2913C100.711 65.0613 100.981 63.9813 101.611 62.9613L101.191 63.2613C103.171 62.6313 105.151 62.0313 107.161 61.4613C108.631 61.0413 110.131 60.6513 111.601 60.3213C112.171 60.2013 112.741 60.0813 113.311 60.0213C113.431 60.0213 113.551 59.9913 113.641 59.9913H113.791C113.671 59.9913 113.731 59.9913 113.791 59.9913H114.001C114.241 59.9913 113.911 59.9613 114.031 59.9913C114.151 60.0213 113.911 59.9313 113.941 59.9313C114.031 59.9913 113.761 59.7813 113.851 59.8413C113.941 59.9013 113.701 59.6313 113.761 59.7213C113.761 59.7513 113.701 59.5113 113.731 59.6313C113.731 59.6913 113.761 59.7513 113.761 59.8113C113.671 59.5713 113.761 59.8113 113.761 59.9313C113.791 60.4113 113.821 60.8913 113.791 61.4013C113.761 62.1513 113.731 62.6913 113.641 63.4113C113.551 64.2213 113.461 65.0613 113.341 65.8713C113.101 67.6113 112.741 69.3513 112.261 71.0313C112.051 71.7513 111.811 72.4713 111.511 73.1613C111.391 73.4613 111.241 73.7613 111.091 74.0313C111.031 74.1513 110.941 74.2713 110.881 74.3913C110.851 74.4513 110.791 74.5113 110.761 74.5713L110.701 74.6613C110.641 74.7813 110.761 74.6013 110.701 74.6613C110.221 75.2013 109.651 75.6813 109.021 76.0413C108.091 76.6113 107.131 77.0613 106.111 77.4213C104.461 78.0213 102.391 78.4113 100.741 77.8113L100.591 77.7513C100.711 77.7813 100.591 77.7513 100.561 77.7513C100.471 77.7213 100.411 77.6613 100.321 77.6013C100.231 77.5413 100.081 77.4213 100.201 77.5113C100.141 77.4513 100.051 77.3913 99.9913 77.3313C99.7813 77.0313 99.3613 76.9413 99.0613 77.1513C98.7613 77.3613 98.6713 77.7813 98.8813 78.0813C98.9113 78.1413 98.9713 78.2013 99.0313 78.2313C101.011 80.2713 104.551 79.4913 106.921 78.6513C108.331 78.1413 109.681 77.4513 110.881 76.5213C111.601 75.9513 112.171 75.2313 112.531 74.4213C113.551 72.3213 114.091 69.9513 114.481 67.6413C114.901 65.4513 115.141 63.2613 115.201 61.0413C115.261 60.4713 115.201 59.9013 115.051 59.3313C114.781 58.5813 114.061 58.4913 113.371 58.5513C112.591 58.6113 111.841 58.7313 111.091 58.9413C110.041 59.1813 108.991 59.4513 107.971 59.7213C106.021 60.2613 104.101 60.8313 102.181 61.4313C101.731 61.5813 101.281 61.7013 100.831 61.8513C100.381 62.0013 100.261 62.3313 100.081 62.6913C99.8413 63.2013 99.6313 63.7413 99.4813 64.2813C98.7613 66.7113 98.6413 69.3813 98.6113 71.9013C98.6113 73.7313 98.6713 75.5913 98.8213 77.4213C98.8213 77.5113 98.8213 77.6013 98.8513 77.7213C98.8813 78.1113 99.1813 78.4413 99.6013 78.4713C99.9313 78.5013 100.231 78.2913 100.261 77.9613C100.231 77.9313 100.231 77.8713 100.231 77.8413Z" fill="#37123E"/>
<path d="M113.131 128.631L109.951 128.811C109.951 128.811 101.371 131.271 102.241 133.041C103.111 134.811 107.821 135.531 114.031 135.231C120.241 134.931 122.431 132.891 120.121 128.481L113.131 128.631Z" fill="white"/>
<path d="M112.981 128.001L110.071 128.181C109.531 128.241 109.021 128.391 108.511 128.601C107.371 128.961 106.261 129.351 105.151 129.831C104.041 130.311 102.931 130.791 102.091 131.601C101.761 131.901 101.521 132.291 101.461 132.741C101.431 133.251 101.791 133.731 102.121 134.061C103.171 135.021 104.731 135.381 106.081 135.591C108.151 135.921 110.251 136.041 112.351 135.951C114.361 135.921 116.401 135.831 118.351 135.231C119.581 134.871 120.781 134.211 121.411 133.011C122.041 131.811 121.741 130.431 121.291 129.261C121.141 128.901 120.991 128.541 120.811 128.181C120.691 127.971 120.451 127.821 120.181 127.821L114.031 127.941L113.161 127.971C112.801 127.971 112.381 128.151 112.351 128.571C112.351 128.961 112.651 129.261 113.041 129.291L119.191 129.171L120.061 129.141L119.431 128.781C119.761 129.381 120.001 130.011 120.151 130.671C120.181 130.821 120.211 130.941 120.211 131.091C120.211 131.151 120.211 131.241 120.241 131.301C120.241 131.151 120.241 131.361 120.241 131.391C120.241 131.511 120.241 131.631 120.241 131.751C120.241 131.811 120.241 131.871 120.211 131.931C120.181 131.991 120.151 132.201 120.181 132.051C120.151 132.171 120.121 132.261 120.061 132.381C120.031 132.441 119.911 132.711 119.971 132.591C119.851 132.801 119.701 132.981 119.551 133.131C119.641 133.041 119.401 133.251 119.371 133.281C119.281 133.371 119.161 133.431 119.041 133.491C119.041 133.491 118.831 133.611 118.981 133.551L118.801 133.641C118.651 133.731 118.501 133.791 118.321 133.851C116.881 134.421 115.171 134.571 113.581 134.631C111.511 134.751 109.411 134.691 107.341 134.451C106.621 134.361 105.871 134.241 105.181 134.061C104.881 133.971 104.581 133.881 104.281 133.761C104.041 133.671 103.801 133.581 103.591 133.431C103.501 133.371 103.381 133.311 103.291 133.221C103.141 133.101 103.411 133.311 103.261 133.191C103.231 133.161 103.171 133.131 103.141 133.071L103.021 132.951C102.901 132.831 103.081 133.071 103.021 132.951C102.991 132.921 102.961 132.861 102.961 132.831C102.871 132.711 102.961 132.711 102.961 132.831C102.961 132.801 102.961 132.771 102.931 132.741C102.991 132.861 102.931 132.891 102.931 132.801C102.931 132.651 102.901 132.981 102.931 132.771C102.931 132.741 102.961 132.711 102.961 132.681C102.901 132.831 102.901 132.771 102.931 132.741C102.961 132.711 103.051 132.591 103.111 132.501C103.141 132.471 103.261 132.381 103.111 132.501C103.141 132.471 103.171 132.441 103.231 132.411C103.291 132.381 103.381 132.291 103.471 132.231C103.681 132.081 103.891 131.931 104.131 131.811C104.311 131.691 104.011 131.871 104.191 131.781L104.371 131.691L104.731 131.511C105.001 131.361 105.301 131.241 105.571 131.121C106.621 130.671 107.671 130.281 108.751 129.921C109.141 129.801 109.561 129.651 109.951 129.531L110.221 129.441C110.341 129.411 109.921 129.471 110.221 129.471C111.241 129.441 112.231 129.351 113.251 129.291C113.611 129.261 113.881 128.931 113.851 128.571C113.851 128.541 113.851 128.541 113.851 128.511C113.821 128.151 113.401 127.911 112.981 128.001Z" fill="#37123E"/>
<path d="M110.16 118.222C110.16 118.222 112.65 126.442 112.29 127.342C111.93 128.242 105.72 130.162 106.65 130.252C107.34 130.342 108.96 131.752 114.42 131.242C119.94 130.732 119.7 130.042 120.03 128.902C120.36 127.762 120.39 116.752 120.39 116.752L110.16 118.222Z" fill="white"/>
<path d="M109.44 118.402C109.77 119.512 110.1 120.652 110.4 121.762C110.85 123.412 111.36 125.092 111.57 126.802C111.6 126.982 111.6 127.162 111.6 127.372C111.6 127.402 111.6 127.432 111.57 127.462C111.54 127.492 111.6 127.402 111.54 127.492C111.51 127.522 111.39 127.642 111.48 127.552C111.42 127.582 111.36 127.642 111.3 127.672L111.15 127.762C111.27 127.702 111.03 127.822 111 127.852C110.82 127.942 110.64 128.032 110.46 128.122C110.04 128.332 109.74 128.452 109.35 128.602C108.54 128.932 107.73 129.262 106.92 129.592C106.71 129.682 105.57 130.102 105.9 130.462C105.96 130.552 106.14 130.552 106.23 130.552C106.11 130.522 106.26 130.552 106.23 130.552L106.35 130.582C106.53 130.642 106.71 130.732 106.89 130.792C107.58 131.062 108.27 131.272 108.99 131.392C110.22 131.602 111.45 131.692 112.71 131.632C114.24 131.572 115.77 131.422 117.27 131.122C118.44 130.912 120.18 130.582 120.6 129.292C120.9 128.362 120.9 127.342 120.96 126.382C121.11 123.172 121.11 119.932 121.11 116.722V116.512C121.11 116.332 120.6 116.362 120.51 116.392L111.6 117.682L110.31 117.862C110.1 117.892 109.53 118.012 109.47 118.282C109.41 118.552 109.92 118.492 110.07 118.492L118.98 117.232L120.27 117.052L119.67 116.932C119.67 119.692 119.64 122.452 119.58 125.182C119.55 125.962 119.52 126.772 119.49 127.552C119.49 128.002 119.43 128.482 119.34 128.932C119.28 129.262 119.19 129.562 119.04 129.862C119.01 129.952 119.04 129.862 119.01 129.892C118.98 129.922 118.95 129.952 118.92 129.982C118.89 130.012 118.86 130.042 118.83 130.072C118.92 129.982 118.8 130.072 118.77 130.102C118.65 130.192 118.83 130.072 118.74 130.132L118.56 130.222C118.47 130.252 118.68 130.162 118.59 130.222L118.47 130.282C118.41 130.312 118.17 130.372 118.32 130.342C117.21 130.642 116.1 130.822 114.96 130.882C113.58 131.032 112.2 131.062 110.82 130.912C110.04 130.822 109.26 130.642 108.48 130.402C108.09 130.252 107.73 130.072 107.34 129.952L107.13 129.922C107.04 129.892 107.13 129.892 107.16 129.922C107.31 130.012 107.22 130.102 107.16 130.162C107.07 130.192 107.28 130.072 107.16 130.162L107.28 130.102C107.4 130.042 107.55 129.982 107.67 129.922C107.79 129.862 107.58 129.952 107.79 129.892L108 129.802L108.57 129.562L109.8 129.052C110.61 128.752 111.39 128.362 112.14 127.972C112.56 127.732 113.01 127.462 113.04 126.922C113.01 126.322 112.95 125.722 112.77 125.152C112.59 124.282 112.38 123.442 112.14 122.572C111.78 121.132 111.36 119.722 110.94 118.312C110.91 118.222 110.88 118.132 110.85 118.072C110.79 117.622 109.32 118.012 109.44 118.402Z" fill="#37123E"/>
<path d="M119.281 129.442L116.131 129.622C116.131 129.622 107.551 132.082 108.421 133.852C109.291 135.622 114.001 136.342 120.211 136.042C126.421 135.742 128.641 133.702 126.331 129.292L119.281 129.442Z" fill="white"/>
<path d="M118.981 128.962L116.071 129.142C115.531 129.202 115.021 129.352 114.541 129.562C113.401 129.922 112.291 130.312 111.181 130.792C110.161 131.242 109.021 131.692 108.181 132.472C107.881 132.712 107.671 133.072 107.611 133.462C107.581 133.942 107.941 134.362 108.271 134.662C109.321 135.592 110.881 135.952 112.261 136.192C114.361 136.522 116.491 136.642 118.621 136.582C120.631 136.552 122.671 136.462 124.621 135.892C125.761 135.562 127.021 134.962 127.591 133.852C128.161 132.742 127.951 131.452 127.501 130.312C127.351 129.922 127.171 129.562 126.991 129.202C126.811 128.962 126.511 128.812 126.211 128.842L120.061 128.962L119.191 128.992C118.921 128.992 118.501 129.082 118.561 129.442C118.621 129.802 119.131 129.952 119.401 129.922L125.551 129.802L126.421 129.772L125.641 129.412C126.181 130.432 126.691 131.692 126.391 132.862C126.151 133.822 125.341 134.422 124.471 134.782C122.971 135.412 121.291 135.532 119.671 135.592C117.631 135.712 115.591 135.652 113.581 135.442C112.771 135.352 111.991 135.202 111.211 135.022C110.701 134.902 110.221 134.692 109.741 134.422L109.591 134.332C109.441 134.212 109.651 134.392 109.561 134.302C109.471 134.212 109.411 134.182 109.351 134.122C109.351 134.122 109.231 133.972 109.321 134.092C109.291 134.062 109.261 134.002 109.231 133.972C109.201 133.942 109.171 133.882 109.171 133.852C109.081 133.732 109.171 133.852 109.141 133.792C109.141 133.762 109.111 133.732 109.111 133.702C109.111 133.582 109.111 133.822 109.111 133.702C109.111 133.642 109.141 133.582 109.141 133.522C109.081 133.612 109.171 133.402 109.141 133.522C109.171 133.492 109.171 133.432 109.201 133.402C109.261 133.312 109.321 133.252 109.381 133.192C109.471 133.072 109.291 133.252 109.411 133.162L109.531 133.072C109.621 133.012 109.681 132.952 109.771 132.892C109.981 132.742 110.191 132.622 110.401 132.472C110.851 132.202 111.331 131.992 111.811 131.782C112.861 131.332 113.971 130.912 115.051 130.552C115.441 130.432 115.831 130.312 116.221 130.192C116.311 130.162 116.401 130.132 116.521 130.102C116.641 130.072 116.251 130.132 116.521 130.132C117.541 130.102 118.531 130.012 119.551 129.952C119.851 129.922 120.091 129.682 119.941 129.382C119.791 129.082 119.311 128.962 118.981 128.962Z" fill="#37123E"/>
<path d="M116.311 119.001C116.311 119.001 118.801 127.221 118.441 128.121C118.081 129.021 111.871 130.941 112.801 131.031C113.491 131.121 115.111 132.531 120.541 132.021C126.061 131.511 125.821 130.821 126.151 129.681C126.481 128.541 126.511 117.531 126.511 117.531L116.311 119.001Z" fill="white"/>
<path d="M115.741 118.641C116.071 119.751 116.401 120.891 116.701 122.001C117.151 123.651 117.661 125.331 117.871 127.011C117.901 127.191 117.901 127.401 117.871 127.581C117.841 127.671 117.871 127.641 117.811 127.701C117.721 127.791 117.631 127.851 117.541 127.941C116.881 128.361 116.161 128.721 115.411 128.991C114.631 129.321 113.851 129.621 113.071 129.951C112.831 130.041 112.561 130.161 112.351 130.311C112.111 130.461 112.111 130.641 112.261 130.911C112.471 131.271 112.831 131.541 113.251 131.631C113.281 131.631 113.431 131.691 113.251 131.631L113.341 131.661L113.641 131.781C114.241 132.051 114.871 132.231 115.531 132.411C118.111 133.011 120.931 132.741 123.511 132.321C124.591 132.141 126.151 131.961 126.571 130.761C126.901 129.831 126.901 128.841 126.931 127.881C127.081 124.671 127.081 121.461 127.081 118.251V118.041C127.081 117.651 126.511 116.961 126.061 117.021L117.121 118.281L115.831 118.461C115.531 118.491 115.861 119.001 115.951 119.091C116.101 119.301 116.431 119.661 116.731 119.601L125.641 118.341L126.931 118.161L125.911 117.141C125.911 120.591 125.911 124.041 125.731 127.491C125.731 128.091 125.671 128.691 125.581 129.261C125.521 129.651 125.371 130.011 125.131 130.311C124.621 130.851 123.721 131.001 123.031 131.121C121.291 131.451 119.521 131.631 117.751 131.601C117.001 131.601 116.221 131.541 115.471 131.421C114.961 131.331 114.451 131.211 113.941 131.061C113.641 130.941 113.311 130.821 113.011 130.701C112.891 130.641 112.741 130.581 112.591 130.551C112.561 130.521 112.501 130.521 112.471 130.521H112.411H112.381C112.591 130.581 112.771 130.701 112.891 130.851L113.191 131.301C113.221 131.391 113.221 131.451 113.221 131.541L113.251 131.511C113.311 131.481 113.371 131.451 113.431 131.391C113.611 131.301 113.791 131.211 114.001 131.121C114.601 130.881 115.201 130.641 115.771 130.401C116.341 130.161 117.031 129.861 117.661 129.561C118.051 129.381 118.561 129.171 118.831 128.811C119.041 128.541 118.981 128.181 118.951 127.881C118.891 127.341 118.801 126.801 118.651 126.261C118.351 124.851 117.961 123.441 117.571 122.061C117.331 121.161 117.061 120.291 116.791 119.421C116.671 119.091 116.461 118.791 116.131 118.611C116.101 118.491 115.651 118.311 115.741 118.641Z" fill="#37123E"/>
<path d="M111.361 59.8116C111.361 59.8116 92.0709 114.232 93.4809 117.772C94.8909 121.312 131.581 127.642 143.221 105.772C143.221 105.772 124.861 53.1816 120.301 53.1816C115.741 53.1816 111.361 59.8116 111.361 59.8116Z" fill="#37123E"/>
<path d="M110.761 59.3914C110.401 60.3514 110.071 61.3414 109.741 62.3014C108.871 64.8214 108.001 67.3114 107.131 69.8314C105.931 73.3414 104.731 76.8514 103.531 80.3614C102.211 84.2614 100.921 88.1614 99.661 92.0614C98.461 95.7814 97.261 99.5014 96.151 103.221C95.251 106.161 94.381 109.131 93.661 112.131C93.421 113.151 93.181 114.171 93.001 115.191C92.851 115.851 92.791 116.511 92.821 117.171C92.881 117.891 93.421 118.431 94.021 118.821C94.801 119.331 95.641 119.721 96.511 119.991C99.271 120.921 102.211 121.401 105.121 121.701C108.991 122.091 112.891 122.091 116.761 121.731C120.991 121.341 125.161 120.381 129.121 118.851C133.111 117.261 136.861 114.951 139.831 111.801C141.391 110.181 142.711 108.351 143.761 106.371C143.881 106.191 143.881 105.951 143.791 105.741L143.611 105.201C142.951 103.371 142.321 101.541 141.661 99.7414C140.551 96.6514 139.411 93.5914 138.271 90.5014C136.861 86.7514 135.451 83.0314 134.011 79.3414C132.541 75.6214 131.071 71.9614 129.481 68.2714C128.131 65.1514 126.751 62.0314 125.191 59.0014C124.621 57.8914 124.021 56.8114 123.361 55.7614C122.881 54.9514 122.281 54.1714 121.621 53.4814C121.021 52.8814 120.391 52.5214 119.521 52.6114C117.091 52.8214 114.991 54.5014 113.371 56.1814C112.411 57.1414 111.571 58.1914 110.821 59.3314C110.491 59.8114 111.661 60.7714 111.961 60.3214C112.471 59.5714 113.041 58.8514 113.641 58.1614C114.811 56.8114 116.161 55.5214 117.751 54.6514C118.531 54.2014 119.371 53.9314 120.271 53.8114C120.421 53.8114 120.571 53.8114 120.721 53.7814C120.871 53.7514 120.541 53.7814 120.691 53.7814C120.721 53.7814 120.871 53.8414 120.721 53.7814C120.571 53.7214 120.721 53.7814 120.751 53.8114C120.901 53.9014 120.601 53.6914 120.721 53.7814L120.841 53.8714C120.991 53.9614 120.661 53.7214 120.811 53.8414L120.931 53.9614L121.051 54.0814C121.201 54.2014 120.901 53.9314 121.051 54.1114C121.141 54.2014 121.231 54.3214 121.321 54.4114C121.411 54.5314 121.501 54.6514 121.621 54.7714L121.771 54.9514C121.861 55.0714 121.681 54.8314 121.741 54.9214L121.831 55.0414C122.041 55.3414 122.251 55.6714 122.461 56.0014C122.941 56.7814 123.391 57.6214 123.841 58.4314C124.981 60.5914 125.911 62.6014 126.961 64.9114C128.161 67.5814 129.301 70.2514 130.381 72.9514C131.551 75.8314 132.721 78.7114 133.831 81.6214C134.911 84.4414 135.991 87.2914 137.071 90.1114C138.001 92.5714 138.901 95.0314 139.771 97.4914C140.431 99.2914 141.091 101.091 141.721 102.921C142.021 103.791 142.291 104.691 142.651 105.561C142.651 105.591 142.681 105.621 142.681 105.681L142.711 105.321C140.161 110.001 136.261 113.811 131.491 116.271C126.961 118.671 121.921 119.961 116.821 120.531C112.231 121.041 107.611 121.011 103.021 120.441C101.281 120.231 99.541 119.901 97.831 119.451C97.471 119.361 97.111 119.241 96.751 119.151L96.301 119.001C96.181 118.971 96.391 119.031 96.211 118.971L95.971 118.881C95.701 118.791 95.431 118.671 95.161 118.551C95.071 118.521 94.951 118.461 94.861 118.401L94.711 118.311C94.501 118.191 94.801 118.371 94.681 118.281C94.501 118.191 94.351 118.071 94.201 117.951C94.201 117.921 94.381 118.131 94.231 117.981L94.141 117.891C94.021 117.771 94.201 117.951 94.201 117.951C94.171 117.921 94.141 117.891 94.111 117.861C94.051 117.741 94.231 118.041 94.141 117.921L94.111 117.861C94.141 117.951 94.201 118.041 94.111 117.861C94.171 118.041 94.111 117.921 94.111 117.831C94.111 117.741 94.111 117.711 94.111 117.621C94.111 117.531 94.111 117.501 94.111 117.411C94.111 117.321 94.111 117.321 94.111 117.291C94.111 117.141 94.111 117.351 94.111 117.231C94.141 117.051 94.141 116.841 94.171 116.631C94.231 116.121 94.321 115.611 94.441 115.101C95.101 111.801 96.091 108.531 97.051 105.291C98.401 100.791 99.811 96.3514 101.251 91.8814C102.781 87.2314 104.311 82.5514 105.901 77.9314C107.221 74.0914 108.541 70.2214 109.861 66.3814C110.551 64.4014 111.241 62.4214 111.931 60.4414C111.961 60.3514 111.991 60.2614 112.021 60.1714C112.141 59.7214 110.971 58.8214 110.761 59.3914Z" fill="#37123E"/>
<path d="M130.86 50.1815C135.39 39.1415 129 34.0415 123.96 32.2415C118.92 30.4415 115.05 31.4615 113.49 33.3515C112.35 34.7315 113.58 45.1715 113.58 45.1715L120.21 55.4915C120.24 55.4915 127.41 58.6115 130.86 50.1815Z" fill="#37123E"/>
<path d="M107.401 48.6211C105.301 44.1211 113.281 35.3311 113.281 35.3311C115.201 35.6011 118.801 34.9111 118.801 34.9111C115.981 40.1311 121.981 43.9111 121.981 43.9111C124.321 41.3611 127.471 43.6411 126.271 46.4911C125.071 49.3411 122.161 48.7111 122.161 48.7111C122.161 48.7111 121.171 56.4511 120.511 57.5011C120.511 57.5011 114.631 59.2111 113.071 53.9911C113.041 54.0211 108.811 51.6811 107.401 48.6211Z" fill="white"/>
<path d="M108.061 48.3213C107.101 46.2213 108.181 43.7013 109.171 41.8113C110.251 39.8013 111.511 37.9113 112.981 36.1713C113.281 35.7813 113.611 35.4213 113.941 35.0613L112.621 35.6613C113.791 35.7813 114.991 35.7513 116.161 35.5413C116.851 35.4513 117.541 35.3613 118.231 35.2113L118.141 35.1813C117.211 36.8313 117.151 38.8113 117.961 40.4913C118.591 41.7213 119.491 42.8313 120.571 43.6713C120.811 43.8513 121.051 44.0313 121.291 44.2113C121.411 44.2713 121.831 44.0613 121.921 44.0313C122.191 43.9413 122.431 43.8213 122.641 43.6413C122.821 43.4313 123.031 43.2513 123.271 43.1013C123.331 43.0413 123.511 42.9813 123.151 43.1313C122.761 43.3113 122.971 43.1913 123.031 43.1913C123.151 43.1913 123.271 43.1313 123.391 43.1313C123.781 43.1013 124.171 43.1613 124.531 43.3413C125.221 43.7013 125.701 44.3613 125.821 45.1413C125.911 46.1013 125.641 47.0313 125.011 47.7813C124.891 47.9313 124.741 48.0813 124.591 48.2313C124.531 48.2913 124.441 48.3513 124.351 48.4113C124.081 48.5913 124.501 48.2613 124.501 48.3513C124.501 48.3213 124.591 48.3213 124.471 48.3513L124.291 48.3813C124.141 48.4113 123.991 48.4413 123.841 48.4413C123.481 48.4713 123.121 48.4713 122.791 48.4113C122.581 48.3813 122.191 48.6213 122.011 48.6813C121.891 48.7413 121.471 48.8913 121.441 49.0113C121.141 51.4413 120.811 53.8713 120.271 56.2413C120.181 56.7813 120.031 57.2913 119.791 57.7713L121.021 57.1713C119.491 57.6213 117.871 57.5313 116.401 56.9313C115.171 56.3613 114.241 55.2813 113.791 53.9913C113.731 53.8113 113.731 53.6913 113.581 53.6013C113.431 53.5113 113.311 53.4513 113.191 53.3613C112.681 53.0613 112.201 52.7313 111.721 52.3713C110.311 51.3213 108.871 50.0013 108.061 48.3213C108.001 48.2013 106.651 48.8313 106.711 48.9213C107.761 51.1113 109.891 52.7913 111.931 54.0513C112.081 54.1113 112.231 54.2013 112.381 54.3213C112.471 54.4713 112.501 54.6213 112.531 54.8013C112.591 54.9513 112.651 55.1313 112.741 55.2813C112.861 55.5513 113.041 55.8213 113.191 56.0613C113.791 56.9013 114.661 57.5013 115.651 57.8313C117.001 58.2213 118.441 58.2513 119.821 57.8913C120.301 57.8013 120.721 57.6213 121.111 57.3213C121.291 57.1113 121.411 56.8413 121.441 56.5713C121.681 55.6413 121.891 54.7113 122.041 53.7813C122.341 52.0113 122.611 50.2113 122.851 48.4413L121.501 49.0713C121.951 49.1613 122.401 49.1613 122.851 49.0713C123.991 48.8913 125.071 48.4113 125.941 47.6613C126.781 46.9113 127.351 45.6813 127.171 44.5413C127.021 43.5513 126.301 42.7713 125.341 42.5613C124.681 42.4713 124.021 42.5613 123.421 42.8613C122.641 43.1613 121.921 43.6113 121.321 44.2113L122.671 43.6113C120.721 42.3813 118.951 40.2513 118.771 37.9113C118.681 36.7713 118.951 35.6613 119.491 34.6713C119.521 34.6113 119.431 34.6413 119.401 34.6413C117.901 34.9413 116.341 35.1213 114.811 35.0913C114.601 35.0913 114.361 35.0913 114.151 35.0613C113.821 35.0613 113.461 35.1513 113.161 35.3313C112.951 35.4213 112.741 35.5413 112.561 35.6913C112.351 35.9313 112.141 36.1713 111.961 36.4113C110.011 38.7513 108.181 41.3013 107.041 44.1513C106.441 45.6513 106.021 47.4513 106.711 48.9813C106.771 49.0413 108.121 48.4413 108.061 48.3213Z" fill="#37123E"/>
<path d="M113.221 41.6318C111.901 42.0818 110.551 42.3218 109.171 42.3818C104.521 42.6518 103.801 44.1818 105.121 45.2318C106.441 46.2818 112.741 46.2818 112.741 46.2818" fill="white"/>
<path d="M112.8 41.0316C111.3 41.6316 109.65 41.6916 108.09 41.8416C107.16 41.9016 106.23 42.1116 105.36 42.4116C104.88 42.5616 104.46 42.8916 104.19 43.3416C103.98 43.7916 104.16 44.3316 104.4 44.7516C104.7 45.3216 105.18 45.7716 105.75 46.0416C106.32 46.2816 106.92 46.4616 107.55 46.5216C108.3 46.6416 109.05 46.7316 109.8 46.7916C110.91 46.8816 112.02 46.9116 113.13 46.9116C113.4 46.9116 113.13 46.4016 113.1 46.3116C112.98 46.1016 112.71 45.6516 112.41 45.6516C111.6 45.6516 110.79 45.6216 110.01 45.5916C108.63 45.5616 107.28 45.3816 105.96 45.1116C105.72 45.0516 105.48 44.9616 105.27 44.8716L105.15 44.8116L105.09 44.7816C105.06 44.7516 105 44.7216 105.06 44.7816C105.03 44.7516 104.91 44.6616 104.97 44.7216C105.03 44.7816 104.85 44.5416 105 44.7816C104.94 44.6616 105.09 44.9316 105.03 44.8116C105.12 44.9316 105.09 44.8416 105.03 44.8416C105.03 44.8416 105.06 44.9616 105.06 44.9016C105.06 44.8416 105.06 44.8116 105.06 44.8716C105.06 44.9316 105.06 44.7516 105.06 44.7516C105.06 44.6616 105.09 44.5716 105.15 44.5116C105.36 44.1216 105.84 43.8816 106.23 43.7016C107.04 43.4016 107.91 43.2216 108.78 43.1616C110.43 43.0116 112.14 42.9216 113.7 42.3216C113.91 42.1716 113.19 40.8816 112.8 41.0316Z" fill="#37123E"/>
<path d="M116.071 41.3618C115.711 41.2718 115.381 41.5118 115.291 41.8418C115.291 41.8718 115.291 41.9018 115.291 41.9318C115.231 42.6218 116.101 42.7118 116.341 42.1118C116.491 41.8418 116.401 41.5118 116.131 41.3618C116.101 41.3918 116.101 41.3918 116.071 41.3618Z" fill="#37123E"/>
<path d="M111.751 39.4712C111.421 39.3812 111.061 39.6212 111.001 39.9512C111.001 39.9812 111.001 40.0112 111.001 40.0412C110.941 40.7312 111.811 40.8212 112.051 40.2212C112.201 39.9512 112.111 39.6212 111.841 39.4712C111.811 39.5012 111.781 39.5012 111.751 39.4712Z" fill="#37123E"/>
<path d="M126.331 51.8315C126.391 52.8515 126.571 53.8415 126.841 54.8315C127.261 56.3015 128.101 57.9215 129.841 58.0115C130.891 58.0715 131.881 57.5615 132.661 56.9015C133.381 56.3015 134.011 55.4615 134.041 54.5015C134.071 52.7915 132.211 51.7115 130.651 52.1315C128.401 52.7615 128.671 55.8515 129.151 57.5915C129.481 58.8215 130.021 59.9615 130.771 61.0115C131.371 61.9415 132.211 62.6615 133.171 63.1715C134.041 63.5915 135.121 63.6215 135.871 62.9915C136.471 62.4515 136.801 61.7015 136.801 60.8915C136.771 59.6315 135.841 58.5815 134.791 57.9815C133.681 57.3515 132.121 57.0215 130.981 57.7415C129.631 58.6115 129.931 60.4715 130.351 61.7915C130.561 62.3915 130.801 62.9915 131.071 63.5615C131.341 64.1015 132.811 63.9815 132.541 63.3815C132.091 62.4815 131.761 61.5215 131.551 60.5315C131.491 60.2015 131.491 59.8715 131.521 59.5415C131.521 59.3015 131.581 59.0615 131.701 58.8815C131.731 58.8215 131.761 58.7615 131.791 58.7315C131.851 58.6115 131.791 58.7315 131.821 58.7015C131.881 58.6115 131.971 58.5515 132.061 58.4615C131.941 58.5815 132.151 58.4315 132.211 58.3715C132.271 58.3115 132.061 58.4015 132.241 58.3715L132.391 58.3115C132.451 58.2815 132.211 58.3415 132.421 58.3115C132.481 58.3115 132.511 58.3115 132.571 58.2815C132.391 58.2815 132.721 58.2515 132.571 58.2815H132.751C132.811 58.2815 133.021 58.3115 132.781 58.2815L132.931 58.3115L133.081 58.3415C133.141 58.3415 133.351 58.4315 133.141 58.3415C133.261 58.3715 133.351 58.4015 133.471 58.4615L133.651 58.5515C133.711 58.5815 133.861 58.6715 133.711 58.5815C133.951 58.7015 134.161 58.8515 134.341 59.0015L134.431 59.0615L134.551 59.1815C134.641 59.2715 134.731 59.3615 134.821 59.4815C134.971 59.6315 135.091 59.8115 135.151 60.0215C135.361 60.4415 135.421 60.9515 135.301 61.4015C135.331 61.3115 135.271 61.4615 135.271 61.4915C135.241 61.5815 135.211 61.6715 135.181 61.7615C135.121 61.9115 135.031 62.0915 134.911 62.2115C134.851 62.2715 134.791 62.3315 134.731 62.3915C134.671 62.4515 134.791 62.3615 134.731 62.3915L134.641 62.4515C134.521 62.5115 134.701 62.4515 134.551 62.4815C134.521 62.4815 134.431 62.5115 134.581 62.4815C134.521 62.4815 134.491 62.5115 134.431 62.5115C134.611 62.5115 134.461 62.5115 134.371 62.5115C134.551 62.5415 134.371 62.5115 134.311 62.4815L134.191 62.4515C134.161 62.4215 133.921 62.3315 134.011 62.3615C133.681 62.1815 133.381 61.9415 133.111 61.6715C132.391 60.9215 131.791 60.0815 131.341 59.1215C130.831 58.1015 130.531 56.9615 130.441 55.8215C130.381 55.0115 130.441 53.9315 130.921 53.3015C130.951 53.2415 131.011 53.1815 131.071 53.1515L131.131 53.0915C131.191 53.0315 131.011 53.1515 131.161 53.0615C131.221 53.0315 131.281 53.0015 131.311 52.9715C131.341 52.9415 131.431 52.9415 131.281 52.9715L131.401 52.9415C131.521 52.9115 131.251 53.0015 131.431 52.9415C131.461 52.9415 131.491 52.9415 131.521 52.9415C131.191 52.9715 131.461 52.9415 131.461 52.9415C131.461 52.9115 131.731 53.0015 131.491 52.9415C131.551 52.9715 131.761 53.0015 131.581 52.9415L131.761 53.0015C131.941 53.0615 131.731 52.9715 131.851 53.0315C131.911 53.0615 131.971 53.0915 132.001 53.1515L132.091 53.2115C132.121 53.2415 132.031 53.1515 132.121 53.2415C132.301 53.4215 132.451 53.6315 132.541 53.8715C132.721 54.4715 132.571 55.1315 132.181 55.6115C131.881 56.0015 131.551 56.3015 131.161 56.5715C130.891 56.7815 130.561 56.9315 130.201 57.0215C130.351 56.9915 130.141 57.0215 130.111 57.0215C129.931 57.0515 130.231 57.0215 130.141 57.0215C130.111 57.0215 130.081 57.0215 130.051 57.0215C130.051 57.0215 129.901 57.0215 130.021 57.0215C130.141 57.0215 130.021 57.0215 129.991 57.0215C129.781 56.9615 130.021 57.0515 129.901 56.9915C129.871 56.9915 129.691 56.9015 129.781 56.9615C129.871 57.0215 129.691 56.9015 129.661 56.8715C129.601 56.8415 129.571 56.7815 129.511 56.7515C129.601 56.8415 129.451 56.6915 129.421 56.6615C129.031 56.2115 128.731 55.6715 128.581 55.1015C128.251 54.1115 128.041 53.0615 127.981 52.0115C127.981 51.9515 127.981 51.8915 127.981 51.8315C127.801 51.2015 126.331 51.1715 126.331 51.8315Z" fill="#37123E"/>
<path d="M117.421 46.2512C117.421 46.2812 117.451 46.2812 117.451 46.3112L117.391 46.1612C117.421 46.1912 117.421 46.2512 117.421 46.2812L117.391 46.1312C117.391 46.1912 117.421 46.2212 117.421 46.2812V46.1612C117.421 46.2212 117.421 46.3112 117.391 46.3712L117.421 46.2512C117.391 46.3412 117.361 46.4312 117.301 46.5212L117.361 46.4312C117.301 46.5212 117.241 46.6112 117.151 46.7012L117.241 46.6412C117.151 46.7012 117.061 46.7612 116.971 46.8212L117.091 46.7912C117.001 46.8212 116.911 46.8512 116.851 46.8512H116.971C116.881 46.8512 116.821 46.8512 116.731 46.8212L116.851 46.8512C116.791 46.8212 116.731 46.8212 116.701 46.7912C116.581 46.7312 116.461 46.7312 116.371 46.7912C116.281 46.8512 116.191 46.9712 116.191 47.0912C116.161 47.3912 116.341 47.6612 116.611 47.7812C116.971 47.9612 117.421 47.9312 117.781 47.7212C118.111 47.4812 118.321 47.1212 118.381 46.7312C118.411 46.4312 118.351 46.1612 118.201 45.8912C118.141 45.7712 118.021 45.6812 117.901 45.6212C117.781 45.5612 117.661 45.5612 117.571 45.6212C117.301 45.7412 117.271 46.0412 117.421 46.2512Z" fill="#37123E"/>
<path d="M129.001 86.8416C126.751 94.8216 120.811 91.9116 116.371 82.5216C114.061 77.6616 111.451 62.8116 111.451 62.8116C111.451 62.8116 106.321 63.8916 105.931 61.6116C105.541 59.3316 106.801 58.7616 106.801 58.7616C104.941 56.4216 108.211 54.8016 108.211 54.8016C103.741 52.6416 103.261 49.7616 105.961 49.9416C108.661 50.1216 114.931 54.4416 117.031 55.0716C119.131 55.7016 123.961 52.9416 125.401 54.8616C126.841 56.7816 122.881 58.2816 121.831 58.7916L118.501 64.0416C118.561 64.0116 131.551 77.8116 129.001 86.8416Z" fill="white"/>
<path d="M128.34 86.542C127.95 87.892 127.41 89.362 126.33 90.292C125.97 90.622 125.52 90.862 125.04 90.982C124.83 91.042 124.62 91.042 124.38 91.042C124.35 91.042 124.41 91.042 124.29 91.042L124.11 91.012L123.99 90.982L123.84 90.952C123.63 90.892 123.42 90.802 123.24 90.712L123.09 90.652C123.03 90.622 122.97 90.592 122.91 90.532C122.76 90.442 122.64 90.382 122.58 90.322C122.01 89.902 121.47 89.422 120.99 88.882C119.73 87.442 118.65 85.852 117.78 84.142C116.49 81.712 115.71 79.132 115.02 76.492C114.3 73.672 113.67 70.822 113.1 67.972C112.77 66.352 112.53 64.732 112.17 63.142C112.17 63.112 112.17 63.082 112.17 63.082C112.08 62.632 111.33 62.392 110.94 62.452C110.01 62.662 109.05 62.722 108.12 62.662C108.06 62.662 107.85 62.632 107.73 62.632C107.64 62.632 107.58 62.602 107.49 62.602H107.46L107.31 62.572L107.1 62.512C107.28 62.572 107.04 62.482 107.01 62.452C107.16 62.512 107.01 62.452 106.95 62.422C106.98 62.452 106.92 62.392 106.92 62.392C106.86 62.332 106.8 62.242 106.77 62.152C106.71 62.002 106.68 61.852 106.65 61.672C106.56 61.162 106.59 60.652 106.71 60.172C106.83 59.752 107.07 59.392 107.46 59.182C107.64 59.092 107.49 58.882 107.43 58.792C106.8 58.012 106.86 56.902 107.58 56.212C107.94 55.792 108.39 55.462 108.9 55.192C109.26 55.012 108.48 54.532 108.42 54.502C107.52 54.082 106.68 53.512 105.96 52.822C105.57 52.432 105.15 51.922 105.06 51.352C105 50.992 105.21 50.632 105.54 50.482C105.78 50.392 106.08 50.362 106.32 50.362C106.53 50.392 106.74 50.422 106.95 50.482C107.61 50.662 108.24 50.902 108.87 51.232C109.65 51.592 110.37 51.952 111.12 52.372C112.59 53.152 114.03 54.022 115.53 54.772C116.04 55.072 116.61 55.282 117.18 55.462C117.9 55.642 118.65 55.642 119.37 55.492C120.93 55.252 122.46 54.622 124.05 54.592C124.17 54.592 124.32 54.592 124.44 54.622C124.47 54.622 124.65 54.652 124.62 54.652C124.59 54.652 124.65 54.652 124.65 54.652C124.86 54.712 124.56 54.622 124.68 54.652C124.71 54.652 124.74 54.682 124.77 54.682C124.8 54.682 124.65 54.622 124.74 54.652C124.65 54.592 124.83 54.682 124.74 54.652C124.77 54.682 124.8 54.682 124.8 54.712C124.74 54.652 124.86 54.772 124.86 54.802C124.89 54.862 124.92 54.922 124.95 54.982C125.22 55.522 124.92 56.092 124.53 56.482C123.99 56.962 123.39 57.382 122.76 57.682C122.46 57.832 122.16 57.982 121.86 58.102C121.62 58.162 121.38 58.312 121.2 58.462C121.05 58.672 120.9 58.912 120.78 59.122L119.79 60.682L117.99 63.532L117.87 63.712C117.81 63.802 117.93 63.982 117.96 64.012C119.46 65.632 120.84 67.342 122.13 69.142C124.56 72.472 126.84 76.162 128.01 80.152C128.64 82.192 128.91 84.412 128.34 86.542C128.19 87.022 129.6 87.562 129.72 87.142C130.83 83.152 129.12 78.862 127.29 75.352C125.46 71.962 123.27 68.752 120.75 65.812C120.24 65.182 119.7 64.582 119.16 63.982L119.25 64.282L120.78 61.882L121.89 60.112C122.07 59.752 122.31 59.392 122.55 59.092C122.58 59.092 122.61 59.032 122.55 59.092C122.67 59.032 122.76 59.002 122.88 58.942C123.18 58.792 123.48 58.672 123.78 58.522C124.47 58.222 125.13 57.802 125.7 57.292C126.15 56.842 126.57 56.242 126.39 55.582C126.18 54.742 125.4 54.172 124.62 53.902C123 53.362 121.2 53.992 119.61 54.352C118.86 54.562 118.11 54.682 117.33 54.712C117.21 54.712 117.09 54.712 116.97 54.682C117.12 54.712 116.91 54.652 116.88 54.652C116.79 54.622 117.03 54.712 116.85 54.652C116.58 54.532 116.31 54.412 116.04 54.292L115.83 54.172H115.8L115.68 54.112C115.5 54.022 115.32 53.932 115.14 53.842C114.78 53.632 114.42 53.452 114.03 53.242C113.22 52.792 112.41 52.342 111.57 51.892C110.04 51.052 108.42 50.182 106.71 49.732C105.78 49.492 103.8 49.192 103.56 50.542C103.44 51.172 103.77 51.772 104.13 52.252C104.73 53.032 105.48 53.692 106.32 54.202C106.86 54.562 107.43 54.862 108.03 55.162L107.55 54.472C106.98 54.772 106.47 55.192 106.05 55.702C105.72 56.092 105.54 56.542 105.51 57.052C105.51 57.712 105.75 58.342 106.2 58.822L106.17 58.432C105.78 58.672 105.48 59.032 105.33 59.482C105.03 60.322 105.03 61.552 105.6 62.302C106.68 63.652 108.87 63.652 110.43 63.502C110.94 63.472 111.42 63.382 111.93 63.292L110.7 62.692C110.94 64.132 111.24 65.572 111.51 67.012C112.11 69.952 112.74 72.892 113.46 75.832C114.15 78.562 114.93 81.262 116.25 83.782C117.18 85.612 118.32 87.322 119.67 88.882C120.69 90.022 121.89 91.072 123.3 91.642C124.44 92.092 125.73 92.242 126.84 91.642C128.01 91.042 128.73 89.752 129.21 88.582C129.39 88.162 129.51 87.742 129.63 87.292C129.84 86.632 128.46 86.092 128.34 86.542Z" fill="#37123E"/>
<path d="M109.471 56.9917C109.111 56.9617 108.781 56.9917 108.451 57.0817C107.611 57.2917 106.831 57.7117 106.201 58.3417C106.141 58.4017 106.711 58.7917 106.771 58.8217C106.921 58.9117 107.071 59.0017 107.221 59.0917C107.251 59.1217 107.401 59.1817 107.461 59.1517C108.061 58.5517 108.841 58.1017 109.651 57.9217C109.981 57.8317 110.311 57.8017 110.641 57.8617C110.731 57.8917 110.641 57.7417 110.611 57.7417C110.521 57.6217 110.401 57.5317 110.251 57.4717C110.101 57.3517 109.921 57.2617 109.771 57.1717C109.681 57.0517 109.561 57.0217 109.471 56.9917Z" fill="#37123E"/>
<path d="M111.331 54.292C110.971 54.112 110.581 53.962 110.191 53.902C109.411 53.782 108.571 53.872 107.851 54.172C107.581 54.292 107.461 54.622 107.581 54.892C107.611 54.922 107.611 54.982 107.641 55.012C107.851 55.342 108.271 55.462 108.631 55.372C108.721 55.342 108.841 55.282 108.931 55.252L109.081 55.222C109.021 55.222 109.201 55.192 109.081 55.222C109.261 55.192 109.411 55.162 109.591 55.132H109.831H109.891C110.011 55.132 110.161 55.162 110.281 55.162C110.341 55.192 110.551 55.252 110.281 55.162L110.431 55.192C110.521 55.222 110.581 55.252 110.671 55.282L110.761 55.312C110.881 55.372 110.581 55.222 110.641 55.252C110.671 55.252 110.671 55.282 110.701 55.282C110.851 55.372 111.061 55.432 111.241 55.402C111.391 55.402 111.541 55.312 111.631 55.162C111.781 54.832 111.631 54.442 111.331 54.292Z" fill="#37123E"/>
<path d="M109.411 60.8916C109.411 60.8916 109.681 64.3116 113.671 63.5616L109.411 60.8916Z" fill="white"/>
<path d="M108.69 60.7415C108.75 61.1915 108.87 61.6115 109.08 62.0015C109.59 62.9615 110.49 63.6515 111.54 63.9215C112.38 64.1315 113.25 64.1615 114.09 63.9815C114.39 63.9215 114.48 63.6815 114.27 63.4415C114 63.1715 113.64 63.0515 113.28 63.0815C113.1 63.1115 112.92 63.1415 112.74 63.1715L112.5 63.2015C112.41 63.2015 112.59 63.2015 112.5 63.2015H112.35C112.2 63.2015 112.05 63.2015 111.93 63.1715C111.81 63.1415 111.96 63.2015 111.96 63.1715C111.93 63.1715 111.9 63.1715 111.87 63.1415L111.66 63.1115C111.63 63.1115 111.6 63.0815 111.54 63.0815C111.54 63.0815 111.72 63.1415 111.6 63.1115L111.45 63.0515C111.39 63.0215 111.36 63.0215 111.3 62.9915C111.33 62.9615 111.48 63.0815 111.39 63.0215L111.3 62.9615C111.27 62.9315 111.21 62.9015 111.18 62.9015C111.15 62.9015 111.33 62.9915 111.18 62.9015C111.15 62.8715 110.94 62.7515 110.94 62.7215C110.94 62.7215 111.06 62.8415 111 62.7515L110.94 62.7215C110.91 62.6915 110.88 62.6615 110.85 62.6315C110.82 62.6015 110.73 62.4815 110.67 62.4215C110.61 62.3615 110.73 62.5415 110.67 62.3915L110.61 62.3015C110.58 62.2415 110.52 62.1515 110.49 62.0915C110.43 61.9715 110.37 61.8215 110.31 61.6715C110.28 61.6115 110.34 61.7915 110.31 61.6715C110.31 61.6415 110.28 61.6115 110.28 61.5815C110.25 61.5215 110.25 61.4615 110.22 61.4015C110.19 61.2815 110.16 61.1615 110.16 61.0115C110.07 60.5015 108.63 60.1415 108.69 60.7415Z" fill="#37123E"/>
<path d="M108.211 67.4614C107.911 68.6314 107.311 69.7714 106.831 70.8814C106.171 72.3814 105.511 73.8514 104.851 75.3514C104.611 75.8614 104.401 76.4014 104.191 76.9114C104.071 77.2714 105.451 77.8414 105.541 77.5414C105.961 76.3714 106.501 75.2614 107.011 74.1514C107.671 72.6514 108.361 71.1814 108.961 69.6814C109.201 69.1714 109.411 68.6314 109.561 68.0914C109.711 67.7014 108.301 67.1914 108.211 67.4614Z" fill="white"/>
<path d="M71.3407 34.6116C72.2707 32.5716 74.7007 31.2516 76.9207 31.8816C77.1907 32.0016 77.0707 31.9116 76.6507 31.6416C76.7107 31.7016 76.7707 31.7916 76.8007 31.8816C76.8907 32.0316 76.9507 32.1816 77.0407 32.3316C77.1607 32.6016 77.2807 32.8716 77.3707 33.1716C77.5807 33.8616 77.7007 34.5516 77.7007 35.2716C77.7007 36.2016 77.5807 38.0316 76.4107 38.2716L77.5807 39.1116C76.7407 37.6716 78.1207 35.9916 79.6207 35.9316C80.0407 35.9316 80.4607 35.9916 80.8507 36.1416C80.9407 36.1716 81.0307 36.2316 81.0907 36.2616C81.1207 36.2916 81.1507 36.2916 81.0907 36.2616C81.2407 36.4116 81.3907 36.5616 81.5107 36.7416C82.0507 37.5216 82.4407 38.3916 82.6207 39.3216C82.6807 39.5616 83.1307 39.8016 83.3107 39.9216C83.3707 39.9516 83.8507 40.2516 83.8207 40.1016C83.5807 38.9916 83.0707 37.9416 82.3507 37.0716C81.5707 36.1416 80.5207 35.4816 79.3507 35.1216C78.3907 34.8516 77.3707 35.1216 76.7107 35.8116C76.0807 36.4716 75.9607 37.4916 76.3807 38.3016C76.5307 38.5116 76.7107 38.6616 76.9207 38.8116C77.0407 38.9016 77.3707 39.2016 77.5507 39.1716C78.6307 38.9616 78.8407 37.5816 78.9007 36.6816C78.9907 35.4816 78.7807 34.2816 78.2707 33.2016C77.7607 32.0316 76.7107 31.1916 75.4507 30.9216C74.4607 30.7716 73.4407 30.8916 72.5707 31.3416C71.4907 31.8216 70.6507 32.6916 70.1407 33.7416C70.0207 33.9516 71.3107 34.6716 71.3407 34.6116Z" fill="#62206E"/>
</svg>
