<svg width="2" height="211" viewBox="0 0 2 211" fill="none" xmlns="http://www.w3.org/2000/svg">
<path d="M0.379787 92.8724C0.512771 88.2372 -0.0749943 84.5884 0.00808331 78.9389C0.0911622 73.2893 0.40294 72.4432 0.33279 65.973C0.262654 59.5033 0.4759 53.0297 0.347805 50.1489C0.219672 47.2682 0.607064 46.9641 0.521023 42.8733C0.434993 38.7827 0.485559 36.3033 0.611477 32.7258C0.737396 29.1479 0.844896 18.1563 0.690212 14.1594C0.535528 10.1625 0.803925 5.60387 0.86758 2.86232C0.887408 2.00836 0.914543 1.33634 0.942775 0.821111C0.954746 0.602862 0.979788 0.502039 1.00451 0.501953C1.00452 0.501953 1.00454 0.501953 1.00456 0.501953C1.03533 0.502028 1.0656 0.658349 1.06948 0.938871C1.08836 2.30052 1.13817 4.33553 1.24978 6.73964C1.45791 11.2223 1.22792 11.7121 1.33487 17.7652C1.44181 23.8182 1.65562 27.4549 1.51736 34.5771C1.37911 41.6991 1.95767 43.335 1.62979 53.3886C1.30193 63.4418 1.90699 64.4999 1.98745 74.5184C2.06791 84.5369 1.73406 97.1833 1.76174 103.223C1.78943 109.262 1.85991 117.373 1.78006 125.935C1.70021 134.496 1.90178 145.065 1.7593 154.516C1.61683 163.966 1.43689 177.327 1.31631 183.499C1.19573 189.672 1.16854 191.176 1.24221 197.117C1.28456 200.532 1.24464 205.237 1.08889 209.211C1.01051 211.211 0.901368 210.757 0.849148 208.744C0.772789 205.801 0.823801 203.384 0.687404 201.868C0.41481 198.837 0.310238 197.549 0.468899 193.723C0.62754 189.897 0.267002 188.094 0.308498 185.864C0.350015 183.634 0.562676 183.671 0.39883 172.33C0.234979 160.99 0.193171 154.773 0.153835 150.479C0.1145 146.184 0.299067 137.217 0.232448 130.218C0.165834 123.219 0.226886 108.99 0.117824 103.255C0.00877087 97.5191 0.246803 97.5073 0.379787 92.8724Z" fill="#62206E"/>
</svg>
