<svg width="39" height="39" viewBox="0 0 39 39" fill="none" xmlns="http://www.w3.org/2000/svg">
<rect x="0.0917969" y="0.501953" width="38.4043" height="38.4043" rx="19.2021" fill="#2B0E30"/>
<path d="M23.9883 10.337C23.9883 10.1908 23.9433 10.0506 23.8633 9.94725C23.7833 9.84388 23.6747 9.78581 23.5616 9.78581H21.428C20.3536 9.71669 19.3018 10.1996 18.5022 11.1291C17.7027 12.0586 17.2204 13.3591 17.1609 14.7464V17.7227H15.0273C14.9141 17.7227 14.8056 17.7808 14.7256 17.8841C14.6455 17.9875 14.6006 18.1277 14.6006 18.2739V21.14C14.6006 21.2861 14.6455 21.4263 14.7256 21.5297C14.8056 21.6331 14.9141 21.6911 15.0273 21.6911H17.1609V29.0768C17.1609 29.223 17.2058 29.3632 17.2859 29.4666C17.3659 29.5699 17.4744 29.628 17.5876 29.628H20.1479C20.261 29.628 20.3696 29.5699 20.4496 29.4666C20.5296 29.3632 20.5746 29.223 20.5746 29.0768V21.6911H22.8106C22.9055 21.6929 22.9981 21.6537 23.0738 21.5799C23.1496 21.506 23.2041 21.4016 23.2287 21.2833L23.8432 18.4172C23.8602 18.3357 23.8625 18.2503 23.8499 18.1676C23.8373 18.0848 23.8102 18.0069 23.7706 17.9398C23.731 17.8727 23.6801 17.8183 23.6216 17.7806C23.5632 17.743 23.4989 17.7232 23.4336 17.7227H20.5746V14.7464C20.5958 14.4735 20.695 14.2207 20.8528 14.0372C21.0106 13.8538 21.2157 13.7529 21.428 13.7543H23.5616C23.6747 13.7543 23.7833 13.6962 23.8633 13.5928C23.9433 13.4895 23.9883 13.3493 23.9883 13.2031V10.337Z" fill="white"/>
</svg>
