<svg width="39" height="39" viewBox="0 0 39 39" fill="none" xmlns="http://www.w3.org/2000/svg">
<rect x="0.50293" y="0.501953" width="38.4043" height="38.4043" rx="19.2021" fill="#2B0E30"/>
<path d="M15.8382 10.3164C12.8077 10.3164 10.3174 12.8033 10.3174 15.8372V23.571C10.3174 26.6015 12.8043 29.0918 15.8382 29.0918H23.572C26.6025 29.0918 29.0928 26.6049 29.0928 23.571V15.8381C29.0928 12.8067 26.6059 10.3164 23.572 10.3164H15.8382ZM15.8382 12.0233H23.572C24.073 12.0226 24.5693 12.1208 25.0323 12.3122C25.4953 12.5036 25.9161 12.7845 26.2704 13.1388C26.6246 13.4931 26.9056 13.9139 27.097 14.3769C27.2884 14.8399 27.3866 15.3362 27.3859 15.8372V23.571C27.3866 24.072 27.2884 24.5683 27.097 25.0313C26.9056 25.4944 26.6246 25.9151 26.2704 26.2694C25.9161 26.6237 25.4953 26.9046 25.0323 27.096C24.5693 27.2874 24.073 27.3856 23.572 27.385H15.8391C15.3379 27.3857 14.8416 27.2876 14.3785 27.0963C13.9153 26.9049 13.4945 26.624 13.1401 26.2697C12.7857 25.9154 12.5048 25.4946 12.3133 25.0315C12.1218 24.5684 12.0236 24.0721 12.0242 23.571V15.8381C12.0235 15.337 12.1216 14.8406 12.3129 14.3775C12.5043 13.9143 12.7852 13.4935 13.1395 13.1391C13.4938 12.7848 13.9146 12.5038 14.3777 12.3123C14.8408 12.1208 15.3371 12.0226 15.8382 12.0233ZM24.7454 13.8906C24.6438 13.8901 24.543 13.9098 24.449 13.9485C24.355 13.9872 24.2696 14.0441 24.1977 14.116C24.1258 14.1879 24.0689 14.2733 24.0302 14.3673C23.9915 14.4614 23.9718 14.5621 23.9722 14.6638C23.9722 15.0939 24.3153 15.437 24.7454 15.437C24.8472 15.4375 24.948 15.4179 25.0421 15.3793C25.1362 15.3406 25.2218 15.2837 25.2937 15.2118C25.3657 15.1399 25.4227 15.0545 25.4615 14.9604C25.5002 14.8663 25.5199 14.7655 25.5195 14.6638C25.5199 14.562 25.5002 14.4612 25.4615 14.3671C25.4227 14.2731 25.3657 14.1876 25.2937 14.1157C25.2218 14.0438 25.1362 13.9869 25.0421 13.9483C24.948 13.9096 24.8472 13.89 24.7454 13.8906ZM19.7051 14.5835C16.8888 14.5835 14.5845 16.8878 14.5845 19.7041C14.5845 22.5204 16.8888 24.8247 19.7051 24.8247C22.5214 24.8247 24.8257 22.5204 24.8257 19.7041C24.8257 16.8878 22.5214 14.5835 19.7051 14.5835ZM19.7051 16.2904C21.6023 16.2904 23.1188 17.8069 23.1188 19.7041C23.1188 21.6013 21.6023 23.1178 19.7051 23.1178C17.8079 23.1178 16.2914 21.6013 16.2914 19.7041C16.2914 17.8069 17.8079 16.2904 19.7051 16.2904Z" fill="white"/>
</svg>
