<svg width="20" height="27" viewBox="0 0 20 27" fill="none" xmlns="http://www.w3.org/2000/svg">
<path d="M16.8612 15.1577C16.8612 20.5366 11.352 23.8503 10.2071 24.4815C10.1437 24.5165 10.0724 24.5348 9.99998 24.5348C9.92755 24.5348 9.8563 24.5165 9.79287 24.4815C8.64712 23.8503 3.13965 20.5366 3.13965 15.1577C3.13965 10.8697 5.71243 7.86816 10.0004 7.86816C14.2884 7.86816 16.8612 10.8697 16.8612 15.1577Z" stroke="#170F49" stroke-width="1.4" stroke-linecap="round" stroke-linejoin="round"/>
<path d="M6.57031 14.7282C6.57031 15.638 6.93173 16.5106 7.57505 17.1539C8.21837 17.7972 9.0909 18.1586 10.0007 18.1586C10.9105 18.1586 11.783 17.7972 12.4263 17.1539C13.0697 16.5106 13.4311 15.638 13.4311 14.7282C13.4311 13.8184 13.0697 12.9459 12.4263 12.3026C11.783 11.6593 10.9105 11.2979 10.0007 11.2979C9.0909 11.2979 8.21837 11.6593 7.57505 12.3026C6.93173 12.9459 6.57031 13.8184 6.57031 14.7282V14.7282Z" stroke="#170F49" stroke-width="1.4" stroke-linecap="round" stroke-linejoin="round"/>
</svg>
