<svg width="207" height="64" viewBox="0 0 207 64" fill="none" xmlns="http://www.w3.org/2000/svg">
<rect x="1.5" y="1.5" width="61" height="61" rx="14.5" stroke="white" stroke-width="3"/>
<path d="M46.5001 23C46.9001 22.2 46.3334 17 46.0001 14.5C36.0001 15.3 35.5001 28.5 36.5001 35C37.0001 35.5 44.0001 38 46.0001 36.5C47.6001 35.3 47.5001 30.6667 47.0001 29C47.5001 29 48.5001 28 48.5001 27C48.5001 26.2 47.1668 24 46.5001 23Z" fill="#F3AFAF"/>
<path d="M17.5 20.9999C21.5 5.49979 37.5 3.49956 47 14C44.3333 17.3334 38.7 25 37.5 29C37.3333 31.6667 37.9 37.8 41.5 41C46 45 49.5 48.5 51 53.5C52.2 57.5 51.8333 62.1667 51.5 64H10.5L9.5 61.4999C9.5 59.4999 10.1667 56.6667 10.5 55.5001C15.5 47.0001 17.5 33.9999 17.5 20.9999Z" fill="white"/>
<path d="M29.7256 48.7714C30.6682 48.1381 31.8012 47.9055 32.8232 48.0341C33.9099 48.1709 34.9291 48.7274 35.4248 49.7187C35.9255 50.72 35.8296 52.0375 34.9521 53.5605C34.0763 55.0804 32.3972 56.857 29.6201 58.8564C29.4862 58.9525 29.3104 58.965 29.164 58.8906L29.1074 58.9218C26.3302 56.9224 24.6512 55.1458 23.7754 53.6259C22.8978 52.1029 22.802 50.7855 23.3027 49.7841C23.7984 48.7928 24.8176 48.2363 25.9043 48.0995C26.9263 47.9709 28.0592 48.2035 29.0019 48.8368L29.1884 48.9687L29.3535 49.0927L29.3623 49.2724L29.3642 49.2343C29.3689 49.1361 29.4061 49.0431 29.4687 48.9697L29.539 48.9032L29.7256 48.7714Z" fill="#F3AFAF"/>
<path d="M31.4879 35.9709C28.4879 32.9709 26.7705 25.8783 26 23C26 23 27.9002 26.4045 28.9742 28.9429C30.0481 31.4813 31.4879 35.9709 31.4879 35.9709Z" fill="#62206E"/>
<path d="M37.8613 20C37.8613 20 38.5174 23.8433 38.6833 26.5945L37.596 29.0054C37.3485 25.599 37.7111 21.9115 37.8613 20Z" fill="#62206E"/>
<path d="M95.6812 21.56V42.5H91.4812V33.59H82.5112V42.5H78.3112V21.56H82.5112V30.17H91.4812V21.56H95.6812ZM115.265 33.83C115.265 34.43 115.225 34.97 115.145 35.45H102.995C103.095 36.65 103.515 37.59 104.255 38.27C104.995 38.95 105.905 39.29 106.985 39.29C108.545 39.29 109.655 38.62 110.315 37.28H114.845C114.365 38.88 113.445 40.2 112.085 41.24C110.725 42.26 109.055 42.77 107.075 42.77C105.475 42.77 104.035 42.42 102.755 41.72C101.495 41 100.505 39.99 99.7851 38.69C99.0851 37.39 98.7351 35.89 98.7351 34.19C98.7351 32.47 99.0851 30.96 99.7851 29.66C100.485 28.36 101.465 27.36 102.725 26.66C103.985 25.96 105.435 25.61 107.075 25.61C108.655 25.61 110.065 25.95 111.305 26.63C112.565 27.31 113.535 28.28 114.215 29.54C114.915 30.78 115.265 32.21 115.265 33.83ZM110.915 32.63C110.895 31.55 110.505 30.69 109.745 30.05C108.985 29.39 108.055 29.06 106.955 29.06C105.915 29.06 105.035 29.38 104.315 30.02C103.615 30.64 103.185 31.51 103.025 32.63H110.915ZM122.531 28.46C123.071 27.58 123.771 26.89 124.631 26.39C125.511 25.89 126.511 25.64 127.631 25.64V30.05H126.521C125.201 30.05 124.201 30.36 123.521 30.98C122.861 31.6 122.531 32.68 122.531 34.22V42.5H118.331V25.88H122.531V28.46Z" fill="white"/>
<path d="M137.78 21.56C139.98 21.56 141.91 21.99 143.57 22.85C145.25 23.71 146.54 24.94 147.44 26.54C148.36 28.12 148.82 29.96 148.82 32.06C148.82 34.16 148.36 36 147.44 37.58C146.54 39.14 145.25 40.35 143.57 41.21C141.91 42.07 139.98 42.5 137.78 42.5H130.46V21.56H137.78ZM137.63 38.93C139.83 38.93 141.53 38.33 142.73 37.13C143.93 35.93 144.53 34.24 144.53 32.06C144.53 29.88 143.93 28.18 142.73 26.96C141.53 25.72 139.83 25.1 137.63 25.1H134.66V38.93H137.63ZM167.414 33.83C167.414 34.43 167.374 34.97 167.294 35.45H155.144C155.244 36.65 155.664 37.59 156.404 38.27C157.144 38.95 158.054 39.29 159.134 39.29C160.694 39.29 161.804 38.62 162.464 37.28H166.994C166.514 38.88 165.594 40.2 164.234 41.24C162.874 42.26 161.204 42.77 159.224 42.77C157.624 42.77 156.184 42.42 154.904 41.72C153.644 41 152.654 39.99 151.934 38.69C151.234 37.39 150.884 35.89 150.884 34.19C150.884 32.47 151.234 30.96 151.934 29.66C152.634 28.36 153.614 27.36 154.874 26.66C156.134 25.96 157.584 25.61 159.224 25.61C160.804 25.61 162.214 25.95 163.454 26.63C164.714 27.31 165.684 28.28 166.364 29.54C167.064 30.78 167.414 32.21 167.414 33.83ZM163.064 32.63C163.044 31.55 162.654 30.69 161.894 30.05C161.134 29.39 160.204 29.06 159.104 29.06C158.064 29.06 157.184 29.38 156.464 30.02C155.764 30.64 155.334 31.51 155.174 32.63H163.064ZM185.929 33.83C185.929 34.43 185.889 34.97 185.809 35.45H173.659C173.759 36.65 174.179 37.59 174.919 38.27C175.659 38.95 176.569 39.29 177.649 39.29C179.209 39.29 180.319 38.62 180.979 37.28H185.509C185.029 38.88 184.109 40.2 182.749 41.24C181.389 42.26 179.719 42.77 177.739 42.77C176.139 42.77 174.699 42.42 173.419 41.72C172.159 41 171.169 39.99 170.449 38.69C169.749 37.39 169.399 35.89 169.399 34.19C169.399 32.47 169.749 30.96 170.449 29.66C171.149 28.36 172.129 27.36 173.389 26.66C174.649 25.96 176.099 25.61 177.739 25.61C179.319 25.61 180.729 25.95 181.969 26.63C183.229 27.31 184.199 28.28 184.879 29.54C185.579 30.78 185.929 32.21 185.929 33.83ZM181.579 32.63C181.559 31.55 181.169 30.69 180.409 30.05C179.649 29.39 178.719 29.06 177.619 29.06C176.579 29.06 175.699 29.38 174.979 30.02C174.279 30.64 173.849 31.51 173.689 32.63H181.579ZM198.205 25.64C200.185 25.64 201.785 26.27 203.005 27.53C204.225 28.77 204.835 30.51 204.835 32.75V42.5H200.635V33.32C200.635 32 200.305 30.99 199.645 30.29C198.985 29.57 198.085 29.21 196.945 29.21C195.785 29.21 194.865 29.57 194.185 30.29C193.525 30.99 193.195 32 193.195 33.32V42.5H188.995V25.88H193.195V27.95C193.755 27.23 194.465 26.67 195.325 26.27C196.205 25.85 197.165 25.64 198.205 25.64Z" fill="#F3AFAF"/>
</svg>
