<svg width="207" height="65" viewBox="0 0 207 65" fill="none" xmlns="http://www.w3.org/2000/svg">
<g clip-path="url(#clip0_171_830)">
<path d="M46.5001 23.502C46.9001 22.702 46.3334 17.502 46.0001 15.002C36.0001 15.802 35.5001 29.002 36.5001 35.502C37.0001 36.002 44.0001 38.502 46.0001 37.002C47.6001 35.802 47.5001 31.1686 47.0001 29.502C47.5001 29.502 48.5001 28.502 48.5001 27.502C48.5001 26.702 47.1668 24.502 46.5001 23.502Z" fill="#F3AFAF"/>
<path d="M17.5 21.5018C21.5 6.00174 37.5 4.00151 47 14.502C44.3333 17.8353 38.7 25.502 37.5 29.502C37.3333 32.1686 37.9 38.302 41.5 41.502C46 45.502 49.5 49.002 51 54.002C52.2 58.002 51.8333 62.6686 51.5 64.502H10.5L9.5 62.0018C9.5 60.0018 10.1667 57.1686 10.5 56.002C15.5 47.502 17.5 34.5019 17.5 21.5018Z" fill="#62206E"/>
<path d="M29.7256 49.2734C30.6682 48.64 31.8012 48.4075 32.8232 48.5361C33.9099 48.6728 34.9291 49.2294 35.4248 50.2206C35.9255 51.222 35.8296 52.5395 34.9521 54.0624C34.0763 55.5823 32.3972 57.359 29.6201 59.3583C29.4862 59.4545 29.3104 59.467 29.164 59.3925L29.1074 59.4238C26.3302 57.4243 24.6512 55.6478 23.7754 54.1279C22.8978 52.6049 22.802 51.2874 23.3027 50.2861C23.7984 49.2948 24.8176 48.7383 25.9043 48.6015C26.9263 48.4729 28.0592 48.7054 29.0019 49.3388L29.1884 49.4706L29.3535 49.5947L29.3623 49.7743L29.3642 49.7363C29.3689 49.638 29.4061 49.5451 29.4687 49.4716L29.539 49.4052L29.7256 49.2734Z" fill="#F3AFAF"/>
<path d="M31.4879 36.4728C28.4879 33.4728 26.7705 26.3802 26 23.502C26 23.502 27.9002 26.9064 28.9742 29.4448C30.0481 31.9832 31.4879 36.4728 31.4879 36.4728Z" fill="#D6BCDB"/>
<path d="M37.8613 20.502C37.8613 20.502 38.5174 24.3453 38.6833 27.0965L37.596 29.5074C37.3485 26.1009 37.7111 22.4135 37.8613 20.502Z" fill="#D6BCDB"/>
</g>
<rect x="1.5" y="2.00195" width="61" height="61" rx="14.5" stroke="#62206E" stroke-width="3"/>
<path d="M95.6812 22.062V43.002H91.4812V34.092H82.5112V43.002H78.3112V22.062H82.5112V30.672H91.4812V22.062H95.6812ZM115.265 34.332C115.265 34.932 115.225 35.472 115.145 35.952H102.995C103.095 37.152 103.515 38.092 104.255 38.772C104.995 39.452 105.905 39.792 106.985 39.792C108.545 39.792 109.655 39.122 110.315 37.782H114.845C114.365 39.382 113.445 40.702 112.085 41.742C110.725 42.762 109.055 43.272 107.075 43.272C105.475 43.272 104.035 42.922 102.755 42.222C101.495 41.502 100.505 40.492 99.7851 39.192C99.0851 37.892 98.7351 36.392 98.7351 34.692C98.7351 32.972 99.0851 31.462 99.7851 30.162C100.485 28.862 101.465 27.862 102.725 27.162C103.985 26.462 105.435 26.112 107.075 26.112C108.655 26.112 110.065 26.452 111.305 27.132C112.565 27.812 113.535 28.782 114.215 30.042C114.915 31.282 115.265 32.712 115.265 34.332ZM110.915 33.132C110.895 32.052 110.505 31.192 109.745 30.552C108.985 29.892 108.055 29.562 106.955 29.562C105.915 29.562 105.035 29.882 104.315 30.522C103.615 31.142 103.185 32.012 103.025 33.132H110.915ZM122.531 28.962C123.071 28.082 123.771 27.392 124.631 26.892C125.511 26.392 126.511 26.142 127.631 26.142V30.552H126.521C125.201 30.552 124.201 30.862 123.521 31.482C122.861 32.102 122.531 33.182 122.531 34.722V43.002H118.331V26.382H122.531V28.962Z" fill="#62206E"/>
<path d="M137.78 22.062C139.98 22.062 141.91 22.492 143.57 23.352C145.25 24.212 146.54 25.442 147.44 27.042C148.36 28.622 148.82 30.462 148.82 32.562C148.82 34.662 148.36 36.502 147.44 38.082C146.54 39.642 145.25 40.852 143.57 41.712C141.91 42.572 139.98 43.002 137.78 43.002H130.46V22.062H137.78ZM137.63 39.432C139.83 39.432 141.53 38.832 142.73 37.632C143.93 36.432 144.53 34.742 144.53 32.562C144.53 30.382 143.93 28.682 142.73 27.462C141.53 26.222 139.83 25.602 137.63 25.602H134.66V39.432H137.63ZM167.414 34.332C167.414 34.932 167.374 35.472 167.294 35.952H155.144C155.244 37.152 155.664 38.092 156.404 38.772C157.144 39.452 158.054 39.792 159.134 39.792C160.694 39.792 161.804 39.122 162.464 37.782H166.994C166.514 39.382 165.594 40.702 164.234 41.742C162.874 42.762 161.204 43.272 159.224 43.272C157.624 43.272 156.184 42.922 154.904 42.222C153.644 41.502 152.654 40.492 151.934 39.192C151.234 37.892 150.884 36.392 150.884 34.692C150.884 32.972 151.234 31.462 151.934 30.162C152.634 28.862 153.614 27.862 154.874 27.162C156.134 26.462 157.584 26.112 159.224 26.112C160.804 26.112 162.214 26.452 163.454 27.132C164.714 27.812 165.684 28.782 166.364 30.042C167.064 31.282 167.414 32.712 167.414 34.332ZM163.064 33.132C163.044 32.052 162.654 31.192 161.894 30.552C161.134 29.892 160.204 29.562 159.104 29.562C158.064 29.562 157.184 29.882 156.464 30.522C155.764 31.142 155.334 32.012 155.174 33.132H163.064ZM185.929 34.332C185.929 34.932 185.889 35.472 185.809 35.952H173.659C173.759 37.152 174.179 38.092 174.919 38.772C175.659 39.452 176.569 39.792 177.649 39.792C179.209 39.792 180.319 39.122 180.979 37.782H185.509C185.029 39.382 184.109 40.702 182.749 41.742C181.389 42.762 179.719 43.272 177.739 43.272C176.139 43.272 174.699 42.922 173.419 42.222C172.159 41.502 171.169 40.492 170.449 39.192C169.749 37.892 169.399 36.392 169.399 34.692C169.399 32.972 169.749 31.462 170.449 30.162C171.149 28.862 172.129 27.862 173.389 27.162C174.649 26.462 176.099 26.112 177.739 26.112C179.319 26.112 180.729 26.452 181.969 27.132C183.229 27.812 184.199 28.782 184.879 30.042C185.579 31.282 185.929 32.712 185.929 34.332ZM181.579 33.132C181.559 32.052 181.169 31.192 180.409 30.552C179.649 29.892 178.719 29.562 177.619 29.562C176.579 29.562 175.699 29.882 174.979 30.522C174.279 31.142 173.849 32.012 173.689 33.132H181.579ZM198.205 26.142C200.185 26.142 201.785 26.772 203.005 28.032C204.225 29.272 204.835 31.012 204.835 33.252V43.002H200.635V33.822C200.635 32.502 200.305 31.492 199.645 30.792C198.985 30.072 198.085 29.712 196.945 29.712C195.785 29.712 194.865 30.072 194.185 30.792C193.525 31.492 193.195 32.502 193.195 33.822V43.002H188.995V26.382H193.195V28.452C193.755 27.732 194.465 27.172 195.325 26.772C196.205 26.352 197.165 26.142 198.205 26.142Z" fill="#F3AFAF"/>
<defs>
<clipPath id="clip0_171_830">
<rect y="0.501953" width="64" height="64" rx="16" fill="white"/>
</clipPath>
</defs>
</svg>
