<svg width="20" height="21" viewBox="0 0 20 21" fill="none" xmlns="http://www.w3.org/2000/svg">
<path d="M18.3327 6.45215V14.7855C18.3327 15.338 18.1132 15.8679 17.7225 16.2586C17.3318 16.6493 16.8019 16.8688 16.2493 16.8688H3.74935C3.19681 16.8688 2.66691 16.6493 2.27621 16.2586C1.88551 15.8679 1.66602 15.338 1.66602 14.7855V6.45215" stroke="#170F49" stroke-width="1.4" stroke-linecap="round" stroke-linejoin="round"/>
<path d="M18.3327 6.4515C18.3327 5.89896 18.1132 5.36906 17.7225 4.97836C17.3318 4.58766 16.8019 4.36816 16.2493 4.36816H3.74935C3.19681 4.36816 2.66691 4.58766 2.27621 4.97836C1.88551 5.36906 1.66602 5.89896 1.66602 6.4515L8.89518 10.9654C9.22629 11.1723 9.60889 11.2821 9.99935 11.2821C10.3898 11.2821 10.7724 11.1723 11.1035 10.9654L18.3327 6.4515Z" stroke="#170F49" stroke-width="1.4" stroke-linecap="round" stroke-linejoin="round"/>
</svg>
