<svg width="40" height="41" viewBox="0 0 40 41" fill="none" xmlns="http://www.w3.org/2000/svg">
<path d="M9.99967 11.855H18.333C18.775 11.855 19.199 12.0306 19.5115 12.3431C19.8241 12.6557 19.9997 13.0796 19.9997 13.5216C19.9997 13.9637 19.8241 14.3876 19.5115 14.7002C19.199 15.0127 18.775 15.1883 18.333 15.1883H9.99967C9.55765 15.1883 9.13372 15.0127 8.82116 14.7002C8.5086 14.3876 8.33301 13.9637 8.33301 13.5216C8.33301 13.0796 8.5086 12.6557 8.82116 12.3431C9.13372 12.0306 9.55765 11.855 9.99967 11.855ZM21.6663 25.1883H29.9997C30.4417 25.1883 30.8656 25.3639 31.1782 25.6765C31.4907 25.989 31.6663 26.413 31.6663 26.855C31.6663 27.297 31.4907 27.7209 31.1782 28.0335C30.8656 28.3461 30.4417 28.5216 29.9997 28.5216H21.6663C21.2243 28.5216 20.8004 28.3461 20.4878 28.0335C20.1753 27.7209 19.9997 27.297 19.9997 26.855C19.9997 26.413 20.1753 25.989 20.4878 25.6765C20.8004 25.3639 21.2243 25.1883 21.6663 25.1883ZM9.99967 18.5216H29.9997C30.4417 18.5216 30.8656 18.6972 31.1782 19.0098C31.4907 19.3224 31.6663 19.7463 31.6663 20.1883C31.6663 20.6303 31.4907 21.0543 31.1782 21.3668C30.8656 21.6794 30.4417 21.855 29.9997 21.855H9.99967C9.55765 21.855 9.13372 21.6794 8.82116 21.3668C8.5086 21.0543 8.33301 20.6303 8.33301 20.1883C8.33301 19.7463 8.5086 19.3224 8.82116 19.0098C9.13372 18.6972 9.55765 18.5216 9.99967 18.5216Z" fill="white"/>
</svg>
