<svg width="23" height="23" viewBox="0 0 23 23" fill="none" xmlns="http://www.w3.org/2000/svg">
<path d="M5.09436 10.7307C5.03221 10.3302 4.99996 9.91981 4.99996 9.50195C4.99996 5.08367 8.60525 1.50195 13.0526 1.50195C17.4999 1.50195 21.1052 5.08367 21.1052 9.50195C21.1052 10.5 20.9213 11.4554 20.5852 12.3365C20.5154 12.5194 20.4804 12.6109 20.4646 12.6824C20.4489 12.7531 20.4428 12.8029 20.4411 12.8754C20.4394 12.9486 20.4493 13.0291 20.4692 13.1903L20.8717 16.4605C20.9153 16.8145 20.9371 16.9915 20.8782 17.1202C20.8266 17.2329 20.735 17.3225 20.6211 17.3715C20.4911 17.4274 20.3146 17.4015 19.9617 17.3498L16.7765 16.8829C16.6101 16.8585 16.527 16.8463 16.4512 16.8467C16.3763 16.8471 16.3245 16.8527 16.2511 16.8681C16.177 16.8837 16.0823 16.9191 15.893 16.9901C15.0097 17.3209 14.0524 17.502 13.0526 17.502C12.6344 17.502 12.2237 17.4703 11.8227 17.4092M6.63158 21.502C9.59648 21.502 12 19.0395 12 16.002C12 12.9644 9.59648 10.502 6.63158 10.502C3.66668 10.502 1.26316 12.9644 1.26316 16.002C1.26316 16.6125 1.36028 17.1999 1.53955 17.7487C1.61533 17.9807 1.65322 18.0967 1.66566 18.1759C1.67864 18.2586 1.68091 18.3051 1.67608 18.3887C1.67145 18.4687 1.65141 18.5593 1.61134 18.7403L1 21.502L3.9948 21.093C4.15827 21.0706 4.24 21.0595 4.31137 21.0599C4.38652 21.0605 4.42641 21.0645 4.50011 21.0792C4.5701 21.0932 4.67416 21.1299 4.88227 21.2034C5.43059 21.3969 6.01911 21.502 6.63158 21.502Z" stroke="#37123E" stroke-width="2" stroke-linecap="round" stroke-linejoin="round"/>
</svg>
