<svg width="24" height="25" viewBox="0 0 24 25" fill="none" xmlns="http://www.w3.org/2000/svg">
<path d="M6.09436 11.7307C6.03221 11.3302 5.99996 10.9198 5.99996 10.502C5.99996 6.08367 9.60525 2.50195 14.0526 2.50195C18.4999 2.50195 22.1052 6.08367 22.1052 10.502C22.1052 11.5 21.9213 12.4554 21.5852 13.3365C21.5154 13.5194 21.4804 13.6109 21.4646 13.6824C21.4489 13.7531 21.4428 13.8029 21.4411 13.8754C21.4394 13.9486 21.4493 14.0291 21.4692 14.1903L21.8717 17.4605C21.9153 17.8145 21.9371 17.9915 21.8782 18.1202C21.8266 18.2329 21.735 18.3225 21.6211 18.3715C21.4911 18.4274 21.3146 18.4015 20.9617 18.3498L17.7765 17.8829C17.6101 17.8585 17.527 17.8463 17.4512 17.8467C17.3763 17.8471 17.3245 17.8527 17.2511 17.8681C17.177 17.8837 17.0823 17.9191 16.893 17.9901C16.0097 18.3209 15.0524 18.502 14.0526 18.502C13.6344 18.502 13.2237 18.4703 12.8227 18.4092M7.63158 22.502C10.5965 22.502 13 20.0395 13 17.002C13 13.9644 10.5965 11.502 7.63158 11.502C4.66668 11.502 2.26316 13.9644 2.26316 17.002C2.26316 17.6125 2.36028 18.1999 2.53955 18.7487C2.61533 18.9807 2.65322 19.0967 2.66566 19.1759C2.67864 19.2586 2.68091 19.3051 2.67608 19.3887C2.67145 19.4687 2.65141 19.5593 2.61134 19.7403L2 22.502L4.9948 22.093C5.15827 22.0706 5.24 22.0595 5.31137 22.0599C5.38652 22.0605 5.42641 22.0645 5.50011 22.0792C5.5701 22.0932 5.67416 22.1299 5.88227 22.2034C6.43059 22.3969 7.01911 22.502 7.63158 22.502Z" stroke="white" stroke-width="2" stroke-linecap="round" stroke-linejoin="round"/>
</svg>
