<svg width="286" height="75" viewBox="0 0 286 75" fill="none" xmlns="http://www.w3.org/2000/svg">
<g filter="url(#filter0_d_170_726)">
<rect x="24" y="2.52344" width="70" height="70" rx="35" fill="white"/>
<rect x="24.5833" y="3.10677" width="68.8333" height="68.8333" rx="34.4167" stroke="#62206E" stroke-width="1.16667"/>
<path d="M50.346 46.8164L50.106 37.3364H52.266C53.906 37.3364 55.446 37.2364 56.886 37.0364C58.366 36.8364 59.666 36.4564 60.786 35.8964C61.906 35.2964 62.786 34.4564 63.426 33.3764C64.106 32.2564 64.446 30.8164 64.446 29.0564C64.446 27.4964 64.126 26.1764 63.486 25.0964C62.846 23.9764 61.926 23.1364 60.726 22.5764C59.566 21.9764 58.226 21.6764 56.706 21.6764C55.146 21.6764 53.766 21.9764 52.566 22.5764C51.406 23.1364 50.506 23.9564 49.866 25.0364C49.226 26.0764 48.906 27.3364 48.906 28.8164H43.206C43.206 26.4164 43.766 24.2964 44.886 22.4564C46.006 20.6164 47.586 19.1964 49.626 18.1964C51.666 17.1564 54.026 16.6364 56.706 16.6364C59.346 16.6364 61.686 17.1364 63.726 18.1364C65.766 19.1364 67.366 20.5564 68.526 22.3964C69.686 24.2364 70.266 26.4564 70.266 29.0564C70.266 31.9364 69.646 34.2964 68.406 36.1364C67.166 37.9364 65.446 39.2764 63.246 40.1564C61.086 40.9964 58.586 41.4164 55.746 41.4164L55.626 46.8164H50.346ZM52.986 59.6564C51.826 59.6564 50.866 59.2964 50.106 58.5764C49.386 57.8164 49.026 56.9164 49.026 55.8764C49.026 54.7964 49.386 53.8964 50.106 53.1764C50.866 52.4164 51.826 52.0364 52.986 52.0364C54.146 52.0364 55.086 52.4164 55.806 53.1764C56.526 53.8964 56.886 54.7964 56.886 55.8764C56.886 56.9164 56.526 57.8164 55.806 58.5764C55.086 59.2964 54.146 59.6564 52.986 59.6564Z" fill="#62206E"/>
</g>
<g filter="url(#filter1_d_170_726)">
<rect x="66" y="2.52344" width="70" height="70" rx="35" fill="#62206E"/>
<rect x="66.5833" y="3.10677" width="68.8333" height="68.8333" rx="34.4167" stroke="#62206E" stroke-width="1.16667"/>
<path d="M92.346 46.8164L92.106 37.3364H94.266C95.906 37.3364 97.446 37.2364 98.886 37.0364C100.366 36.8364 101.666 36.4564 102.786 35.8964C103.906 35.2964 104.786 34.4564 105.426 33.3764C106.106 32.2564 106.446 30.8164 106.446 29.0564C106.446 27.4964 106.126 26.1764 105.486 25.0964C104.846 23.9764 103.926 23.1364 102.726 22.5764C101.566 21.9764 100.226 21.6764 98.706 21.6764C97.146 21.6764 95.766 21.9764 94.566 22.5764C93.406 23.1364 92.506 23.9564 91.866 25.0364C91.226 26.0764 90.906 27.3364 90.906 28.8164H85.206C85.206 26.4164 85.766 24.2964 86.886 22.4564C88.006 20.6164 89.586 19.1964 91.626 18.1964C93.666 17.1564 96.026 16.6364 98.706 16.6364C101.346 16.6364 103.686 17.1364 105.726 18.1364C107.766 19.1364 109.366 20.5564 110.526 22.3964C111.686 24.2364 112.266 26.4564 112.266 29.0564C112.266 31.9364 111.646 34.2964 110.406 36.1364C109.166 37.9364 107.446 39.2764 105.246 40.1564C103.086 40.9964 100.586 41.4164 97.746 41.4164L97.626 46.8164H92.346ZM94.986 59.6564C93.826 59.6564 92.866 59.2964 92.106 58.5764C91.386 57.8164 91.026 56.9164 91.026 55.8764C91.026 54.7964 91.386 53.8964 92.106 53.1764C92.866 52.4164 93.826 52.0364 94.986 52.0364C96.146 52.0364 97.086 52.4164 97.806 53.1764C98.526 53.8964 98.886 54.7964 98.886 55.8764C98.886 56.9164 98.526 57.8164 97.806 58.5764C97.086 59.2964 96.146 59.6564 94.986 59.6564Z" fill="white"/>
</g>
<g filter="url(#filter2_d_170_726)">
<rect x="108" y="2.52344" width="70" height="70" rx="35" fill="white"/>
<rect x="108.583" y="3.10677" width="68.8333" height="68.8333" rx="34.4167" stroke="#62206E" stroke-width="1.16667"/>
<path d="M134.346 46.8164L134.106 37.3364H136.266C137.906 37.3364 139.446 37.2364 140.886 37.0364C142.366 36.8364 143.666 36.4564 144.786 35.8964C145.906 35.2964 146.786 34.4564 147.426 33.3764C148.106 32.2564 148.446 30.8164 148.446 29.0564C148.446 27.4964 148.126 26.1764 147.486 25.0964C146.846 23.9764 145.926 23.1364 144.726 22.5764C143.566 21.9764 142.226 21.6764 140.706 21.6764C139.146 21.6764 137.766 21.9764 136.566 22.5764C135.406 23.1364 134.506 23.9564 133.866 25.0364C133.226 26.0764 132.906 27.3364 132.906 28.8164H127.206C127.206 26.4164 127.766 24.2964 128.886 22.4564C130.006 20.6164 131.586 19.1964 133.626 18.1964C135.666 17.1564 138.026 16.6364 140.706 16.6364C143.346 16.6364 145.686 17.1364 147.726 18.1364C149.766 19.1364 151.366 20.5564 152.526 22.3964C153.686 24.2364 154.266 26.4564 154.266 29.0564C154.266 31.9364 153.646 34.2964 152.406 36.1364C151.166 37.9364 149.446 39.2764 147.246 40.1564C145.086 40.9964 142.586 41.4164 139.746 41.4164L139.626 46.8164H134.346ZM136.986 59.6564C135.826 59.6564 134.866 59.2964 134.106 58.5764C133.386 57.8164 133.026 56.9164 133.026 55.8764C133.026 54.7964 133.386 53.8964 134.106 53.1764C134.866 52.4164 135.826 52.0364 136.986 52.0364C138.146 52.0364 139.086 52.4164 139.806 53.1764C140.526 53.8964 140.886 54.7964 140.886 55.8764C140.886 56.9164 140.526 57.8164 139.806 58.5764C139.086 59.2964 138.146 59.6564 136.986 59.6564Z" fill="#62206E"/>
</g>
<g filter="url(#filter3_d_170_726)">
<rect x="150" y="2.52344" width="70" height="70" rx="35" fill="#62206E"/>
<rect x="150.583" y="3.10677" width="68.8333" height="68.8333" rx="34.4167" stroke="#62206E" stroke-width="1.16667"/>
<path d="M176.346 46.8164L176.106 37.3364H178.266C179.906 37.3364 181.446 37.2364 182.886 37.0364C184.366 36.8364 185.666 36.4564 186.786 35.8964C187.906 35.2964 188.786 34.4564 189.426 33.3764C190.106 32.2564 190.446 30.8164 190.446 29.0564C190.446 27.4964 190.126 26.1764 189.486 25.0964C188.846 23.9764 187.926 23.1364 186.726 22.5764C185.566 21.9764 184.226 21.6764 182.706 21.6764C181.146 21.6764 179.766 21.9764 178.566 22.5764C177.406 23.1364 176.506 23.9564 175.866 25.0364C175.226 26.0764 174.906 27.3364 174.906 28.8164H169.206C169.206 26.4164 169.766 24.2964 170.886 22.4564C172.006 20.6164 173.586 19.1964 175.626 18.1964C177.666 17.1564 180.026 16.6364 182.706 16.6364C185.346 16.6364 187.686 17.1364 189.726 18.1364C191.766 19.1364 193.366 20.5564 194.526 22.3964C195.686 24.2364 196.266 26.4564 196.266 29.0564C196.266 31.9364 195.646 34.2964 194.406 36.1364C193.166 37.9364 191.446 39.2764 189.246 40.1564C187.086 40.9964 184.586 41.4164 181.746 41.4164L181.626 46.8164H176.346ZM178.986 59.6564C177.826 59.6564 176.866 59.2964 176.106 58.5764C175.386 57.8164 175.026 56.9164 175.026 55.8764C175.026 54.7964 175.386 53.8964 176.106 53.1764C176.866 52.4164 177.826 52.0364 178.986 52.0364C180.146 52.0364 181.086 52.4164 181.806 53.1764C182.526 53.8964 182.886 54.7964 182.886 55.8764C182.886 56.9164 182.526 57.8164 181.806 58.5764C181.086 59.2964 180.146 59.6564 178.986 59.6564Z" fill="white"/>
</g>
<g filter="url(#filter4_d_170_726)">
<rect x="192" y="2.52344" width="70" height="70" rx="35" fill="white"/>
<rect x="192.583" y="3.10677" width="68.8333" height="68.8333" rx="34.4167" stroke="#62206E" stroke-width="1.16667"/>
<path d="M223.616 53.5264V22.5864H229.776V53.5264H223.616ZM210.386 40.9964V35.1164H243.076V40.9964H210.386Z" fill="#62206E"/>
</g>
<defs>
<filter id="filter0_d_170_726" x="17" y="0.190104" width="77" height="74.6667" filterUnits="userSpaceOnUse" color-interpolation-filters="sRGB">
<feFlood flood-opacity="0" result="BackgroundImageFix"/>
<feColorMatrix in="SourceAlpha" type="matrix" values="0 0 0 0 0 0 0 0 0 0 0 0 0 0 0 0 0 0 127 0" result="hardAlpha"/>
<feOffset dx="-4.66667"/>
<feGaussianBlur stdDeviation="1.16667"/>
<feComposite in2="hardAlpha" operator="out"/>
<feColorMatrix type="matrix" values="0 0 0 0 0 0 0 0 0 0 0 0 0 0 0 0 0 0 0.32 0"/>
<feBlend mode="normal" in2="BackgroundImageFix" result="effect1_dropShadow_170_726"/>
<feBlend mode="normal" in="SourceGraphic" in2="effect1_dropShadow_170_726" result="shape"/>
</filter>
<filter id="filter1_d_170_726" x="59" y="0.190104" width="77" height="74.6667" filterUnits="userSpaceOnUse" color-interpolation-filters="sRGB">
<feFlood flood-opacity="0" result="BackgroundImageFix"/>
<feColorMatrix in="SourceAlpha" type="matrix" values="0 0 0 0 0 0 0 0 0 0 0 0 0 0 0 0 0 0 127 0" result="hardAlpha"/>
<feOffset dx="-4.66667"/>
<feGaussianBlur stdDeviation="1.16667"/>
<feComposite in2="hardAlpha" operator="out"/>
<feColorMatrix type="matrix" values="0 0 0 0 0 0 0 0 0 0 0 0 0 0 0 0 0 0 0.32 0"/>
<feBlend mode="normal" in2="BackgroundImageFix" result="effect1_dropShadow_170_726"/>
<feBlend mode="normal" in="SourceGraphic" in2="effect1_dropShadow_170_726" result="shape"/>
</filter>
<filter id="filter2_d_170_726" x="101" y="0.190104" width="77" height="74.6667" filterUnits="userSpaceOnUse" color-interpolation-filters="sRGB">
<feFlood flood-opacity="0" result="BackgroundImageFix"/>
<feColorMatrix in="SourceAlpha" type="matrix" values="0 0 0 0 0 0 0 0 0 0 0 0 0 0 0 0 0 0 127 0" result="hardAlpha"/>
<feOffset dx="-4.66667"/>
<feGaussianBlur stdDeviation="1.16667"/>
<feComposite in2="hardAlpha" operator="out"/>
<feColorMatrix type="matrix" values="0 0 0 0 0 0 0 0 0 0 0 0 0 0 0 0 0 0 0.32 0"/>
<feBlend mode="normal" in2="BackgroundImageFix" result="effect1_dropShadow_170_726"/>
<feBlend mode="normal" in="SourceGraphic" in2="effect1_dropShadow_170_726" result="shape"/>
</filter>
<filter id="filter3_d_170_726" x="143" y="0.190104" width="77" height="74.6667" filterUnits="userSpaceOnUse" color-interpolation-filters="sRGB">
<feFlood flood-opacity="0" result="BackgroundImageFix"/>
<feColorMatrix in="SourceAlpha" type="matrix" values="0 0 0 0 0 0 0 0 0 0 0 0 0 0 0 0 0 0 127 0" result="hardAlpha"/>
<feOffset dx="-4.66667"/>
<feGaussianBlur stdDeviation="1.16667"/>
<feComposite in2="hardAlpha" operator="out"/>
<feColorMatrix type="matrix" values="0 0 0 0 0 0 0 0 0 0 0 0 0 0 0 0 0 0 0.32 0"/>
<feBlend mode="normal" in2="BackgroundImageFix" result="effect1_dropShadow_170_726"/>
<feBlend mode="normal" in="SourceGraphic" in2="effect1_dropShadow_170_726" result="shape"/>
</filter>
<filter id="filter4_d_170_726" x="185" y="0.190104" width="77" height="74.6667" filterUnits="userSpaceOnUse" color-interpolation-filters="sRGB">
<feFlood flood-opacity="0" result="BackgroundImageFix"/>
<feColorMatrix in="SourceAlpha" type="matrix" values="0 0 0 0 0 0 0 0 0 0 0 0 0 0 0 0 0 0 127 0" result="hardAlpha"/>
<feOffset dx="-4.66667"/>
<feGaussianBlur stdDeviation="1.16667"/>
<feComposite in2="hardAlpha" operator="out"/>
<feColorMatrix type="matrix" values="0 0 0 0 0 0 0 0 0 0 0 0 0 0 0 0 0 0 0.32 0"/>
<feBlend mode="normal" in2="BackgroundImageFix" result="effect1_dropShadow_170_726"/>
<feBlend mode="normal" in="SourceGraphic" in2="effect1_dropShadow_170_726" result="shape"/>
</filter>
</defs>
</svg>
