<svg width="20" height="21" viewBox="0 0 20 21" fill="none" xmlns="http://www.w3.org/2000/svg">
<path d="M12.2519 17.8871L12.261 17.8934C13.0481 18.3946 13.9825 18.6122 14.91 18.5103C15.8374 18.4085 16.7024 17.9932 17.3619 17.3332L17.9349 16.7603C18.0618 16.6334 18.1626 16.4828 18.2313 16.3169C18.3 16.1511 18.3354 15.9734 18.3354 15.7939C18.3354 15.6144 18.3 15.4366 18.2313 15.2708C18.1626 15.105 18.0618 14.9543 17.9349 14.8274L15.5183 12.4127C15.3914 12.2857 15.2408 12.185 15.0749 12.1163C14.9091 12.0476 14.7314 12.0122 14.5519 12.0122C14.3724 12.0122 14.1946 12.0476 14.0288 12.1163C13.863 12.185 13.7123 12.2857 13.5854 12.4127C13.3292 12.6688 12.9817 12.8127 12.6194 12.8127C12.2571 12.8127 11.9097 12.6688 11.6535 12.4127L7.7895 8.54781C7.53336 8.29159 7.38946 7.94412 7.38946 7.58182C7.38946 7.21952 7.53336 6.87206 7.7895 6.61583C7.91647 6.48895 8.01719 6.33829 8.08591 6.17246C8.15463 6.00663 8.19 5.82889 8.19 5.64939C8.19 5.46989 8.15463 5.29215 8.08591 5.12632C8.01719 4.96049 7.91647 4.80983 7.7895 4.68295L5.37385 2.2682C5.11763 2.01206 4.77016 1.86816 4.40786 1.86816C4.04556 1.86816 3.69809 2.01206 3.44187 2.2682L2.86802 2.84115C2.20817 3.50079 1.79311 4.3658 1.69142 5.29327C1.58973 6.22073 1.80749 7.15513 2.30874 7.94208L2.3142 7.95118C4.96139 11.8678 8.33483 15.2406 12.2519 17.8871V17.8871Z" stroke="#170F49" stroke-width="1.4" stroke-linecap="round" stroke-linejoin="round"/>
</svg>
