<svg width="150" height="151" viewBox="0 0 150 151" fill="none" xmlns="http://www.w3.org/2000/svg">
<path d="M60.3001 61.4023L8.94007 61.8823C8.94007 61.8823 7.41008 108.292 27.3901 108.772C47.3701 109.252 65.5801 89.2423 65.5801 89.2423L69.5401 81.1723C69.5101 81.1723 58.9801 80.2123 60.3001 61.4023Z" fill="white"/>
<path d="M60.6602 61.1924H59.2802L55.5602 61.2224L50.0402 61.2824L43.2902 61.3424L35.9402 61.4024L28.4702 61.4624L21.5102 61.5224L15.6602 61.5824L11.4002 61.6724L9.39016 61.7024H9.30016C9.15016 61.7024 8.22016 61.7024 8.19016 62.0024C8.16016 63.2024 8.16016 64.4024 8.16016 65.6324C8.19016 68.6324 8.31016 71.6324 8.55016 74.6024C8.85016 78.4724 9.33016 82.3424 10.0502 86.1524C10.8002 90.0524 11.7902 93.9224 13.3502 97.5824C14.7002 100.732 16.5002 103.822 19.1102 106.042C20.3102 107.062 21.6902 107.872 23.1902 108.382C25.1402 109.042 27.2102 109.102 29.2802 108.982C35.3402 108.712 41.2502 106.792 46.6202 104.062C51.3002 101.632 55.7102 98.6924 59.7602 95.3024C61.9802 93.4724 64.0802 91.5224 66.0602 89.4524C66.5402 88.9424 66.7502 88.2224 67.0502 87.6224L69.6602 82.3124L70.2002 81.2024C70.2602 81.0824 70.0802 81.0524 69.9902 81.0524H69.9302H69.8402C69.6902 81.0224 69.9302 81.0824 69.8402 81.0524C69.5702 80.9924 69.3302 80.9324 69.0902 80.8424C68.2202 80.5724 67.4102 80.1524 66.6902 79.6424C63.9302 77.6924 62.3702 74.5124 61.6202 71.3024C60.8702 68.0924 60.8102 64.7024 61.0202 61.3724C61.0202 61.1924 59.5502 61.2224 59.5202 61.5524C59.1902 66.5324 59.4002 72.1124 62.1002 76.4924C63.3902 78.5624 65.2502 80.2724 67.5602 81.0824C68.0102 81.2624 68.4902 81.3524 68.9702 81.4124L68.7602 81.2624L66.9302 84.9824L65.6102 87.6824C65.3402 88.1924 65.1302 88.7624 64.8302 89.2424C64.5602 89.6324 64.2302 89.9624 63.8702 90.2924C62.8802 91.3124 61.8302 92.2724 60.7802 93.2324C57.2402 96.4424 53.4002 99.2924 49.3202 101.782C44.4302 104.752 39.0602 107.152 33.3902 108.142C31.9802 108.382 30.5402 108.532 29.1002 108.592C28.1402 108.652 27.1502 108.592 26.1902 108.442C24.6902 108.172 23.2502 107.632 21.9602 106.792C19.1702 104.992 17.1902 102.172 15.7202 99.2324C14.0102 95.8124 12.8702 92.0924 12.0302 88.3424C11.1902 84.5024 10.5902 80.6024 10.2302 76.7024C9.93016 73.4924 9.72016 70.2824 9.66016 67.0724C9.63016 65.3924 9.60016 63.7124 9.63016 62.0324C9.63016 61.9724 9.63016 61.8824 9.63016 61.8224L8.52016 62.1224H9.90016L13.6202 62.0924L19.1702 62.0024L25.9202 61.9424L33.2702 61.8824L40.7402 61.8224L47.7002 61.7624L53.5502 61.7024L57.7802 61.6724L59.7902 61.6424H59.8802C60.1502 61.6424 60.6602 61.6424 60.9002 61.4624C61.1402 61.2824 60.8102 61.1924 60.6602 61.1924Z" fill="#2B0E30"/>
<path d="M19.5903 73.3728C18.9003 73.5528 18.3903 74.0928 18.2403 74.7828C18.0603 75.5328 18.2403 76.3128 18.7203 76.9128C19.2003 77.6328 19.9203 78.1428 20.7603 78.4128C21.5403 78.5928 22.3503 78.4128 22.9503 77.9328C23.5203 77.5128 24.2703 76.7328 24.0003 75.9828C23.7603 75.3528 22.8903 74.5128 22.1403 74.7528C21.3903 74.9928 21.4203 75.9828 21.6603 76.5828C21.9903 77.3928 22.6203 78.0528 23.4003 78.4428C24.9903 79.2828 26.5803 78.2928 27.6903 77.1228C28.2603 76.5228 28.7403 75.8028 29.1003 75.0528C29.4003 74.3328 29.7003 73.5228 29.5203 72.7428C29.3703 72.0228 28.7403 71.1228 27.9903 70.9728C27.2403 70.8228 26.9403 71.9328 26.8503 72.4728C26.5803 74.0928 27.4203 75.7428 28.6203 76.7928C30.0603 78.0228 32.0703 78.3828 33.8403 77.6928C35.5203 77.0328 36.9003 75.7428 37.6803 74.0928C37.7703 73.9128 37.5603 73.6728 37.4703 73.5228C37.1103 73.1028 36.5403 72.6228 35.9403 72.7728C35.4903 72.9528 35.1603 73.3728 35.1303 73.8528C34.9203 74.9928 35.5203 76.1028 36.2703 76.9128C37.0203 77.7228 38.0703 78.3228 39.1803 78.1128C40.2303 77.9028 41.1003 77.1828 41.5503 76.2228C41.8203 75.7728 41.8503 75.2028 41.6703 74.7228C41.4603 74.2428 40.8303 73.4928 40.2603 73.6128C40.2003 73.6128 40.1703 73.6428 40.1703 73.7028C39.7203 75.4428 41.4903 77.2728 43.1103 77.5128C44.0703 77.6028 45.0303 77.4528 45.9003 77.0928C46.8303 76.7628 47.7303 76.3128 48.5703 75.7428C48.8103 75.5928 47.8503 74.4528 47.4903 74.6928C46.2303 75.5028 44.7903 76.2228 43.2903 76.4028C42.7803 76.4628 41.9403 76.5228 41.5503 76.1028C41.1603 75.6828 41.1603 75.0528 41.2803 74.5728L41.1903 74.6628C41.5803 74.5728 40.6203 73.7928 40.6203 74.1228C40.6203 74.2128 40.6503 74.2728 40.6503 74.3628C40.6503 74.5428 40.6203 74.7228 40.5603 74.9028C40.4103 75.3228 40.1403 75.7128 39.8103 76.0428C39.2403 76.6728 38.4303 77.0028 37.5903 76.9428C36.9303 76.8528 36.4203 76.3728 36.3003 75.7128C36.1803 75.2928 36.1803 74.8428 36.3303 74.4228C36.3903 74.2428 36.5103 74.0628 36.6603 73.9128C36.7503 73.8528 36.8403 73.7928 36.9303 73.7928C37.2303 73.7328 37.2003 73.9428 36.8403 73.5228L36.6303 72.9528C35.6403 75.0528 33.5703 76.7928 31.1703 76.8528C30.2103 76.8828 29.0103 76.6128 28.4703 75.7428C27.9003 74.7828 27.8103 73.6128 28.2303 72.5928C28.2903 72.4428 28.3503 72.3228 28.4703 72.2028C28.5603 72.0828 28.6803 72.0828 28.7703 71.9928C28.8603 71.9028 28.8603 72.0528 28.5603 71.7828C28.1103 71.3628 28.3503 71.5428 28.3803 71.6628C28.4103 71.7828 28.4403 71.9028 28.4703 72.0528C28.5003 72.6528 28.3803 73.2528 28.1103 73.7928C27.6303 74.9628 26.8203 76.0128 25.8303 76.7928C25.3203 77.2128 24.7203 77.5128 24.0903 77.6028C23.7603 77.6328 23.1603 77.6328 22.8903 77.3628C22.6203 77.0928 22.6203 76.4028 22.8003 76.1028C22.9203 75.9228 23.1003 75.8028 23.3103 75.8028H23.3403C23.5803 75.8628 23.4603 75.6828 22.9203 75.3228C22.9203 75.4128 22.9203 75.4728 22.9203 75.5628C22.8903 75.7428 22.8003 75.8928 22.6803 76.0428C22.2903 76.6128 21.7503 77.0628 21.0903 77.2728C20.6703 77.3928 19.9503 77.4828 19.5903 77.1528C19.2303 76.8228 19.2603 76.1328 19.3803 75.7128C19.5303 75.1428 19.9503 74.6628 20.5503 74.5128C20.8503 74.4228 20.0103 73.3128 19.5903 73.3728Z" fill="#62206E"/>
<path d="M20.9104 91.6423C21.6304 89.6623 22.8304 87.8923 24.4204 86.5123C24.7804 86.2123 25.2304 85.7623 25.6804 85.6123C26.0704 85.4923 26.2504 85.6723 26.3404 86.0023C26.7004 87.0523 27.0004 88.1623 26.8504 89.2723C26.7904 89.7823 26.6104 90.2323 26.3104 90.6523C26.1604 90.8623 25.9804 91.0423 25.7404 91.1623C25.6804 91.1623 25.6204 91.1923 25.5604 91.2223H25.5004L25.6504 91.5523C25.6204 91.4623 25.6204 91.3423 25.5904 91.2523C25.5604 90.2023 26.1304 89.2423 27.0604 88.7623C27.9004 88.2823 28.8904 88.1923 29.8204 88.5223C30.0904 88.6123 30.3304 88.8223 30.5104 89.0623C30.6004 89.4223 30.5704 89.8123 30.3904 90.1723C30.3604 90.2623 30.3004 90.3523 30.2404 90.4423C30.2104 90.4723 30.1804 90.5023 30.1504 90.5623C30.0304 90.6823 30.0604 90.8023 30.3004 90.9823C30.4204 91.4023 30.4804 91.4923 30.5104 91.3123C30.5404 91.1923 30.5704 91.0723 30.6004 90.9523C30.6304 90.8623 30.6904 90.7723 30.7504 90.6823C31.0504 90.2623 31.4704 89.9323 31.9204 89.6923C32.8204 89.2123 33.9004 89.2123 34.8004 89.6623C34.8904 89.6923 34.9504 89.7223 35.0104 89.6623C36.4504 87.2323 39.3604 86.8723 41.9404 86.7823C42.3304 86.7823 41.7904 85.4023 41.4304 85.4323C39.9604 85.4923 38.4304 85.5523 37.0504 86.0923C35.8804 86.5423 34.8904 87.3523 34.2604 88.4323H34.4704C33.3004 87.8023 31.8904 87.8923 30.8404 88.6423C30.3004 88.9723 29.9104 89.4823 29.7604 90.1123C29.6404 90.8023 30.0004 91.7323 30.6604 92.0323H30.7204C31.4404 91.4323 31.5004 90.4123 31.2604 89.5723C30.9604 88.5223 30.2704 87.5323 29.2204 87.1723C27.1804 86.4823 24.8404 88.0423 24.8704 90.2023C24.8704 90.9823 25.5004 93.3223 26.6704 92.4523C27.5104 91.8223 27.7804 90.6223 27.7504 89.6323C27.6904 88.3723 27.4204 87.1423 26.9104 85.9723C26.7304 85.4023 26.4004 84.8923 25.9504 84.5023C25.5004 84.1423 25.0504 84.2623 24.6304 84.5623C22.5904 86.0323 21.0604 88.1023 20.2204 90.4423C20.1304 90.7123 20.3104 91.1023 20.4604 91.3423C20.4904 91.4023 20.8804 91.9423 20.9704 91.6723L20.9104 91.6423Z" fill="#62206E"/>
<path d="M58.7706 108.053L27.3906 108.773C27.3906 108.773 35.5206 107.543 35.2806 96.5628C35.0406 85.5828 36.1506 80.9328 40.3206 79.9428C44.4906 78.9528 58.7706 83.6328 58.7706 108.053Z" fill="#2B0E30"/>
<path d="M58.7399 107.333L55.6199 107.393L48.1499 107.573L39.0599 107.783L31.2599 107.963L28.6499 108.023C28.2599 108.023 27.8099 108.023 27.4199 108.053H27.3599L27.5699 109.493C28.5299 109.313 29.4599 108.953 30.3299 108.443C32.2799 107.303 33.8399 105.593 34.7399 103.523C35.3999 101.993 35.7899 100.343 35.9099 98.6629C36.0899 96.5329 35.9099 94.4029 35.9699 92.2429C35.9999 90.5029 36.1199 88.7929 36.3299 87.0829C36.4199 86.3929 36.5699 85.7029 36.7499 85.0429C36.8399 84.7429 36.8999 84.4729 37.0199 84.1729C37.0499 84.0829 37.0499 84.0829 37.1099 83.9029C37.1699 83.7229 37.2299 83.6329 37.2899 83.5129C37.3799 83.2729 37.4999 83.0629 37.6499 82.8229C37.7099 82.7329 37.7699 82.6429 37.8299 82.5229C37.8899 82.4029 37.8899 82.4029 37.9199 82.3729C37.9499 82.3429 37.8599 82.4329 37.9499 82.3129C38.0999 82.1329 38.2499 81.9529 38.3999 81.8029C38.4899 81.7129 38.5499 81.6529 38.6399 81.5629C38.6699 81.5329 38.6999 81.5029 38.7599 81.4729C38.8199 81.4429 38.9099 81.3529 38.8499 81.4129C38.7899 81.4729 38.9099 81.3829 38.9099 81.3529L39.0599 81.2629C39.1499 81.2029 39.2399 81.1429 39.3299 81.0829C39.5099 80.9929 39.7199 80.8729 39.9299 80.8129C39.9899 80.7829 40.1099 80.7529 39.9899 80.7829L40.1399 80.7229C40.2599 80.6929 40.3499 80.6629 40.4699 80.6329C40.5899 80.6029 40.7099 80.5729 40.8299 80.5729C40.9499 80.5729 41.0399 80.5429 41.1599 80.5429H41.3099H41.3999C41.5499 80.5429 41.2799 80.5429 41.3699 80.5429C41.6399 80.5429 41.9099 80.5429 42.1799 80.5729C42.4799 80.6029 42.7799 80.6329 43.0799 80.6929C43.2299 80.7229 43.4099 80.7529 43.5599 80.7829L43.7999 80.8429C43.8299 80.8429 43.6499 80.8129 43.7699 80.8429L43.8899 80.8729C44.6099 81.0829 45.3299 81.3229 46.0199 81.6529C46.1999 81.7429 46.4099 81.8329 46.5899 81.9229L46.8599 82.0729C46.8299 82.0729 46.9799 82.1329 46.8599 82.0729L47.0399 82.1629C47.4299 82.3729 47.8199 82.6129 48.1799 82.8829C48.5399 83.1529 48.9299 83.4229 49.3199 83.7529C49.4999 83.9029 49.7099 84.0829 49.8899 84.2329L50.0099 84.3529C50.0699 84.4129 49.9799 84.3229 49.9799 84.3229L50.0699 84.4129L50.3399 84.6829C51.1499 85.4629 51.8999 86.3029 52.5599 87.2029C52.6499 87.3229 52.7399 87.4129 52.7999 87.5329C52.8299 87.5929 52.8899 87.6529 52.9199 87.7129C52.9199 87.7129 52.9799 87.8029 52.9499 87.7429L53.0099 87.8329C53.1899 88.1029 53.3399 88.3429 53.5199 88.6129C53.8499 89.1829 54.1799 89.7229 54.4799 90.3229C55.1099 91.5829 55.6799 92.8729 56.0999 94.2229C57.1799 97.6429 57.8099 101.213 57.9899 104.813C58.0499 105.863 58.0799 106.943 58.0799 107.993C58.0799 108.863 59.3999 109.103 59.3999 108.143C59.4299 104.153 58.9799 100.193 58.0499 96.3229C57.3299 93.4129 56.1899 90.6229 54.6599 88.0729C53.4299 86.0329 51.8699 84.2329 50.0699 82.7029C48.6599 81.5329 47.0699 80.6029 45.3599 79.9429C44.0999 79.4329 42.7799 79.1629 41.4299 79.1329C39.8399 79.1029 38.3099 79.7329 37.2299 80.9029C35.5499 82.7629 35.0999 85.4929 34.8599 87.8929C34.6799 89.8429 34.5899 91.7929 34.5899 93.7429C34.5899 95.7829 34.7399 97.8229 34.3799 99.8629C33.9299 102.443 32.8199 104.753 30.7799 106.403L30.6599 106.523C30.5399 106.613 30.6899 106.493 30.5999 106.553L30.2999 106.703C30.1199 106.823 29.9099 106.943 29.7299 107.063C29.3999 107.273 29.0399 107.453 28.6799 107.603C28.5299 107.663 28.3799 107.723 28.2299 107.783L28.1399 107.813C28.0199 107.873 28.2599 107.783 28.1699 107.813L27.9899 107.873C27.8099 107.933 27.5999 107.993 27.4199 108.023C27.3599 108.023 27.2999 108.053 27.2099 108.053C26.4299 108.173 26.6999 109.523 27.4199 109.493L30.5399 109.433L38.0399 109.253L47.1299 109.043L54.9299 108.863C56.1899 108.833 57.4799 108.803 58.7699 108.773H58.8299C59.1599 108.803 59.4599 108.533 59.4899 108.173C59.4899 108.143 59.4899 108.143 59.4899 108.113C59.4299 107.783 59.1299 107.303 58.7399 107.333Z" fill="#2B0E30"/>
<path d="M63.36 130.522L117.78 127.822C117.78 127.822 102.63 123.442 98.46 104.602C94.29 85.7623 94.95 80.9023 87.27 79.9423C79.59 78.9823 40.29 79.9423 40.29 79.9423C40.29 79.9423 50.82 77.2423 51.69 98.9923C52.56 120.742 63.36 130.522 63.36 130.522Z" fill="white"/>
<path d="M63.8097 131.092L65.2497 131.032L69.2097 130.852L75.0597 130.552L82.2297 130.192L90.0597 129.802L97.9497 129.412L105.3 129.052L111.54 128.752L116.01 128.542C116.7 128.512 117.45 128.512 118.14 128.422H118.23C118.5 128.422 118.2 127.972 118.17 127.882C117.99 127.612 117.75 127.402 117.45 127.252C117.06 127.132 116.67 126.982 116.28 126.832L116.01 126.712L115.86 126.652C115.77 126.622 115.86 126.652 115.89 126.652L115.8 126.622C115.56 126.502 115.32 126.412 115.08 126.292C114.51 126.022 113.91 125.692 113.37 125.392C110.22 123.592 107.43 121.192 105.18 118.312C103.62 116.332 102.33 114.172 101.31 111.892C100.02 108.982 99.2397 105.922 98.5797 102.802C97.9197 99.7722 97.3197 96.7422 96.7197 93.7122C96.2697 91.5822 95.8497 89.4822 95.2497 87.3822C94.4397 84.5922 93.1497 81.7122 90.4197 80.3622C88.1997 79.2222 85.5297 79.2222 83.0697 79.1322C79.3197 78.9822 75.5997 78.9521 71.8497 78.9521C67.3797 78.9521 62.8797 78.9821 58.4097 79.0421C54.4797 79.1021 50.5197 79.1621 46.5897 79.2521C44.4597 79.2821 42.3297 79.3421 40.2297 79.4021H39.9297L40.7997 80.5721C41.9997 80.2721 43.2597 80.5122 44.3697 80.9622L44.5497 81.0221L44.6697 81.0822C44.7897 81.1422 44.9097 81.2022 45.0297 81.2622C45.1497 81.3222 45.2997 81.4121 45.4197 81.4721C45.2997 81.4121 45.5397 81.5321 45.4197 81.4721L45.5397 81.5322L45.7497 81.6822C45.8097 81.7422 45.8997 81.7722 45.9597 81.8322C46.0197 81.8922 46.1997 82.0121 46.0197 81.8921C46.1697 82.0121 46.3197 82.1321 46.4397 82.2521C46.4697 82.2821 46.6797 82.4621 46.5897 82.3721C46.4997 82.2821 46.7097 82.4921 46.7397 82.5221L46.9197 82.7021C46.9497 82.7621 47.2197 83.0322 47.0697 82.8822C47.1897 83.0322 47.3397 83.2122 47.4297 83.3622L47.6097 83.6021L47.6397 83.6322L47.7597 83.8421C47.9997 84.2021 48.2397 84.6522 48.4197 84.9822C48.9597 86.0322 49.3797 87.1121 49.7097 88.2521C50.6997 91.4921 51.0897 94.8821 51.2397 98.2421C51.3897 102.052 51.8397 105.862 52.6497 109.582C53.7897 114.952 55.8297 120.112 58.6797 124.792C59.9997 126.892 61.4697 129.052 63.2997 130.762L63.3597 130.822C63.4797 130.912 63.8397 131.242 63.9597 131.002C64.0797 130.762 63.5997 130.312 63.4797 130.192L63.4197 130.132L63.3297 130.042C63.4197 130.132 63.5397 130.222 63.3297 130.042C63.0597 129.772 62.7897 129.472 62.5197 129.172L62.2797 128.872C62.1897 128.752 62.3997 129.022 62.3097 128.902L62.2497 128.812L62.0997 128.632C61.8897 128.362 61.6797 128.092 61.4697 127.822C61.2597 127.552 60.9897 127.192 60.7797 126.862C60.5697 126.532 60.3897 126.292 60.0897 125.842C57.2097 121.432 55.2297 116.452 53.9997 111.322C53.1297 107.602 52.5897 103.822 52.4097 100.012C52.2297 96.5022 51.9597 92.9921 51.0297 89.6021C50.0097 85.9121 48.0897 81.9821 44.5497 80.1221C43.6197 79.6421 42.6297 79.3421 41.5797 79.2521C41.0697 79.1921 40.5597 79.2222 40.0797 79.3122H40.0197C39.6297 79.4022 40.5597 80.4822 40.8897 80.4822L45.3897 80.3921C48.9897 80.3021 52.5897 80.2422 56.2197 80.1822C60.6597 80.1222 65.1297 80.0622 69.5697 80.0622C73.5897 80.0622 77.6397 80.0621 81.6597 80.1521C83.1297 80.1821 84.5697 80.2422 86.0397 80.3322C87.2097 80.3922 88.3497 80.5422 89.4597 80.8122C90.0297 80.9622 90.5997 81.1721 91.1097 81.4421L91.2897 81.5322C91.3197 81.5622 91.5297 81.6821 91.3797 81.5921C91.4997 81.6821 91.6197 81.7422 91.7397 81.8322C91.7697 81.8622 91.9797 82.0122 91.7997 81.8622L91.9497 82.0122L92.0997 82.1322C92.1297 82.1622 92.2197 82.2521 92.0697 82.1021L92.1597 82.1921L92.3097 82.3421C92.3997 82.4621 92.3697 82.4321 92.3397 82.3721C92.4297 82.4921 92.5197 82.6122 92.6397 82.7322C92.7597 82.8522 92.5797 82.6421 92.6697 82.7921L92.7897 82.9721C92.8797 83.1221 92.9697 83.2721 93.0597 83.4221L93.0897 83.5122C93.0297 83.3922 93.0897 83.4822 93.0897 83.5122L93.2097 83.7521C93.2997 83.9321 93.3597 84.0822 93.4497 84.2622C93.5997 84.5922 93.7197 84.9522 93.8697 85.3122C94.4697 87.1422 94.9497 89.0022 95.3397 90.8622C95.9397 93.6222 96.4797 96.4121 97.0497 99.2021C97.7397 102.472 98.3697 105.772 99.4797 108.952C100.38 111.502 101.61 113.932 103.11 116.182C105.45 119.752 108.48 122.812 112.02 125.212C113.88 126.472 115.86 127.522 117.99 128.272C118.08 128.302 118.17 128.332 118.29 128.362L117.51 127.222L116.07 127.282L112.11 127.462L106.26 127.762L99.0897 128.122L91.2597 128.512L83.3697 128.902L76.0197 129.262L69.7797 129.562L65.3097 129.772C64.5897 129.802 63.8697 129.802 63.1797 129.892H63.0897C62.8197 129.892 63.1497 130.432 63.2097 130.492C63.2097 130.732 63.5097 131.122 63.8097 131.092Z" fill="#2B0E30"/>
<path d="M58.08 88.1928C58.05 90.2328 58.2 92.3028 58.38 94.3428C58.74 98.6028 59.46 102.863 60.75 106.943C61.5 109.373 62.55 111.713 63.87 113.873C64.08 114.203 64.44 114.383 64.83 114.323C65.1 114.293 65.28 114.023 65.22 113.753C65.22 113.693 65.19 113.633 65.16 113.573C62.76 109.853 61.5 105.443 60.66 101.123C60 97.6428 59.61 94.1328 59.52 90.5928C59.49 89.9028 59.49 89.2128 59.49 88.5228C59.46 88.1628 59.19 87.8328 58.83 87.7728C58.53 87.7128 58.08 87.8028 58.08 88.1928Z" fill="#2B0E30"/>
<path d="M58.2601 111.173C59.6101 111.173 60.9301 111.083 62.2801 111.053C64.9501 110.963 67.6501 110.843 70.3201 110.753C73.4101 110.633 76.5301 110.513 79.6201 110.393L87.5701 110.093C88.8301 110.033 90.1201 110.003 91.4101 109.943H91.4701C91.8301 109.913 92.1601 109.763 92.4001 109.493C92.5201 109.403 92.7901 109.013 92.4301 109.043L89.2801 109.163L81.6901 109.463L72.3901 109.823C69.6001 109.913 66.8401 110.033 64.0501 110.123C62.4901 110.183 60.9301 110.243 59.4001 110.273H59.2201C58.8601 110.303 58.5301 110.453 58.2901 110.723C58.1401 110.813 57.8701 111.173 58.2601 111.173Z" fill="#2B0E30"/>
<g opacity="0.09">
<path d="M56.6403 92.002L59.7003 91.972L67.0203 91.912L75.9003 91.822L83.5803 91.762L86.1003 91.732C86.4903 91.732 86.9103 91.762 87.3003 91.732H87.3603C87.6903 91.732 87.4203 91.402 87.3303 91.312C87.0903 91.042 86.7603 90.892 86.4303 90.832L83.3703 90.862L76.0503 90.922L67.1703 91.012L59.4903 91.072L56.9703 91.102C56.5803 91.102 56.1603 91.072 55.7703 91.102H55.7103C55.3803 91.102 55.6503 91.432 55.7403 91.522C55.9503 91.792 56.2803 91.942 56.6403 92.002Z" fill="#2B0E30"/>
<path d="M56.6404 96.9218L59.7004 96.8318L67.0204 96.6218L75.8404 96.3518L83.4904 96.1118C84.7204 96.0818 85.9804 96.0518 87.2104 95.9918H87.2704C87.6004 95.9918 88.0504 95.8718 88.1404 95.4818C88.2304 95.0918 87.8404 94.8818 87.5404 94.8818L84.4804 94.9718L77.1604 95.2118L68.3404 95.4818L60.6904 95.7218C59.4604 95.7518 58.2004 95.7818 56.9704 95.8418H56.9104C56.5804 95.8418 56.1304 95.9618 56.0404 96.3518C55.9504 96.7418 56.3104 96.9218 56.6404 96.9218Z" fill="#2B0E30"/>
<path d="M57.6602 101.482L60.7202 101.362L68.0702 101.122L77.0102 100.822L84.6902 100.552C85.9502 100.522 87.1802 100.492 88.4402 100.432H88.5002C88.6202 100.432 89.1002 100.402 89.0402 100.222C88.9802 100.042 88.2302 100.102 88.1102 100.102L85.0502 100.222L77.7002 100.492L68.7602 100.792L61.0802 101.062C59.8202 101.092 58.5902 101.122 57.3302 101.182H57.2702C57.1502 101.182 56.6702 101.182 56.7602 101.392C56.8502 101.602 57.5402 101.482 57.6602 101.482Z" fill="#2B0E30"/>
<path d="M58.9206 106.882L61.9806 106.732L69.3306 106.342L78.2706 105.862L85.9506 105.442L88.5006 105.292C88.8906 105.262 89.3106 105.292 89.7006 105.232H89.7606C90.0906 105.202 89.8506 104.842 89.7306 104.722C89.4606 104.482 89.1306 104.332 88.7706 104.362L85.6806 104.512L78.3306 104.902L69.3906 105.382L61.6806 105.802L59.1306 105.952C58.7406 105.982 58.3206 105.952 57.9306 106.012H57.9006C57.5706 106.042 57.8106 106.402 57.9306 106.522C58.2006 106.732 58.5606 106.882 58.9206 106.882Z" fill="#2B0E30"/>
<path d="M63.6006 88.9421C63.6006 90.7421 63.6906 92.5421 63.8706 94.3421C64.2006 98.2121 64.9506 102.052 66.0906 105.772C66.8106 108.112 67.8306 110.392 69.0606 112.522C69.4806 113.242 70.7706 112.462 70.3506 111.742C68.1906 108.142 66.9306 104.062 66.1206 99.9821C65.5206 96.8921 65.1606 93.7721 65.0406 90.6221C65.0106 90.0221 65.0106 89.4221 65.0106 88.8221C65.0406 87.8921 63.6306 88.1321 63.6006 88.9421Z" fill="#2B0E30"/>
<path d="M70.0204 88.5222C69.9304 89.9322 69.9304 91.3122 70.0804 92.7222C70.3804 96.3822 71.0704 100.012 72.1804 103.522C73.0504 106.312 74.1304 109.042 75.4204 111.682C75.5404 111.922 75.9304 112.102 76.1704 112.222C76.2304 112.252 76.7704 112.462 76.7104 112.342C74.6104 108.052 73.0804 103.552 72.1204 98.8722C71.5504 96.1722 71.2804 93.4122 71.2504 90.6522C71.2504 90.2022 71.2504 89.7222 71.3104 89.2722C71.3404 89.0922 70.8604 88.8522 70.7404 88.7922C70.6804 88.7322 70.0204 88.4022 70.0204 88.5222Z" fill="#2B0E30"/>
<path d="M83.2504 88.8518C83.3704 90.7418 83.5804 92.6318 83.8204 94.4918C84.3304 98.2418 85.0504 101.992 86.3104 105.532C86.9404 107.422 87.8404 109.222 88.9804 110.842C89.3104 111.262 90.7504 111.082 90.3004 110.482C89.3104 109.072 88.5304 107.542 87.9604 105.922C87.3004 104.122 86.7604 102.262 86.3704 100.402C85.6804 97.2518 85.2004 94.0718 84.9004 90.8618C84.8404 90.2018 84.7804 89.5718 84.7504 88.9118C84.7204 88.3118 83.2204 88.2818 83.2504 88.8518Z" fill="#2B0E30"/>
<path d="M77.04 88.5822C77.04 89.9922 77.16 91.4322 77.34 92.8422C77.76 96.4722 78.51 100.042 79.56 103.522C80.34 106.132 81.3 108.712 82.41 111.202C82.56 111.532 82.77 111.802 83.04 112.042C83.22 112.192 83.31 112.192 83.19 111.922C81.36 107.812 79.98 103.492 79.08 99.0822C78.51 96.4422 78.15 93.7422 78 91.0422C77.97 90.5922 77.94 90.1122 77.97 89.6622C77.97 89.3922 77.67 89.0622 77.49 88.8522C77.46 88.8522 77.04 88.4322 77.04 88.5822Z" fill="#2B0E30"/>
</g>
<path d="M65.61 107.932C65.88 106.762 66.3 105.652 66.87 104.602C67.38 103.552 68.07 102.622 68.91 101.782C69.27 101.422 69.72 101.152 70.23 101.002C70.65 100.942 71.1 101.062 71.4 101.362C71.82 101.692 72.21 102.082 72.66 102.352C73.11 102.622 73.59 102.832 74.07 102.952C75.06 103.192 76.14 103.012 77.01 102.472C77.91 101.872 78.3 100.852 78.45 99.8324C78.6 98.8124 78.51 97.7024 78.9 96.6824C79.23 95.7824 80.01 95.1523 80.85 94.6723C82.77 93.6223 85.26 92.8124 85.83 90.4124C86.01 89.6024 84.54 89.3924 84.39 90.1124C83.94 92.1524 81.81 92.7523 80.19 93.6223C79.29 94.1023 78.39 94.7324 77.82 95.6324C77.22 96.5924 77.16 97.7024 77.07 98.7824C77.01 99.6824 76.95 100.822 76.17 101.452C75.57 101.902 74.76 101.992 74.07 101.662C73.11 101.242 72.51 100.312 71.49 99.9523C70.29 99.5323 69.06 99.9523 68.1 100.702C67.11 101.572 66.27 102.592 65.67 103.792C64.98 104.992 64.47 106.282 64.14 107.632C63.96 108.442 65.46 108.652 65.61 107.932Z" fill="#62206E"/>
<path d="M70.8599 98.9925C70.4699 99.2925 70.2299 99.7125 70.1999 100.192C70.1699 100.403 70.1699 100.613 70.1699 100.823C70.1699 100.943 70.1999 101.093 70.2299 101.213C70.3199 101.423 70.4999 101.573 70.7399 101.633C71.0399 101.723 71.3699 101.693 71.6699 101.573C71.9099 101.483 72.1199 101.303 72.2999 101.123C72.8099 100.583 72.7799 99.7125 72.2399 99.2025C72.1799 99.1425 72.1199 99.0825 72.0599 99.0525C71.9399 98.9925 71.8199 98.9325 71.6999 98.9025C71.5199 98.8425 71.3099 98.8425 71.1299 98.8725C70.9199 98.9025 70.7399 98.9925 70.6199 99.1725C70.4999 99.2925 70.4399 99.4725 70.4399 99.6525C70.4699 99.8325 70.5599 99.9825 70.7099 100.073L70.8599 100.133C70.9799 100.163 71.0999 100.163 71.2199 100.133H71.2499H71.0699C71.0999 100.133 71.1599 100.133 71.1899 100.133L71.0099 100.103C71.0699 100.103 71.1299 100.133 71.1599 100.163L71.0099 100.103C71.0699 100.133 71.1299 100.163 71.1599 100.192L71.0399 100.073C71.0999 100.133 71.1599 100.193 71.2199 100.253L71.0999 100.103C71.1599 100.193 71.1899 100.283 71.2199 100.373L71.1899 100.223C71.2199 100.283 71.2199 100.373 71.2199 100.463V100.313C71.2199 100.373 71.1899 100.463 71.1599 100.523L71.2199 100.373C71.1899 100.433 71.1599 100.493 71.1299 100.553L71.2199 100.403C71.1899 100.463 71.1299 100.493 71.0999 100.553L71.2499 100.433C71.1899 100.463 71.1599 100.523 71.0999 100.553L71.2799 100.463C71.2499 100.493 71.1899 100.493 71.1599 100.523L71.3399 100.463C71.3099 100.493 71.2499 100.493 71.1899 100.493H71.3699C71.3399 100.493 71.2799 100.493 71.2499 100.493L71.4299 100.523C71.3999 100.523 71.3699 100.493 71.3099 100.493L71.4599 100.553L71.4299 100.523L71.5499 100.643C71.5199 100.643 71.5199 100.613 71.5199 100.583L71.6099 100.733C71.6099 100.703 71.5799 100.703 71.5799 100.673L71.6099 100.823C71.5799 100.673 71.5799 100.523 71.6099 100.373V100.523C71.6099 100.343 71.6699 100.133 71.7299 99.9525L71.6699 100.103C71.6999 100.013 71.7299 99.9525 71.7899 99.8625L71.6999 100.013C71.7299 99.9525 71.7599 99.9225 71.8199 99.8925L71.6699 100.013L71.7299 99.9525C71.8799 99.8325 71.9699 99.6825 72.0299 99.5025C72.0599 99.3525 72.0299 99.1725 71.9099 99.0525C71.6099 98.7825 71.1899 98.7825 70.8599 98.9925Z" fill="#2B0E30"/>
<path d="M78.0602 94.612C77.9702 94.672 77.9102 94.7319 77.8502 94.8219C77.8202 94.8819 77.7602 94.942 77.7602 95.032C77.7302 95.122 77.7002 95.242 77.7002 95.332C77.7002 95.512 77.7302 95.662 77.7602 95.812C77.9102 96.232 78.1802 96.592 78.5402 96.832C78.6002 96.862 78.6602 96.8919 78.7502 96.9219C78.7802 96.9519 78.8102 96.9519 78.8702 96.9519C78.9602 96.9819 79.0802 96.9819 79.1702 96.9519C79.2602 96.9219 79.3502 96.892 79.4102 96.832C79.4702 96.772 79.5302 96.7119 79.5902 96.6519C79.6802 96.5019 79.7402 96.3519 79.7402 96.2019C79.7702 95.9319 79.7102 95.6319 79.5902 95.3919C79.5002 95.2119 79.4102 95.062 79.2902 94.912C79.1702 94.792 79.0502 94.672 78.9002 94.582C78.8102 94.522 78.6902 94.492 78.5702 94.462C78.4802 94.432 78.3602 94.432 78.2702 94.462C78.1502 94.492 78.0602 94.522 77.9702 94.582C77.8802 94.642 77.8202 94.7019 77.7302 94.7919C77.7002 94.8519 77.7002 94.9119 77.7002 94.9719C77.7002 95.0619 77.7002 95.122 77.7302 95.212C77.7902 95.392 77.9102 95.5719 78.0302 95.7219C78.1202 95.8419 78.2702 95.9619 78.4202 95.9919H78.5402C78.6002 95.9919 78.6602 95.9619 78.6902 95.8719L78.7202 95.8419L78.6602 95.9019C78.7202 95.8119 78.8102 95.7819 78.9302 95.7219L78.8402 95.7519C78.9302 95.7219 79.0202 95.7219 79.1102 95.7219H78.9902C79.0502 95.7219 79.1102 95.7519 79.1402 95.7519L79.0202 95.6919C79.0502 95.7219 79.0802 95.7219 79.1102 95.7519L78.9902 95.662L79.0502 95.7219L78.9302 95.6019C78.9602 95.6319 78.9602 95.632 78.9602 95.662L78.8402 95.512C78.8402 95.542 78.8702 95.5419 78.8702 95.5719L78.7802 95.3919C78.7802 95.4219 78.8102 95.4519 78.8102 95.4519L78.7502 95.2719C78.7502 95.3019 78.7802 95.332 78.7802 95.362L78.7502 95.212C78.7502 95.272 78.7802 95.302 78.7802 95.362V95.212C78.7802 95.302 78.7802 95.3619 78.7502 95.4519L78.7802 95.332C78.7502 95.422 78.7202 95.5119 78.6302 95.6019L78.6902 95.5419C78.6302 95.6019 78.5702 95.6619 78.4802 95.6919L78.5702 95.662C78.5102 95.662 78.4502 95.662 78.3902 95.662H78.5102C78.4502 95.662 78.4202 95.632 78.3602 95.632L78.4802 95.6919C78.4502 95.6619 78.4202 95.662 78.3902 95.632L78.5102 95.7219C78.4802 95.6919 78.4502 95.692 78.4502 95.662L78.5702 95.782L78.5102 95.7219L78.6302 95.8719C78.6002 95.8419 78.6002 95.842 78.6002 95.812L78.6902 95.9919C78.6902 95.9619 78.6602 95.932 78.6602 95.932L78.7202 96.112C78.7202 96.082 78.6902 96.0519 78.6902 96.0219L78.7202 96.1719C78.7202 96.1419 78.7202 96.0819 78.7202 96.0519V96.2019C78.7202 96.1419 78.7202 96.0819 78.7502 95.9919L78.7202 96.112C78.7502 96.022 78.7802 95.9319 78.8702 95.8719L78.8102 95.932C78.8402 95.902 78.9002 95.8719 78.9302 95.8419C79.0202 95.7819 79.0502 95.602 79.0202 95.512C78.9902 95.332 78.9302 95.1519 78.8102 95.0019C78.7202 94.8519 78.6002 94.702 78.4202 94.612C78.3302 94.582 78.2102 94.552 78.0602 94.612Z" fill="#2B0E30"/>
<path d="M83.8202 89.8423C83.7002 90.2023 83.6702 90.5623 83.7302 90.9223C83.7902 91.2523 83.9702 91.5223 84.2402 91.7323C84.4802 91.9423 84.8702 92.1523 85.2002 92.0323C85.5002 91.8823 85.7402 91.6123 85.8302 91.3123C85.9502 90.9523 85.8602 90.5323 85.6202 90.2323C85.4102 89.9323 85.1102 89.7223 84.7802 89.5723C84.5702 89.4523 84.3002 89.4223 84.0902 89.5123C84.0002 89.5423 83.9702 89.6623 84.0002 89.7523C84.0602 89.9023 84.1502 90.0523 84.2702 90.1423C84.3902 90.2923 84.5702 90.4123 84.7502 90.4723L84.9002 90.5323C84.9902 90.5623 85.0502 90.5623 85.1402 90.5323C85.1702 90.5023 85.2302 90.5023 85.2902 90.5023H85.1702C85.2002 90.5023 85.2302 90.5023 85.2902 90.5023L85.1702 90.4723H85.2302C85.0802 90.4423 85.0802 90.4123 85.1402 90.4423C84.9602 90.3823 84.9902 90.3523 85.0502 90.3823C84.9002 90.2923 84.8702 90.2623 84.9302 90.2923C84.9902 90.3223 84.9302 90.2923 84.8102 90.1723C84.8402 90.2323 84.8402 90.2023 84.7202 90.0823L84.7502 90.1423C84.7502 90.1423 84.6602 89.9923 84.6902 90.0823C84.6902 90.1123 84.7202 90.1123 84.7202 90.1423L84.6602 90.0223C84.6902 90.0823 84.6902 90.1423 84.6902 90.2023V90.0823C84.6902 90.2323 84.6902 90.3523 84.6302 90.5023L84.6602 90.4123C84.5702 90.6223 84.4202 90.8023 84.2402 90.9223L84.3002 90.8623C84.2402 90.9223 84.1502 90.9523 84.0902 90.9523H84.2102H84.1502L84.2702 90.9823C84.2402 90.9823 84.2402 90.9823 84.3002 91.0123C84.4802 91.0723 84.6302 91.1623 84.7502 91.3123L84.9302 91.5223L84.9002 91.4923L84.9602 91.6123C84.9302 91.5523 84.9302 91.4923 84.9302 91.4323V91.5523C84.9002 91.2223 84.9302 90.8923 85.0502 90.5923C85.0802 90.4723 84.9602 90.2923 84.9002 90.2323C84.7802 90.0823 84.6302 89.9323 84.4802 89.8423C84.3602 89.7523 84.2102 89.6923 84.0302 89.6623H83.9102C83.8502 89.6923 83.8202 89.7223 83.7902 89.7823L83.8202 89.8423Z" fill="#2B0E30"/>
<path d="M68.6099 125.273L72.8999 119.603C73.1099 119.303 72.9299 118.943 72.7199 118.733C72.5399 118.553 72.0599 118.283 71.8199 118.583L67.4999 124.283C67.2899 124.583 67.4699 124.943 67.6799 125.153C67.8599 125.333 68.3699 125.603 68.6099 125.273Z" fill="#62206E"/>
<path d="M65.5205 119.872C65.1305 120.352 65.0705 121.012 65.4305 121.522C65.6405 121.822 65.9405 122.062 66.2705 122.152C66.6005 122.242 66.9305 122.212 67.2605 122.092C67.7105 121.912 68.0705 121.522 68.2505 121.042C68.4605 120.502 68.4005 119.902 68.1305 119.392C67.8305 118.822 67.2905 118.432 66.6605 118.342C66.3305 118.312 66.0305 118.552 66.0005 118.882C66.0005 118.912 66.0005 118.942 66.0005 118.972C66.0305 119.362 66.3305 119.692 66.7505 119.722C66.8705 119.722 66.5705 119.662 66.7205 119.722C66.7505 119.722 66.8105 119.752 66.8405 119.752C66.6305 119.692 66.7505 119.722 66.8105 119.752L66.9305 119.842L66.7805 119.722C66.8405 119.782 66.9005 119.842 66.9605 119.902L66.8405 119.752C66.9005 119.842 66.9605 119.902 66.9905 119.992C67.0205 120.082 66.9305 119.812 66.9605 119.932C66.9605 119.962 66.9605 119.962 66.9905 119.992L67.0205 120.052C67.0505 120.172 66.9905 119.902 67.0205 119.992C67.0505 120.082 67.0205 120.082 67.0205 120.142C67.0205 120.202 67.0205 120.232 67.0205 120.232C67.0205 120.232 67.0505 120.052 67.0205 120.172C66.9905 120.262 66.9905 120.382 66.9305 120.472L66.9905 120.322C66.9305 120.442 66.8705 120.562 66.8105 120.652L66.9305 120.502C66.8705 120.592 66.7805 120.682 66.6605 120.772L66.8105 120.652C66.7205 120.712 66.6305 120.742 66.5405 120.772L66.7205 120.712C66.6605 120.742 66.6305 120.742 66.5705 120.742C66.4505 120.772 66.6005 120.742 66.6305 120.742C66.6605 120.742 66.5705 120.742 66.5405 120.742C66.4205 120.712 66.5105 120.742 66.5405 120.742C66.5705 120.742 66.6605 120.772 66.5405 120.742C66.4505 120.712 66.6005 120.772 66.6305 120.772C66.6605 120.772 66.5405 120.712 66.5405 120.712L66.6905 120.832C66.6605 120.802 66.6005 120.742 66.5705 120.712L66.6905 120.862C66.6605 120.832 66.6005 120.682 66.6605 120.802C66.6305 120.622 66.7205 120.922 66.6605 120.802C66.6905 120.982 66.6605 120.742 66.6605 120.742C66.6605 120.742 66.6305 120.922 66.6605 120.832C66.6605 120.802 66.6905 120.772 66.6905 120.742L66.6305 120.892C66.6605 120.832 66.6605 120.802 66.6905 120.742L66.5705 120.892L66.6005 120.862C66.8405 120.562 66.8405 120.142 66.5405 119.872C66.2705 119.722 65.7905 119.572 65.5205 119.872Z" fill="#62206E"/>
<path d="M71.4302 122.903C71.2802 123.713 71.7302 124.523 72.4502 124.853C72.7502 125.003 73.0502 125.093 73.3802 125.153C73.7102 125.183 74.1302 125.213 74.3402 124.913C74.4302 124.733 74.5202 124.523 74.5502 124.313C74.6102 124.073 74.6402 123.833 74.6102 123.593C74.5802 123.353 74.5202 123.143 74.3702 122.963C73.9802 122.543 73.4402 122.303 72.8402 122.303C72.7802 122.303 72.6002 122.333 72.5702 122.423C72.5402 122.513 72.6602 122.603 72.7502 122.663C72.9002 122.753 73.0802 122.843 73.2302 122.873C73.1402 122.843 73.0502 122.813 72.9902 122.783C72.9002 122.723 72.8702 122.723 72.9302 122.753C72.8702 122.663 72.9902 122.783 72.9302 122.753L72.9902 122.813C72.9302 122.753 72.9902 122.843 73.0202 122.843C73.0802 122.963 73.1402 123.113 73.1402 123.263V123.203C73.1702 123.443 73.1402 123.683 73.0802 123.923C73.0502 124.133 72.9902 124.343 72.8702 124.523L72.9002 124.463C72.8702 124.493 72.8402 124.523 72.8102 124.553C72.8402 124.523 72.8402 124.523 72.8102 124.553C72.8702 124.553 72.9002 124.553 72.9602 124.553C73.0802 124.553 73.1102 124.583 73.0502 124.553L73.1702 124.583L73.2902 124.613C73.2302 124.583 73.2602 124.613 73.3802 124.643L73.3202 124.613C73.2602 124.583 73.2902 124.583 73.3802 124.643C73.3502 124.613 73.3202 124.613 73.2902 124.583L73.2002 124.493L73.1102 124.403C73.0802 124.373 73.0802 124.373 73.1102 124.403L73.0802 124.343C73.0502 124.283 72.9902 124.193 72.9602 124.133C72.9002 123.983 72.8402 123.833 72.8402 123.653V123.713C72.8102 123.563 72.8402 123.413 72.8702 123.263C72.9002 123.173 72.7802 123.083 72.6902 123.023C72.3902 122.843 72.0302 122.753 71.6702 122.753C71.6102 122.783 71.4602 122.813 71.4302 122.903Z" fill="#62206E"/>
<path d="M80.1598 119.092C79.6798 119.752 79.6498 120.652 80.0998 121.342C80.5798 122.092 81.5098 122.452 82.3798 122.242C83.3398 122.032 84.1798 121.432 84.6898 120.592C85.1398 119.812 85.1098 118.672 84.1798 118.282C83.3098 117.892 82.2898 118.612 82.2298 119.542C82.1998 120.352 82.6498 121.102 83.3698 121.462C85.1098 122.362 87.0898 121.132 87.8998 119.572C88.3498 118.702 88.5298 117.742 88.3798 116.782C88.2298 115.972 87.8098 115.132 86.9698 114.892C86.5498 114.742 86.0698 114.952 85.8898 115.342C85.2898 116.872 85.4098 118.612 86.2198 120.022C86.9098 121.162 88.3498 122.362 89.7898 122.182C91.4698 121.972 92.1598 119.932 91.8298 118.462C91.6498 117.742 91.2298 116.782 90.3298 117.052C89.5198 117.292 89.3398 118.162 89.5798 118.852C90.2698 120.712 92.4898 121.012 94.1398 120.412C94.4398 120.292 94.8298 120.022 94.7698 119.632C94.7098 119.242 94.2898 119.182 93.9898 119.272C93.2398 119.542 92.4298 119.632 91.7398 119.182C91.4698 119.002 91.2298 118.762 91.0798 118.462C90.9898 118.312 90.9298 118.162 90.8998 118.012C90.8998 117.922 90.9298 117.802 90.8998 117.832L90.5998 118.072L90.5398 118.102L90.1798 118.132C90.0598 118.132 90.2098 118.252 90.2398 118.312C90.2998 118.402 90.3298 118.522 90.3898 118.612C90.4498 118.822 90.5098 119.032 90.5098 119.242C90.5398 119.632 90.4798 120.022 90.3598 120.412C90.2998 120.562 90.2098 120.712 90.0898 120.862C89.9698 120.952 89.8798 120.922 89.6998 120.892C89.3098 120.802 88.9798 120.622 88.6498 120.412C87.1498 119.272 86.5498 117.262 87.2398 115.462L86.1598 115.912C86.9998 116.152 87.1798 117.262 87.0898 118.012C86.9698 118.912 86.5198 120.082 85.5898 120.412C84.8398 120.682 83.6698 120.262 83.6998 119.332C83.6998 119.302 83.7298 119.152 83.7298 119.182C83.7298 119.212 83.3398 119.422 83.3398 119.362C83.3998 119.422 83.4898 119.512 83.5498 119.572C83.6098 119.662 83.6398 119.782 83.6098 119.902C83.5198 120.352 83.2198 120.742 82.7998 120.922C82.3798 121.162 81.8698 121.072 81.5698 120.712C81.3598 120.442 81.1198 119.872 81.3598 119.512C81.8098 118.762 80.5798 118.432 80.1598 119.092Z" fill="#62206E"/>
<path d="M123.9 100.912C123.9 100.912 124.95 95.1521 121.11 91.5821C117.27 88.0121 115.14 91.0121 116.43 94.3421C117.72 97.6721 117.39 104.482 117.39 104.482L123.9 100.912Z" fill="white"/>
<path d="M124.619 100.762C124.829 99.4422 124.829 98.0922 124.589 96.7722C124.169 94.1322 122.729 91.5822 120.359 90.2322C119.339 89.6022 118.049 89.5422 116.969 90.0522C116.039 90.4722 115.439 91.3722 115.379 92.3922C115.289 93.5622 115.769 94.5822 116.069 95.6922C116.339 96.8622 116.519 98.0922 116.609 99.2922C116.759 101.122 116.789 102.952 116.699 104.782C116.699 105.052 117.749 104.662 117.839 104.602L123.539 101.452L124.349 101.002C124.499 100.912 124.799 100.702 124.499 100.612C124.199 100.522 123.749 100.732 123.509 100.852L117.809 104.002L116.999 104.452L118.139 104.272C118.199 102.922 118.199 101.572 118.139 100.222C118.109 99.0522 117.989 97.8822 117.809 96.7122C117.719 96.1722 117.629 95.6322 117.479 95.0922C117.359 94.5822 117.149 94.1022 116.999 93.5922C116.729 92.6622 116.669 91.5822 117.179 90.7122C117.269 90.5922 117.359 90.4422 117.479 90.3522C117.509 90.3222 117.539 90.2922 117.569 90.2922C117.509 90.3522 117.599 90.2022 117.569 90.2922C117.569 90.2922 117.389 90.3822 117.539 90.2922C117.509 90.2922 117.389 90.3222 117.479 90.3222C117.929 90.3522 118.409 90.4722 118.799 90.6822C121.139 91.8522 122.579 94.2822 123.089 96.7722C123.389 98.1822 123.449 99.6522 123.209 101.092C123.149 101.392 124.559 101.122 124.619 100.762Z" fill="#2B0E30"/>
<path d="M140.76 95.4821C140.76 95.4821 107.91 121.432 106.95 121.882C105.99 122.332 100.56 121.852 100.17 121.222C99.78 120.592 101.85 115.162 101.85 115.162C101.85 115.162 133.77 89.1521 135.66 88.5521C137.55 87.9521 142.38 93.2321 140.76 95.4821Z" fill="#62206E"/>
<path d="M140.25 94.9721L138.9 96.0521L135.3 98.9021L130.11 102.982L124.17 107.662L118.08 112.402C116.28 113.812 114.48 115.222 112.65 116.632C111.27 117.682 109.92 118.762 108.54 119.812C107.88 120.352 107.22 120.862 106.5 121.312L106.44 121.342C106.38 121.372 106.32 121.372 106.38 121.372C106.29 121.402 106.17 121.402 106.08 121.432C105.54 121.492 104.97 121.522 104.43 121.492C103.71 121.462 102.99 121.402 102.27 121.312C101.73 121.252 101.16 121.162 100.65 121.012C100.59 120.982 100.32 120.892 100.53 120.982C100.5 120.952 100.44 120.952 100.41 120.922C100.47 120.952 100.53 121.012 100.59 121.072C100.62 121.102 100.74 121.282 100.74 121.252C100.83 121.372 100.71 121.312 100.77 121.282C100.83 121.252 100.77 121.192 100.77 121.192C100.77 121.312 100.77 121.162 100.77 121.132C100.83 120.622 100.95 120.112 101.1 119.632C101.43 118.462 101.82 117.322 102.24 116.182C102.33 115.972 102.39 115.762 102.48 115.552L102.33 115.732C103.74 114.592 105.12 113.452 106.53 112.312C109.77 109.702 112.98 107.092 116.22 104.482C119.82 101.572 123.45 98.6921 127.11 95.8421C129.66 93.8321 132.21 91.7921 134.88 89.9321C135.18 89.7221 135.48 89.5121 135.81 89.3021C135.9 89.2421 135.99 89.2121 136.08 89.1521L136.11 89.1221C135.96 89.1821 136.14 89.1221 136.2 89.1221C136.32 89.1221 136.47 89.1221 136.56 89.1821C136.59 89.1821 136.86 89.3021 136.71 89.2421C136.83 89.3021 136.95 89.3621 137.04 89.4221L137.22 89.5121C137.4 89.6321 137.1 89.4221 137.28 89.5421C137.4 89.6321 137.52 89.7221 137.64 89.8121C138.09 90.1721 138.51 90.5921 138.9 91.0421C139.56 91.8221 140.25 92.8421 140.37 93.9221C140.43 94.3421 140.34 94.7621 140.13 95.0921C139.8 95.6021 141 96.4721 141.33 95.9921C141.99 95.0021 141.66 93.7121 141.18 92.7221C140.52 91.4321 139.62 90.2621 138.51 89.3321C137.7 88.6421 136.47 87.7721 135.36 87.9821C135.06 88.0721 134.79 88.1921 134.52 88.3721C133.5 89.0321 132.57 89.7521 131.61 90.4721C130.05 91.6421 128.52 92.8421 126.99 94.0421C125.1 95.5121 123.24 96.9821 121.38 98.4821C119.37 100.072 117.39 101.692 115.38 103.282C113.49 104.782 111.63 106.312 109.74 107.812L105.06 111.592L102.06 114.022L101.37 114.562C101.16 114.772 101.01 115.042 100.95 115.312C100.53 116.392 100.17 117.502 99.8396 118.612C99.5996 119.422 99.0596 120.712 99.7196 121.432C100.08 121.792 100.56 122.002 101.07 122.092C101.7 122.242 102.33 122.362 102.96 122.422C104.22 122.602 105.51 122.662 106.8 122.542C107.55 122.452 108.09 121.912 108.69 121.492C109.86 120.622 111 119.752 112.14 118.852C113.79 117.562 115.44 116.272 117.09 114.982L122.85 110.482C124.83 108.922 126.81 107.392 128.79 105.832L134.25 101.542L138.51 98.1821L140.94 96.2621L141.27 96.0221C141.81 95.6021 140.7 94.6121 140.25 94.9721Z" fill="#62206E"/>
<path d="M136.38 119.212C136.38 119.212 138.39 105.982 130.41 100.852C122.43 95.722 113.46 101.482 111.84 105.562C110.22 109.642 113.7 109.942 115.41 109.342C115.41 109.342 111.72 112.732 115.59 115.942C115.59 115.942 112.98 117.892 116.31 121.102C119.64 124.312 134.04 129.412 136.38 119.212Z" fill="white"/>
<path d="M137.01 119.542C137.25 117.772 137.31 116.002 137.22 114.202C137.04 110.782 136.32 107.212 134.49 104.272C132.03 100.342 127.65 98.0023 123.03 98.1523C118.98 98.2723 114.69 100.282 112.2 103.552C111.18 104.902 110.37 106.912 111.12 108.532C111.78 109.912 113.43 110.392 114.84 110.182C115.17 110.152 115.47 110.062 115.8 109.972L114.96 108.742C114.24 109.432 113.7 110.272 113.4 111.202C112.74 113.212 113.79 115.102 115.32 116.392L115.11 115.312C114.66 115.672 114.3 116.182 114.12 116.752C113.67 118.072 114.27 119.452 115.05 120.502C116.25 122.062 118.02 123.082 119.79 123.892C121.8 124.792 123.9 125.422 126.09 125.722C128.22 125.992 130.5 125.962 132.51 125.122C134.94 124.162 136.44 122.032 137.01 119.542C137.19 118.852 135.96 118.072 135.78 118.912C135.33 120.892 134.22 122.662 132.45 123.622C130.71 124.522 128.79 124.702 126.84 124.552C125.85 124.462 124.86 124.312 123.87 124.072C122.91 123.832 121.98 123.532 121.05 123.172C120.21 122.842 119.37 122.452 118.56 122.002C118.38 121.912 118.23 121.822 118.05 121.702L117.81 121.552C117.96 121.642 117.69 121.492 117.66 121.462C117.39 121.282 117.12 121.072 116.85 120.862C116.31 120.412 115.89 119.872 115.56 119.272C115.32 118.822 115.23 118.342 115.29 117.832C115.32 117.622 115.38 117.442 115.47 117.262C115.56 117.082 115.65 116.932 115.77 116.782C115.83 116.692 115.77 116.782 115.74 116.812C115.77 116.782 115.8 116.752 115.83 116.692L115.95 116.572C115.98 116.542 116.01 116.512 116.07 116.482C116.43 116.212 116.13 115.612 115.86 115.402C115.2 114.922 114.72 114.202 114.51 113.422C114.39 112.852 114.45 112.252 114.69 111.682C114.9 111.202 115.17 110.722 115.5 110.332C115.5 110.332 115.62 110.182 115.56 110.242C115.5 110.302 115.59 110.182 115.62 110.182C115.65 110.182 115.71 110.062 115.77 110.032C115.83 110.002 115.86 109.942 115.92 109.882C116.43 109.402 115.68 108.442 115.08 108.652C114.57 108.832 114.03 108.892 113.46 108.862C113.43 108.862 113.4 108.862 113.34 108.862L113.13 108.832L112.92 108.772L112.8 108.742C112.71 108.712 112.95 108.802 112.77 108.742L112.59 108.652C112.56 108.622 112.38 108.532 112.53 108.622C112.47 108.592 112.41 108.532 112.38 108.502C112.23 108.412 112.41 108.592 112.32 108.442C112.26 108.382 112.2 108.262 112.29 108.412C112.26 108.352 112.2 108.262 112.17 108.202C112.23 108.322 112.17 108.172 112.14 108.112C112.11 108.052 112.11 107.962 112.11 107.962C112.05 107.572 112.08 107.152 112.2 106.792C112.38 106.042 112.71 105.352 113.16 104.722C114.18 103.342 115.5 102.202 117 101.392C118.77 100.372 120.72 99.7423 122.76 99.5623C125.04 99.3523 127.32 99.8323 129.33 100.912C130.2 101.362 131.01 101.932 131.7 102.592C131.97 102.862 132.24 103.132 132.48 103.432C132.63 103.582 132.75 103.762 132.87 103.942C132.99 104.122 133.11 104.272 133.17 104.362C134.94 107.002 135.66 110.182 135.87 113.302C135.96 114.562 135.96 115.792 135.9 117.052V117.202C135.9 117.232 135.9 117.442 135.9 117.262C135.9 117.382 135.9 117.472 135.87 117.592C135.87 117.772 135.84 117.952 135.81 118.162C135.78 118.372 135.75 118.612 135.75 118.822C135.75 118.852 135.75 118.882 135.75 118.912C135.72 119.302 135.93 119.632 136.26 119.812C136.53 119.932 136.95 119.902 137.01 119.542Z" fill="#2B0E30"/>
<path d="M124.5 106.792C123.48 106.522 122.43 106.432 121.41 106.492C119.04 106.552 116.76 107.392 114.87 108.832C114.84 108.862 115.8 109.972 115.98 109.852C117.84 108.412 120.06 107.602 122.4 107.512C123.45 107.452 124.5 107.542 125.52 107.812C125.61 107.842 125.22 107.422 125.22 107.392C125.01 107.152 124.77 106.942 124.5 106.792Z" fill="#2B0E30"/>
<path d="M124.56 116.212C123.66 115.492 122.64 114.952 121.53 114.652C119.37 113.992 117.03 114.262 115.08 115.432C114.66 115.672 115.74 116.662 116.13 116.452C117.9 115.372 120.03 115.072 122.04 115.642C122.37 115.732 122.7 115.852 123 116.002C123.24 116.092 123.45 116.212 123.66 116.362C123.75 116.422 123.84 116.482 123.96 116.542C124.14 116.662 123.84 116.452 124.02 116.602C124.08 116.632 124.14 116.692 124.2 116.752C124.35 116.872 124.8 117.172 124.98 116.962C125.16 116.752 124.68 116.332 124.56 116.212Z" fill="#2B0E30"/>
<path d="M139.89 94.4921C139.77 94.4321 139.65 94.3722 139.53 94.3122L139.14 94.1021C139.14 94.1021 139.32 94.2221 139.17 94.1322L139.05 94.0421L138.78 93.8622C138.6 93.7122 138.42 93.5921 138.24 93.4421L137.94 93.1721L137.97 93.2021L137.91 93.1421L137.73 92.9622C137.52 92.7522 137.34 92.5121 137.16 92.3021C136.98 92.0921 136.83 91.8521 136.68 91.5821C136.26 90.8922 135.99 90.1422 135.81 89.3322C135.69 88.9722 135.36 88.7021 134.97 88.7021C134.64 88.7021 134.31 88.9121 134.4 89.2721C134.97 91.8221 136.62 93.9822 138.9 95.2122C139.05 95.3022 139.23 95.3921 139.38 95.4521C139.68 95.5721 140.13 95.6321 140.31 95.2721C140.49 94.9121 140.16 94.6121 139.89 94.4921Z" fill="#2B0E30"/>
<path d="M107.01 121.282C106.53 120.922 106.08 120.502 105.66 120.082C104.79 119.272 104.1 118.312 103.56 117.232C103.29 116.662 103.14 116.062 103.17 115.432C103.2 115.132 102.66 115.342 102.54 115.372C102.33 115.462 101.85 115.702 101.82 116.002C101.73 117.202 102.33 118.342 103.02 119.272C103.68 120.142 104.43 120.952 105.27 121.672C105.45 121.822 105.63 121.972 105.81 122.122C106.11 122.362 107.34 121.552 107.01 121.282Z" fill="#2B0E30"/>
<path d="M78.33 48.8924C81.826 48.8924 84.66 46.0584 84.66 42.5624C84.66 39.0665 81.826 36.2324 78.33 36.2324C74.834 36.2324 72 39.0665 72 42.5624C72 46.0584 74.834 48.8924 78.33 48.8924Z" fill="white"/>
<path d="M81.9893 46.7923C80.2493 48.3223 77.6393 48.8923 75.5093 47.7823C73.3793 46.6723 72.3893 44.1523 72.7493 41.8423C73.1693 39.3523 75.0593 37.4023 77.4893 36.8623C79.7393 36.3523 82.0793 37.4023 83.2193 39.4123C84.5993 41.8123 83.9993 44.9623 81.9893 46.7923C81.5393 47.2123 82.7693 48.0223 83.1293 47.7223C85.2293 45.8323 85.8893 42.8023 84.7793 40.1923C83.5493 37.4623 80.8493 35.7223 77.8493 35.7523C74.9693 35.8123 72.4493 37.7023 71.6093 40.4623C70.8593 43.2523 71.9093 46.2223 74.2493 47.9023C76.8893 49.8223 80.5793 49.9723 83.0993 47.7223C83.5793 47.3023 82.3493 46.4623 81.9893 46.7923Z" fill="#62206E"/>
<path d="M79.3202 48.2918C82.8162 48.2918 85.6502 45.4578 85.6502 41.9618C85.6502 38.4659 82.8162 35.6318 79.3202 35.6318C75.8243 35.6318 72.9902 38.4659 72.9902 41.9618C72.9902 45.4578 75.8243 48.2918 79.3202 48.2918Z" fill="white"/>
<path d="M82.9196 46.2223C81.1196 47.8123 78.3596 48.3523 76.1396 47.2423C75.1796 46.7323 74.4596 45.7123 74.0696 44.7223C73.6196 43.6123 73.4996 42.3823 73.7096 41.1823C74.1896 38.6923 76.1096 36.7423 78.5996 36.2023C79.7696 35.9623 80.9696 36.0523 82.0796 36.5023C83.0696 36.9523 83.8796 37.7623 84.3296 38.7523C85.5896 41.3023 85.0196 44.3323 82.9196 46.2223C82.8296 46.3123 83.9396 47.3023 84.1496 47.0923C86.2196 45.2023 86.8196 42.1723 85.6196 39.6223C84.4196 37.1023 81.4796 35.1823 78.6596 35.2123C75.1496 35.2423 72.3296 38.1223 72.3596 41.6323C72.3596 42.3823 72.5096 43.1323 72.7796 43.8523C74.0396 46.7023 76.8296 48.5923 79.9496 48.7423C81.5096 48.7123 82.9796 48.1423 84.1496 47.1223C84.2396 47.0023 83.1596 46.0123 82.9196 46.2223Z" fill="#62206E"/>
<path d="M72.2402 40.9717C72.4802 41.0017 72.7202 41.0017 72.9602 40.9717H72.2402Z" fill="white"/>
<path d="M71.7593 41.2422C71.9393 41.2722 72.1193 41.2721 72.2693 41.2721C72.5093 41.2721 72.7493 41.2422 72.9893 41.2122C73.0793 41.2122 73.1693 41.1822 73.2593 41.1522C73.3493 41.1222 73.4093 41.0922 73.4993 41.0622C73.5593 41.0322 73.5893 41.0022 73.6493 40.9422C73.6793 40.9122 73.7093 40.8822 73.7093 40.8522L73.6793 40.7922C73.6193 40.7622 73.5593 40.7322 73.4693 40.7322C73.2893 40.7022 73.1093 40.7322 72.9293 40.7622H72.8693L73.0793 40.7322C72.9893 40.7322 72.8993 40.7622 72.8093 40.7622H72.9893C72.8693 40.7622 72.7793 40.7622 72.6593 40.7622H72.8093H72.7493C72.5693 40.7322 72.3893 40.7622 72.2093 40.7922C72.1193 40.7922 72.0293 40.8222 71.9393 40.8522C71.8493 40.8822 71.7893 40.9122 71.6993 40.9422L71.5793 41.0022C71.5193 41.0322 71.4893 41.0922 71.4893 41.1522L71.5193 41.2122C71.6093 41.2122 71.6693 41.2122 71.7593 41.2422Z" fill="#62206E"/>
<path d="M72.1494 42.5925C72.3894 42.5025 72.6294 42.4725 72.8994 42.5025L72.1494 42.5925Z" fill="white"/>
<path d="M72.7196 43.0718C72.8996 43.0118 73.0796 42.9818 73.2596 43.0118C73.3196 43.0418 73.3796 43.0418 73.4396 43.0118C73.4996 43.0118 73.5296 42.9818 73.5596 42.9218C73.5896 42.8618 73.5896 42.8318 73.5596 42.7718C73.5596 42.7118 73.5296 42.6518 73.4996 42.5918C73.4096 42.4418 73.2596 42.3218 73.1096 42.2318C72.9596 42.1418 72.7796 42.0518 72.5996 42.0518C72.4196 42.0218 72.2696 42.0218 72.0896 42.0518C71.9396 42.0818 71.7596 42.1118 71.6096 42.1718C71.5496 42.2018 71.5196 42.2318 71.5196 42.2918C71.4896 42.3518 71.4896 42.4118 71.5196 42.4418C71.5496 42.5018 71.5796 42.5618 71.6396 42.6218C71.6996 42.6818 71.7596 42.7418 71.8196 42.8018C71.9696 42.9218 72.1496 43.0118 72.3296 43.0718L72.4796 43.1018C72.5396 43.1018 72.6296 43.1018 72.7196 43.0718Z" fill="#62206E"/>
<path d="M73.1398 43.8818C72.8698 44.0618 72.5998 44.2418 72.2998 44.3918L73.1398 43.8818Z" fill="white"/>
<path d="M72.4195 43.672C72.1495 43.852 71.8795 44.032 71.5795 44.182C71.5495 44.212 71.5195 44.242 71.5495 44.272C71.5495 44.332 71.5795 44.362 71.6095 44.392C71.6695 44.422 71.7295 44.482 71.7895 44.482C71.8795 44.512 71.9395 44.542 72.0295 44.572C72.2095 44.632 72.4195 44.662 72.5995 44.632H72.7495C72.8095 44.632 72.8995 44.602 72.9595 44.572C73.2595 44.422 73.5295 44.242 73.7995 44.062C73.8295 44.032 73.8595 44.002 73.8295 43.972C73.8295 43.912 73.7995 43.882 73.7695 43.852C73.7095 43.822 73.6495 43.762 73.5895 43.762C73.4995 43.732 73.4395 43.702 73.3495 43.672C73.1695 43.612 72.9595 43.582 72.7795 43.582C72.6595 43.612 72.5395 43.642 72.4195 43.672Z" fill="#62206E"/>
<path d="M73.9792 45.4424C73.7392 45.6824 73.4692 45.8924 73.1992 46.1024L73.9792 45.4424Z" fill="white"/>
<path d="M73.3495 45.2623C73.1095 45.5023 72.8395 45.7123 72.5695 45.9223C72.5095 45.9523 72.4795 45.9823 72.4795 46.0423C72.4495 46.0723 72.4495 46.1323 72.4795 46.1923C72.5095 46.2523 72.5695 46.2823 72.5995 46.3123C72.6595 46.3423 72.7195 46.4023 72.8095 46.4023C72.9895 46.4623 73.1995 46.4623 73.3795 46.4623C73.5295 46.4623 73.6795 46.4023 73.8295 46.3123C74.0995 46.1023 74.3695 45.8923 74.6095 45.6523C74.6695 45.6223 74.6995 45.5923 74.6995 45.5323C74.7295 45.5023 74.7295 45.4423 74.6995 45.3823C74.6695 45.3223 74.6095 45.2923 74.5795 45.2623C74.5195 45.2023 74.4595 45.1723 74.3695 45.1723C74.1895 45.1123 73.9795 45.1123 73.7995 45.1123L73.6195 45.1423C73.5295 45.1723 73.4395 45.2023 73.3495 45.2623Z" fill="#62206E"/>
<path d="M75.0294 46.7021C74.7894 46.9121 74.5794 47.1521 74.3994 47.3921L75.0294 46.7021Z" fill="white"/>
<path d="M74.3094 46.4326C74.0694 46.6426 73.8594 46.8826 73.6794 47.1226C73.6494 47.1526 73.8894 47.2726 73.8594 47.2726C74.0094 47.3626 74.1894 47.4226 74.3394 47.4826C74.5194 47.5426 74.6694 47.6026 74.8494 47.6326L74.9694 47.6626C74.9994 47.6926 75.0594 47.6926 75.0894 47.6626C75.2994 47.4226 75.5094 47.2126 75.7194 46.9726C75.7494 46.9426 75.5094 46.8226 75.5394 46.8226C75.2094 46.6726 74.8794 46.5526 74.5494 46.4626L74.4294 46.4326C74.3994 46.4326 74.3394 46.4326 74.3094 46.4326Z" fill="#62206E"/>
<path d="M76.4391 47.6924C76.3491 47.9324 76.2291 48.1724 76.0791 48.3824L76.4391 47.6924Z" fill="white"/>
<path d="M75.7194 47.8721C75.6294 48.1121 75.5094 48.3521 75.3594 48.5621C75.3894 48.5921 75.4194 48.5921 75.4194 48.5921C75.4794 48.5921 75.5094 48.5921 75.5694 48.5621C75.7494 48.5321 75.9294 48.5021 76.0794 48.4421C76.2594 48.4121 76.4094 48.3521 76.5894 48.2921L76.7094 48.2321C76.7394 48.2321 76.7694 48.2021 76.7994 48.1721C76.9494 47.9621 77.0694 47.7221 77.1594 47.4821C77.1594 47.4521 76.8894 47.4821 76.9194 47.4821C76.7394 47.5121 76.5594 47.5421 76.4094 47.6021C76.2294 47.6321 76.0794 47.6921 75.8994 47.7521L75.7794 47.7821C75.7794 47.8121 75.7494 47.8421 75.7194 47.8721Z" fill="#62206E"/>
<path d="M77.9692 48.2324C77.8492 48.3824 77.7592 48.5624 77.6992 48.7424L77.9692 48.2324Z" fill="white"/>
<path d="M77.2192 48.1122C77.0992 48.2622 77.0092 48.4422 76.9492 48.6222C76.9492 48.6522 76.9792 48.6822 77.0092 48.6822C77.0692 48.7122 77.0992 48.7422 77.1592 48.7422C77.2492 48.7722 77.3092 48.8022 77.3992 48.8022C77.4892 48.8322 77.5792 48.8322 77.6692 48.8622C77.8492 48.8922 78.0292 48.9222 78.2092 48.9222H78.3292C78.3592 48.9222 78.4192 48.9222 78.4492 48.8922C78.5092 48.7122 78.5992 48.5322 78.7192 48.3822C78.7492 48.3522 78.4792 48.2622 78.5092 48.2622C78.4192 48.2322 78.3592 48.2322 78.2692 48.2022C78.1792 48.1722 78.0892 48.1722 77.9692 48.1422C77.7892 48.1122 77.6092 48.0822 77.4292 48.0822H77.3092C77.2792 48.0522 77.2492 48.0522 77.2192 48.1122Z" fill="#62206E"/>
<path d="M79.5893 39.6219C79.1393 39.5019 78.6293 39.4119 78.2093 39.6519C77.8493 39.8919 77.6393 40.3119 77.6693 40.7619C77.6393 41.0919 77.8193 41.4219 78.0893 41.6319C78.2393 41.7219 78.4193 41.7519 78.5993 41.7819C79.0493 41.8119 79.5293 41.9019 79.9493 42.0519C80.3993 42.2019 80.7293 42.5919 80.8493 43.0419C80.9393 43.5819 80.6693 44.0919 80.2193 44.3619C79.7393 44.6019 79.1993 44.6019 78.7193 44.3919" fill="white"/>
<path d="M77.8432 40.2024H79.6432L79.0432 39.8724C78.8632 40.3524 78.6232 40.8324 78.3832 41.2824C78.2632 41.4624 78.5932 41.5524 78.7132 41.5824C78.9832 41.6124 79.2832 41.5824 79.5532 41.4624C79.5532 41.4624 79.7632 41.3724 79.6432 41.4024C79.7932 41.3424 79.6432 41.4024 79.6132 41.4024C79.6732 41.4324 79.7032 41.3724 79.6132 41.4024C79.6732 41.4324 79.6732 41.4324 79.7032 41.4324C79.8832 41.5224 80.0332 41.6724 80.0932 41.8824C80.2732 42.3924 80.2432 42.9624 79.9732 43.4424C79.9432 43.5324 79.8832 43.6224 79.7932 43.7124C79.7932 43.7124 79.6732 43.8024 79.7332 43.7724L79.7032 43.8024L79.7632 43.7724C79.8532 43.7424 79.8532 43.7424 79.7632 43.7724H79.8232C79.8232 43.7724 79.6132 43.7724 79.7332 43.7724C79.6732 43.7724 79.6132 43.7724 79.5232 43.7724C79.4932 43.7724 79.3432 43.7424 79.4332 43.7724C79.0432 43.7424 78.6832 43.5324 78.4732 43.1724C78.3532 42.9024 77.9032 42.9324 77.6632 42.9624C77.5432 42.9924 76.8832 43.1724 76.9732 43.4124C77.2132 43.9224 77.6932 44.2524 78.2332 44.3724C78.9532 44.5824 79.7332 44.5224 80.4532 44.2524C81.0532 43.9824 81.4732 43.4424 81.5632 42.8124C81.7132 42.2124 81.5932 41.5824 81.1732 41.1324C80.5132 40.5024 79.4032 40.6824 78.6232 41.0424L79.7632 41.2224C80.0332 40.7724 80.2432 40.2924 80.4232 39.8124C80.5432 39.5124 79.9732 39.4824 79.8232 39.4824H78.0232C77.7532 39.4824 77.2432 39.6024 77.1532 39.8724C77.0632 40.1424 77.5732 40.2024 77.7532 40.2024H77.8432Z" fill="#62206E"/>
<path d="M78.1494 38.8418L78.4194 39.4418L78.1494 38.8418Z" fill="white"/>
<path d="M80.0693 44.5723C80.1893 44.8123 80.2793 45.0523 80.3093 45.2923L80.0693 44.5723Z" fill="white"/>
<path d="M64.1991 33.2918C67.6951 33.2918 70.5291 30.4578 70.5291 26.9618C70.5291 23.4659 67.6951 20.6318 64.1991 20.6318C60.7032 20.6318 57.8691 23.4659 57.8691 26.9618C57.8691 30.4578 60.7032 33.2918 64.1991 33.2918Z" fill="white"/>
<path d="M66.1794 32.3927C63.8994 33.1427 61.3794 32.3926 59.8794 30.5326C58.3494 28.6126 58.1694 25.9727 59.3994 23.8427C60.5994 21.8627 62.9394 20.8427 65.2194 21.3527C67.5594 21.9227 69.3594 23.8427 69.7194 26.2427C70.1094 28.8227 68.6694 31.5227 66.1794 32.3927C65.8794 32.5127 65.4594 32.7527 65.5194 33.1427C65.5794 33.5327 65.9994 33.5927 66.2694 33.5027C69.0894 32.5727 71.0394 30.0227 71.1894 27.0827C71.2794 24.2027 69.5394 21.5626 66.8394 20.5126C64.0194 19.4926 60.8394 20.3027 58.8594 22.5827C56.9394 24.7727 56.6094 27.9527 58.0494 30.5027C59.6994 33.3227 63.1794 34.5527 66.2694 33.5027C66.5694 33.4127 66.9594 33.1427 66.9294 32.7527C66.8994 32.3627 66.4794 32.3027 66.1794 32.3927Z" fill="#62206E"/>
<path d="M65.3398 33.1424C68.8357 33.1424 71.6698 30.3084 71.6698 26.8124C71.6698 23.3165 68.8357 20.4824 65.3398 20.4824C61.8438 20.4824 59.0098 23.3165 59.0098 26.8124C59.0098 30.3084 61.8438 33.1424 65.3398 33.1424Z" fill="white"/>
<path d="M66.9292 32.1822C65.7292 32.5722 64.4692 32.6322 63.2392 32.3022C62.1892 32.0022 61.0192 31.4022 60.3292 30.5322C59.6392 29.6622 59.4292 28.3722 59.4592 27.2922C59.4892 26.0622 59.8492 24.8922 60.5392 23.8722C61.9792 21.8022 64.4992 20.7522 66.9592 21.2322C68.1292 21.4722 69.1792 22.0122 70.0492 22.8222C70.7992 23.5722 71.0992 24.8022 71.1592 25.8522C71.3392 28.6422 69.5992 31.2522 66.9292 32.1822C66.9292 32.1822 67.5592 33.4722 67.8292 33.3822C70.4692 32.4522 72.1792 29.9322 72.1192 27.1422C72.0292 25.6422 71.4892 24.2022 70.5592 23.0322C69.7492 21.8622 68.6392 20.9022 67.3192 20.3322C64.0792 19.0122 60.3892 20.5422 59.0392 23.7822C58.7692 24.4722 58.5892 25.1922 58.5592 25.9122C58.5292 27.3522 58.9192 28.7622 59.7292 29.9622C60.5992 31.3422 61.7692 32.5722 63.2992 33.2022C64.7392 33.8022 66.3292 33.8322 67.7992 33.3522C67.8292 33.3822 67.1992 32.0922 66.9292 32.1822Z" fill="#62206E"/>
<path d="M59.2197 23.1221C59.4297 23.2421 59.6697 23.3321 59.8797 23.3921L59.2197 23.1221Z" fill="white"/>
<path d="M59.3998 23.7523C59.6398 23.8723 59.8798 23.9923 60.1498 24.0523C60.1798 24.0523 60.2398 24.0523 60.2398 24.0223C60.2698 23.9923 60.2998 23.9623 60.2998 23.9023C60.2998 23.8423 60.2998 23.7523 60.2698 23.6923C60.2398 23.6023 60.2098 23.5123 60.1798 23.4523C60.0898 23.2723 59.9998 23.0923 59.8798 22.9423C59.8198 22.8223 59.6998 22.7623 59.5798 22.7023C59.4298 22.6723 59.2798 22.6123 59.1598 22.5523L59.2498 22.5823C59.1598 22.5523 59.0998 22.4923 59.0098 22.4623C58.9798 22.4323 58.9198 22.4023 58.8898 22.4323C58.8598 22.4323 58.8298 22.4623 58.7998 22.4923C58.7998 22.5523 58.7998 22.6123 58.7998 22.6423C58.7998 22.7023 58.8298 22.7923 58.8298 22.8523C58.8898 23.0323 58.9798 23.2123 59.0698 23.3623L59.1898 23.5123C59.2498 23.6323 59.3398 23.6923 59.3998 23.7523Z" fill="#62206E"/>
<path d="M58.5 24.5918C58.74 24.5918 59.01 24.6818 59.22 24.8018L58.5 24.5918Z" fill="white"/>
<path d="M59.0098 25.0124H59.0998H58.9799C59.0699 25.0124 59.1598 25.0424 59.2498 25.0724L59.0998 25.0424C59.1598 25.0724 59.2199 25.0724 59.2799 25.1024L59.0998 25.0424C59.1598 25.0724 59.1898 25.0724 59.2498 25.1024L59.0698 25.0124L59.1299 25.0424C59.2799 25.1324 59.4599 25.1924 59.6399 25.2224C59.6999 25.2524 59.7598 25.2524 59.8198 25.2224C59.8498 25.2224 59.9098 25.1924 59.9098 25.1624V25.1024C59.8798 25.0424 59.8499 24.9824 59.7899 24.9224C59.6699 24.8024 59.5198 24.7124 59.3698 24.6224C58.9498 24.3824 58.4998 24.2624 58.0198 24.2324C57.9898 24.2324 57.9298 24.2324 57.8998 24.2624C57.8698 24.2624 57.8398 24.3224 57.8698 24.3524C57.8698 24.4124 57.8998 24.4424 57.9598 24.4724C57.9898 24.5324 58.0498 24.5924 58.1098 24.6224C58.2598 24.7424 58.4398 24.8324 58.6198 24.9224C58.6798 24.9824 58.8298 25.0124 59.0098 25.0124Z" fill="#62206E"/>
<path d="M58.8897 26.1221C58.5597 26.1821 58.2597 26.2121 57.9297 26.2721L58.8897 26.1221Z" fill="white"/>
<path d="M58.8295 25.7619C58.4995 25.8219 58.1995 25.8519 57.8695 25.9119C57.7795 25.9119 57.6895 25.9419 57.5995 25.9719C57.5095 26.0019 57.4495 26.0319 57.3595 26.0919C57.2695 26.1519 57.1495 26.2719 57.1795 26.3919C57.2095 26.5119 57.3295 26.6019 57.4495 26.6319C57.6295 26.6919 57.8095 26.6919 57.9895 26.6619C58.3195 26.6319 58.6495 26.5719 58.9495 26.5119C59.1295 26.4819 59.3095 26.4219 59.4595 26.3319C59.5495 26.2719 59.6695 26.1519 59.6395 26.0319C59.6095 25.9119 59.5195 25.8219 59.3695 25.7919C59.2195 25.7319 59.0095 25.7319 58.8295 25.7619Z" fill="#62206E"/>
<path d="M59.0694 27.9219C58.7394 28.0419 58.4394 28.1319 58.1094 28.2219L59.0694 27.9219Z" fill="white"/>
<path d="M58.8002 27.5017C58.4702 27.6217 58.1402 27.7117 57.8102 27.8017C57.7202 27.8317 57.6302 27.8617 57.5702 27.9217C57.5102 27.9517 57.4502 28.0117 57.3902 28.0717C57.3002 28.1617 57.3002 28.3117 57.3602 28.4317C57.5702 28.7317 58.0202 28.7317 58.3202 28.6417C58.6502 28.5517 58.9802 28.4617 59.2802 28.3417C59.4302 28.3117 59.5802 28.2217 59.7002 28.0717C59.7902 27.9817 59.7902 27.8317 59.7302 27.7117C59.6402 27.5917 59.5202 27.5317 59.3702 27.5017L59.1902 27.4717C59.0702 27.4717 58.9502 27.4717 58.8002 27.5017Z" fill="#62206E"/>
<path d="M59.5194 29.4824C59.2194 29.6024 58.9494 29.7224 58.6494 29.8424L59.5194 29.4824Z" fill="white"/>
<path d="M59.1894 28.8219C58.8594 28.9419 58.5294 29.0919 58.2294 29.2419C58.1694 29.2719 58.1394 29.3319 58.1394 29.3919C58.1094 29.4519 58.1094 29.5419 58.1094 29.6019C58.1094 29.6919 58.1394 29.7819 58.1694 29.8419C58.1994 29.9319 58.2594 30.0219 58.3194 30.0819C58.4394 30.2319 58.5894 30.3519 58.7394 30.4119L58.8894 30.4419C58.9794 30.4719 59.0694 30.4419 59.1294 30.3819L59.3994 30.2619L59.2794 30.3219C59.4594 30.2319 59.6694 30.1719 59.8494 30.0819C59.9094 30.0819 59.9694 30.0219 59.9994 29.9919C60.0594 29.9619 60.0894 29.8719 60.0894 29.8119C60.0894 29.7219 60.0894 29.6619 60.0594 29.5719C60.0594 29.4819 60.0294 29.3919 59.9694 29.3319C59.8794 29.1519 59.7594 29.0019 59.5794 28.9119L59.4294 28.8219C59.3694 28.8219 59.2794 28.7919 59.1894 28.8219Z" fill="#62206E"/>
<path d="M60.4496 30.9521C60.2696 31.1621 60.0596 31.3121 59.8496 31.4621L60.4496 30.9521Z" fill="white"/>
<path d="M59.8799 30.442C59.7899 30.532 59.6999 30.622 59.6099 30.712L59.7299 30.622C59.6399 30.712 59.5199 30.772 59.3999 30.832C59.3399 30.862 59.2799 30.922 59.2199 31.012C59.1599 31.072 59.1299 31.162 59.1299 31.252C59.1299 31.342 59.1299 31.432 59.1599 31.492C59.1899 31.582 59.2199 31.672 59.2799 31.732L59.4299 31.882C59.5199 31.972 59.6399 32.032 59.7599 32.062L59.9399 32.092C60.0599 32.092 60.1499 32.062 60.2699 32.032C60.4199 31.942 60.5699 31.822 60.7199 31.702C60.8399 31.612 60.9299 31.522 61.0199 31.432C61.0799 31.372 61.1099 31.282 61.1399 31.222C61.1699 31.132 61.1699 31.042 61.1399 30.982C61.1399 30.892 61.0799 30.802 61.0499 30.742C61.0199 30.652 60.9299 30.562 60.8699 30.502L60.6899 30.382C60.5699 30.322 60.4499 30.292 60.3299 30.292L60.1499 30.322C60.0299 30.322 59.9399 30.382 59.8799 30.442Z" fill="#62206E"/>
<path d="M61.6199 32.0322C61.4399 32.1222 61.2899 32.2422 61.1699 32.3922L61.6199 32.0322Z" fill="white"/>
<path d="M61.2002 31.4324C61.1102 31.4924 61.0202 31.5224 60.9602 31.6124C60.8702 31.7024 60.7802 31.7924 60.6902 31.8824C60.6602 31.9424 60.6602 32.0024 60.6602 32.0624C60.6602 32.1524 60.6602 32.2124 60.6902 32.3024C60.7202 32.3924 60.7502 32.4824 60.8102 32.5724C60.8702 32.6624 60.9302 32.7524 60.9902 32.8124L61.1102 32.9324C61.1702 32.9924 61.2602 33.0524 61.3802 33.0824H61.5002C61.5602 33.0824 61.6202 33.0524 61.6502 32.9624L61.6802 32.9324L61.6202 33.0224C61.7402 32.8724 61.8902 32.7824 62.0402 32.6924C62.1002 32.6624 62.1302 32.6024 62.1302 32.5724C62.1602 32.5124 62.1602 32.4524 62.1302 32.3924C62.1302 32.3024 62.1002 32.2124 62.0702 32.1524C62.0402 32.0624 61.9802 31.9724 61.9502 31.8824L61.8302 31.7324C61.7402 31.6424 61.6802 31.5824 61.5602 31.5224L61.4402 31.4624C61.3202 31.3724 61.2602 31.3724 61.2002 31.4324Z" fill="#62206E"/>
<path d="M64.9799 29.5117C65.0099 29.7817 64.9799 30.0217 64.9199 30.2917L64.9799 29.5117Z" fill="white"/>
<path d="M49.7392 47.7821C53.2351 47.7821 56.0692 44.948 56.0692 41.4521C56.0692 37.9561 53.2351 35.1221 49.7392 35.1221C46.2432 35.1221 43.4092 37.9561 43.4092 41.4521C43.4092 44.948 46.2432 47.7821 49.7392 47.7821Z" fill="white"/>
<path d="M48 46.9421C45.75 46.3421 44.1 44.5421 43.95 42.2021C43.83 39.7121 45.24 37.4021 47.49 36.3521C49.65 35.3621 52.41 35.6921 54.12 37.4021C55.83 39.1121 55.95 41.7521 54.87 43.8221C53.55 46.3121 50.73 47.6021 48 46.9421C47.67 46.8521 47.67 47.2121 47.76 47.4221C47.85 47.6921 48.12 48.1421 48.42 48.2021C51.18 48.8921 54.06 47.7221 55.59 45.3521C57.15 42.8921 56.76 39.6521 55.05 37.3721C53.34 35.0921 50.31 33.8621 47.52 34.7621C44.82 35.6321 42.96 38.1521 42.93 40.9721C42.9 44.2721 45.24 47.3621 48.42 48.2021C48.75 48.2921 48.75 47.9321 48.66 47.7221C48.57 47.3921 48.33 47.0921 48 46.9421Z" fill="#62206E"/>
<path d="M50.789 48.2625C54.2849 48.2625 57.119 45.4285 57.119 41.9325C57.119 38.4366 54.2849 35.6025 50.789 35.6025C47.293 35.6025 44.459 38.4366 44.459 41.9325C44.459 45.4285 47.293 48.2625 50.789 48.2625Z" fill="white"/>
<path d="M49.1099 47.5722C46.8899 46.9422 45.2999 44.9622 45.1799 42.6522C44.9999 40.1622 46.3799 37.8222 48.5999 36.7122C50.6699 35.7222 53.3099 35.9922 54.8999 37.7022C56.5499 39.5322 56.9099 42.1722 55.7999 44.3622C54.5699 46.8222 51.7799 48.2322 49.1099 47.5722C48.8399 47.5122 48.5099 47.5722 48.5999 47.9022C48.6899 48.2322 49.1099 48.4722 49.4099 48.5622C52.1699 49.2222 55.1699 48.2022 56.7299 45.8022C58.2899 43.4022 58.0199 40.2522 56.2799 38.0022C54.5099 35.7222 51.2999 34.5522 48.5099 35.3922C45.7799 36.2022 43.8899 38.6922 43.7999 41.5422C43.7399 44.9022 46.2299 47.7522 49.4099 48.5622C49.6499 48.6222 49.9799 48.5622 49.9199 48.2622C49.8599 47.9622 49.4099 47.6622 49.1099 47.5722Z" fill="#62206E"/>
<path d="M47.6699 35.5117C47.7899 35.7217 47.9099 35.9317 48.0899 36.1117L47.6699 35.5117Z" fill="white"/>
<path d="M46.9797 35.3022C47.0997 35.5122 47.2197 35.7222 47.3997 35.9022C47.4897 35.9922 47.5797 36.0522 47.6997 36.1122C47.8797 36.2022 48.0597 36.2622 48.2397 36.3222L48.4197 36.3822C48.5097 36.4122 48.5997 36.4122 48.6897 36.4422H48.7797C48.8097 36.4422 48.8397 36.4122 48.8097 36.3822C48.6597 36.2022 48.5097 35.9922 48.3897 35.7822C48.3597 35.7522 48.3297 35.7222 48.2697 35.6922C48.2097 35.6622 48.1497 35.6022 48.0897 35.5722C47.9097 35.4822 47.7297 35.4222 47.5497 35.3622L47.3697 35.3022C47.2797 35.2722 47.1897 35.2722 47.0997 35.2422H47.0097C46.9497 35.2422 46.9497 35.2722 46.9797 35.3022Z" fill="#62206E"/>
<path d="M46.2598 36.3525C46.4698 36.5025 46.6498 36.6825 46.7698 36.9225L46.2598 36.3525Z" fill="white"/>
<path d="M45.5398 36.3821C45.5998 36.4121 45.6598 36.4721 45.6898 36.5021L45.6598 36.4721C45.8098 36.5921 45.8998 36.7421 45.9898 36.8921C45.9898 36.9221 46.0198 36.9221 46.0498 36.9221C46.1098 36.9521 46.1398 36.9521 46.1998 36.9521C46.3798 36.9821 46.5598 36.9821 46.7398 36.9821C46.9198 36.9821 47.0998 36.9821 47.2798 36.9521C47.3098 36.9521 47.5198 36.9221 47.4898 36.8921C47.3698 36.6521 47.1898 36.4421 46.9498 36.2921C46.9198 36.2621 46.8598 36.2621 46.8298 36.2621C46.7698 36.2621 46.6798 36.2321 46.6198 36.2321C46.4398 36.2021 46.2298 36.2021 46.0498 36.2021H45.8698C45.7798 36.2021 45.6898 36.2021 45.5998 36.2321L45.5098 36.2621C45.5098 36.2921 45.5098 36.3221 45.5398 36.3821Z" fill="#62206E"/>
<path d="M45.7496 37.8819C45.4496 37.7619 45.1496 37.6119 44.8496 37.4619L45.7496 37.8819Z" fill="white"/>
<path d="M46.2889 37.6418C45.9889 37.5218 45.6889 37.3718 45.4189 37.2218C45.3289 37.1918 45.2689 37.1618 45.1789 37.1618C45.0889 37.1318 44.9689 37.1318 44.8789 37.1318C44.7889 37.1318 44.6689 37.1318 44.5789 37.1618C44.4889 37.1618 44.3989 37.1918 44.3389 37.2218C44.2489 37.2818 44.0989 37.3418 44.1289 37.4618C44.1589 37.5818 44.2489 37.6718 44.3389 37.7018C44.6389 37.8518 44.9089 38.0018 45.2389 38.1218C45.4189 38.1818 45.5989 38.2418 45.7789 38.2418C45.8689 38.2418 45.9889 38.2418 46.0789 38.2118C46.1689 38.2118 46.2289 38.1818 46.3189 38.1518C46.4089 38.0918 46.5589 38.0318 46.5289 37.9118C46.4689 37.7618 46.3789 37.6718 46.2889 37.6418Z" fill="#62206E"/>
<path d="M44.9099 39.4721C44.5799 39.4121 44.2499 39.2921 43.9199 39.2021L44.9099 39.4721Z" fill="white"/>
<path d="M45.1492 39.0822C44.8192 39.0222 44.4892 38.9022 44.1592 38.8122C44.0692 38.7822 43.9492 38.7822 43.8592 38.7822C43.7692 38.7822 43.6792 38.7822 43.5892 38.8122C43.4992 38.8122 43.4392 38.8422 43.3792 38.9022C43.3192 38.9322 43.2592 38.9922 43.2292 39.0522L43.1992 39.1722C43.1992 39.2622 43.2292 39.3522 43.2892 39.4122C43.4092 39.5322 43.5592 39.6222 43.7092 39.6522C44.0392 39.7722 44.3692 39.8622 44.6992 39.9222C44.8792 39.9822 45.0892 39.9822 45.2692 39.9522C45.3592 39.9522 45.4192 39.9222 45.4792 39.8622C45.5392 39.8322 45.5992 39.7722 45.6292 39.7422L45.6592 39.6222C45.6592 39.5322 45.6292 39.4422 45.5992 39.3822C45.4792 39.2022 45.3292 39.1122 45.1492 39.0822Z" fill="#62206E"/>
<path d="M44.4593 41.0318C44.1593 40.9718 43.8593 40.9118 43.5293 40.8818L44.4593 41.0318Z" fill="white"/>
<path d="M44.6996 40.6419C44.3396 40.5519 43.9496 40.4919 43.5896 40.4619C43.4996 40.4619 43.3796 40.4619 43.2896 40.4919C43.1996 40.4919 43.1096 40.5219 43.0496 40.5519C42.9596 40.5819 42.8096 40.7019 42.8096 40.8219C42.8096 40.9419 42.8996 41.0619 43.0196 41.1219L43.1696 41.1819C43.2896 41.2119 43.4096 41.2419 43.5296 41.2419L43.6496 41.2719L43.4396 41.2419C43.7096 41.2719 43.9796 41.3319 44.2496 41.3919C44.3396 41.4219 44.4596 41.4219 44.5496 41.4219C44.6396 41.4219 44.7296 41.4219 44.8196 41.3919C44.9096 41.3919 44.9696 41.3619 45.0296 41.3019C45.0896 41.2719 45.1496 41.2419 45.1796 41.1819L45.2096 41.0619C45.2096 40.9719 45.1796 40.9119 45.1196 40.8519C44.9996 40.7619 44.8496 40.6719 44.6996 40.6419Z" fill="#62206E"/>
<path d="M44.4294 42.7725C44.1894 42.8325 43.9194 42.8625 43.6494 42.8625L44.4294 42.7725Z" fill="white"/>
<path d="M43.8897 42.7121L43.7096 42.7421C43.8296 42.7121 43.8597 42.7121 43.8297 42.7121H43.7997H43.7696H43.7397H43.8897H43.8297H43.7997C43.7397 42.7121 43.7697 42.7121 43.9497 42.7121H43.8897H44.0397H44.0096C43.8296 42.7121 43.6197 42.7121 43.4397 42.7421C43.3497 42.7421 43.2597 42.7721 43.1997 42.7721C43.1397 42.7721 43.0796 42.8021 43.0196 42.8321C42.9896 42.8621 42.8696 42.8921 42.9596 42.9521L43.0497 42.9821C43.1397 43.0121 43.2296 43.0121 43.3196 43.0121C43.6496 43.0121 43.9497 43.0121 44.2797 42.9821C44.5197 42.9521 44.7597 42.9221 44.9997 42.8621C45.0597 42.8621 45.0897 42.8321 45.1497 42.8021C45.1797 42.8021 45.2096 42.7721 45.2096 42.7421C45.2096 42.7121 45.1797 42.7121 45.1497 42.7121C45.0897 42.6821 45.0597 42.6821 44.9997 42.6821C44.8197 42.6521 44.6396 42.6521 44.4596 42.6821C44.2496 42.6221 44.0697 42.6521 43.8897 42.7121Z" fill="#62206E"/>
<path d="M44.82 44.332C44.64 44.332 44.43 44.332 44.25 44.392L44.82 44.332Z" fill="white"/>
<path d="M44.8793 43.6719C44.7893 43.6719 44.6693 43.6719 44.5793 43.6719C44.4293 43.6719 44.2493 43.7319 44.0993 43.7619C44.0093 43.7919 43.9193 43.8219 43.8293 43.8819C43.7393 43.9419 43.6793 44.0019 43.6193 44.0619C43.5593 44.1219 43.5293 44.2119 43.5293 44.3019C43.4993 44.3919 43.4993 44.4819 43.5293 44.5719L43.5893 44.7219C43.6493 44.8119 43.7393 44.9019 43.8593 44.9619L44.0393 45.0219C44.1593 45.0519 44.3093 45.0519 44.4293 45.0219C44.5193 44.9919 44.5793 44.9619 44.6693 44.9619L44.4593 44.9919C44.5793 44.9619 44.6693 44.9619 44.7893 44.9619C44.8793 44.9619 44.9993 44.9319 45.0893 44.9019C45.1793 44.8719 45.2693 44.8119 45.3293 44.7519C45.3893 44.6919 45.4493 44.6319 45.4793 44.5419C45.5093 44.4819 45.5393 44.3919 45.5393 44.3019L45.5093 44.1219C45.4793 44.0019 45.4193 43.9119 45.3293 43.8219L45.1793 43.7319C45.1193 43.6719 44.9993 43.6419 44.8793 43.6719Z" fill="#62206E"/>
<path d="M52.8898 40.8522C52.7098 40.4022 52.5298 39.9222 52.1098 39.7122C51.6898 39.5622 51.2398 39.6222 50.8798 39.8922C50.5798 40.0722 50.3998 40.3722 50.3998 40.7322C50.4298 40.9122 50.4898 41.0922 50.5798 41.2422C50.8198 41.6322 50.9998 42.0822 51.1198 42.5322C51.2398 42.9822 51.1198 43.4922 50.8198 43.8522C50.4298 44.2122 49.8598 44.3022 49.3798 44.0622C48.9298 43.7922 48.5998 43.3422 48.5098 42.8322" fill="white"/>
<path d="M49.5734 40.0708C49.6634 39.8608 49.8134 39.7107 50.0234 39.6807C50.0234 39.6807 50.2034 39.6508 50.1434 39.6508C50.1734 39.6508 50.3534 39.6508 50.2334 39.6508C50.6534 39.6508 49.9334 39.6208 49.9334 39.5908C49.9334 39.6208 50.0534 39.7108 50.0834 39.7408C51.0134 41.0908 50.6834 42.9507 49.3334 43.8807C49.0934 44.0607 48.7934 44.1808 48.4934 44.2708C48.2234 44.3608 48.5834 44.4808 48.6734 44.5108C49.0034 44.6008 49.3334 44.6308 49.6634 44.5708C50.6534 44.3908 51.6734 44.3307 52.6934 44.3307C52.7834 44.3307 53.3234 44.3608 53.2334 44.1508C53.2034 44.0608 52.9634 44.0308 52.9034 44.0008C52.7234 43.9708 52.5134 43.9408 52.3334 43.9408C51.1034 43.9108 49.8734 44.0008 48.6434 44.2108L49.8134 44.5408C51.4634 44.0908 52.4834 42.4107 52.0334 40.7307C51.9434 40.4307 51.8234 40.1308 51.6734 39.8608C51.3434 39.3208 50.7134 39.2607 50.1434 39.2307C49.5134 39.2007 48.4034 39.1708 48.1334 39.8908C48.0734 40.0408 48.7934 40.1307 48.8534 40.1307C48.9434 40.1907 49.4834 40.2808 49.5734 40.0708Z" fill="#62206E"/>
<path d="M65.432 24.6705C65.2243 24.6883 65.0666 24.8263 64.9632 25.0269C64.8584 25.2299 64.3262 25.1017 64.2407 25.0354C64.1809 25.0312 63.4691 24.8901 63.5397 24.7448C63.8603 24.0458 64.9653 24.1548 65.5916 24.2296C66.158 24.3001 66.4636 24.3007 66.7543 24.8629C66.8847 25.1429 66.9398 25.566 67.0082 25.8717C67.0127 26.795 66.8115 28.6265 66.4246 29.4808L65.0132 29.38C66.0047 27.8396 65.4954 24.734 65.4954 24.734C65.484 24.7209 65.4583 24.6967 65.432 24.6705Z" fill="#62206E"/>
<path d="M52.7099 39.2021L52.3799 39.7421L52.7099 39.2021Z" fill="white"/>
<path d="M49.0493 44.0322C48.9293 44.2722 48.7793 44.4522 48.5693 44.6322L49.0493 44.0322Z" fill="white"/>
<path d="M80.0093 30.8025C80.6693 30.0525 81.5693 29.6025 82.5593 29.5425C83.7293 29.4225 84.8993 29.6325 85.9793 30.1125C88.3193 31.1325 89.8793 33.4125 90.6293 35.7525C90.9893 36.8325 91.3493 38.1225 91.1093 39.2925C91.0793 39.5325 90.9893 39.7425 90.8693 39.9525C90.8093 40.0425 90.7493 40.1325 90.6893 40.2225C90.6893 40.2525 90.5993 40.2825 90.5993 40.3125C90.5993 40.2225 91.2293 40.1625 91.0793 40.1025C90.8693 40.0125 90.6893 40.0125 90.5093 39.8025C90.3593 39.6225 90.2393 39.4125 90.1793 39.1725C90.1193 38.9325 90.1193 38.6925 90.1793 38.4825C90.2093 38.3625 90.2693 38.2725 90.3293 38.1825C90.3593 38.1225 90.4193 38.0925 90.4493 38.0325C90.5993 37.8225 90.5693 38.1825 90.2993 38.0625C90.4193 38.0625 90.5093 38.0625 90.6293 38.0325C90.7793 38.0325 90.8993 38.0625 91.0493 38.0925C91.3493 38.1825 91.6493 38.3025 91.9193 38.5125C92.9693 39.2925 93.5393 40.6725 93.8693 41.8725C94.6793 44.7225 94.1693 47.7825 92.4893 50.2125C92.3693 50.3925 93.0293 50.2125 93.0593 50.2125C93.3593 50.1225 93.6593 49.9725 93.8693 49.7325C95.6393 47.1525 96.1193 43.8825 95.1293 40.8825C94.6793 39.5625 93.8693 37.8525 92.3993 37.4325C91.6493 37.2525 90.8393 37.3725 90.1493 37.7025C89.5493 37.9725 88.8893 38.3925 88.7693 39.0825C88.6793 39.6225 88.8893 40.1625 89.3393 40.4925C89.9393 40.8825 90.7793 40.5525 91.3493 40.2825C92.5793 39.6225 92.6693 38.2425 92.4593 36.9825C91.9793 34.0725 90.4193 31.1025 87.7193 29.6625C84.8993 28.1625 80.9093 28.7325 78.7193 31.1025C78.5093 31.3425 78.9593 31.2525 79.0493 31.2225C79.3793 31.1625 79.7093 31.0125 79.9793 30.7725L80.0093 30.8025Z" fill="#2B0E30"/>
</svg>
