<svg width="39" height="39" viewBox="0 0 39 39" fill="none" xmlns="http://www.w3.org/2000/svg">
<rect x="0.297852" y="0.501953" width="38.4043" height="38.4043" rx="19.2021" fill="#2B0E30"/>
<path d="M27.6442 15.5248C27.657 15.7049 27.657 15.8858 27.657 16.0676C27.657 21.6208 23.4291 28.0241 15.7005 28.0241V28.0215C13.4169 28.0247 11.1807 27.3705 9.25879 26.1372C10.359 26.2697 11.4745 26.1841 12.5416 25.8853C13.6087 25.5864 14.6064 25.0801 15.4777 24.3953C14.6008 24.3787 13.7509 24.0885 13.0471 23.5651C12.3432 23.0418 11.8204 22.3116 11.5519 21.4766C12.1815 21.598 12.8305 21.5735 13.4491 21.4049C12.4982 21.2127 11.643 20.6975 11.0286 19.9467C10.4142 19.1958 10.0783 18.2556 10.0781 17.2854V17.2325C10.6625 17.5582 11.3167 17.7385 11.9855 17.7582C11.0958 17.1641 10.4659 16.2533 10.2241 15.2111C9.98231 14.169 10.1468 13.0738 10.684 12.1486C11.7394 13.4468 13.056 14.5086 14.5483 15.2649C16.0406 16.0212 17.6753 16.4552 19.3463 16.5387C19.1382 15.6382 19.2324 14.6942 19.6144 13.8525C19.9965 13.0109 20.6451 12.3186 21.46 11.8825C22.2749 11.4464 23.2107 11.2908 24.1229 11.4398C25.0351 11.5888 25.8728 12.034 26.5066 12.7068C27.4481 12.5211 28.3509 12.1759 29.1761 11.6861C28.8624 12.6594 28.2058 13.4856 27.3284 14.0108C28.1612 13.9122 28.9744 13.6893 29.7411 13.3494C29.1768 14.1933 28.4667 14.9299 27.6442 15.5248Z" fill="white"/>
</svg>
